<svg id="Layer_1" data-name="Layer 1" xmlns="http://www.w3.org/2000/svg" xmlns:xlink="http://www.w3.org/1999/xlink" viewBox="0 0 205.85 488.34"><defs><style>.cls-1{fill:url(#radial-gradient);}.cls-2{fill:url(#radial-gradient-2);}.cls-3{fill:url(#radial-gradient-3);}.cls-4{fill:url(#radial-gradient-4);}.cls-5{fill:url(#radial-gradient-5);}.cls-6{fill:url(#radial-gradient-6);}.cls-7{fill:url(#radial-gradient-7);}.cls-8{fill:url(#radial-gradient-8);}.cls-9{fill:url(#radial-gradient-9);}.cls-10{fill:url(#radial-gradient-10);}.cls-11{fill:url(#radial-gradient-11);}.cls-12{fill:url(#radial-gradient-12);}.cls-13{fill:url(#radial-gradient-13);}.cls-14{fill:url(#radial-gradient-14);}.cls-15{fill:url(#radial-gradient-15);}.cls-16{fill:url(#radial-gradient-16);}.cls-17{fill:url(#radial-gradient-17);}.cls-18{fill:url(#radial-gradient-18);}.cls-19{fill:url(#radial-gradient-19);}.cls-20{fill:url(#radial-gradient-20);}.cls-21{fill:url(#radial-gradient-21);}.cls-22{fill:url(#radial-gradient-22);}.cls-23{fill:url(#radial-gradient-23);}.cls-24{fill:url(#radial-gradient-24);}.cls-25{fill:url(#radial-gradient-25);}.cls-26{fill:url(#radial-gradient-26);}.cls-27{fill:url(#radial-gradient-27);}.cls-28{fill:url(#radial-gradient-28);}.cls-29{fill:url(#radial-gradient-29);}.cls-30{fill:url(#radial-gradient-30);}.cls-31{fill:url(#radial-gradient-31);}.cls-32{fill:url(#radial-gradient-32);}.cls-33{fill:url(#radial-gradient-33);}.cls-34{fill:url(#radial-gradient-34);}.cls-35{fill:url(#radial-gradient-35);}.cls-36{fill:url(#radial-gradient-36);}.cls-37{fill:url(#radial-gradient-37);}.cls-38{fill:url(#radial-gradient-38);}.cls-39{fill:url(#radial-gradient-39);}.cls-40{fill:url(#radial-gradient-40);}.cls-41{fill:url(#radial-gradient-41);}.cls-42{fill:url(#radial-gradient-42);}.cls-43{fill:url(#radial-gradient-43);}.cls-44{fill:url(#radial-gradient-44);}.cls-45{fill:url(#radial-gradient-45);}.cls-46{fill:url(#radial-gradient-46);}.cls-47{fill:url(#radial-gradient-47);}.cls-48{fill:url(#radial-gradient-48);}.cls-49{fill:url(#radial-gradient-49);}.cls-50{fill:url(#radial-gradient-50);}.cls-51{fill:url(#radial-gradient-51);}.cls-52{fill:url(#radial-gradient-52);}.cls-53{fill:url(#radial-gradient-53);}.cls-54{fill:url(#radial-gradient-54);}.cls-55{fill:url(#radial-gradient-55);}.cls-56{fill:url(#radial-gradient-56);}.cls-57{fill:url(#radial-gradient-57);}.cls-58{fill:url(#radial-gradient-58);}.cls-59{fill:url(#radial-gradient-59);}.cls-60{fill:url(#radial-gradient-60);}.cls-61{fill:url(#radial-gradient-61);}.cls-62{fill:url(#radial-gradient-62);}.cls-63{fill:url(#radial-gradient-63);}.cls-64{fill:url(#radial-gradient-64);}.cls-65{fill:url(#radial-gradient-65);}.cls-66{fill:url(#radial-gradient-66);}.cls-67{fill:url(#radial-gradient-67);}.cls-68{fill:url(#radial-gradient-68);}.cls-69{fill:url(#radial-gradient-69);}.cls-70{fill:url(#radial-gradient-70);}.cls-71{fill:url(#radial-gradient-71);}.cls-72{fill:url(#radial-gradient-72);}.cls-73{fill:url(#radial-gradient-73);}.cls-74{fill:url(#radial-gradient-74);}.cls-75{fill:url(#radial-gradient-75);}.cls-76{fill:url(#radial-gradient-76);}.cls-77{fill:url(#radial-gradient-77);}.cls-78{fill:url(#radial-gradient-78);}.cls-79{fill:url(#radial-gradient-79);}.cls-80{fill:url(#radial-gradient-80);}.cls-81{fill:url(#radial-gradient-81);}.cls-82{fill:url(#radial-gradient-82);}.cls-83{fill:url(#radial-gradient-83);}.cls-84{fill:url(#radial-gradient-84);}.cls-85{fill:url(#radial-gradient-85);}.cls-86{fill:url(#radial-gradient-86);}.cls-87{fill:url(#radial-gradient-87);}.cls-88{fill:url(#radial-gradient-88);}.cls-89{fill:url(#radial-gradient-89);}.cls-90{fill:url(#radial-gradient-90);}.cls-91{fill:url(#radial-gradient-91);}.cls-92{fill:url(#radial-gradient-92);}.cls-93{fill:url(#radial-gradient-93);}.cls-94{fill:url(#radial-gradient-94);}.cls-95{fill:url(#radial-gradient-95);}.cls-96{fill:url(#radial-gradient-96);}.cls-97{fill:url(#radial-gradient-97);}.cls-98{fill:url(#radial-gradient-98);}.cls-99{fill:url(#radial-gradient-99);}.cls-100{fill:url(#radial-gradient-100);}.cls-101{fill:url(#radial-gradient-101);}.cls-102{fill:url(#radial-gradient-102);}.cls-103{fill:url(#radial-gradient-103);}.cls-104{fill:url(#radial-gradient-104);}.cls-105{fill:url(#radial-gradient-105);}.cls-106{fill:url(#radial-gradient-106);}.cls-107{fill:url(#radial-gradient-107);}.cls-108{fill:url(#radial-gradient-108);}.cls-109{fill:url(#radial-gradient-109);}.cls-110{fill:url(#radial-gradient-110);}.cls-111{fill:url(#radial-gradient-111);}.cls-112{fill:url(#radial-gradient-112);}.cls-113{fill:url(#radial-gradient-113);}.cls-114{fill:url(#radial-gradient-114);}.cls-115{fill:url(#radial-gradient-115);}.cls-116{fill:url(#radial-gradient-116);}.cls-117{fill:url(#radial-gradient-117);}.cls-118{fill:url(#radial-gradient-118);}.cls-119{fill:url(#radial-gradient-120);}.cls-120{fill:url(#radial-gradient-121);}.cls-121{fill:url(#radial-gradient-122);}.cls-122{fill:url(#radial-gradient-123);}.cls-123{fill:url(#radial-gradient-124);}.cls-124{fill:url(#radial-gradient-125);}.cls-125{fill:url(#radial-gradient-126);}.cls-126{fill:url(#radial-gradient-127);}.cls-127{fill:url(#radial-gradient-128);}.cls-128{fill:url(#radial-gradient-129);}.cls-129{fill:url(#radial-gradient-130);}.cls-130{fill:url(#radial-gradient-131);}.cls-131{fill:url(#radial-gradient-132);}.cls-132{fill:url(#radial-gradient-133);}.cls-133{fill:url(#radial-gradient-134);}.cls-134{fill:url(#radial-gradient-135);}.cls-135{fill:url(#radial-gradient-136);}.cls-136{fill:url(#radial-gradient-137);}.cls-137{fill:url(#radial-gradient-138);}.cls-138{fill:url(#radial-gradient-139);}.cls-139{fill:url(#radial-gradient-140);}.cls-140{fill:url(#radial-gradient-141);}.cls-141{fill:url(#radial-gradient-142);}.cls-142{fill:url(#radial-gradient-143);}.cls-143{fill:url(#radial-gradient-144);}.cls-144{fill:url(#radial-gradient-145);}.cls-145{fill:url(#radial-gradient-146);}.cls-146{fill:url(#radial-gradient-147);}.cls-147{fill:url(#radial-gradient-148);}.cls-148{fill:url(#radial-gradient-149);}.cls-149{fill:url(#radial-gradient-150);}.cls-150{fill:url(#radial-gradient-151);}.cls-151{fill:url(#radial-gradient-152);}.cls-152{fill:url(#radial-gradient-153);}.cls-153{fill:url(#radial-gradient-154);}.cls-154{fill:url(#radial-gradient-155);}.cls-155{fill:url(#radial-gradient-156);}.cls-156{fill:url(#radial-gradient-157);}.cls-157{fill:url(#radial-gradient-158);}.cls-158{fill:url(#radial-gradient-159);}.cls-159{fill:url(#radial-gradient-160);}.cls-160{fill:url(#radial-gradient-161);}.cls-161{fill:url(#radial-gradient-162);}.cls-162{fill:url(#radial-gradient-163);}.cls-163{fill:url(#radial-gradient-164);}</style><radialGradient id="radial-gradient" cx="65.52" cy="5.43" r="432.53" gradientUnits="userSpaceOnUse"><stop offset="0" stop-color="#fff"/><stop offset="1" stop-color="#3d7cc9"/></radialGradient><radialGradient id="radial-gradient-2" cx="65.52" cy="5.45" r="432.51" xlink:href="#radial-gradient"/><radialGradient id="radial-gradient-3" cx="74.53" cy="10.34" r="432.53" xlink:href="#radial-gradient"/><radialGradient id="radial-gradient-4" cx="74.53" cy="10.32" r="432.55" xlink:href="#radial-gradient"/><radialGradient id="radial-gradient-5" cx="74.53" cy="10.32" r="432.55" xlink:href="#radial-gradient"/><radialGradient id="radial-gradient-6" cx="74.53" cy="10.35" r="432.52" xlink:href="#radial-gradient"/><radialGradient id="radial-gradient-7" cx="74.53" cy="10.32" r="432.55" xlink:href="#radial-gradient"/><radialGradient id="radial-gradient-8" cx="65.52" cy="5.43" r="432.54" xlink:href="#radial-gradient"/><radialGradient id="radial-gradient-9" cx="65.52" cy="5.43" r="432.53" xlink:href="#radial-gradient"/><radialGradient id="radial-gradient-10" cx="65.52" cy="5.43" r="432.54" xlink:href="#radial-gradient"/><radialGradient id="radial-gradient-11" cx="65.52" cy="5.43" r="432.53" xlink:href="#radial-gradient"/><radialGradient id="radial-gradient-12" cx="65.52" cy="5.43" r="432.53" xlink:href="#radial-gradient"/><radialGradient id="radial-gradient-13" cx="65.52" cy="5.43" r="432.53" xlink:href="#radial-gradient"/><radialGradient id="radial-gradient-14" cx="65.52" cy="5.43" r="432.53" xlink:href="#radial-gradient"/><radialGradient id="radial-gradient-15" cx="65.52" cy="5.43" r="432.53" xlink:href="#radial-gradient"/><radialGradient id="radial-gradient-16" cx="65.52" cy="5.43" r="432.53" xlink:href="#radial-gradient"/><radialGradient id="radial-gradient-17" cx="65.52" cy="5.43" r="432.53" xlink:href="#radial-gradient"/><radialGradient id="radial-gradient-18" cx="65.52" cy="5.43" r="432.54" xlink:href="#radial-gradient"/><radialGradient id="radial-gradient-19" cx="65.52" cy="5.43" r="432.53" xlink:href="#radial-gradient"/><radialGradient id="radial-gradient-20" cx="65.52" cy="5.43" r="432.54" xlink:href="#radial-gradient"/><radialGradient id="radial-gradient-21" cx="65.52" cy="5.43" r="432.53" xlink:href="#radial-gradient"/><radialGradient id="radial-gradient-22" cx="65.52" cy="5.43" r="432.54" xlink:href="#radial-gradient"/><radialGradient id="radial-gradient-23" cx="65.51" cy="5.41" r="432.56" xlink:href="#radial-gradient"/><radialGradient id="radial-gradient-24" cx="65.51" cy="5.42" r="432.54" xlink:href="#radial-gradient"/><radialGradient id="radial-gradient-25" cx="65.52" cy="5.44" r="432.52" xlink:href="#radial-gradient"/><radialGradient id="radial-gradient-26" cx="65.52" cy="5.46" r="432.51" xlink:href="#radial-gradient"/><radialGradient id="radial-gradient-27" cx="65.52" cy="5.43" r="432.53" xlink:href="#radial-gradient"/><radialGradient id="radial-gradient-28" cx="65.52" cy="5.44" r="432.53" xlink:href="#radial-gradient"/><radialGradient id="radial-gradient-29" cx="65.52" cy="5.43" r="432.54" xlink:href="#radial-gradient"/><radialGradient id="radial-gradient-30" cx="65.52" cy="5.44" r="432.53" xlink:href="#radial-gradient"/><radialGradient id="radial-gradient-31" cx="65.52" cy="5.43" r="432.54" xlink:href="#radial-gradient"/><radialGradient id="radial-gradient-32" cx="65.52" cy="5.43" r="432.53" xlink:href="#radial-gradient"/><radialGradient id="radial-gradient-33" cx="65.52" cy="5.43" r="432.53" xlink:href="#radial-gradient"/><radialGradient id="radial-gradient-34" cx="65.51" cy="5.42" r="432.54" xlink:href="#radial-gradient"/><radialGradient id="radial-gradient-35" cx="65.52" cy="5.42" r="432.55" xlink:href="#radial-gradient"/><radialGradient id="radial-gradient-36" cx="65.52" cy="5.43" r="432.54" xlink:href="#radial-gradient"/><radialGradient id="radial-gradient-37" cx="65.52" cy="5.43" r="432.53" xlink:href="#radial-gradient"/><radialGradient id="radial-gradient-38" cx="65.52" cy="5.43" r="432.54" xlink:href="#radial-gradient"/><radialGradient id="radial-gradient-39" cx="65.52" cy="5.43" r="432.53" xlink:href="#radial-gradient"/><radialGradient id="radial-gradient-40" cx="65.52" cy="5.43" r="432.53" xlink:href="#radial-gradient"/><radialGradient id="radial-gradient-41" cx="65.52" cy="5.43" r="432.54" xlink:href="#radial-gradient"/><radialGradient id="radial-gradient-42" cx="65.52" cy="5.43" r="432.54" xlink:href="#radial-gradient"/><radialGradient id="radial-gradient-43" cx="65.52" cy="5.43" r="432.53" xlink:href="#radial-gradient"/><radialGradient id="radial-gradient-44" cx="65.52" cy="5.43" r="432.53" xlink:href="#radial-gradient"/><radialGradient id="radial-gradient-45" cx="65.52" cy="5.43" r="432.54" xlink:href="#radial-gradient"/><radialGradient id="radial-gradient-46" cx="65.52" cy="5.42" r="432.54" xlink:href="#radial-gradient"/><radialGradient id="radial-gradient-47" cx="65.52" cy="5.43" r="432.53" xlink:href="#radial-gradient"/><radialGradient id="radial-gradient-48" cx="65.51" cy="5.44" r="432.53" xlink:href="#radial-gradient"/><radialGradient id="radial-gradient-49" cx="65.52" cy="5.43" r="432.54" xlink:href="#radial-gradient"/><radialGradient id="radial-gradient-50" cx="65.52" cy="5.43" r="432.54" xlink:href="#radial-gradient"/><radialGradient id="radial-gradient-51" cx="65.52" cy="5.43" r="432.53" xlink:href="#radial-gradient"/><radialGradient id="radial-gradient-52" cx="65.52" cy="5.43" r="432.54" xlink:href="#radial-gradient"/><radialGradient id="radial-gradient-53" cx="65.52" cy="5.43" r="432.53" xlink:href="#radial-gradient"/><radialGradient id="radial-gradient-54" cx="65.53" cy="5.43" r="432.53" xlink:href="#radial-gradient"/><radialGradient id="radial-gradient-55" cx="65.52" cy="5.41" r="432.56" xlink:href="#radial-gradient"/><radialGradient id="radial-gradient-56" cx="65.52" cy="5.43" r="432.54" xlink:href="#radial-gradient"/><radialGradient id="radial-gradient-57" cx="65.52" cy="5.42" r="432.55" xlink:href="#radial-gradient"/><radialGradient id="radial-gradient-58" cx="65.51" cy="5.41" r="432.56" xlink:href="#radial-gradient"/><radialGradient id="radial-gradient-59" cx="65.52" cy="5.43" r="432.53" xlink:href="#radial-gradient"/><radialGradient id="radial-gradient-60" cx="65.52" cy="5.43" r="432.54" xlink:href="#radial-gradient"/><radialGradient id="radial-gradient-61" cx="74.53" cy="10.34" r="432.53" xlink:href="#radial-gradient"/><radialGradient id="radial-gradient-62" cx="74.53" cy="10.33" r="432.54" xlink:href="#radial-gradient"/><radialGradient id="radial-gradient-63" cx="74.53" cy="10.33" r="432.54" xlink:href="#radial-gradient"/><radialGradient id="radial-gradient-64" cx="74.53" cy="10.34" r="432.54" xlink:href="#radial-gradient"/><radialGradient id="radial-gradient-65" cx="74.53" cy="10.34" r="432.53" xlink:href="#radial-gradient"/><radialGradient id="radial-gradient-66" cx="74.53" cy="10.34" r="432.54" xlink:href="#radial-gradient"/><radialGradient id="radial-gradient-67" cx="74.53" cy="10.34" r="432.53" xlink:href="#radial-gradient"/><radialGradient id="radial-gradient-68" cx="74.53" cy="10.33" r="432.54" xlink:href="#radial-gradient"/><radialGradient id="radial-gradient-69" cx="74.53" cy="10.34" r="432.54" xlink:href="#radial-gradient"/><radialGradient id="radial-gradient-70" cx="74.53" cy="10.34" r="432.54" xlink:href="#radial-gradient"/><radialGradient id="radial-gradient-71" cx="74.53" cy="10.34" r="432.54" xlink:href="#radial-gradient"/><radialGradient id="radial-gradient-72" cx="74.53" cy="10.34" r="432.53" xlink:href="#radial-gradient"/><radialGradient id="radial-gradient-73" cx="74.53" cy="10.33" r="432.54" xlink:href="#radial-gradient"/><radialGradient id="radial-gradient-74" cx="74.53" cy="10.33" r="432.54" xlink:href="#radial-gradient"/><radialGradient id="radial-gradient-75" cx="74.53" cy="10.34" r="432.53" xlink:href="#radial-gradient"/><radialGradient id="radial-gradient-76" cx="74.53" cy="10.35" r="432.52" xlink:href="#radial-gradient"/><radialGradient id="radial-gradient-77" cx="74.53" cy="10.34" r="432.53" xlink:href="#radial-gradient"/><radialGradient id="radial-gradient-78" cx="74.53" cy="10.34" r="432.54" xlink:href="#radial-gradient"/><radialGradient id="radial-gradient-79" cx="74.53" cy="10.33" r="432.54" xlink:href="#radial-gradient"/><radialGradient id="radial-gradient-80" cx="74.53" cy="10.33" r="432.54" xlink:href="#radial-gradient"/><radialGradient id="radial-gradient-81" cx="74.53" cy="10.34" r="432.53" xlink:href="#radial-gradient"/><radialGradient id="radial-gradient-82" cx="74.53" cy="10.33" r="432.54" xlink:href="#radial-gradient"/><radialGradient id="radial-gradient-83" cx="74.54" cy="10.36" r="432.51" xlink:href="#radial-gradient"/><radialGradient id="radial-gradient-84" cx="74.54" cy="10.34" r="432.53" xlink:href="#radial-gradient"/><radialGradient id="radial-gradient-85" cx="74.53" cy="10.35" r="432.52" xlink:href="#radial-gradient"/><radialGradient id="radial-gradient-86" cx="74.53" cy="10.33" r="432.54" xlink:href="#radial-gradient"/><radialGradient id="radial-gradient-87" cx="74.53" cy="10.34" r="432.53" xlink:href="#radial-gradient"/><radialGradient id="radial-gradient-88" cx="74.53" cy="10.33" r="432.54" xlink:href="#radial-gradient"/><radialGradient id="radial-gradient-89" cx="74.53" cy="10.34" r="432.53" xlink:href="#radial-gradient"/><radialGradient id="radial-gradient-90" cx="74.53" cy="10.32" r="432.55" xlink:href="#radial-gradient"/><radialGradient id="radial-gradient-91" cx="74.54" cy="10.33" r="432.54" xlink:href="#radial-gradient"/><radialGradient id="radial-gradient-92" cx="74.53" cy="10.35" r="432.51" xlink:href="#radial-gradient"/><radialGradient id="radial-gradient-93" cx="74.53" cy="10.34" r="432.54" xlink:href="#radial-gradient"/><radialGradient id="radial-gradient-94" cx="74.53" cy="10.33" r="432.54" xlink:href="#radial-gradient"/><radialGradient id="radial-gradient-95" cx="74.53" cy="10.32" r="432.55" xlink:href="#radial-gradient"/><radialGradient id="radial-gradient-96" cx="74.53" cy="10.33" r="432.54" xlink:href="#radial-gradient"/><radialGradient id="radial-gradient-97" cx="74.53" cy="10.35" r="432.52" xlink:href="#radial-gradient"/><radialGradient id="radial-gradient-98" cx="74.53" cy="10.36" r="432.51" xlink:href="#radial-gradient"/><radialGradient id="radial-gradient-99" cx="74.53" cy="10.34" r="432.53" xlink:href="#radial-gradient"/><radialGradient id="radial-gradient-100" cx="74.53" cy="10.34" r="432.53" xlink:href="#radial-gradient"/><radialGradient id="radial-gradient-101" cx="74.53" cy="10.34" r="432.53" xlink:href="#radial-gradient"/><radialGradient id="radial-gradient-102" cx="74.53" cy="10.33" r="432.54" xlink:href="#radial-gradient"/><radialGradient id="radial-gradient-103" cx="74.53" cy="10.35" r="432.52" xlink:href="#radial-gradient"/><radialGradient id="radial-gradient-104" cx="74.53" cy="10.33" r="432.54" xlink:href="#radial-gradient"/><radialGradient id="radial-gradient-105" cx="74.54" cy="10.34" r="432.53" xlink:href="#radial-gradient"/><radialGradient id="radial-gradient-106" cx="65.52" cy="5.43" r="432.53" xlink:href="#radial-gradient"/><radialGradient id="radial-gradient-107" cx="65.52" cy="5.43" r="432.54" xlink:href="#radial-gradient"/><radialGradient id="radial-gradient-108" cx="65.52" cy="5.43" r="432.53" xlink:href="#radial-gradient"/><radialGradient id="radial-gradient-109" cx="65.52" cy="5.43" r="432.54" xlink:href="#radial-gradient"/><radialGradient id="radial-gradient-110" cx="65.52" cy="5.43" r="432.53" xlink:href="#radial-gradient"/><radialGradient id="radial-gradient-111" cx="65.52" cy="5.43" r="432.53" xlink:href="#radial-gradient"/><radialGradient id="radial-gradient-112" cx="65.52" cy="5.43" r="432.54" xlink:href="#radial-gradient"/><radialGradient id="radial-gradient-113" cx="65.52" cy="5.43" r="432.53" xlink:href="#radial-gradient"/><radialGradient id="radial-gradient-114" cx="65.52" cy="5.43" r="432.53" xlink:href="#radial-gradient"/><radialGradient id="radial-gradient-115" cx="65.52" cy="5.43" r="432.53" xlink:href="#radial-gradient"/><radialGradient id="radial-gradient-116" cx="65.52" cy="5.43" r="432.53" xlink:href="#radial-gradient"/><radialGradient id="radial-gradient-117" cx="65.52" cy="5.43" r="432.54" xlink:href="#radial-gradient"/><radialGradient id="radial-gradient-118" cx="65.52" cy="5.43" r="432.53" xlink:href="#radial-gradient"/><radialGradient id="radial-gradient-120" cx="65.52" cy="5.43" r="432.54" xlink:href="#radial-gradient"/><radialGradient id="radial-gradient-121" cx="65.52" cy="5.43" r="432.53" xlink:href="#radial-gradient"/><radialGradient id="radial-gradient-122" cx="65.52" cy="5.43" r="432.54" xlink:href="#radial-gradient"/><radialGradient id="radial-gradient-123" cx="65.52" cy="5.44" r="432.52" xlink:href="#radial-gradient"/><radialGradient id="radial-gradient-124" cx="65.52" cy="5.43" r="432.54" xlink:href="#radial-gradient"/><radialGradient id="radial-gradient-125" cx="65.52" cy="5.43" r="432.54" xlink:href="#radial-gradient"/><radialGradient id="radial-gradient-126" cx="65.52" cy="5.43" r="432.54" xlink:href="#radial-gradient"/><radialGradient id="radial-gradient-127" cx="65.52" cy="5.43" r="432.54" xlink:href="#radial-gradient"/><radialGradient id="radial-gradient-128" cx="65.52" cy="5.43" r="432.53" xlink:href="#radial-gradient"/><radialGradient id="radial-gradient-129" cx="65.52" cy="5.43" r="432.54" xlink:href="#radial-gradient"/><radialGradient id="radial-gradient-130" cx="65.52" cy="5.43" r="432.53" xlink:href="#radial-gradient"/><radialGradient id="radial-gradient-131" cx="74.53" cy="10.34" r="432.53" xlink:href="#radial-gradient"/><radialGradient id="radial-gradient-132" cx="74.53" cy="10.34" r="432.54" xlink:href="#radial-gradient"/><radialGradient id="radial-gradient-133" cx="74.53" cy="10.34" r="432.54" xlink:href="#radial-gradient"/><radialGradient id="radial-gradient-134" cx="74.53" cy="10.34" r="432.53" xlink:href="#radial-gradient"/><radialGradient id="radial-gradient-135" cx="74.53" cy="10.34" r="432.53" xlink:href="#radial-gradient"/><radialGradient id="radial-gradient-136" cx="74.53" cy="10.34" r="432.53" xlink:href="#radial-gradient"/><radialGradient id="radial-gradient-137" cx="74.53" cy="10.34" r="432.53" xlink:href="#radial-gradient"/><radialGradient id="radial-gradient-138" cx="74.53" cy="10.34" r="432.53" xlink:href="#radial-gradient"/><radialGradient id="radial-gradient-139" cx="74.53" cy="10.34" r="432.54" xlink:href="#radial-gradient"/><radialGradient id="radial-gradient-140" cx="74.53" cy="10.34" r="432.54" xlink:href="#radial-gradient"/><radialGradient id="radial-gradient-141" cx="74.53" cy="10.34" r="432.53" xlink:href="#radial-gradient"/><radialGradient id="radial-gradient-142" cx="74.53" cy="10.34" r="432.54" xlink:href="#radial-gradient"/><radialGradient id="radial-gradient-143" cx="74.53" cy="10.34" r="432.53" xlink:href="#radial-gradient"/><radialGradient id="radial-gradient-144" cx="74.53" cy="10.34" r="432.53" xlink:href="#radial-gradient"/><radialGradient id="radial-gradient-145" cx="74.53" cy="10.34" r="432.53" xlink:href="#radial-gradient"/><radialGradient id="radial-gradient-146" cx="74.53" cy="10.34" r="432.53" xlink:href="#radial-gradient"/><radialGradient id="radial-gradient-147" cx="74.53" cy="10.34" r="432.55" xlink:href="#radial-gradient"/><radialGradient id="radial-gradient-148" cx="74.53" cy="10.34" r="432.54" xlink:href="#radial-gradient"/><radialGradient id="radial-gradient-149" cx="74.53" cy="10.34" r="432.53" xlink:href="#radial-gradient"/><radialGradient id="radial-gradient-150" cx="74.53" cy="10.34" r="432.54" xlink:href="#radial-gradient"/><radialGradient id="radial-gradient-151" cx="74.53" cy="10.34" r="432.53" xlink:href="#radial-gradient"/><radialGradient id="radial-gradient-152" cx="74.53" cy="10.34" r="432.53" xlink:href="#radial-gradient"/><radialGradient id="radial-gradient-153" cx="74.54" cy="10.34" r="432.53" xlink:href="#radial-gradient"/><radialGradient id="radial-gradient-154" cx="74.53" cy="10.34" r="432.53" xlink:href="#radial-gradient"/><radialGradient id="radial-gradient-155" cx="74.53" cy="10.34" r="432.54" xlink:href="#radial-gradient"/><radialGradient id="radial-gradient-156" cx="74.53" cy="10.34" r="432.54" xlink:href="#radial-gradient"/><radialGradient id="radial-gradient-157" cx="74.53" cy="10.34" r="432.53" xlink:href="#radial-gradient"/><radialGradient id="radial-gradient-158" cx="74.53" cy="10.34" r="432.54" xlink:href="#radial-gradient"/><radialGradient id="radial-gradient-159" cx="74.53" cy="10.34" r="432.54" xlink:href="#radial-gradient"/><radialGradient id="radial-gradient-160" cx="74.53" cy="10.34" r="432.53" xlink:href="#radial-gradient"/><radialGradient id="radial-gradient-161" cx="74.53" cy="10.34" r="432.53" xlink:href="#radial-gradient"/><radialGradient id="radial-gradient-162" cx="74.53" cy="10.34" r="432.53" xlink:href="#radial-gradient"/><radialGradient id="radial-gradient-163" cx="74.53" cy="10.34" r="432.54" xlink:href="#radial-gradient"/><radialGradient id="radial-gradient-164" cx="74.53" cy="10.34" r="432.53" xlink:href="#radial-gradient"/></defs><title>bg-dna-01</title><polygon class="cls-1" points="14.78 431.02 23.66 433.71 23.72 434.12 16.11 436.21 14.78 431.02"/><polygon class="cls-2" points="14.74 431.47 23.57 434.07 23.72 434.12 16.01 436.58 14.74 431.47"/><path class="cls-3" d="M133.35,438.86a5.32,5.32,0,1,1-3.95-6.27A5.23,5.23,0,0,1,133.35,438.86Z" transform="translate(-9.02 -4.91)"/><path class="cls-4" d="M25.8,440.83a5.32,5.32,0,0,1-10.34-2.52,5.32,5.32,0,0,1,10.34,2.52Z" transform="translate(-9.02 -4.91)"/><path class="cls-5" d="M129.57,424.75a3.42,3.42,0,1,1-2.55-4A3.37,3.37,0,0,1,129.57,424.75Z" transform="translate(-9.02 -4.91)"/><path class="cls-6" d="M15.76,420.77a3.42,3.42,0,0,1-6.65-1.62,3.42,3.42,0,0,1,6.65,1.62Z" transform="translate(-9.02 -4.91)"/><path class="cls-7" d="M126.81,414a1.68,1.68,0,1,1-.36-2.31A1.65,1.65,0,0,1,126.81,414Z" transform="translate(-9.02 -4.91)"/><polygon class="cls-8" points="84.78 209.94 104.92 192.21 105.48 192.48 86.75 211.78 84.78 209.94"/><polygon class="cls-9" points="84.58 209.6 104.72 191.87 105.17 192.21 86.55 211.44 84.58 209.6"/><polygon class="cls-10" points="80.3 232.82 114.5 194.43 115.04 194.7 82.17 234.37 80.3 232.82"/><polygon class="cls-11" points="80.13 232.68 113.98 194.51 114.52 194.79 81.89 234.13 80.13 232.68"/><polygon class="cls-12" points="123.43 199.44 87.29 247.69 88.05 248.32 125.12 200.36 123.43 199.44"/><polygon class="cls-13" points="123.22 199.1 87.08 247.35 87.83 247.99 124.77 200.15 123.22 199.1"/><polygon class="cls-14" points="132.96 210.86 100.32 258.61 101.08 259.24 134.92 212.26 132.96 210.86"/><polygon class="cls-15" points="132.68 210.62 100.04 258.37 100.8 259 134.53 212.09 132.68 210.62"/><polygon class="cls-16" points="139.13 228.02 111.78 264.11 112.23 264.28 141.04 229.81 139.13 228.02"/><polygon class="cls-17" points="139.26 228.31 112.14 264.25 112.48 264.49 141.4 229.95 139.26 228.31"/><polygon class="cls-18" points="137.93 252.03 123.77 267.91 124.22 268.08 140.08 253.68 137.93 252.03"/><polygon class="cls-19" points="140.13 290.29 156.06 277.1 156.38 277.46 141.98 292.31 140.13 290.29"/><polygon class="cls-20" points="140.45 290.54 156.33 277.39 156.7 277.71 142.19 292.63 140.45 290.54"/><polygon class="cls-21" points="134.7 309.28 165.88 280.17 166.24 280.46 136.49 311.4 134.7 309.28"/><polygon class="cls-22" points="134.85 309.51 165.97 280.37 166.45 280.59 136.58 311.61 134.85 309.51"/><polygon class="cls-23" points="152.56 364.36 185.09 365.8 185.17 366.2 153.03 367.79 152.56 364.36"/><polygon class="cls-24" points="152.54 364.6 185.04 366 185.24 366.41 152.98 367.98 152.54 364.6"/><polygon class="cls-25" points="137.64 372.05 180.8 376.43 180.76 376.84 137.08 375.46 137.64 372.05"/><polygon class="cls-26" points="137.54 372.28 180.7 376.61 180.76 377.05 136.97 375.64 137.54 372.28"/><polygon class="cls-27" points="178.1 391.85 125.12 382.19 125.23 381.8 178.25 389.13 178.1 391.85"/><polygon class="cls-28" points="178.22 391.64 125.25 382.03 125.26 381.58 178.38 388.97 178.22 391.64"/><polygon class="cls-29" points="169.15 404.65 118.14 390.91 118.26 390.55 169.73 401.12 169.15 404.65"/><polygon class="cls-30" points="169.28 404.46 118.27 390.77 118.31 390.35 169.87 400.98 169.28 404.46"/><polygon class="cls-31" points="155.94 415.76 115.44 400.12 115.56 399.76 159.27 411.12 155.94 415.76"/><polygon class="cls-32" points="156.07 415.58 115.57 399.98 115.61 399.56 159.4 410.98 156.07 415.58"/><polygon class="cls-33" points="132.09 425.14 117.36 409.45 117.62 409.17 137.51 420.33 132.09 425.14"/><polygon class="cls-34" points="132.29 425.01 117.54 409.38 117.73 409.01 137.68 420.25 132.29 425.01"/><polygon class="cls-35" points="97.33 436.06 114.53 433.96 114.62 434.33 98.7 441.13 97.33 436.06"/><polygon class="cls-36" points="97.32 436.29 114.5 434.14 114.69 434.52 98.66 441.32 97.32 436.29"/><polygon class="cls-37" points="103.88 458.85 82.28 434.59 82.63 434.09 106.82 455.44 103.88 458.85"/><polygon class="cls-38" points="104.17 458.64 82.54 434.46 82.79 433.8 107.09 455.31 104.17 458.64"/><polygon class="cls-39" points="86.42 468.81 69.88 425.69 70.54 425.3 90.99 465.99 86.42 468.81"/><polygon class="cls-40" points="86.86 468.71 70.26 425.68 70.87 425.04 91.37 465.98 86.86 468.71"/><polygon class="cls-41" points="60.54 468.73 58.06 418.68 58.47 418.67 65.85 467.87 60.54 468.73"/><polygon class="cls-42" points="60.99 468.81 58.41 418.81 58.47 418.67 66.21 468 60.99 468.81"/><polygon class="cls-43" points="42.41 459.14 49.71 429.33 50.01 429.61 46.8 462.25 42.41 459.14"/><polygon class="cls-44" points="42.67 459.52 49.87 429.67 50.01 429.61 46.96 462.59 42.67 459.52"/><polygon class="cls-45" points="27.65 448.38 40.17 438.95 40.38 439.31 30.86 452.68 27.65 448.38"/><polygon class="cls-46" points="27.78 448.81 40.22 439.32 40.38 439.31 30.91 453.05 27.78 448.81"/><polygon class="cls-47" points="114.61 443.86 117.49 422.27 117.87 422.26 120.44 444.13 114.61 443.86"/><polyline class="cls-48" points="120.61 444.2 114.84 443.92 117.66 422.34 118.07 422.23"/><polygon class="cls-49" points="185.44 297.09 139.09 338.39 138.54 338.06 183.98 295.5 185.44 297.09"/><polygon class="cls-50" points="185.65 297.42 139.3 338.72 138.86 338.31 184.19 295.83 185.65 297.42"/><polygon class="cls-51" points="193.19 312.15 147.5 345.53 147.06 345.12 191.35 309.3 193.19 312.15"/><polygon class="cls-52" points="193.35 312.39 147.65 345.76 147.21 345.36 191.51 309.54 193.35 312.39"/><polygon class="cls-53" points="190.53 332.14 155.23 348.85 154.79 348.44 189.94 327.82 190.53 332.14"/><polygon class="cls-54" points="190.63 332.28 155.32 349 154.89 348.59 189.95 328.34 190.63 332.28"/><polygon class="cls-55" points="181.57 356.14 160.58 352.27 160.58 352.27 181.52 350.26 181.57 356.14"/><polygon class="cls-56" points="181.35 356.82 161.01 352.68 160.58 352.27 181 350.87 181.35 356.82"/><polygon class="cls-57" points="165.95 361.92 167.75 358.22 167.75 358.22 168.93 360.13 165.95 361.92"/><polygon class="cls-58" points="165.54 361.83 167.2 358.45 167.75 358.22 168.44 360.34 165.54 361.83"/><polygon class="cls-59" points="132.73 325.08 175.09 284.64 175.97 285.63 134.24 326.83 132.73 325.08"/><polygon class="cls-60" points="133.06 325.38 175.42 284.94 176.3 285.93 134.58 327.13 133.06 325.38"/><path class="cls-61" d="M158.7,268.07a12.47,12.47,0,0,1-1.3,17.64,12.61,12.61,0,0,1-17.72-1.37A12.46,12.46,0,0,1,141,266.7,12.59,12.59,0,0,1,158.7,268.07Z" transform="translate(-9.02 -4.91)"/><path class="cls-62" d="M211.76,351.17a12.47,12.47,0,0,1-1.3,17.64,12.61,12.61,0,0,1-17.72-1.37,12.46,12.46,0,0,1,1.31-17.64A12.59,12.59,0,0,1,211.76,351.17Z" transform="translate(-9.02 -4.91)"/><path class="cls-63" d="M161,427.78a12.47,12.47,0,0,1-1.3,17.64A12.61,12.61,0,0,1,142,444.05a12.47,12.47,0,0,1,1.3-17.64A12.6,12.6,0,0,1,161,427.78Z" transform="translate(-9.02 -4.91)"/><path class="cls-64" d="M162.71,243a10.91,10.91,0,0,1-1.14,15.46,11,11,0,0,1-15.52-1.2,10.91,10.91,0,0,1,1.14-15.46A11,11,0,0,1,162.71,243Z" transform="translate(-9.02 -4.91)"/><path class="cls-65" d="M95.38,214.64a10.94,10.94,0,0,1-1.14,15.47,11.06,11.06,0,0,1-15.53-1.2,11,11,0,1,1,16.67-14.27Z" transform="translate(-9.02 -4.91)"/><path class="cls-66" d="M160.7,222.21a8.33,8.33,0,0,1-.86,11.8,8.4,8.4,0,1,1,.86-11.8Z" transform="translate(-9.02 -4.91)"/><path class="cls-67" d="M91.57,237.22A8.34,8.34,0,0,1,90.7,249a8.4,8.4,0,1,1,.87-11.8Z" transform="translate(-9.02 -4.91)"/><path class="cls-68" d="M150,295.52a8.37,8.37,0,1,1-11.84-.92A8.34,8.34,0,0,1,150,295.52Z" transform="translate(-9.02 -4.91)"/><path class="cls-69" d="M212.83,328.38a8.34,8.34,0,0,1-.87,11.8,8.44,8.44,0,0,1-11.85-.92,8.33,8.33,0,0,1,.87-11.79A8.43,8.43,0,0,1,212.83,328.38Z" transform="translate(-9.02 -4.91)"/><path class="cls-70" d="M150.83,207.8a6.17,6.17,0,1,1-8.73-.67A6.22,6.22,0,0,1,150.83,207.8Z" transform="translate(-9.02 -4.91)"/><path class="cls-71" d="M98.33,251.4a6.16,6.16,0,1,1-8.73-.68A6.15,6.15,0,0,1,98.33,251.4Z" transform="translate(-9.02 -4.91)"/><path class="cls-72" d="M144.93,314.79a6.17,6.17,0,1,1-8.73-.68A6.21,6.21,0,0,1,144.93,314.79Z" transform="translate(-9.02 -4.91)"/><path class="cls-73" d="M210.33,308.23a6.14,6.14,0,0,1-.64,8.7,6.21,6.21,0,0,1-8.73-.68,6.17,6.17,0,1,1,9.37-8Z" transform="translate(-9.02 -4.91)"/><path class="cls-74" d="M139.64,197.56a5.16,5.16,0,1,1-7.3-.57A5.15,5.15,0,0,1,139.64,197.56Z" transform="translate(-9.02 -4.91)"/><path class="cls-75" d="M110.69,262.9a5.13,5.13,0,0,1-.54,7.27,5.17,5.17,0,1,1,.54-7.27Z" transform="translate(-9.02 -4.91)"/><path class="cls-76" d="M143.3,330.52A5.16,5.16,0,1,1,136,330,5.15,5.15,0,0,1,143.3,330.52Z" transform="translate(-9.02 -4.91)"/><path class="cls-77" d="M200.32,294.54A5.15,5.15,0,1,1,193,294,5.14,5.14,0,0,1,200.32,294.54Z" transform="translate(-9.02 -4.91)"/><path class="cls-78" d="M127.9,193.89a4.09,4.09,0,1,1-5.79-.45A4.12,4.12,0,0,1,127.9,193.89Z" transform="translate(-9.02 -4.91)"/><path class="cls-79" d="M122.62,269.28a4.08,4.08,0,0,1-.43,5.77,4.12,4.12,0,0,1-5.78-.45,4.07,4.07,0,0,1,.42-5.76A4.12,4.12,0,0,1,122.62,269.28Z" transform="translate(-9.02 -4.91)"/><path class="cls-80" d="M148.72,343.05a4.08,4.08,0,0,1-.43,5.77,4.12,4.12,0,0,1-5.78-.45,4.07,4.07,0,0,1,.42-5.76A4.12,4.12,0,0,1,148.72,343.05Z" transform="translate(-9.02 -4.91)"/><path class="cls-81" d="M157.16,350a3.32,3.32,0,1,1-4.7-.36A3.35,3.35,0,0,1,157.16,350Z" transform="translate(-9.02 -4.91)"/><path class="cls-82" d="M188.74,286.05a3.29,3.29,0,0,1-.35,4.67,3.33,3.33,0,1,1,.35-4.67Z" transform="translate(-9.02 -4.91)"/><path class="cls-83" d="M164.65,352.7a2.63,2.63,0,0,1-.27,3.73,2.67,2.67,0,0,1-3.75-.29,2.63,2.63,0,0,1,.27-3.73A2.67,2.67,0,0,1,164.65,352.7Z" transform="translate(-9.02 -4.91)"/><path class="cls-84" d="M178.47,282.36a2.63,2.63,0,0,1-.27,3.73,2.67,2.67,0,0,1-3.75-.29,2.63,2.63,0,0,1,.27-3.73A2.67,2.67,0,0,1,178.47,282.36Z" transform="translate(-9.02 -4.91)"/><path class="cls-85" d="M170.15,355.68A1.62,1.62,0,0,1,170,358a1.64,1.64,0,0,1-2.3-.18,1.62,1.62,0,0,1,.17-2.3A1.65,1.65,0,0,1,170.15,355.68Z" transform="translate(-9.02 -4.91)"/><path class="cls-86" d="M164.66,424.76a8.33,8.33,0,0,1,6.18-10.09,8.44,8.44,0,0,1,10.14,6.2A8.32,8.32,0,0,1,174.8,431,8.43,8.43,0,0,1,164.66,424.76Z" transform="translate(-9.02 -4.91)"/><path class="cls-87" d="M178,410a6.14,6.14,0,0,1,4.55-7.43,6.23,6.23,0,0,1,7.48,4.57,6.15,6.15,0,0,1-4.56,7.43A6.21,6.21,0,0,1,178,410Z" transform="translate(-9.02 -4.91)"/><path class="cls-88" d="M186.68,396.73a5.13,5.13,0,0,1,3.81-6.21,5.19,5.19,0,0,1,6.25,3.82,5.13,5.13,0,0,1-3.8,6.21A5.21,5.21,0,0,1,186.68,396.73Z" transform="translate(-9.02 -4.91)"/><path class="cls-89" d="M188.92,381.87a4.06,4.06,0,0,1,3-4.92,4.13,4.13,0,0,1,5,3,4.07,4.07,0,0,1-3,4.92A4.12,4.12,0,0,1,188.92,381.87Z" transform="translate(-9.02 -4.91)"/><path class="cls-90" d="M188.18,371.87a3.33,3.33,0,1,1,4,2.45A3.34,3.34,0,0,1,188.18,371.87Z" transform="translate(-9.02 -4.91)"/><path class="cls-91" d="M174.26,362.19a1.63,1.63,0,0,1,1.2-2,1.66,1.66,0,0,1,2,1.21,1.62,1.62,0,0,1-1.2,2A1.66,1.66,0,0,1,174.26,362.19Z" transform="translate(-9.02 -4.91)"/><path class="cls-92" d="M167.42,280.24a1.63,1.63,0,1,1-2.31-.18A1.65,1.65,0,0,1,167.42,280.24Z" transform="translate(-9.02 -4.91)"/><path class="cls-93" d="M175.23,366.05a8.4,8.4,0,0,1,11.55,2.5,8.27,8.27,0,0,1-2.6,11.46,8.38,8.38,0,0,1-11.55-2.5A8.29,8.29,0,0,1,175.23,366.05Z" transform="translate(-9.02 -4.91)"/><path class="cls-94" d="M155,365.68a6.18,6.18,0,0,1,8.51,1.84,6.09,6.09,0,0,1-1.92,8.44,6.17,6.17,0,0,1-8.51-1.84A6.09,6.09,0,0,1,155,365.68Z" transform="translate(-9.02 -4.91)"/><path class="cls-95" d="M140,373.56a5.15,5.15,0,0,1,7.11,1.54,5.1,5.1,0,0,1-1.6,7.06,5.17,5.17,0,0,1-7.12-1.54A5.1,5.1,0,0,1,140,373.56Z" transform="translate(-9.02 -4.91)"/><path class="cls-96" d="M129.91,383.71a3.33,3.33,0,0,1,4.58,1,3.28,3.28,0,0,1-1,4.54,3.33,3.33,0,0,1-4.58-1A3.28,3.28,0,0,1,129.91,383.71Z" transform="translate(-9.02 -4.91)"/><path class="cls-97" d="M124.79,393.24a2.64,2.64,0,0,1,3.65.79,2.61,2.61,0,0,1-.82,3.62,2.64,2.64,0,0,1-3.65-.79A2.61,2.61,0,0,1,124.79,393.24Z" transform="translate(-9.02 -4.91)"/><path class="cls-98" d="M122.91,403.28a1.64,1.64,0,0,1,2.25.49,1.6,1.6,0,0,1-.5,2.23,1.63,1.63,0,0,1-2.25-.49A1.61,1.61,0,0,1,122.91,403.28Z" transform="translate(-9.02 -4.91)"/><path class="cls-99" d="M121,458a8.46,8.46,0,1,0-2-11.74A8.46,8.46,0,0,0,121,458Z" transform="translate(-9.02 -4.91)"/><path class="cls-100" d="M100.55,449.74a6.24,6.24,0,1,0-1.47-8.65A6.22,6.22,0,0,0,100.55,449.74Z" transform="translate(-9.02 -4.91)"/><path class="cls-101" d="M85.9,441.14a5.21,5.21,0,1,0-1.23-7.23A5.2,5.2,0,0,0,85.9,441.14Z" transform="translate(-9.02 -4.91)"/><path class="cls-102" d="M76.32,430.44a3.35,3.35,0,1,0-.79-4.66A3.34,3.34,0,0,0,76.32,430.44Z" transform="translate(-9.02 -4.91)"/><path class="cls-103" d="M65.2,423.3a2.68,2.68,0,1,0-.63-3.72A2.69,2.69,0,0,0,65.2,423.3Z" transform="translate(-9.02 -4.91)"/><path class="cls-104" d="M117.42,193a3.24,3.24,0,0,1-.34,4.59,3.28,3.28,0,0,1-4.6-.36,3.25,3.25,0,1,1,4.94-4.23Z" transform="translate(-9.02 -4.91)"/><path class="cls-105" d="M133.37,272.57a3.25,3.25,0,1,1-4.6-.36A3.28,3.28,0,0,1,133.37,272.57Z" transform="translate(-9.02 -4.91)"/><polygon class="cls-106" points="87.19 9.63 113.71 7.95 113.98 8.51 87.62 12.29 87.19 9.63"/><polygon class="cls-107" points="87.25 9.24 113.77 7.56 113.9 8.11 87.67 11.9 87.25 9.24"/><polygon class="cls-108" points="69.8 24.94 119.84 15.55 120.1 16.1 70.32 27.3 69.8 24.94"/><polygon class="cls-109" points="69.75 24.73 119.39 15.3 119.65 15.84 70.24 26.94 69.75 24.73"/><polygon class="cls-110" points="123.79 24.95 66.23 40.93 66.44 41.89 124.55 26.71 123.79 24.95"/><polygon class="cls-111" points="123.82 24.56 66.27 40.54 66.47 41.5 124.4 26.33 123.82 24.56"/><polygon class="cls-112" points="124.3 39.78 69.78 57.5 69.99 58.45 124.98 42.08 124.3 39.78"/><polygon class="cls-113" points="124.23 39.42 69.71 57.14 69.92 58.1 124.77 41.7 124.23 39.42"/><polygon class="cls-114" points="118.69 57.08 75.39 68.84 75.65 69.25 119.1 59.66 118.69 57.08"/><polygon class="cls-115" points="118.62 57.38 75.59 69.16 75.71 69.56 119.3 59.99 118.62 57.38"/><polygon class="cls-116" points="103.17 75.28 82.45 79.15 82.71 79.56 103.85 77.89 103.17 75.28"/><polygon class="cls-117" points="81.65 106.79 102.11 106.11 102.14 106.6 81.87 109.52 81.65 106.79"/><polygon class="cls-118" points="81.75 107.18 102.15 106.51 102.24 106.98 81.84 109.89 81.75 107.18"/><polygon class="cls-9" points="65.87 118.45 107.92 114.53 108.03 114.98 65.98 121.21 65.87 118.45"/><polygon class="cls-119" points="65.84 118.72 107.87 114.75 108.11 115.21 65.93 121.43 65.84 118.72"/><polygon class="cls-120" points="112.93 139.82 51.62 144.08 51.39 143.48 112.75 137.67 112.93 139.82"/><polygon class="cls-121" points="112.9 140.21 51.58 144.47 51.49 143.88 112.72 138.06 112.9 140.21"/><polygon class="cls-122" points="109.84 156.43 53.85 154.84 53.76 154.25 110.14 153.05 109.84 156.43"/><polygon class="cls-123" points="109.81 156.71 53.83 155.12 53.73 154.53 110.11 153.34 109.81 156.71"/><polygon class="cls-124" points="95.62 170.56 57.88 162.18 57.78 161.6 97.78 166.79 95.62 170.56"/><polygon class="cls-125" points="95.61 170.74 57.86 162.36 57.77 161.77 97.47 167.21 95.61 170.74"/><polygon class="cls-126" points="74.03 184.01 64.18 169.67 64.18 169.67 77.57 179.34 74.03 184.01"/><polygon class="cls-127" points="73.45 184.41 64.27 170.26 64.18 169.67 76.79 179.51 73.45 184.41"/><polygon class="cls-128" points="54.73 129.71 112.4 123.68 112.49 124.99 54.85 132.01 54.73 129.71"/><polygon class="cls-129" points="54.81 130.15 112.48 124.12 112.57 125.43 54.93 132.44 54.81 130.15"/><path class="cls-130" d="M114.61,96.13a12.39,12.39,0,1,1-13-11.89A12.43,12.43,0,0,1,114.61,96.13Z" transform="translate(-9.02 -4.91)"/><path class="cls-131" d="M105.6,194.06a12.39,12.39,0,1,1-13-11.9A12.42,12.42,0,0,1,105.6,194.06Z" transform="translate(-9.02 -4.91)"/><path class="cls-132" d="M133,78.84a10.86,10.86,0,1,1-11.4-10.43A10.88,10.88,0,0,1,133,78.84Z" transform="translate(-9.02 -4.91)"/><path class="cls-133" d="M97.58,15.34a10.86,10.86,0,1,1-21.69,1.08,10.86,10.86,0,1,1,21.69-1.08Z" transform="translate(-9.02 -4.91)"/><path class="cls-134" d="M144,61.2a8.29,8.29,0,1,1-8.7-8A8.32,8.32,0,0,1,144,61.2Z" transform="translate(-9.02 -4.91)"/><path class="cls-135" d="M80.88,30.82a8.29,8.29,0,1,1-8.7-7.95A8.31,8.31,0,0,1,80.88,30.82Z" transform="translate(-9.02 -4.91)"/><path class="cls-136" d="M91.15,112.48a8.28,8.28,0,1,1-8.7-8A8.3,8.3,0,0,1,91.15,112.48Z" transform="translate(-9.02 -4.91)"/><path class="cls-137" d="M120.28,176.74a8.29,8.29,0,1,1-8.71-8A8.33,8.33,0,0,1,120.28,176.74Z" transform="translate(-9.02 -4.91)"/><path class="cls-138" d="M145.07,43.81A6.11,6.11,0,1,1,138.65,38,6.13,6.13,0,0,1,145.07,43.81Z" transform="translate(-9.02 -4.91)"/><path class="cls-139" d="M77.55,46.13a6.1,6.1,0,1,1-6.41-5.87A6.12,6.12,0,0,1,77.55,46.13Z" transform="translate(-9.02 -4.91)"/><path class="cls-140" d="M75.47,124.56a6.11,6.11,0,1,1-6.42-5.86A6.14,6.14,0,0,1,75.47,124.56Z" transform="translate(-9.02 -4.91)"/><path class="cls-141" d="M130.57,159.33a6.11,6.11,0,1,1-6.41-5.86A6.13,6.13,0,0,1,130.57,159.33Z" transform="translate(-9.02 -4.91)"/><path class="cls-142" d="M142.54,28.9A5.1,5.1,0,1,1,137.18,24,5.12,5.12,0,0,1,142.54,28.9Z" transform="translate(-9.02 -4.91)"/><path class="cls-143" d="M80.23,62.75a5.11,5.11,0,1,1-5.37-4.9A5.13,5.13,0,0,1,80.23,62.75Z" transform="translate(-9.02 -4.91)"/><path class="cls-144" d="M64.63,136a5.1,5.1,0,1,1-5.36-4.91A5.12,5.12,0,0,1,64.63,136Z" transform="translate(-9.02 -4.91)"/><path class="cls-145" d="M131.06,142.42a5.11,5.11,0,1,1-5.36-4.9A5.12,5.12,0,0,1,131.06,142.42Z" transform="translate(-9.02 -4.91)"/><path class="cls-146" d="M135.6,18.84A4,4,0,1,1,131.35,15,4.06,4.06,0,0,1,135.6,18.84Z" transform="translate(-9.02 -4.91)"/><path class="cls-147" d="M85.67,75.06a4,4,0,1,1-4.25-3.88A4.06,4.06,0,0,1,85.67,75.06Z" transform="translate(-9.02 -4.91)"/><path class="cls-148" d="M52.29,148.87A4.1,4.1,0,0,0,56,153.34a4.05,4.05,0,0,0,4.42-3.68,4.11,4.11,0,0,0-3.66-4.46A4,4,0,0,0,52.29,148.87Z" transform="translate(-9.02 -4.91)"/><path class="cls-149" d="M63.62,159.82a3.29,3.29,0,1,1-3.45-3.15A3.3,3.3,0,0,1,63.62,159.82Z" transform="translate(-9.02 -4.91)"/><path class="cls-150" d="M127.17,128.65a3.29,3.29,0,1,1-3.45-3.15A3.3,3.3,0,0,1,127.17,128.65Z" transform="translate(-9.02 -4.91)"/><path class="cls-151" d="M67.85,166.5A2.62,2.62,0,1,1,65.1,164,2.62,2.62,0,0,1,67.85,166.5Z" transform="translate(-9.02 -4.91)"/><path class="cls-152" d="M121.38,119.47a2.62,2.62,0,1,1-2.75-2.51A2.62,2.62,0,0,1,121.38,119.47Z" transform="translate(-9.02 -4.91)"/><path class="cls-153" d="M75.45,174.44a2.62,2.62,0,1,1-2.75-2.52A2.62,2.62,0,0,1,75.45,174.44Z" transform="translate(-9.02 -4.91)"/><path class="cls-154" d="M114,111.06a1.62,1.62,0,1,1-1.7-1.55A1.61,1.61,0,0,1,114,111.06Z" transform="translate(-9.02 -4.91)"/><path class="cls-155" d="M88.18,180.24a1.61,1.61,0,1,1-1.7-1.55A1.64,1.64,0,0,1,88.18,180.24Z" transform="translate(-9.02 -4.91)"/><path class="cls-156" d="M108.58,188.21a1.61,1.61,0,1,1-1.7-1.55A1.62,1.62,0,0,1,108.58,188.21Z" transform="translate(-9.02 -4.91)"/><path class="cls-157" d="M128,11.73a3.22,3.22,0,1,1-3.38-3.09A3.23,3.23,0,0,1,128,11.73Z" transform="translate(-9.02 -4.91)"/><path class="cls-158" d="M92.08,84.22a3.22,3.22,0,1,1-3.38-3.09A3.23,3.23,0,0,1,92.08,84.22Z" transform="translate(-9.02 -4.91)"/><path class="cls-159" d="M109.83,480.28a8.64,8.64,0,1,1-6.42-10.18A8.47,8.47,0,0,1,109.83,480.28Z" transform="translate(-9.02 -4.91)"/><path class="cls-160" d="M58.66,473.78a8.64,8.64,0,1,1-6.42-10.17A8.48,8.48,0,0,1,58.66,473.78Z" transform="translate(-9.02 -4.91)"/><path class="cls-161" d="M124.65,467a6.37,6.37,0,1,1-4.73-7.5A6.24,6.24,0,0,1,124.65,467Z" transform="translate(-9.02 -4.91)"/><path class="cls-162" d="M40.27,460.15a6.37,6.37,0,1,1-4.73-7.5A6.25,6.25,0,0,1,40.27,460.15Z" transform="translate(-9.02 -4.91)"/><path class="cls-163" d="M83.73,485.27a10.88,10.88,0,1,1-8.08-12.81A10.67,10.67,0,0,1,83.73,485.27Z" transform="translate(-9.02 -4.91)"/></svg>