<svg id="Layer_1" data-name="Layer 1" xmlns="http://www.w3.org/2000/svg" viewBox="0 0 142.63 128.83"><defs><style>.cls-1{fill:#427cbf;}</style></defs><title>icon-no-downstream-02</title><path class="cls-1" d="M91.84,34.58H76.48a.79.79,0,0,0-.69.59,1.39,1.39,0,0,0,.11,1.15v0c.17.28.35.55.53.82.28.42.57.84.88,1.25l.63.84c.19.24.38.48.58.71a.66.66,0,0,0,.5.26h10.3a.67.67,0,0,0,.51-.26l.56-.72.63-.83c.29-.4.58-.82.86-1.25.18-.27.36-.55.54-.85a1.4,1.4,0,0,0,.1-1.14A.78.78,0,0,0,91.84,34.58Z" transform="translate(-11.35 -18.36)"/><path class="cls-1" d="M72.06,25.61c0,.28.08.56.13.84l0,.25c.1.6.48,1,.93,1h22c.44,0,.82-.42.92-1l0-.25.12-.84c0-.39.09-.8.13-1.26,0-.28,0-.56.07-.85a1.65,1.65,0,0,0-.27-1,.86.86,0,0,0-.68-.41H72.81a.86.86,0,0,0-.69.41,1.66,1.66,0,0,0-.26,1l.06.84C72,24.82,72,25.23,72.06,25.61Z" transform="translate(-11.35 -18.36)"/><path class="cls-1" d="M96.36,141.61c0-.43-.07-.85-.11-1.26s-.07-.57-.11-.85l0-.22c-.09-.61-.48-1.06-.93-1.06H73.09c-.44,0-.84.45-.93,1.06l0,.22c0,.28-.07.56-.11.84s-.08.83-.12,1.27c0,.27,0,.55,0,.84a1.65,1.65,0,0,0,.27,1,.84.84,0,0,0,.68.4H95.46a.83.83,0,0,0,.68-.4,1.65,1.65,0,0,0,.27-1h0C96.4,142.16,96.38,141.88,96.36,141.61Z" transform="translate(-11.35 -18.36)"/><path class="cls-1" d="M78.2,126c-.19.24-.38.47-.56.71s-.41.55-.61.83-.58.83-.85,1.26c-.18.27-.36.55-.53.84a1.36,1.36,0,0,0-.09,1.15.77.77,0,0,0,.68.58H92.08a.77.77,0,0,0,.68-.58,1.37,1.37,0,0,0-.08-1.14v0l-.51-.83c-.25-.39-.52-.8-.84-1.25l-.61-.84-.54-.7a.67.67,0,0,0-.52-.28H78.71A.64.64,0,0,0,78.2,126Z" transform="translate(-11.35 -18.36)"/><path class="cls-1" d="M94.34,71.43c-.13-.28-.27-.56-.41-.83-.23-.43-.47-.86-.7-1.26s-.34-.56-.52-.83-.29-.45-.44-.68a.71.71,0,0,0-.58-.34H76.11a.72.72,0,0,0-.58.35l-.44.67c-.17.28-.34.55-.5.84s-.48.84-.69,1.25l-.42.85a1.48,1.48,0,0,0,0,1.13.78.78,0,0,0,.69.55H93.69a.77.77,0,0,0,.69-.55,1.41,1.41,0,0,0,0-1.12Z" transform="translate(-11.35 -18.36)"/><path class="cls-1" d="M96.84,84.36l0-.84V83.4c0-.21,0-.42,0-.63s0-.23,0-.34v-.17l0-.86c0-.75-.49-1.34-1-1.34H72.06c-.55,0-1,.59-1,1.35,0,.28,0,.56,0,.85v.17c0,.12,0,.23,0,.34s0,.41,0,.62v.13c0,.28,0,.56,0,.86,0,.74.49,1.33,1,1.33H95.8C96.34,85.71,96.79,85.12,96.84,84.36Z" transform="translate(-11.35 -18.36)"/><path class="cls-1" d="M93.32,93.18H74.5a.79.79,0,0,0-.68.56,1.4,1.4,0,0,0,.05,1.15h0c.15.28.29.56.45.84s.46.81.74,1.25c.18.29.36.56.54.84s.31.46.47.68a.7.7,0,0,0,.56.33H91.16a.69.69,0,0,0,.55-.32q.26-.35.48-.69c.19-.27.37-.55.55-.83s.52-.83.76-1.26l.46-.84A1.46,1.46,0,0,0,94,93.75.79.79,0,0,0,93.32,93.18Z" transform="translate(-11.35 -18.36)"/><path class="cls-1" d="M105.21,96.38l-.35.81h1.48V93.66l-1,2.35Z" transform="translate(-11.35 -18.36)"/><path class="cls-1" d="M71.15,130.29c.16-.27.33-.53.51-.8s.53-.79.83-1.21.4-.54.61-.8l.65-.81a54.25,54.25,0,0,1,8-7.52l.59-.47-1.48-1.13c-1.44-1.1-2.73-2.09-4-3.09l-.31-.25-.3.26C69.32,120.36,61.34,129,61,143.3a3.37,3.37,0,0,0,1.26,3,3.05,3.05,0,0,0,1.83.59,3.27,3.27,0,0,0,1.75-.51,3.64,3.64,0,0,0,1.55-3.06v-.09l0-.54v-.2c0-.27,0-.53,0-.8s.08-.81.12-1.2.07-.54.11-.8.09-.53.14-.8a24.69,24.69,0,0,1,2.84-7.81C70.83,130.83,71,130.56,71.15,130.29Z" transform="translate(-11.35 -18.36)"/><path class="cls-1" d="M66.26,40a48.42,48.42,0,0,0,10,11.1l.3.25.31-.24c1.34-1.08,2.8-2.2,4-3.09l1.48-1.13-.59-.47a54.8,54.8,0,0,1-7.63-7.13c-.23-.27-.46-.54-.67-.81s-.43-.54-.63-.81-.56-.76-.86-1.21c-.18-.26-.36-.53-.53-.8s-.33-.53-.49-.8a25.05,25.05,0,0,1-3-7.81c0-.26-.1-.52-.14-.8l0-.22a28,28,0,0,1-.32-3.39v-.16c0-.05,0-.11,0-.16a3.58,3.58,0,0,0-1.56-3.15,3.15,3.15,0,0,0-1.75-.52,3,3,0,0,0-1.82.59,3.38,3.38,0,0,0-1.26,3,33.92,33.92,0,0,0,5.12,17.53Z" transform="translate(-11.35 -18.36)"/><path class="cls-1" d="M106.55,81.42c0-.22,0-.44,0-.66v-.17a32.73,32.73,0,0,0-5.58-16.2,52,52,0,0,0-10.34-11l-.3-.25-.72.59c-1.37,1.11-2.8,2.2-4.34,3.37l-.69.52.6.47c3.57,2.78,7.6,6.19,10.51,10.36.19.27.37.53.54.81s.34.53.5.8.46.78.68,1.2l.41.8c.12.27.25.53.37.8a24.33,24.33,0,0,1,2,7.87c0,.26,0,.53,0,.8s0,.46,0,.7v.3c0,.1,0,.2,0,.29s0,.34,0,.51v.2l0,.8c0,.27,0,.54,0,.81a23.8,23.8,0,0,1-2.29,8.39c-.13.27-.27.54-.41.8s-.29.54-.44.81c-.26.45-.5.85-.73,1.2s-.35.54-.54.8-.38.54-.58.81a52.2,52.2,0,0,1-10,9.6l-.6.47.61.47.1.07c1.52,1.15,3,2.24,4.32,3.35l.72.6.3-.25c3.48-2.9,8.5-7.47,11.92-13.65l.45-.84.42-.83c.18-.39.37-.8.57-1.25l.35-.84c.11-.27.22-.55.32-.83a31.76,31.76,0,0,0,1.87-8.79c0-.27,0-.55,0-.83,0-.58,0-1.1,0-1.58s0-.9,0-1.35Z" transform="translate(-11.35 -18.36)"/><path class="cls-1" d="M91,114.48l-.82-.7-.91-.75-.41-.33c-1.25-1-2.53-2-4.08-3.17L83,108.23l-.94-.73-.42-.32A52.8,52.8,0,0,1,72,97.9l-.58-.81c-.19-.26-.37-.53-.55-.8s-.5-.79-.74-1.21l-.45-.8c-.14-.26-.28-.53-.41-.8A23.42,23.42,0,0,1,67,85.08c0-.26,0-.53-.06-.8l0-.8v-.19c0-.17,0-.34,0-.52v-.58c0-.24,0-.48,0-.71s0-.54,0-.8a23.82,23.82,0,0,1,2-7.86c.12-.27.24-.54.37-.8s.27-.54.42-.8.43-.78.69-1.21c.16-.27.33-.54.51-.8s.36-.54.54-.8a49.87,49.87,0,0,1,10.21-10l.86-.67.94-.72,1.28-1c1.55-1.18,2.84-2.16,4.08-3.17l.84-.68.9-.75.4-.34A48,48,0,0,0,100.85,40c.35-.57.69-1.16,1-1.76a34.38,34.38,0,0,0,4.18-16c.06-2.61-1.56-3.83-3.2-3.89s-3.59,1.16-3.66,3.93v.33c0,.27,0,.54,0,.8s0,.51-.06.8-.09.82-.14,1.2-.08.54-.13.84-.09.51-.14.77a25,25,0,0,1-3,7.8l-.5.81-.54.8c-.27.4-.57.81-.88,1.21s-.42.54-.63.81-.45.54-.68.8a53.61,53.61,0,0,1-7.31,6.81l-.41.33-.93.73-.85.66L81.28,49c-1.09.84-2.22,1.7-3.31,2.56l-.58.47-.4.32-1.16,1c-6.36,5.34-14.9,14-15.74,27.25v.16c0,.23,0,.45,0,.67q0,.69,0,1.35c0,.48,0,1,0,1.58,0,.28,0,.56.05.83A32.32,32.32,0,0,0,62,94c.1.29.21.56.32.84s.23.56.35.83c.18.44.37.86.56,1.26l.42.83c.14.28.29.56.44.84,2.58,4.72,6.33,9.06,11.79,13.64l.4.34.76.62,1,.79c1.08.86,2.22,1.72,3.32,2.56.53.41,1.07.83,1.62,1.24l.42.33.93.72.85.67a52.71,52.71,0,0,1,7.63,7.2q.35.4.66.81c.21.27.42.53.62.81s.57.79.85,1.2l.51.81.48.8a24.62,24.62,0,0,1,2.88,7.81V139c0,.24.09.49.13.74s.07.51.11.8.09.8.12,1.2,0,.53,0,.8v.19c0,.19,0,.37,0,.56a.13.13,0,0,1,0,.06c.07,1.94,1.3,3.87,3.52,3.87h.13c1.64-.05,3.26-1.28,3.2-3.89C105.7,128.93,97.81,120.35,91,114.48Z" transform="translate(-11.35 -18.36)"/><path class="cls-1" d="M27,80.83l.3.26.31-.25c1.23-1,2.59-2,3.68-2.86l1.41-1.09-.59-.47c-6.74-5.36-13-11.78-13.26-22.31a3.46,3.46,0,0,0-1.46-3,3,3,0,0,0-1.65-.48,2.86,2.86,0,0,0-1.71.55,3.22,3.22,0,0,0-1.18,2.83C13.12,67.38,20.53,75.36,27,80.83Z" transform="translate(-11.35 -18.36)"/><path class="cls-1" d="M39.05,83.91l-.3-.25-.31.24c-1.14.93-2.34,1.85-3.68,2.87l-1.41,1.08.59.47c6.73,5.36,13,11.78,13.26,22.31a3.46,3.46,0,0,0,1.46,3,3,3,0,0,0,1.64.49,2.94,2.94,0,0,0,1.72-.55,3.24,3.24,0,0,0,1.18-2.84C52.88,97.36,45.47,89.38,39.05,83.91Z" transform="translate(-11.35 -18.36)"/><path class="cls-1" d="M51.65,50.42c-1.57-.06-3.37,1.09-3.43,3.68-.25,10.39-6.42,16.72-13,22l-.39.31-.72.56-.93.73-1.51,1.15c-1,.73-2,1.56-3.06,2.37l-.53.42-.39.31-.78.68-.45.37-.7.58-.37.32c-6.34,5.45-13.66,13.42-14,26.75-.06,2.45,1.46,3.6,3,3.65h.12c1.55,0,3.25-1.15,3.31-3.68.25-10.39,6.42-16.72,13-22l.38-.31.76-.59.9-.7,1.5-1.15c1-.73,2.05-1.56,3.07-2.37l.53-.42.39-.31.78-.68.44-.36.71-.59.37-.32c6.34-5.45,13.66-13.42,14-26.75C54.7,51.62,53.18,50.47,51.65,50.42Z" transform="translate(-11.35 -18.36)"/><path class="cls-1" d="M44.54,109.21c0-.4-.07-.8-.11-1.17s-.07-.53-.11-.78l0-.21a1.07,1.07,0,0,0-.93-1H22.22a1.09,1.09,0,0,0-.93,1l0,.21c0,.26-.07.52-.1.79s-.09.77-.12,1.17,0,.52-.05.79a1.52,1.52,0,0,0,.27,1,.83.83,0,0,0,.68.38h21.7a.83.83,0,0,0,.68-.38,1.51,1.51,0,0,0,.27-1v0C44.58,109.72,44.56,109.46,44.54,109.21Zm-.39.81Z" transform="translate(-11.35 -18.36)"/><path class="cls-1" d="M41,99.08h0c-.16-.26-.32-.52-.49-.78s-.5-.74-.8-1.16l-.58-.77c-.17-.23-.35-.44-.52-.66a.68.68,0,0,0-.53-.27H27.6a.66.66,0,0,0-.51.26l-.54.66-.59.78c-.27.37-.55.76-.81,1.16s-.34.51-.51.78a1.3,1.3,0,0,0-.09,1.11.78.78,0,0,0,.69.57H40.4a.78.78,0,0,0,.69-.57A1.31,1.31,0,0,0,41,99.08l-.35.35h0Z" transform="translate(-11.35 -18.36)"/><path class="cls-1" d="M21.49,55.68c0,.26,0,.52.05.78s.07.79.12,1.17.06.52.1.78l0,.21a1.07,1.07,0,0,0,.93,1H43.86a1.06,1.06,0,0,0,.93-1l0-.21c0-.26.08-.52.11-.78s.08-.77.11-1.17,0-.52.05-.79a1.5,1.5,0,0,0-.27-1,.84.84,0,0,0-.67-.39H22.44a.86.86,0,0,0-.68.38,1.61,1.61,0,0,0-.27,1l.44,0Z" transform="translate(-11.35 -18.36)"/><path class="cls-1" d="M40.84,64.91H25.68a.77.77,0,0,0-.69.56,1.34,1.34,0,0,0,.09,1.11h0c.16.26.32.52.49.77s.5.74.81,1.17c.19.26.38.52.58.77s.34.44.52.65a.66.66,0,0,0,.52.28H38.48A.71.71,0,0,0,39,70l.53-.66c.2-.25.4-.51.59-.77s.55-.77.81-1.16l.51-.79a1.28,1.28,0,0,0,.09-1.1A.77.77,0,0,0,40.84,64.91Z" transform="translate(-11.35 -18.36)"/><path class="cls-1" d="M126.29,80.83l.3.26.31-.25c1.24-1,2.59-2,3.68-2.86L132,76.89l-.59-.47c-6.73-5.36-13-11.78-13.26-22.31a3.46,3.46,0,0,0-1.46-3,3,3,0,0,0-1.64-.48,2.87,2.87,0,0,0-1.72.55,3.22,3.22,0,0,0-1.18,2.83C112.46,67.38,119.87,75.36,126.29,80.83Z" transform="translate(-11.35 -18.36)"/><path class="cls-1" d="M138.39,83.91l-.3-.25-.3.24c-1.15.93-2.35,1.85-3.69,2.87l-1.41,1.08.59.47c6.74,5.36,13,11.78,13.26,22.31a3.46,3.46,0,0,0,1.46,3,3,3,0,0,0,1.65.49,2.93,2.93,0,0,0,1.71-.55,3.24,3.24,0,0,0,1.18-2.84C152.22,97.36,144.81,89.38,138.39,83.91Z" transform="translate(-11.35 -18.36)"/><path class="cls-1" d="M151,50.42c-1.57-.06-3.37,1.09-3.43,3.68-.25,10.39-6.42,16.72-13.05,22l-.38.31-.73.56-.93.73L131,78.87c-1,.73-2.05,1.56-3.07,2.37l-.53.42L127,82l-.79.68-.45.37-.7.58-.37.32c-6.34,5.45-13.66,13.42-14,26.75-.06,2.45,1.46,3.6,3,3.65h.12c1.55,0,3.25-1.15,3.31-3.68.25-10.39,6.42-16.72,13-22l.39-.31.75-.59.9-.7,1.51-1.15c1-.73,2-1.56,3.06-2.37l.53-.42.39-.31.78-.68.44-.36.71-.59.37-.32c6.34-5.45,13.66-13.42,14-26.75C154,51.62,152.52,50.47,151,50.42Z" transform="translate(-11.35 -18.36)"/><path class="cls-1" d="M143.88,109.21c0-.4-.07-.8-.11-1.17s-.07-.53-.11-.78l0-.21a1.07,1.07,0,0,0-.93-1H121.56a1.07,1.07,0,0,0-.92,1l0,.21c0,.26-.07.52-.1.79s-.09.77-.12,1.17,0,.52,0,.79a1.52,1.52,0,0,0,.27,1,.83.83,0,0,0,.68.38H143a.83.83,0,0,0,.67-.38,1.51,1.51,0,0,0,.27-1v0C143.92,109.72,143.9,109.46,143.88,109.21Zm-.39.81Z" transform="translate(-11.35 -18.36)"/><path class="cls-1" d="M140.34,99.08h0l-.49-.78c-.24-.36-.51-.74-.81-1.16-.19-.26-.38-.52-.58-.77s-.35-.44-.52-.66a.66.66,0,0,0-.52-.27H126.94a.66.66,0,0,0-.51.26l-.54.66c-.2.26-.39.51-.58.78s-.56.76-.82,1.16-.34.51-.5.78a1.31,1.31,0,0,0-.1,1.11.78.78,0,0,0,.69.57h15.16a.77.77,0,0,0,.69-.57,1.31,1.31,0,0,0-.09-1.11l-.35.35h0Z" transform="translate(-11.35 -18.36)"/><path class="cls-1" d="M120.84,55.68c0,.26,0,.52,0,.78s.07.79.12,1.17.06.52.1.78l0,.21a1.07,1.07,0,0,0,.93,1H143.2a1.06,1.06,0,0,0,.93-1l0-.21c0-.26.08-.52.11-.78s.08-.77.11-1.17,0-.52.05-.79a1.56,1.56,0,0,0-.26-1,.84.84,0,0,0-.68-.39H121.78a.86.86,0,0,0-.68.38,1.68,1.68,0,0,0-.27,1l.44,0Z" transform="translate(-11.35 -18.36)"/><path class="cls-1" d="M140.18,64.91H125a.78.78,0,0,0-.69.56,1.34,1.34,0,0,0,.09,1.11h0c.16.26.32.52.49.77s.5.74.81,1.17c.19.26.38.52.58.77s.34.44.52.65a.67.67,0,0,0,.52.28h10.47a.71.71,0,0,0,.52-.27l.53-.66c.2-.25.4-.51.59-.77s.55-.77.81-1.16.34-.52.51-.79a1.28,1.28,0,0,0,.09-1.1A.77.77,0,0,0,140.18,64.91Z" transform="translate(-11.35 -18.36)"/></svg>