<svg id="Layer_1" data-name="Layer 1" xmlns="http://www.w3.org/2000/svg" viewBox="0 0 121.68 137.83"><defs><style>.cls-1{fill:#427cbf;}</style></defs><title>icon-higher-yield-02</title><path class="cls-1" d="M141.07,139H23.43c-1.11,0-2,1.36-2,3v6.85c0,1.67.91,3,2,3H141.07c1.12,0,2-1.36,2-3v-6.85C143.09,140.4,142.19,139,141.07,139Z" transform="translate(-21.41 -14.13)"/><path class="cls-1" d="M28.4,128.27h7.08c2,0,3.55-2.67,3.55-6V104.9c0-3.3-1.59-6-3.55-6H28.4c-2,0-3.56,2.68-3.56,6v17.39C24.84,125.6,26.44,128.27,28.4,128.27Z" transform="translate(-21.41 -14.13)"/><path class="cls-1" d="M53.53,90.58c-2,0-3.56,2.68-3.56,6v25.73c0,3.31,1.6,6,3.56,6h7.08c2,0,3.55-2.67,3.55-6V96.56c0-3.3-1.59-6-3.55-6Z" transform="translate(-21.41 -14.13)"/><path class="cls-1" d="M78.66,72.43c-2,0-3.56,2.68-3.56,6v43.88c0,3.31,1.6,6,3.56,6h7.08c2,0,3.55-2.67,3.55-6V78.41c0-3.3-1.59-6-3.55-6Z" transform="translate(-21.41 -14.13)"/><path class="cls-1" d="M103.79,56.56c-2,0-3.56,2.68-3.56,6v59.75c0,3.31,1.6,6,3.56,6h7.08c2,0,3.55-2.67,3.55-6V62.54c0-3.3-1.59-6-3.55-6Z" transform="translate(-21.41 -14.13)"/><path class="cls-1" d="M125.36,20.11V122.29c0,3.31,1.6,6,3.56,6H136c2,0,3.55-2.67,3.55-6V20.11c0-3.3-1.59-6-3.55-6h-7.08C127,14.13,125.36,16.81,125.36,20.11Z" transform="translate(-21.41 -14.13)"/></svg>