<svg id="Layer_1" data-name="Layer 1" xmlns="http://www.w3.org/2000/svg" viewBox="0 0 144 118.32"><defs><style>.cls-1{fill:#fff;}</style></defs><title>icon-ionic-system-white</title><path class="cls-1" d="M22.28,65.85c-.78-1.15-.82-4.3-.08-7l5-18.27a7.17,7.17,0,0,1,6.59-4.94H71.67c2.88,0,4.1,2,2.71,4.48L61.22,63.44a9.82,9.82,0,0,1-7.76,4.48H28.94c-2.88,0-5.88-.93-6.66-2.07" transform="translate(-5.85 -5.53)"/><path class="cls-1" d="M71.84,68.17c-3,0-4.25-2-2.79-4.41L102.29,8.07a5.46,5.46,0,0,1,7.34-1.83l31.12,17.55c2.57,1.45,2.94,4.27.83,6.27L105.32,64.29A15.82,15.82,0,0,1,96,68Z" transform="translate(-5.85 -5.53)"/><path class="cls-1" d="M110.33,73.32c-.17,0,0-.73.32-1.63s2.38-3.24,4.52-5.21L146,38.08c2.13-2,3.89-1.28,3.89,1.53v68c0,2.81-1.76,3.5-3.89,1.53,0,0-33.73-31.1-34.68-33.47Z" transform="translate(-5.85 -5.53)"/><path class="cls-1" d="M138.72,114.3,102.8,80.64A15.68,15.68,0,0,0,93.5,77H26.64c-3,0-6.17.73-7,1.63a21.89,21.89,0,0,0-3.12,6.53L7.24,114.5a26.71,26.71,0,0,0-1.39,7.13c.09,1.22,2.62,2.22,5.61,2.22H29.32c3,0,6.17-1.47,7-3.26s4-3.26,7-3.26h68.44c3,0,6.31.46,7.35,1a2.61,2.61,0,0,1,.95,3.27c-.52,1.22,1.5,2.22,4.5,2.22h8.07c3,0,6.44-1.34,7.66-3s.48-4.59-1.64-6.58" transform="translate(-5.85 -5.53)"/></svg>