<svg id="Layer_1" data-name="Layer 1" xmlns="http://www.w3.org/2000/svg" viewBox="0 0 128.1 128.45"><defs><style>.cls-1{fill:#427cbf;}</style></defs><title>icon-higher-yield</title><path id="Arrow" class="cls-1" d="M96.53,44.21l0,0a2.37,2.37,0,0,0-.47-3.07l-11-4.91c-1.39-1-.94-3.56.74-4.19l34.2-12.71A1.77,1.77,0,0,1,122.42,21l4.16,39.64c.2,1.94-1.71,3.5-3.11,2.52l-7.38-8a1.84,1.84,0,0,0-2.5.51C95.38,78,63.35,94.15,40.28,88.46c-2-.5-1.8-4.18.34-4.49C61.32,81,86.73,65.52,96.53,44.21Z" transform="translate(-18.62 -19.19)"/><path class="cls-1" d="M144.6,147.65H20.74c-1.17,0-2.12-1.54-2.12-3.43v-7.71c0-1.9.95-3.43,2.12-3.43H144.6c1.17,0,2.12,1.53,2.12,3.43v7.71C146.72,146.11,145.77,147.65,144.6,147.65Z" transform="translate(-18.62 -19.19)"/><rect class="cls-1" x="17.98" y="92.88" width="11.47" height="12.35" rx="5.73"/><rect class="cls-1" x="38.3" y="89.37" width="11.47" height="15.86" rx="5.73"/><rect class="cls-1" x="58.62" y="81.73" width="11.47" height="23.49" rx="5.73"/><rect class="cls-1" x="78.93" y="75.06" width="11.47" height="30.17" rx="5.73"/><rect class="cls-1" x="99.25" y="57.21" width="11.47" height="48.02" rx="5.73"/></svg>