<?xml version="1.0" encoding="utf-8"?>
<!-- Generator: Adobe Illustrator 23.1.1, SVG Export Plug-In . SVG Version: 6.00 Build 0)  -->
<svg version="1.1" id="Layer_1" xmlns="http://www.w3.org/2000/svg" xmlns:xlink="http://www.w3.org/1999/xlink" x="0px" y="0px"
	 viewBox="0 0 365.7 208" style="enable-background:new 0 0 365.7 208;" xml:space="preserve">
<style type="text/css">
	.st0{fill:#3D7CC9;}
</style>
<title>icon-purigen-itp</title>
<path class="st0" d="M182,204.4c-55.6,0-100.7-45.1-100.7-100.7c0-26.7,10.6-52.3,29.5-71.2c39.3-39.3,103.1-39.3,142.4,0
	s39.3,103.1,0,142.4C234.3,193.8,208.7,204.5,182,204.4z M182,10.1c-51.7,0-93.6,41.9-93.6,93.6c0,24.8,9.9,48.6,27.4,66.2
	c36.6,36.6,95.8,36.6,132.4,0s36.6-95.8,0-132.4c0,0,0,0,0,0C230.7,19.9,206.8,10,182,10.1L182,10.1z"/>
<path class="st0" d="M194.3,64.1c-0.2-0.2-0.5-0.4-0.8-0.6c-3.1-2.4-6.8-4.5-10.3-6.6c-3.4-1.9-6.9-4-9.7-6.2
	c-0.2-0.2-0.5-0.4-0.7-0.5c-4.4-3.6-6.4-7.3-6.4-11.9c0-3.6,1.3-6.7,4-9.6c0.9-1,0.9-2.5-0.1-3.5c-1-0.9-2.5-0.9-3.5,0.1l0,0
	c-3.6,3.8-5.3,8.1-5.3,13c0,6,2.7,11.1,8.2,15.6c0.2,0.2,0.5,0.4,0.8,0.6c3.1,2.4,6.8,4.5,10.3,6.6c3.4,1.9,6.9,3.9,9.7,6.2
	c0.2,0.2,0.5,0.4,0.7,0.5c4.4,3.6,6.4,7.3,6.4,11.9c0,3.6-1.3,6.7-4,9.6c-0.4,0.5-0.7,1.1-0.7,1.8c0,1.3,1.1,2.4,2.4,2.4
	c0.7,0,1.3-0.3,1.8-0.8c3.6-3.8,5.3-8.1,5.3-13C202.5,73.7,199.8,68.6,194.3,64.1z"/>
<path class="st0" d="M195.3,24.6c-1.4,0-2.4,1.1-2.4,2.5c0,0.6,0.2,1.2,0.7,1.7c0.2,0.2,0.4,0.4,0.5,0.6h-21l-0.1,0.2
	c-0.2,0.3-0.4,0.7-0.7,1c-0.7,0.7-1.2,1.4-1.7,2.2l-0.3,0.5h26.4c0.7,1.6,1,3.2,1,4.9h-28.6v0.4c0,1.1,0.2,2.3,0.5,3.3l0.1,0.2h27.5
	c-0.5,1.8-1.4,3.5-2.7,4.9h-0.2h-21.3l0.7,0.6c0.2,0.2,0.5,0.4,0.8,0.7c0.2,0.2,0.4,0.3,0.6,0.5c0.9,0.7,1.8,1.4,3,2.1l0.1,0.1h12.1
	c-1.7,1.3-3.4,2.4-5.3,3.5l-0.5,0.3l0.5,0.3c1.2,0.7,2.7,1.5,4.1,2.4l0.2,0.1l0.2-0.1c1.6-1,2.9-1.9,4.1-2.8
	c0.3-0.2,0.5-0.4,0.8-0.6c5.5-4.5,8.2-9.6,8.2-15.6c0-4.9-1.7-9.1-5.3-13C196.7,24.9,196,24.6,195.3,24.6z"/>
<path class="st0" d="M193.6,85.2h-26.1c-0.7-1.6-1.1-3.4-1.1-5.2h28.6v-0.4c0-1.1-0.2-2.3-0.5-3.3l-0.1-0.2h-27.5
	c0.5-1.8,1.4-3.5,2.6-4.9H191l-0.7-0.6c-0.2-0.2-0.5-0.4-0.8-0.7c-0.2-0.1-0.4-0.3-0.6-0.5c-0.9-0.7-1.8-1.4-3-2.1l-0.1-0.1h-12.1
	c1.7-1.3,3.4-2.4,5.2-3.5l0.5-0.3L179,63c-1.2-0.7-2.7-1.5-4.1-2.4l-0.2-0.1l-0.2,0.1c-1.6,1-2.9,1.9-4.1,2.8
	c-0.3,0.2-0.5,0.4-0.8,0.6c-5.5,4.5-8.2,9.6-8.2,15.6c0,4.9,1.7,9.1,5.3,13c0.9,1,2.5,1,3.5,0.1c1-0.9,1-2.5,0.1-3.5
	c-0.3-0.3-0.5-0.6-0.8-0.9h21.5l0.1-0.2c0.2-0.2,0.3-0.5,0.5-0.7c0.6-0.6,1.1-1.2,1.5-1.9L193.6,85.2z"/>
<path class="st0" d="M150.7,139.8c-0.2-0.2-0.5-0.4-0.8-0.6c-3.1-2.4-6.8-4.5-10.3-6.6c-3.4-1.9-6.9-3.9-9.7-6.2
	c-0.2-0.2-0.5-0.4-0.7-0.5c-4.4-3.6-6.4-7.3-6.4-11.9c0-3.6,1.3-6.7,4-9.6c0.9-1,0.9-2.5-0.1-3.5c-1-0.9-2.5-0.9-3.5,0.1l0,0
	c-3.6,3.8-5.3,8.1-5.3,13c0,6,2.7,11.1,8.2,15.6c0.2,0.2,0.5,0.4,0.8,0.6c3.1,2.4,6.8,4.5,10.3,6.6c3.4,1.9,6.9,4,9.7,6.2
	c0.2,0.2,0.5,0.4,0.7,0.5c4.4,3.6,6.4,7.3,6.4,11.9c0,3.6-1.3,6.7-4,9.6c-0.9,1-0.7,2.6,0.4,3.4c0.9,0.8,2.3,0.7,3.2-0.1
	c3.6-3.8,5.3-8.1,5.3-13C158.9,149.5,156.2,144.4,150.7,139.8z"/>
<path class="st0" d="M151.8,100.4c-1.4,0-2.4,1.1-2.4,2.5c0,0.6,0.2,1.2,0.7,1.7c0.2,0.2,0.4,0.4,0.5,0.6h-21l-0.1,0.2
	c-0.2,0.4-0.4,0.7-0.7,1c-0.7,0.7-1.2,1.4-1.7,2.2l-0.3,0.5H153c0.7,1.6,1,3.2,1,4.9h-28.7v0.4c0,1.1,0.2,2.3,0.5,3.3l0.1,0.2h27.5
	c-0.5,1.8-1.4,3.5-2.7,4.9h-0.2h-21.3l0.7,0.6c0.2,0.2,0.5,0.4,0.8,0.7c0.2,0.2,0.4,0.3,0.6,0.5c0.9,0.7,1.8,1.4,3,2.1l0.1,0.1h12.1
	c-1.7,1.3-3.4,2.4-5.3,3.5l-0.5,0.3l0.5,0.3c1.2,0.7,2.7,1.5,4.1,2.4l0.2,0.1l0.2-0.1c1.6-1,2.9-1.9,4.1-2.8
	c0.3-0.2,0.5-0.4,0.8-0.6c5.5-4.5,8.2-9.6,8.2-15.6c0-4.9-1.7-9.1-5.3-13C153.1,100.7,152.4,100.4,151.8,100.4z"/>
<path class="st0" d="M150,160.9H124c-0.7-1.6-1.1-3.4-1.1-5.2h28.6v-0.4c0-1.1-0.2-2.3-0.5-3.3l-0.1-0.2h-27.5
	c0.5-1.8,1.4-3.5,2.6-4.9h21.5l-0.7-0.6c-0.2-0.2-0.5-0.4-0.8-0.7c-0.2-0.1-0.4-0.3-0.6-0.5c-0.9-0.7-1.8-1.4-3-2.1l-0.1-0.1h-12.1
	c1.7-1.3,3.4-2.4,5.2-3.5l0.5-0.3l-0.5-0.3c-1.2-0.7-2.7-1.5-4.1-2.4l-0.2-0.1l-0.2,0.1c-1.6,1-2.9,1.9-4.1,2.8
	c-0.3,0.2-0.5,0.4-0.8,0.6c-5.5,4.5-8.2,9.6-8.2,15.6c0,4.9,1.7,9.1,5.3,13c0.9,1,2.5,1,3.5,0.1c1-0.9,1-2.5,0.1-3.5
	c-0.3-0.3-0.5-0.6-0.8-0.9h21.5l0.1-0.2c0.2-0.2,0.3-0.5,0.5-0.7c0.6-0.6,1.1-1.2,1.5-1.9L150,160.9z"/>
<path class="st0" d="M237.8,139.8c-0.2-0.2-0.5-0.4-0.8-0.6c-3.1-2.4-6.8-4.5-10.3-6.6c-3.4-1.9-6.9-3.9-9.7-6.2
	c-0.2-0.2-0.5-0.4-0.7-0.5c-4.4-3.6-6.4-7.3-6.4-11.9c0-3.6,1.3-6.7,4-9.6c0.9-1,0.9-2.5-0.1-3.5c-1-0.9-2.5-0.9-3.5,0.1l0,0
	c-3.6,3.8-5.3,8.1-5.3,13c0,6,2.7,11.1,8.2,15.6c0.2,0.2,0.5,0.4,0.8,0.6c3.1,2.4,6.8,4.5,10.3,6.6c3.4,1.9,6.9,4,9.7,6.2
	c0.2,0.2,0.5,0.4,0.7,0.5c4.4,3.6,6.4,7.3,6.4,11.9c0,3.6-1.3,6.7-4,9.6c-0.9,1-0.7,2.6,0.4,3.4c0.9,0.8,2.3,0.7,3.2-0.1
	c3.6-3.8,5.3-8.1,5.3-13C246,149.5,243.4,144.4,237.8,139.8z"/>
<path class="st0" d="M213.7,109h26.4c0.7,1.6,1,3.2,1,4.9h-28.6v0.4c0,1.1,0.2,2.3,0.5,3.3l0.1,0.2h27.5c-0.5,1.8-1.4,3.5-2.7,4.9
	h-0.2h-21.3l0.7,0.6c0.2,0.2,0.5,0.4,0.8,0.7c0.2,0.2,0.4,0.3,0.6,0.5c0.9,0.7,1.8,1.4,3,2.1l0.1,0.1h12.1c-1.7,1.3-3.4,2.4-5.3,3.5
	l-0.5,0.3l0.5,0.3c1.2,0.7,2.7,1.5,4.1,2.4l0.2,0.1l0.2-0.1c1.6-1,2.9-1.9,4.1-2.8c0.3-0.2,0.5-0.4,0.8-0.6
	c5.5-4.5,8.2-9.6,8.2-15.6c0-4.9-1.7-9.1-5.3-13c-1-0.9-2.5-0.9-3.5,0.1c-0.8,0.9-0.9,2.3-0.1,3.2c0.2,0.2,0.4,0.4,0.5,0.6h-21
	l-0.1,0.2c-0.2,0.3-0.4,0.7-0.7,1c-0.7,0.7-1.2,1.4-1.7,2.2L213.7,109z"/>
<path class="st0" d="M237.2,160.9h-26.1c-0.7-1.6-1.1-3.4-1.1-5.2h28.6v-0.4c0-1.1-0.2-2.3-0.5-3.3l-0.1-0.2h-27.5
	c0.5-1.8,1.4-3.5,2.6-4.9h21.5l-0.7-0.6c-0.2-0.2-0.5-0.4-0.8-0.7c-0.2-0.1-0.4-0.3-0.6-0.5c-0.9-0.7-1.8-1.4-3-2.1l-0.1-0.1h-12.1
	c1.7-1.3,3.4-2.4,5.2-3.5l0.5-0.3l-0.5-0.3c-1.2-0.7-2.7-1.5-4.1-2.4l-0.2-0.1l-0.2,0.1c-1.6,1-2.9,1.9-4.1,2.8
	c-0.3,0.2-0.5,0.4-0.8,0.6c-5.5,4.5-8.2,9.6-8.2,15.6c0,4.9,1.7,9.1,5.3,13c0.9,1,2.5,1,3.5,0.1c1-0.9,1-2.5,0.1-3.5
	c-0.3-0.3-0.5-0.6-0.8-0.9h21.5l0.1-0.2c0.2-0.2,0.3-0.5,0.5-0.7c0.6-0.6,1.1-1.2,1.5-1.9L237.2,160.9z"/>
<path class="st0" d="M30.1,75.2C14.6,75.2,2,87.8,2,103.3c0,15.5,12.6,28.1,28.1,28.1c15.5,0,28.1-12.6,28.1-28.1
	C58.2,87.8,45.6,75.2,30.1,75.2C30.1,75.2,30.1,75.2,30.1,75.2z M39.2,107.6H21.1c-2.4,0.1-4.4-1.8-4.4-4.2
	c-0.1-2.4,1.8-4.4,4.2-4.4c0.1,0,0.2,0,0.2,0h18.1c2.4,0.1,4.3,2.1,4.2,4.4C43.3,105.7,41.5,107.5,39.2,107.6z"/>
<path class="st0" d="M333.9,75.2c-15.5,0-28.1,12.6-28.1,28.1c0,15.5,12.6,28.1,28.1,28.1c15.5,0,28.1-12.6,28.1-28.1
	C362,87.8,349.5,75.2,333.9,75.2C333.9,75.2,333.9,75.2,333.9,75.2z M345.4,107.5h-7.2v7c0,2.4-1.9,4.3-4.3,4.3
	c-2.4,0-4.3-1.9-4.3-4.3v-7h-7.2c-2.3,0-4.2-1.9-4.2-4.2c0-2.3,1.9-4.2,4.2-4.2c0,0,0,0,0,0h7.2v-7c0-2.4,1.9-4.3,4.3-4.3
	c2.4,0,4.3,1.9,4.3,4.3v7h7.2c2.3,0,4.2,1.9,4.2,4.2C349.6,105.6,347.7,107.5,345.4,107.5L345.4,107.5z"/>
<path class="st0" d="M176.1,111.4h-9.1c-1.2,0-2.2-0.9-2.2-1.9s1-1.9,2.2-1.9h9.1c1.2,0,2.2,0.9,2.2,1.9
	C178.3,110.6,177.3,111.4,176.1,111.4z"/>
<path class="st0" d="M219.4,37.1h-9.1c-1.2,0-2.2-0.9-2.2-1.9c0-1,1-1.9,2.2-1.9h9.1c1.2,0,2.2,0.9,2.2,1.9
	C221.5,36.2,220.5,37.1,219.4,37.1z"/>
<path class="st0" d="M263.1,111.4h-9.1c-1.2,0-2.2-0.9-2.2-1.9s1-1.9,2.2-1.9h9.1c1.2,0,2.2,0.9,2.2,1.9
	C265.3,110.6,264.3,111.4,263.1,111.4z"/>
</svg>
