<svg id="Layer_1" data-name="Layer 1" xmlns="http://www.w3.org/2000/svg" viewBox="0 0 144 138.87"><defs><style>.cls-1{fill:#427cbf;}.cls-2{fill:#fff;}</style></defs><title>icon-no-bead-02</title><path class="cls-1" d="M118.79,35.63c.16-.88.35-1.79.54-2.68l.12-.59c-4.91,1.07-10.13,1.62-14.28-2.19a1.43,1.43,0,0,0-1.45-.36,1.85,1.85,0,0,0-.75.48,1.61,1.61,0,0,0-.45.8,1.28,1.28,0,0,0,.46,1.27C107.78,36.76,113.58,36.6,118.79,35.63Z" transform="translate(-10.62 -13.65)"/><path class="cls-1" d="M124.59,35.21c4.91-1.07,10.13-1.61,14.28,2.2a1.41,1.41,0,0,0,1.44.35,1.79,1.79,0,0,0,.76-.47,1.89,1.89,0,0,0,.45-.8,1.3,1.3,0,0,0-.46-1.28c-4.8-4.4-10.6-4.23-15.81-3.27-.16.89-.35,1.8-.54,2.68Z" transform="translate(-10.62 -13.65)"/><path class="cls-1" d="M120.94,30.6l0,.14a.59.59,0,0,1,0,.14c0,.21-.08.42-.13.63s0,.2-.05.3l0,.14,0,.14c-.08.37-.15.73-.23,1.09q-.24,1.14-.45,2.22s0,.09,0,.14l0,.14c0,.12,0,.25-.07.38s0,.16,0,.23h0v0a.59.59,0,0,0,0,.14h0l0,.13c0,.09,0,.19,0,.29s-.07.41-.1.62a.59.59,0,0,0,0,.14l0,.13c-.8,5.22-.74,11,3.78,15.64a1.48,1.48,0,0,0,2.22,0l0,0a1.65,1.65,0,0,0,.05-2.38c-3.86-4-3.49-9.14-2.58-14,0,0,0-.09,0-.14l0-.14.12-.63.06-.29,0-.15,0-.14c.07-.36.15-.72.23-1.08.15-.77.31-1.5.44-2.22l0-.14,0-.14c0-.13,0-.26.07-.39a2.23,2.23,0,0,1,0-.23h0v0a.59.59,0,0,1,0-.14v0l0-.12c0-.1,0-.2,0-.3s.07-.41.1-.61,0-.1,0-.14l0-.14c.79-5.22.74-11-3.78-15.64a1.49,1.49,0,0,0-2.23,0l0,0a1.64,1.64,0,0,0,0,2.38C122.22,20.56,121.85,25.72,120.94,30.6Z" transform="translate(-10.62 -13.65)"/><path class="cls-1" d="M108.07,28.77l.3.25c.16.13.32.24.48.35a4,4,0,0,0,.34.23l.08,0a.38.38,0,0,0,.46,0L118.12,21a.36.36,0,0,0,0-.46l-.06-.09-.23-.33-.36-.46c-.09-.11-.17-.21-.26-.3a.36.36,0,0,0-.54,0L108,28.23a.37.37,0,0,0,0,.54Z" transform="translate(-10.62 -13.65)"/><path class="cls-1" d="M119.08,24.68a.24.24,0,0,0-.41-.14l-5.38,5.52a.24.24,0,0,0,.15.4h0l.52,0c.27,0,.55,0,.82,0l.57,0,.5,0a.22.22,0,0,0,.15-.08l3-3.09a.2.2,0,0,0,.06-.15l0-.51V26a7.42,7.42,0,0,0,0-.82c0-.18,0-.36,0-.53Z" transform="translate(-10.62 -13.65)"/><path class="cls-1" d="M126.34,47.17c.07.11.15.22.22.34s.23.32.36.47a3.76,3.76,0,0,0,.25.31h0a.37.37,0,0,0,.54,0l8.89-8.66a.36.36,0,0,0,0-.54c-.09-.09-.19-.17-.3-.26s-.31-.25-.46-.36l-.33-.23-.09-.06a.36.36,0,0,0-.46,0l-8.61,8.38a.38.38,0,0,0,0,.46Z" transform="translate(-10.62 -13.65)"/><path class="cls-1" d="M131.26,37.28h0l-.53,0-.82,0h-.58l-.5,0a.2.2,0,0,0-.15.06l-3.09,3a.22.22,0,0,0-.08.15l0,.5c0,.19,0,.37,0,.56s0,.55,0,.82l0,.53h0a.24.24,0,0,0,.4.15l5.52-5.38A.24.24,0,0,0,131.26,37.28Z" transform="translate(-10.62 -13.65)"/><path class="cls-1" d="M138.1,82.1c.74-.51,1.52-1,2.28-1.52l.5-.32c-4.23-2.72-8.3-6-8.55-11.66a1.41,1.41,0,0,0-.77-1.27,1.75,1.75,0,0,0-.86-.19,1.71,1.71,0,0,0-.89.24,1.3,1.3,0,0,0-.58,1.23C129.51,75.11,133.73,79.1,138.1,82.1Z" transform="translate(-10.62 -13.65)"/><path class="cls-1" d="M145.28,84.06c-.74.51-1.52,1-2.28,1.52l-.5.33c4.23,2.71,8.3,6,8.54,11.65a1.45,1.45,0,0,0,.77,1.27,2,2,0,0,0,.87.2,1.85,1.85,0,0,0,.89-.25,1.29,1.29,0,0,0,.57-1.23C153.86,91.05,149.64,87.06,145.28,84.06Z" transform="translate(-10.62 -13.65)"/><path class="cls-1" d="M135.37,69.67h0c0,.13,0,.26,0,.39a5.58,5.58,0,0,0,.09.59c0,.13.05.26.08.39l0,.11a.38.38,0,0,0,.37.28l12-.16a.35.35,0,0,0,.35-.29.43.43,0,0,0,0-.11c0-.13.05-.26.07-.39s.06-.39.08-.59l0-.39h0a.36.36,0,0,0-.38-.39l-12.42.16A.37.37,0,0,0,135.37,69.67Z" transform="translate(-10.62 -13.65)"/><path class="cls-1" d="M144.34,76.3l.37-.34.42-.4c.19-.19.38-.39.56-.59l.35-.4h0a.23.23,0,0,0-.18-.38l-7.71.09a.23.23,0,0,0-.17.39h0l.35.39c.19.2.38.39.58.58l.42.39.37.33a.3.3,0,0,0,.16,0l4.33,0A.22.22,0,0,0,144.34,76.3Z" transform="translate(-10.62 -13.65)"/><path class="cls-1" d="M148.13,96.17c0-.14,0-.27-.07-.4l0-.1a.39.39,0,0,0-.36-.3l-12-.15a.36.36,0,0,0-.37.28l0,.1c0,.13-.05.26-.08.4l-.09.58c0,.13,0,.26,0,.4h0a.38.38,0,0,0,.37.4l12.42.16a.37.37,0,0,0,.37-.39l0-.39C148.18,96.56,148.16,96.36,148.13,96.17Z" transform="translate(-10.62 -13.65)"/><path class="cls-1" d="M139.41,90.29l-.38.33-.41.39c-.2.19-.4.38-.58.58l-.36.39h0a.24.24,0,0,0,.18.39l7.7.1a.24.24,0,0,0,.19-.39h0l-.35-.4q-.27-.3-.57-.6l-.41-.4-.38-.34a.2.2,0,0,0-.15-.06l-4.32,0A.23.23,0,0,0,139.41,90.29Z" transform="translate(-10.62 -13.65)"/><path class="cls-1" d="M119.45,133.81l-.12-.58c-.19-.89-.38-1.8-.54-2.69-5.21-1-11-1.13-15.81,3.27a1.3,1.3,0,0,0-.46,1.28,1.66,1.66,0,0,0,.45.8,1.82,1.82,0,0,0,.75.47,1.4,1.4,0,0,0,1.45-.35C109.32,132.2,114.54,132.74,119.45,133.81Z" transform="translate(-10.62 -13.65)"/><path class="cls-1" d="M141.07,128.89a1.82,1.82,0,0,0-.76-.48,1.42,1.42,0,0,0-1.44.36c-4.15,3.81-9.37,3.26-14.28,2.19l.12.59c.19.89.38,1.8.54,2.68,5.21,1,11,1.13,15.81-3.27a1.28,1.28,0,0,0,.46-1.27A1.84,1.84,0,0,0,141.07,128.89Z" transform="translate(-10.62 -13.65)"/><path class="cls-1" d="M124.44,136.25c0-.05,0-.1,0-.14,0-.21-.07-.41-.1-.62s0-.2,0-.29l0-.13h0a.78.78,0,0,1,0-.14v0h0a1.57,1.57,0,0,1,0-.23c0-.12,0-.25-.07-.38l0-.14,0-.14c-.13-.72-.29-1.46-.44-2.22-.08-.36-.16-.72-.23-1.09l0-.14,0-.14-.06-.3c0-.21-.08-.41-.12-.63l0-.14s0-.09,0-.14c-.91-4.88-1.28-10,2.58-14a1.65,1.65,0,0,0-.05-2.38l0,0a1.48,1.48,0,0,0-2.22,0c-4.52,4.66-4.58,10.42-3.78,15.64l0,.14a.68.68,0,0,0,0,.14c0,.21.07.41.1.62s0,.19,0,.29l0,.13h0a.78.78,0,0,0,0,.14v0h0c0,.08,0,.16,0,.23s.05.26.07.39l0,.14c0,.05,0,.09,0,.14.14.72.29,1.45.45,2.22.08.36.15.72.23,1.08l0,.15,0,.14c0,.1,0,.19.05.29s.09.42.13.63l0,.14,0,.14c.91,4.88,1.28,10-2.58,14a1.64,1.64,0,0,0,0,2.38s0,0,0,0a1.48,1.48,0,0,0,2.23,0c4.52-4.65,4.57-10.42,3.78-15.63Z" transform="translate(-10.62 -13.65)"/><path class="cls-1" d="M118.1,145.73l.06-.08a.38.38,0,0,0,0-.47l-8.39-8.6a.36.36,0,0,0-.46-.06l-.08.06-.34.22-.48.35-.3.25h0a.37.37,0,0,0,0,.54l8.67,8.9a.37.37,0,0,0,.54,0l.26-.3c.12-.15.25-.31.36-.47Z" transform="translate(-10.62 -13.65)"/><path class="cls-1" d="M119,138.9l-3-3.09a.21.21,0,0,0-.15-.07l-.5,0-.57,0H114l-.52,0h0a.24.24,0,0,0-.15.41l5.38,5.51a.24.24,0,0,0,.41-.14h0c0-.18,0-.35,0-.53a7.61,7.61,0,0,0,0-.83v-.57l0-.51A.22.22,0,0,0,119,138.9Z" transform="translate(-10.62 -13.65)"/><path class="cls-1" d="M135.41,128l.09-.06.33-.23.46-.37a2.55,2.55,0,0,0,.3-.26h0a.35.35,0,0,0,0-.53l-8.89-8.67a.36.36,0,0,0-.54,0h0l-.25.3c-.13.16-.24.32-.36.48l-.22.33,0,.09a.38.38,0,0,0,0,.46l8.61,8.38A.38.38,0,0,0,135.41,128Z" transform="translate(-10.62 -13.65)"/><path class="cls-1" d="M125.48,123.26h0l0,.52c0,.27,0,.55,0,.82s0,.38,0,.57l0,.5a.25.25,0,0,0,.08.15l3.09,3a.21.21,0,0,0,.15.07l.5,0h.58c.28,0,.55,0,.82,0l.53,0h0a.23.23,0,0,0,.14-.4l-5.52-5.38A.24.24,0,0,0,125.48,123.26Z" transform="translate(-10.62 -13.65)"/><path class="cls-1" d="M128.8,97c0,.31,0,.61-.05.92a1.49,1.49,0,0,0,1.58,1.57h.06a1.66,1.66,0,0,0,1.73-1.65c.08-5.54,4-8.93,8.08-11.73l.12-.08.11-.09.54-.35a2.2,2.2,0,0,1,.25-.17l.12-.08.12-.08.93-.61c.65-.43,1.28-.84,1.88-1.25l.12-.08.12-.08.32-.22.19-.14h0l.12-.08h0l.1-.08.25-.17.51-.36.11-.09.11-.08c4.25-3.13,8.29-7.24,8.38-13.73A1.47,1.47,0,0,0,153,66.69H153a1.63,1.63,0,0,0-1.72,1.64c-.08,5.54-4,8.93-8.08,11.74l-.12.08-.12.08-.53.36-.25.16-.12.08-.12.08-.93.61-1.89,1.25-.11.08-.12.08-.32.23-.19.13h0l0,0-.12.08h0l-.11.08-.24.17-.51.36-.11.09-.12.08c-3.15,2.32-6.18,5.18-7.58,9.15A59.72,59.72,0,1,0,128.8,97Z" transform="translate(-10.62 -13.65)"/><path class="cls-2" d="M77,82.47,92.7,65.81a4.61,4.61,0,0,0,1.53-3.22c0-2.32-2.33-3.82-4.49-3.82a5.79,5.79,0,0,0-4.8,2.32l-14,15.64L56.77,60.82a5.32,5.32,0,0,0-4.48-2c-2.8,0-4.88,1.78-4.88,4.1A5,5,0,0,0,48.93,66l15.69,16.6L48,100.23a4.78,4.78,0,0,0-1.44,3.14c0,2.39,2.24,3.89,4.48,3.89a5.87,5.87,0,0,0,4.8-2.32L70.62,88.48l15,16.74a5.34,5.34,0,0,0,4.48,2c2.81,0,4.89-1.77,4.89-4.09A4.87,4.87,0,0,0,93.5,100Z" transform="translate(-10.62 -13.65)"/></svg>