<svg id="Layer_1" data-name="Layer 1" xmlns="http://www.w3.org/2000/svg" viewBox="0 0 144 144"><defs><style>.cls-1{fill:#427cbf;}</style></defs><title>icon-native-dna</title><path class="cls-1" d="M111.84,36.26c0,.43,0,.86,0,1.29,0,.66,0,1.34,0,2,0,.47,0,.93.06,1.4L112,42.2a.53.53,0,0,0,.17.35l12.06,12.06a.52.52,0,0,0,.35.16l1.23.09,1.39,0c.67,0,1.33,0,2,0l1.28-.06h0a.56.56,0,0,0,.36-1l-18-18a.56.56,0,0,0-1,.36Z" transform="translate(-11.06 -11.65)"/><path class="cls-1" d="M118.68,21.41a.87.87,0,0,0-1.28,0h0c-.21.24-.4.49-.6.74s-.58.76-.84,1.15-.36.54-.53.82l-.15.24a.89.89,0,0,0,.13,1.07l25.73,25.73a.88.88,0,0,0,1.07.13l.24-.15c.28-.17.55-.34.81-.53s.78-.55,1.16-.85l.74-.59h0a.86.86,0,0,0,.05-1.27Z" transform="translate(-11.06 -11.65)"/><path class="cls-1" d="M48.32,146.1c.21-.24.41-.48.61-.73s.59-.75.86-1.13.37-.53.55-.79l.14-.22a.89.89,0,0,0-.12-1.1L24.49,116.26a.89.89,0,0,0-1.1-.12l-.22.15c-.26.17-.53.35-.79.54s-.76.56-1.14.86l-.73.61h0a.88.88,0,0,0,0,1.28L47,146.15a.88.88,0,0,0,1.28,0Z" transform="translate(-11.06 -11.65)"/><path class="cls-1" d="M54.21,131.64c0-.42.06-.84.08-1.26,0-.65,0-1.31,0-2,0-.45,0-.91,0-1.36s0-.8-.06-1.2a.58.58,0,0,0-.17-.37L41.25,112.67a.54.54,0,0,0-.36-.16l-1.21-.08-1.38,0c-.66,0-1.32,0-2,0l-1.27.07h0a.57.57,0,0,0-.35,1L53.24,132a.57.57,0,0,0,1-.34Z" transform="translate(-11.06 -11.65)"/><path class="cls-1" d="M103.54,86.19c.07-.38.13-.77.18-1.15.09-.6.15-1.2.2-1.81,0-.41.06-.83.08-1.25l0-1a.58.58,0,0,0-.18-.43L85.59,62.23a.67.67,0,0,0-.44-.18l-1,0c-.41,0-.83,0-1.24.09-.61,0-1.2.12-1.8.21-.38,0-.76.12-1.14.19h0a.6.6,0,0,0-.3,1l22.92,22.92a.6.6,0,0,0,1-.31Z" transform="translate(-11.06 -11.65)"/><path class="cls-1" d="M97.86,97.64c.22-.23.43-.46.64-.7h0a1,1,0,0,0,0-1.37L70.61,67.72a1,1,0,0,0-1.38,0h0l-.7.64-.42.4c-.2.2-.39.4-.57.61s-.43.47-.63.7l0,0A1,1,0,0,0,67,71.4L94.77,99.22a1,1,0,0,0,1.36.06l0,0c.23-.2.47-.41.7-.63s.41-.37.61-.57Z" transform="translate(-11.06 -11.65)"/><path class="cls-1" d="M61.8,81.6c-.06.39-.11.78-.16,1.18-.06.61-.11,1.23-.14,1.86,0,.42,0,.85,0,1.28s0,.73,0,1.1a.58.58,0,0,0,.17.41l17,17a.58.58,0,0,0,.41.17h1.1l1.3,0c.63,0,1.25-.07,1.87-.13.4,0,.8-.09,1.19-.15h0a.59.59,0,0,0,.33-1l-22.06-22a.58.58,0,0,0-1,.32Z" transform="translate(-11.06 -11.65)"/><path class="cls-1" d="M93.57,116.71l.3-.31c-.15,0-.3.11-.45.15Z" transform="translate(-11.06 -11.65)"/><path class="cls-1" d="M50,103c-12.53-2.14-26.47-2.34-37.83,8.38a3.11,3.11,0,0,0-1,3.08,4.41,4.41,0,0,0,2.93,3,3.41,3.41,0,0,0,3.39-.85l.06,0,.64-.58.72-.62c.37-.31.75-.6,1.12-.88l.78-.56c.26-.19.53-.36.8-.53a26.66,26.66,0,0,1,9.35-3.66c.38-.08.76-.14,1.14-.2s.78-.12,1.17-.16c.61-.07,1.23-.13,1.84-.17.42,0,.85,0,1.27-.06l1.32,0a70.74,70.74,0,0,1,14,1.68c-.1-.47-.2-.94-.31-1.4C50.93,107.24,50.44,105.06,50,103Z" transform="translate(-11.06 -11.65)"/><path class="cls-1" d="M101.61,32a60.86,60.86,0,0,0,.74,18.59c2.11.42,4.29.91,6.41,1.38l1.41.31a72.77,72.77,0,0,1-1.68-13.4c0-.44,0-.89,0-1.33s0-.86,0-1.29c0-.63.08-1.24.15-1.86,0-.4.08-.8.14-1.2s.11-.77.18-1.15a26.71,26.71,0,0,1,3.51-9.5c.16-.28.34-.55.52-.82l.14-.21a26.75,26.75,0,0,1,2.5-3.15l.26-.28a3.39,3.39,0,0,0,.89-3.45,4.25,4.25,0,0,0-1.1-1.82,4.13,4.13,0,0,0-1.91-1.11,3.08,3.08,0,0,0-3.08,1,34,34,0,0,0-9.08,19A2.54,2.54,0,0,0,101.61,32Z" transform="translate(-11.06 -11.65)"/><path class="cls-1" d="M106.12,104.57c.22-.24.42-.48.62-.72,9.44-11,8.61-25.39,6.47-37.21l-.7-.13c-2.26-.44-4.56-1-7-1.51l-.13,0c1.33,6.27,2.41,12.76,1.86,18.92q0,.6-.12,1.2c-.05.39-.11.78-.17,1.17-.1.56-.2,1.12-.33,1.68-.08.36-.16.72-.26,1.07s-.19.7-.29,1a24.61,24.61,0,0,1-4.6,8.53c-.2.24-.4.48-.62.72s-.42.46-.64.69l-.4.42c-.2.2-.41.38-.61.57l-.7.64c-.24.21-.48.42-.72.61a24.55,24.55,0,0,1-9.3,4.71c-.36.1-.72.18-1.08.27l-1.1.22c-.58.11-1.15.2-1.73.27-.4.06-.81.1-1.21.13s-.83.07-1.24.09c-5.81.33-11.88-.69-17.75-2l0,.13c.55,2.44,1.07,4.75,1.51,7,0,.23.09.46.13.69,7,1.28,14.93,2.08,22.51.56.37-.07.74-.15,1.1-.24l1.07-.26c.52-.14,1-.29,1.55-.45l1-.33,1-.36a31,31,0,0,0,8.81-5.21l.71-.62c.44-.39.87-.8,1.3-1.22S105.78,104.94,106.12,104.57Z" transform="translate(-11.06 -11.65)"/><path class="cls-1" d="M63.83,116.77c0-.11,0-.22,0-.33l-.06-.34-.12-.7c-.09-.49-.18-1-.28-1.48,0-.1,0-.2,0-.3v0c0-.11,0-.22-.07-.34-.41-2.1-.9-4.27-1.41-6.55-.11-.45-.21-.91-.31-1.36,0-.11,0-.23-.08-.34s0-.23-.07-.34-.11-.47-.16-.71l-.33-1.51c0-.12,0-.23-.07-.34s0-.23-.08-.34c-1.2-5.69-2.18-11.56-1.91-17.18,0-.42,0-.84.08-1.25s.08-.81.13-1.22c.07-.58.15-1.16.25-1.74.07-.37.14-.75.22-1.12s.16-.72.26-1.08a24.32,24.32,0,0,1,4.67-9.34l.62-.72.63-.7.58-.6.42-.4.69-.65.72-.61a24.24,24.24,0,0,1,8.56-4.57l1-.29c.36-.09.72-.18,1.08-.25.56-.12,1.13-.22,1.69-.31.39-.06.79-.12,1.18-.16s.81-.09,1.21-.12c6-.49,12.27.54,18.36,1.83l.34.08.34.07.71.15,1.51.34.34.07.34.08,1.36.31c2.29.51,4.45,1,6.56,1.41l.33.07h0l.3.05.71.13c.49.1,1,.18,1.47.27l.34.06.33.05a60.42,60.42,0,0,0,18.47.64c.8-.12,1.6-.26,2.4-.43a34,34,0,0,0,16.78-8.75,3.56,3.56,0,0,0,.05-5.34l-.1-.1a3.93,3.93,0,0,0-5.71-.21l-.29.26-.71.63-.73.6c-.38.3-.76.58-1.14.86s-.53.37-.79.54-.54.36-.81.52A26.55,26.55,0,0,1,134,57.12c-.39.07-.78.12-1.16.17s-.8.1-1.21.13c-.62.06-1.25.1-1.87.13l-1.3,0q-.67,0-1.35,0A73.72,73.72,0,0,1,114.34,56l-.34-.07-.33-.07-1.51-.32-.71-.15-.33-.07-.34-.08-2.6-.58c-1.83-.41-3.59-.8-5.31-1.15l-.34-.07-.33-.06-.93-.19-.54-.1-.71-.13-.33-.06-.33-.06c-11.82-2.1-26.07-2.79-37,6.63-.24.2-.48.4-.72.62s-.73.69-1.1,1.05-.83.86-1.22,1.3c-.21.23-.42.47-.62.71a31,31,0,0,0-5.23,8.78c-.13.33-.24.65-.36,1s-.23.66-.34,1c-.16.51-.31,1-.45,1.54s-.19.71-.27,1.07-.17.73-.25,1.09C50.21,85.1,51,93,52.2,100l.06.33.06.33c.07.42.15.84.23,1.25,0,.08,0,.15.05.23,0,.23.09.47.14.7l.06.33a3.4,3.4,0,0,1,.07.34c.36,1.72.75,3.48,1.16,5.31l.57,2.6c0,.11,0,.22.08.34s0,.22.07.33c.11.5.22,1,.32,1.51l.15.71c0,.11.05.22.07.33s.05.23.07.34A71.93,71.93,0,0,1,57,128.41c0,.44,0,.88,0,1.32s0,.86-.06,1.28c0,.62-.09,1.24-.15,1.85-.05.39-.1.79-.16,1.18s-.12.76-.19,1.15a26.23,26.23,0,0,1-3.62,9.39c-.17.27-.34.54-.52.81s-.37.52-.56.77-.57.76-.88,1.13-.41.48-.62.71l-.58.66s0,0,0,.05a4,4,0,0,0,.37,5.76,3.55,3.55,0,0,0,5.33-.05C66,143.09,65.91,129.26,63.83,116.77Z" transform="translate(-11.06 -11.65)"/></svg>