<svg id="Layer_1" data-name="Layer 1" xmlns="http://www.w3.org/2000/svg" viewBox="0 0 122.65 132.92"><defs><style>.cls-1{fill:#427cbf;}</style></defs><title>icon-higher-yield-05e</title><path class="cls-1" d="M16.19,28.88V25.4h3.72c.78,0,1.1-.09,1.36-.32a3.09,3.09,0,0,0,.47-1.92,2.74,2.74,0,0,0-.47-1.89c-.2-.23-.55-.35-1.36-.35H17c-.85,0-1.28.09-1.51.32s-.41.93-.5,2.79H10.29c0-2.93.44-4.65,1.54-5.75.76-.76,1.92-1.05,3.87-1.05h5.92c1.86,0,2.94.33,3.69,1.08a5.67,5.67,0,0,1,1.37,4.15c0,2.76-1.34,4.16-3,4.62v.06c1.95.41,3.14,1.8,3.14,4.71a6.24,6.24,0,0,1-1.48,4.59c-.81.81-1.92,1.13-3.72,1.13H15.49c-2,0-3.1-.32-3.86-1.08-1.1-1.1-1.48-3-1.51-6.13h4.65c.08,2.18.2,2.94.46,3.17s.58.32,1.6.32H20c.81,0,1.13-.09,1.39-.35a3.1,3.1,0,0,0,.49-2.12,3.39,3.39,0,0,0-.46-2.18c-.26-.23-.58-.32-1.37-.32Z" transform="translate(-0.03 0)"/><path class="cls-1" d="M34.21,32.92v4.65H29.65V32.92Z" transform="translate(-0.03 0)"/><path class="cls-1" d="M37.35,27.81l.7-10.58h14.7V21H42l-.35,4.36.23,0c1.14-1,1.78-1.16,3.69-1.16h2.65c1.94,0,3,.32,3.74,1.1,1,1,1.4,2.61,1.4,5.29,0,3.54-.41,4.76-1.42,5.84a4.69,4.69,0,0,1-3.58,1.13H42.18c-1.86,0-3.14-.32-3.84-1C37.41,35.62,37,34.29,37,31l4.57,0c0,1.66.26,2.3.49,2.5s.64.35,1.57.35h3.16a2.07,2.07,0,0,0,1.4-.32c.26-.26.49-.87.49-2.67s-.23-2.38-.49-2.64-.58-.32-1.4-.32h-2A5.76,5.76,0,0,0,41.3,29Z" transform="translate(-0.03 0)"/><path class="cls-1" d="M54.94,37.57l5.34-8.16L55,21.59h5l3.14,4.82h.26l3.14-4.82H71.2l-5.28,7.9,5.4,8.08h-5l-3.31-5h-.23l-3.22,5Z" transform="translate(-0.03 0)"/><path class="cls-1" d="M120.16,124.92H2.52A2.36,2.36,0,0,0,0,127.06v3.7a2.36,2.36,0,0,0,2.52,2.15H120.16a2.36,2.36,0,0,0,2.52-2.15v-3.7A2.37,2.37,0,0,0,120.16,124.92Z" transform="translate(-0.03 0)"/><path class="cls-1" d="M13.24,115.14h5.22c2,0,3.13-3.68,3.13-7.15V88.62c0-3.47-1.1-7.16-3.13-7.16H13.24c-2,0-3.12,3.69-3.12,7.16V108C10.12,111.46,11.21,115.14,13.24,115.14Z" transform="translate(-0.03 0)"/><path class="cls-1" d="M36.58,115.14h5.23c2,0,3.12-3.68,3.12-7.15V79.37c0-3.47-1.09-7.16-3.12-7.16H36.58c-2,0-3.12,3.69-3.12,7.16V108C33.46,111.46,34.55,115.14,36.58,115.14Z" transform="translate(-0.03 0)"/><path class="cls-1" d="M58.73,115.14H64c2,0,3.13-3.68,3.13-7.15V59.12C67.08,55.65,66,52,64,52H58.73c-2,0-3.13,3.69-3.13,7.16V108C55.6,111.46,56.7,115.14,58.73,115.14Z" transform="translate(-0.03 0)"/><path class="cls-1" d="M80.87,115.14H86.1c2,0,3.12-3.68,3.12-7.15V41.45c0-3.47-1.1-7.16-3.12-7.16H80.87c-2,0-3.12,3.69-3.12,7.16V108C77.75,111.46,78.84,115.14,80.87,115.14Z" transform="translate(-0.03 0)"/><path class="cls-1" d="M103,115.14h5.23c1.78,0,3.12-2.78,3.12-6.48V6.48C111.38,2.79,110,0,108.26,0H103c-1.78,0-3.12,2.79-3.12,6.48V108.66C99.89,112.37,101.23,115.14,103,115.14Z" transform="translate(-0.03 0)"/><path class="cls-1" d="M10.78,10.31c-.49-.48-.66-1.1-.66-3.4s.17-2.89.66-3.38a2,2,0,0,1,1.55-.43h2a2,2,0,0,1,1.54.43c.5.49.67,1.1.67,3.38s-.17,2.92-.67,3.4a2,2,0,0,1-1.54.43h-2A2,2,0,0,1,10.78,10.31Zm.74-.73c.17.16.38.22.93.22h1.77c.54,0,.75-.06.91-.22s.36-.6.36-2.67-.13-2.42-.36-2.65S14.76,4,14.22,4H12.45c-.55,0-.76,0-.93.22s-.34.6-.34,2.65S11.29,9.36,11.52,9.58Z" transform="translate(-0.03 0)"/><path class="cls-1" d="M18.73,10.74V3.1h1.06v1c1-.82,1.36-1,2.17-1h1.11a1.69,1.69,0,0,1,1.33.4A2,2,0,0,1,24.8,5v5.72H23.74V5.09a1.11,1.11,0,0,0-.22-.85c-.16-.15-.3-.21-.86-.21h-1a3.1,3.1,0,0,0-1.87.69v6Z" transform="translate(-0.03 0)"/><path class="cls-1" d="M30.89,3.52A1.73,1.73,0,0,1,32.3,3.1h2.06c.84,0,1.18.13,1.44.4s.4.74.4,1.76v5.48h-1v-1c-.95.76-1.29,1-2.09,1H32a1.85,1.85,0,0,1-1.43-.42,2.13,2.13,0,0,1-.46-1.66,2.36,2.36,0,0,1,.48-1.74c.32-.33.72-.52,2.19-.52a15.36,15.36,0,0,1,2.42.19V5.33c0-.76-.07-1-.22-1.16s-.3-.18-.8-.18H32.57c-.48,0-.71,0-.88.21s-.25.47-.26,1.17h-1C30.42,4.27,30.57,3.85,30.89,3.52Zm4.27,5.65V7.23H32.67c-.9,0-1.11.07-1.3.26s-.25.41-.25,1,.05,1,.22,1.11a1.12,1.12,0,0,0,.83.22h1.07A3.12,3.12,0,0,0,35.16,9.17Z" transform="translate(-0.03 0)"/><path class="cls-1" d="M41.71,10.43c-.1.28-.18.35-.47.35h-.65c-.29,0-.38-.07-.48-.35L37.57,3.1h1.16l2.13,6.51H41L43.15,3.1h1.1Z" transform="translate(-0.03 0)"/><path class="cls-1" d="M46.53,7.26c0,1.74.13,2.12.34,2.34s.37.21.91.21h1.9c.47,0,.67-.05.83-.21s.24-.42.26-1.2h1c0,1.17-.16,1.57-.53,1.94a1.77,1.77,0,0,1-1.39.4h-2.2a2,2,0,0,1-1.55-.43c-.49-.48-.66-1.1-.66-3.4s.17-2.89.66-3.38a2,2,0,0,1,1.55-.43H49.6a2.07,2.07,0,0,1,1.54.42c.48.5.66,1.11.66,3.32v.25c0,.11,0,.17-.18.17Zm0-.85h4.22c0-1.57-.12-1.95-.35-2.17S50,4,49.48,4h-1.7c-.54,0-.74.05-.92.24S46.54,4.82,46.53,6.41Z" transform="translate(-0.03 0)"/><path class="cls-1" d="M54,10.74V3.1h1V4.34c.93-1,1.27-1.25,1.92-1.25h.91V4.17h-1A2.77,2.77,0,0,0,55,4.83v5.91Z" transform="translate(-0.03 0)"/><path class="cls-1" d="M59.8,3.52a1.73,1.73,0,0,1,1.41-.42h2.06c.84,0,1.18.13,1.44.4s.4.74.4,1.76v5.48h-1v-1c-.95.76-1.29,1-2.09,1H60.87a1.85,1.85,0,0,1-1.43-.42A2.13,2.13,0,0,1,59,8.67a2.36,2.36,0,0,1,.48-1.74c.32-.33.72-.52,2.19-.52a15.36,15.36,0,0,1,2.42.19V5.33c0-.76-.07-1-.22-1.16s-.3-.18-.8-.18H61.48c-.48,0-.71,0-.88.21s-.25.47-.26,1.17h-1C59.33,4.27,59.48,3.85,59.8,3.52Zm4.27,5.65V7.23H61.58c-.9,0-1.11.07-1.3.26s-.25.41-.25,1,0,1,.23,1.11a1.08,1.08,0,0,0,.82.22h1.07A3.12,3.12,0,0,0,64.07,9.17Z" transform="translate(-0.03 0)"/><path class="cls-1" d="M69.1,12.88a1.62,1.62,0,0,1-1.23-.37c-.3-.3-.4-.64-.42-1.48h1.06c0,.5.07.65.23.8s.26.17.7.17h2.15c.42,0,.59-.05.73-.19s.23-.3.23-1.13V9.06c-1,.81-1.38,1-2.17,1H69.5a2.06,2.06,0,0,1-1.63-.47c-.44-.46-.6-1-.6-3s.16-2.55.6-3a2.06,2.06,0,0,1,1.63-.47h.88c.79,0,1.16.2,2.17,1v-1h1.06v7.47c0,1.21-.15,1.58-.49,1.93a1.7,1.7,0,0,1-1.33.38Zm3.45-4.44V4.74A3.21,3.21,0,0,0,70.65,4h-.94c-.61,0-.86.1-1,.27s-.35.63-.35,2.28.07,2,.35,2.29.42.28,1,.28h1A3.14,3.14,0,0,0,72.55,8.44Z" transform="translate(-0.03 0)"/><path class="cls-1" d="M76.85,7.26c0,1.74.13,2.12.34,2.34s.38.21.92.21H80c.47,0,.67-.05.83-.21s.24-.42.25-1.2h1c0,1.17-.16,1.57-.53,1.94a1.73,1.73,0,0,1-1.38.4H78a2,2,0,0,1-1.56-.43c-.48-.48-.65-1.1-.65-3.4S76,4,76.45,3.53A2,2,0,0,1,78,3.1h1.91a2.07,2.07,0,0,1,1.54.42c.49.5.66,1.11.66,3.32v.25c0,.11,0,.17-.17.17Zm0-.85h4.23c0-1.57-.13-1.95-.36-2.17S80.36,4,79.81,4h-1.7c-.54,0-.74.05-.93.24S76.87,4.82,76.85,6.41Z" transform="translate(-0.03 0)"/></svg>