<svg id="Layer_1" data-name="Layer 1" xmlns="http://www.w3.org/2000/svg" viewBox="0 0 122.65 132.92"><defs><style>.cls-1{fill:#427cbf;}</style></defs><title>icon-higher-yield-05d</title><path class="cls-1" d="M120.16,124.92H2.52A2.36,2.36,0,0,0,0,127.06v3.7a2.36,2.36,0,0,0,2.52,2.15H120.16a2.36,2.36,0,0,0,2.52-2.15v-3.7A2.37,2.37,0,0,0,120.16,124.92Z" transform="translate(-0.03 0)"/><path class="cls-1" d="M14.44,115.14h5.22c2,0,3.13-3.68,3.13-7.15V88.62c0-3.47-1.1-7.16-3.13-7.16H14.44c-2,0-3.12,3.69-3.12,7.16V108C11.32,111.46,12.41,115.14,14.44,115.14Z" transform="translate(-0.03 0)"/><path class="cls-1" d="M36.58,115.14h5.23c2,0,3.12-3.68,3.12-7.15V79.37c0-3.47-1.09-7.16-3.12-7.16H36.58c-2,0-3.12,3.69-3.12,7.16V108C33.46,111.46,34.55,115.14,36.58,115.14Z" transform="translate(-0.03 0)"/><path class="cls-1" d="M58.73,115.14H64c2,0,3.13-3.68,3.13-7.15V59.12C67.08,55.65,66,52,64,52H58.73c-2,0-3.13,3.69-3.13,7.16V108C55.6,111.46,56.7,115.14,58.73,115.14Z" transform="translate(-0.03 0)"/><path class="cls-1" d="M80.87,115.14H86.1c2,0,3.12-3.68,3.12-7.15V41.45c0-3.47-1.1-7.16-3.12-7.16H80.87c-2,0-3.12,3.69-3.12,7.16V108C77.75,111.46,78.84,115.14,80.87,115.14Z" transform="translate(-0.03 0)"/><path class="cls-1" d="M103,115.14h5.23c1.78,0,3.12-2.78,3.12-6.48V6.48C111.38,2.79,110,0,108.26,0H103c-1.78,0-3.12,2.79-3.12,6.48V108.66C99.89,112.37,101.23,115.14,103,115.14Z" transform="translate(-0.03 0)"/><path class="cls-1" d="M10.78,13.31c-.49-.48-.66-1.1-.66-3.4s.17-2.89.66-3.38a2,2,0,0,1,1.55-.43h2a2,2,0,0,1,1.54.43c.5.49.67,1.1.67,3.38s-.17,2.92-.67,3.4a2,2,0,0,1-1.54.43h-2A2,2,0,0,1,10.78,13.31Zm.74-.73c.17.16.38.22.93.22h1.77c.54,0,.75-.06.91-.22s.36-.6.36-2.67-.13-2.42-.36-2.65S14.76,7,14.22,7H12.45c-.55,0-.76,0-.93.22s-.34.6-.34,2.65S11.29,12.36,11.52,12.58Z" transform="translate(-0.03 0)"/><path class="cls-1" d="M18.73,13.74V6.1h1.06v1c1-.82,1.36-1,2.17-1h1.11a1.69,1.69,0,0,1,1.33.4A2,2,0,0,1,24.8,8v5.72H23.74V8.09a1.11,1.11,0,0,0-.22-.85c-.16-.15-.3-.21-.86-.21h-1a3.1,3.1,0,0,0-1.87.69v6Z" transform="translate(-0.03 0)"/><path class="cls-1" d="M30.89,6.52A1.73,1.73,0,0,1,32.3,6.1h2.06c.84,0,1.18.13,1.44.4s.4.74.4,1.76v5.48h-1v-1c-.95.76-1.29,1-2.09,1H32a1.85,1.85,0,0,1-1.43-.42,2.13,2.13,0,0,1-.46-1.66,2.36,2.36,0,0,1,.48-1.74c.32-.33.72-.52,2.19-.52a15.36,15.36,0,0,1,2.42.19V8.33c0-.76-.07-1-.22-1.16s-.3-.18-.8-.18H32.57c-.48,0-.71,0-.88.21s-.25.47-.26,1.17h-1C30.42,7.27,30.57,6.85,30.89,6.52Zm4.27,5.65V10.23H32.67c-.9,0-1.11.07-1.3.26s-.25.41-.25,1,.05,1,.22,1.11a1.12,1.12,0,0,0,.83.22h1.07A3.12,3.12,0,0,0,35.16,12.17Z" transform="translate(-0.03 0)"/><path class="cls-1" d="M41.71,13.43c-.1.28-.18.35-.47.35h-.65c-.29,0-.38-.07-.48-.35L37.57,6.1h1.16l2.13,6.51H41L43.15,6.1h1.1Z" transform="translate(-0.03 0)"/><path class="cls-1" d="M46.53,10.26c0,1.74.13,2.12.34,2.34s.37.21.91.21h1.9c.47,0,.67-.05.83-.21s.24-.42.26-1.2h1c0,1.17-.16,1.57-.53,1.94a1.77,1.77,0,0,1-1.39.4h-2.2a2,2,0,0,1-1.55-.43c-.49-.48-.66-1.1-.66-3.4s.17-2.89.66-3.38a2,2,0,0,1,1.55-.43H49.6a2.07,2.07,0,0,1,1.54.42c.48.5.66,1.11.66,3.32v.25c0,.11,0,.17-.18.17Zm0-.85h4.22c0-1.57-.12-1.95-.35-2.17S50,7,49.48,7h-1.7c-.54,0-.74.05-.92.24S46.54,7.82,46.53,9.41Z" transform="translate(-0.03 0)"/><path class="cls-1" d="M54,13.74V6.1h1V7.34c.93-1,1.27-1.25,1.92-1.25h.91V7.17h-1A2.77,2.77,0,0,0,55,7.83v5.91Z" transform="translate(-0.03 0)"/><path class="cls-1" d="M59.8,6.52a1.73,1.73,0,0,1,1.41-.42h2.06c.84,0,1.18.13,1.44.4s.4.74.4,1.76v5.48h-1v-1c-.95.76-1.29,1-2.09,1H60.87a1.85,1.85,0,0,1-1.43-.42A2.13,2.13,0,0,1,59,11.67a2.36,2.36,0,0,1,.48-1.74c.32-.33.72-.52,2.19-.52a15.36,15.36,0,0,1,2.42.19V8.33c0-.76-.07-1-.22-1.16s-.3-.18-.8-.18H61.48c-.48,0-.71,0-.88.21s-.25.47-.26,1.17h-1C59.33,7.27,59.48,6.85,59.8,6.52Zm4.27,5.65V10.23H61.58c-.9,0-1.11.07-1.3.26s-.25.41-.25,1,0,1,.23,1.11a1.08,1.08,0,0,0,.82.22h1.07A3.12,3.12,0,0,0,64.07,12.17Z" transform="translate(-0.03 0)"/><path class="cls-1" d="M69.1,15.88a1.62,1.62,0,0,1-1.23-.37c-.3-.3-.4-.64-.42-1.48h1.06c0,.5.07.65.23.8s.26.17.7.17h2.15c.42,0,.59-.05.73-.19s.23-.3.23-1.13V12.06c-1,.81-1.38,1-2.17,1H69.5a2.06,2.06,0,0,1-1.63-.47c-.44-.46-.6-1-.6-3s.16-2.55.6-3a2.06,2.06,0,0,1,1.63-.47h.88c.79,0,1.16.2,2.17,1v-1h1.06v7.47c0,1.21-.15,1.58-.49,1.93a1.7,1.7,0,0,1-1.33.38Zm3.45-4.44V7.74A3.21,3.21,0,0,0,70.65,7h-.94c-.61,0-.86.1-1,.27s-.35.63-.35,2.28.07,2,.35,2.29.42.28,1,.28h1A3.14,3.14,0,0,0,72.55,11.44Z" transform="translate(-0.03 0)"/><path class="cls-1" d="M76.85,10.26c0,1.74.13,2.12.34,2.34s.38.21.92.21H80c.47,0,.67-.05.83-.21s.24-.42.25-1.2h1c0,1.17-.16,1.57-.53,1.94a1.73,1.73,0,0,1-1.38.4H78a2,2,0,0,1-1.56-.43c-.48-.48-.65-1.1-.65-3.4S76,7,76.45,6.53A2,2,0,0,1,78,6.1h1.91a2.07,2.07,0,0,1,1.54.42c.49.5.66,1.11.66,3.32v.25c0,.11,0,.17-.17.17Zm0-.85h4.23c0-1.57-.13-1.95-.36-2.17S80.36,7,79.81,7h-1.7c-.54,0-.74.05-.93.24S76.87,7.82,76.85,9.41Z" transform="translate(-0.03 0)"/><path class="cls-1" d="M17.88,36.58V32.29h4.58c1,0,1.36-.11,1.68-.4a3.84,3.84,0,0,0,.57-2.36,3.44,3.44,0,0,0-.57-2.32c-.25-.29-.68-.43-1.68-.43H18.81c-1,0-1.57.1-1.86.39s-.5,1.15-.61,3.43H10.62c0-3.61.54-5.72,1.9-7.08.93-.93,2.36-1.29,4.75-1.29h7.3c2.29,0,3.61.4,4.54,1.33a7,7,0,0,1,1.68,5.11c0,3.4-1.64,5.12-3.65,5.69v.07c2.4.5,3.87,2.22,3.87,5.8,0,2.5-.58,4.4-1.83,5.65-1,1-2.36,1.39-4.57,1.39H17c-2.43,0-3.82-.39-4.75-1.32-1.36-1.36-1.83-3.65-1.87-7.55h5.73c.11,2.69.25,3.61.57,3.9s.72.39,2,.39H22.6c1,0,1.4-.1,1.72-.43s.61-1.1.61-2.61-.25-2.36-.57-2.68-.72-.39-1.69-.39Z" transform="translate(-0.03 0)"/><path class="cls-1" d="M33.43,47.27,40,37.22,33.54,27.6h6.12l3.86,5.94h.32L47.7,27.6h5.76L47,37.33l6.65,9.94H47.49l-4.08-6.18h-.28l-4,6.18Z" transform="translate(-0.03 0)"/></svg>