<svg id="Layer_1" data-name="Layer 1" xmlns="http://www.w3.org/2000/svg" viewBox="0 0 122.65 132.92"><defs><style>.cls-1{fill:#427cbf;}</style></defs><title>icon-higher-yield-05g</title><path class="cls-1" d="M7.24,29.16V25.59h3.81c.8,0,1.13-.09,1.4-.33a3.22,3.22,0,0,0,.47-2,2.89,2.89,0,0,0-.47-1.93c-.21-.24-.57-.36-1.4-.36H8c-.87,0-1.31.09-1.55.33s-.42.95-.5,2.85H1.21c0-3,.44-4.76,1.57-5.89.78-.77,2-1.07,4-1.07H12.8c1.91,0,3,.33,3.78,1.11A5.79,5.79,0,0,1,18,22.59c0,2.82-1.37,4.25-3,4.72v.06c2,.42,3.22,1.85,3.22,4.82a6.4,6.4,0,0,1-1.52,4.7c-.83.83-2,1.16-3.81,1.16H6.53c-2,0-3.18-.33-3.95-1.1-1.13-1.13-1.52-3-1.55-6.28H5.79c.09,2.23.2,3,.47,3.24s.6.33,1.64.33h3.27c.83,0,1.16-.09,1.43-.36a3.2,3.2,0,0,0,.5-2.17,3.45,3.45,0,0,0-.47-2.22c-.27-.24-.6-.33-1.4-.33Z" transform="translate(-0.03 0)"/><path class="cls-1" d="M25.69,33.29v4.76H21V33.29Z" transform="translate(-0.03 0)"/><path class="cls-1" d="M28.9,28.06l.72-10.83h15v3.84h-11l-.36,4.46.24,0c1.16-1,1.82-1.19,3.78-1.19h2.7c2,0,3,.33,3.84,1.13,1,1,1.43,2.68,1.43,5.41,0,3.63-.42,4.88-1.46,6-.71.74-1.81,1.16-3.66,1.16H33.84c-1.9,0-3.21-.33-3.92-1-1-1-1.37-2.35-1.37-5.68l4.67,0c0,1.69.26,2.35.5,2.55s.65.36,1.61.36h3.24A2.05,2.05,0,0,0,40,33.91c.27-.26.51-.89.51-2.73s-.24-2.44-.51-2.71a2.06,2.06,0,0,0-1.42-.32H36.49A5.81,5.81,0,0,0,33,29.25Z" transform="translate(-0.03 0)"/><path class="cls-1" d="M46.9,38.05l5.47-8.36-5.38-8h5.08l3.22,4.94h.26l3.21-4.94h4.79l-5.41,8.09,5.53,8.27H58.59L55.2,32.9H55l-3.3,5.15Z" transform="translate(-0.03 0)"/><path class="cls-1" d="M120.16,124.92H2.52A2.36,2.36,0,0,0,0,127.06v3.7a2.36,2.36,0,0,0,2.52,2.15H120.16a2.36,2.36,0,0,0,2.52-2.15v-3.7A2.37,2.37,0,0,0,120.16,124.92Z" transform="translate(-0.03 0)"/><path class="cls-1" d="M13.24,115.14h5.22c2,0,3.13-3.68,3.13-7.15V88.62c0-3.47-1.1-7.16-3.13-7.16H13.24c-2,0-3.12,3.69-3.12,7.16V108C10.12,111.46,11.21,115.14,13.24,115.14Z" transform="translate(-0.03 0)"/><path class="cls-1" d="M36.58,115.14h5.23c2,0,3.12-3.68,3.12-7.15V79.37c0-3.47-1.09-7.16-3.12-7.16H36.58c-2,0-3.12,3.69-3.12,7.16V108C33.46,111.46,34.55,115.14,36.58,115.14Z" transform="translate(-0.03 0)"/><path class="cls-1" d="M58.73,115.14H64c2,0,3.13-3.68,3.13-7.15V59.12C67.08,55.65,66,52,64,52H58.73c-2,0-3.13,3.69-3.13,7.16V108C55.6,111.46,56.7,115.14,58.73,115.14Z" transform="translate(-0.03 0)"/><path class="cls-1" d="M80.87,115.14H86.1c2,0,3.12-3.68,3.12-7.15V41.45c0-3.47-1.1-7.16-3.12-7.16H80.87c-2,0-3.12,3.69-3.12,7.16V108C77.75,111.46,78.84,115.14,80.87,115.14Z" transform="translate(-0.03 0)"/><path class="cls-1" d="M103,115.14h5.23c1.78,0,3.12-2.78,3.12-6.48V6.48C111.38,2.79,110,0,108.26,0H103c-1.78,0-3.12,2.79-3.12,6.48V108.66C99.89,112.37,101.23,115.14,103,115.14Z" transform="translate(-0.03 0)"/><path class="cls-1" d="M1.69,10.31C1.2,9.83,1,9.21,1,6.91S1.2,4,1.69,3.53A2,2,0,0,1,3.24,3.1h2a2,2,0,0,1,1.54.43c.5.49.67,1.1.67,3.38s-.17,2.92-.67,3.4a2,2,0,0,1-1.54.43h-2A2,2,0,0,1,1.69,10.31Zm.74-.73c.17.16.38.22.93.22H5.13c.54,0,.75-.06.91-.22S6.4,9,6.4,6.91,6.27,4.49,6,4.26,5.67,4,5.13,4H3.36c-.55,0-.76,0-.93.22s-.34.6-.34,2.65S2.2,9.36,2.43,9.58Z" transform="translate(-0.03 0)"/><path class="cls-1" d="M9.64,10.74V3.1H10.7v1c1-.82,1.36-1,2.17-1H14a1.69,1.69,0,0,1,1.33.4A2,2,0,0,1,15.71,5v5.72H14.65V5.09a1.11,1.11,0,0,0-.22-.85c-.16-.15-.3-.21-.86-.21h-1a3.1,3.1,0,0,0-1.87.69v6Z" transform="translate(-0.03 0)"/><path class="cls-1" d="M21.8,3.52a1.73,1.73,0,0,1,1.41-.42h2.06c.84,0,1.18.13,1.44.4s.4.74.4,1.76v5.48h-1v-1c-.95.76-1.29,1-2.09,1H22.87a1.85,1.85,0,0,1-1.43-.42A2.13,2.13,0,0,1,21,8.67a2.36,2.36,0,0,1,.48-1.74c.32-.33.72-.52,2.19-.52a15.36,15.36,0,0,1,2.42.19V5.33c0-.76-.07-1-.22-1.16s-.3-.18-.8-.18H23.48c-.48,0-.71,0-.88.21s-.25.47-.26,1.17h-1C21.33,4.27,21.48,3.85,21.8,3.52Zm4.27,5.65V7.23H23.58c-.9,0-1.11.07-1.3.26s-.25.41-.25,1,0,1,.22,1.11a1.12,1.12,0,0,0,.83.22h1.07A3.12,3.12,0,0,0,26.07,9.17Z" transform="translate(-0.03 0)"/><path class="cls-1" d="M32.62,10.43c-.1.28-.18.35-.47.35H31.5c-.29,0-.38-.07-.48-.35L28.48,3.1h1.16l2.13,6.51H32L34.06,3.1h1.1Z" transform="translate(-0.03 0)"/><path class="cls-1" d="M37.44,7.26c0,1.74.13,2.12.34,2.34s.37.21.91.21h1.9c.47,0,.67-.05.83-.21s.24-.42.26-1.2h1c0,1.17-.16,1.57-.53,1.94a1.77,1.77,0,0,1-1.39.4h-2.2A2,2,0,0,1,37,10.31c-.49-.48-.66-1.1-.66-3.4S36.55,4,37,3.53a2,2,0,0,1,1.55-.43h1.92a2.07,2.07,0,0,1,1.54.42c.48.5.66,1.11.66,3.32v.25c0,.11-.05.17-.18.17Zm0-.85h4.22c0-1.57-.12-1.95-.35-2.17S41,4,40.39,4h-1.7c-.54,0-.74.05-.92.24S37.45,4.82,37.44,6.41Z" transform="translate(-0.03 0)"/><path class="cls-1" d="M44.87,10.74V3.1h1.05V4.34c.93-1,1.27-1.25,1.92-1.25h.91V4.17h-1a2.77,2.77,0,0,0-1.82.66v5.91Z" transform="translate(-0.03 0)"/><path class="cls-1" d="M50.71,3.52a1.73,1.73,0,0,1,1.41-.42h2.06c.84,0,1.18.13,1.44.4s.4.74.4,1.76v5.48H55v-1c-.95.76-1.29,1-2.09,1H51.78a1.85,1.85,0,0,1-1.43-.42,2.13,2.13,0,0,1-.46-1.66,2.36,2.36,0,0,1,.48-1.74c.32-.33.72-.52,2.19-.52A15.36,15.36,0,0,1,55,6.6V5.33c0-.76-.07-1-.22-1.16S54.46,4,54,4H52.39c-.48,0-.71,0-.88.21s-.25.47-.26,1.17h-1C50.24,4.27,50.39,3.85,50.71,3.52ZM55,9.17V7.23H52.49c-.9,0-1.11.07-1.3.26s-.25.41-.25,1,.05,1,.22,1.11a1.12,1.12,0,0,0,.83.22h1.07A3.12,3.12,0,0,0,55,9.17Z" transform="translate(-0.03 0)"/><path class="cls-1" d="M60,12.88a1.62,1.62,0,0,1-1.23-.37c-.3-.3-.4-.64-.42-1.48h1.06c0,.5.07.65.23.8s.26.17.7.17H62.5c.42,0,.59-.05.73-.19s.23-.3.23-1.13V9.06c-1,.81-1.38,1-2.17,1h-.88a2.06,2.06,0,0,1-1.63-.47c-.44-.46-.6-1-.6-3s.16-2.55.6-3a2.06,2.06,0,0,1,1.63-.47h.88c.79,0,1.16.2,2.17,1v-1h1.06v7.47c0,1.21-.15,1.58-.49,1.93a1.7,1.7,0,0,1-1.33.38Zm3.45-4.44V4.74A3.21,3.21,0,0,0,61.56,4h-.94c-.61,0-.86.1-1,.27s-.35.63-.35,2.28.07,2,.35,2.29.42.28,1,.28h1A3.14,3.14,0,0,0,63.46,8.44Z" transform="translate(-0.03 0)"/><path class="cls-1" d="M67.76,7.26c0,1.74.13,2.12.34,2.34s.38.21.92.21h1.9c.47,0,.67-.05.83-.21S72,9.18,72,8.4h1c0,1.17-.16,1.57-.53,1.94a1.73,1.73,0,0,1-1.38.4h-2.2a2,2,0,0,1-1.56-.43c-.48-.48-.65-1.1-.65-3.4s.17-2.89.65-3.38a2,2,0,0,1,1.56-.43h1.91a2.07,2.07,0,0,1,1.54.42c.49.5.66,1.11.66,3.32v.25c0,.11,0,.17-.17.17Zm0-.85H72c0-1.57-.13-1.95-.36-2.17S71.27,4,70.72,4H69c-.54,0-.74.05-.93.24S67.78,4.82,67.76,6.41Z" transform="translate(-0.03 0)"/></svg>