<svg id="Layer_1" data-name="Layer 1" xmlns="http://www.w3.org/2000/svg" viewBox="0 0 142.63 115.78"><defs><style>.cls-1{fill:#427cbf;}</style></defs><title>icon-no-downstream</title><path class="cls-1" d="M92.76,40H74.36a.9.9,0,0,0-.82.53,1,1,0,0,0,.13,1v0c.21.25.42.5.64.74s.68.75,1.05,1.12.5.51.76.75.45.43.68.64a.89.89,0,0,0,.61.24H89.74a.89.89,0,0,0,.62-.24l.67-.64q.39-.37.75-.75c.35-.36.7-.73,1-1.12l.64-.76a1,1,0,0,0,.12-1A.91.91,0,0,0,92.76,40Z" transform="translate(-11.35 -25.41)"/><path class="cls-1" d="M69.07,31.93c0,.25.1.5.15.75l0,.23a1.15,1.15,0,0,0,1.11.91H96.67a1.15,1.15,0,0,0,1.11-.92l0-.22.15-.76c.06-.34.11-.72.16-1.13,0-.25,0-.5.07-.76a1.23,1.23,0,0,0-.31-.92,1.15,1.15,0,0,0-.83-.36H70a1.15,1.15,0,0,0-.83.36,1.24,1.24,0,0,0-.31.93c0,.25,0,.5.08.75C69,31.21,69,31.59,69.07,31.93Z" transform="translate(-11.35 -25.41)"/><path class="cls-1" d="M98.17,136.17c0-.38-.08-.76-.14-1.13s-.08-.51-.13-.76l0-.2a1.16,1.16,0,0,0-1.12-1H70.31a1.16,1.16,0,0,0-1.12,1l0,.2c-.05.25-.1.5-.14.76s-.1.74-.14,1.13-.05.5-.06.76a1.23,1.23,0,0,0,.32.92,1.13,1.13,0,0,0,.82.36H97.09a1.13,1.13,0,0,0,.82-.36,1.23,1.23,0,0,0,.32-.92h0C98.22,136.67,98.2,136.42,98.17,136.17Z" transform="translate(-11.35 -25.41)"/><path class="cls-1" d="M76.42,122.14l-.67.64c-.25.24-.49.49-.73.75s-.69.74-1,1.12l-.63.76a.94.94,0,0,0-.11,1,.91.91,0,0,0,.82.53H93a.91.91,0,0,0,.82-.53.94.94,0,0,0-.1-1v0l-.61-.75c-.3-.35-.63-.71-1-1.12l-.73-.75-.65-.64a.9.9,0,0,0-.62-.25H77A.9.9,0,0,0,76.42,122.14Z" transform="translate(-11.35 -25.41)"/><path class="cls-1" d="M95.75,73.11c-.16-.26-.32-.51-.5-.75-.27-.39-.55-.77-.84-1.13l-.61-.75c-.17-.21-.35-.41-.53-.61a.93.93,0,0,0-.69-.31H73.92a.94.94,0,0,0-.7.32l-.52.6-.6.75c-.31.4-.58.76-.83,1.13s-.34.5-.5.77a1,1,0,0,0,0,1,.94.94,0,0,0,.82.5H95a.94.94,0,0,0,.83-.5,1,1,0,0,0,0-1Z" transform="translate(-11.35 -25.41)"/><path class="cls-1" d="M98.74,84.73c0-.25,0-.51,0-.76v-.11c0-.19,0-.37,0-.56s0-.21,0-.31v-.16l0-.76a1.27,1.27,0,0,0-1.24-1.21H69.07a1.27,1.27,0,0,0-1.24,1.22c0,.25,0,.5,0,.75V83c0,.1,0,.21,0,.31s0,.37,0,.55V84c0,.25,0,.51,0,.77a1.27,1.27,0,0,0,1.23,1.2H97.5A1.27,1.27,0,0,0,98.74,84.73Z" transform="translate(-11.35 -25.41)"/><path class="cls-1" d="M94.53,92.65H72a1,1,0,0,0-.82.51,1,1,0,0,0,.06,1h0l.53.75c.27.36.56.73.89,1.13l.65.75.57.62a.94.94,0,0,0,.67.29H91.94a1,1,0,0,0,.67-.29l.57-.62q.33-.36.66-.75c.31-.36.61-.74.9-1.12s.37-.5.55-.76a1,1,0,0,0,.06-1A.93.93,0,0,0,94.53,92.65Z" transform="translate(-11.35 -25.41)"/><path class="cls-1" d="M105.21,95.52l-.35.73h1.48V93.08l-1,2.11Z" transform="translate(-11.35 -25.41)"/><path class="cls-1" d="M71.15,126c.16-.25.33-.49.51-.73s.53-.7.83-1.08.4-.49.61-.73l.65-.72a52.24,52.24,0,0,1,8-6.76l.59-.42-1.48-1c-1.44-1-2.73-1.87-4-2.77l-.31-.23-.3.23c-6.92,5.3-14.9,13-15.24,25.92a2.92,2.92,0,0,0,1.26,2.71,3.3,3.3,0,0,0,1.83.53,3.6,3.6,0,0,0,1.75-.46,3.21,3.21,0,0,0,1.55-2.75v-.08l0-.49V137c0-.25,0-.49,0-.72s.08-.73.12-1.08.07-.49.11-.73.09-.47.14-.71a20.81,20.81,0,0,1,2.84-7C70.83,126.48,71,126.24,71.15,126Z" transform="translate(-11.35 -25.41)"/><path class="cls-1" d="M66.26,44.84a45.36,45.36,0,0,0,10,10l.3.23.31-.22c1.34-1,2.8-2,4-2.77l1.48-1-.59-.42a53.39,53.39,0,0,1-7.63-6.41c-.23-.24-.46-.48-.67-.73s-.43-.48-.63-.72-.56-.69-.86-1.09c-.18-.23-.36-.47-.53-.72l-.49-.72a21.13,21.13,0,0,1-3-7c0-.23-.1-.47-.14-.72l0-.19a22.8,22.8,0,0,1-.32-3.05V29.1c0-.05,0-.1,0-.15a3.16,3.16,0,0,0-1.56-2.83,3.46,3.46,0,0,0-1.75-.46,3.27,3.27,0,0,0-1.82.53A2.91,2.91,0,0,0,61,28.9a28.29,28.29,0,0,0,5.12,15.76Z" transform="translate(-11.35 -25.41)"/><path class="cls-1" d="M106.55,82.09c0-.2,0-.4,0-.6v-.15a27.5,27.5,0,0,0-5.58-14.56,49.2,49.2,0,0,0-10.34-9.93l-.3-.23-.72.53c-1.37,1-2.8,2-4.34,3l-.69.47.6.43c3.57,2.49,7.6,5.55,10.51,9.3.19.24.37.48.54.73s.34.48.5.72.46.7.68,1.08l.41.72.37.72a20.07,20.07,0,0,1,2,7.07c0,.23,0,.47,0,.72s0,.41,0,.62V83c0,.09,0,.17,0,.26s0,.3,0,.45v.19l0,.72c0,.24,0,.48,0,.72a19.72,19.72,0,0,1-2.29,7.54c-.13.25-.27.49-.41.72s-.29.49-.44.72c-.26.42-.5.77-.73,1.09s-.35.48-.54.72-.38.48-.58.72a50.31,50.31,0,0,1-10,8.63l-.6.43.61.41.1.07c1.52,1,3,2,4.32,3l.72.54.3-.23c3.48-2.6,8.5-6.71,11.92-12.27l.45-.74.42-.75c.18-.35.37-.72.57-1.13l.35-.75c.11-.25.22-.5.32-.75a26.12,26.12,0,0,0,1.87-7.89c0-.25,0-.5,0-.76,0-.52,0-1,0-1.41s0-.81,0-1.21Z" transform="translate(-11.35 -25.41)"/><path class="cls-1" d="M91,111.79l-.82-.62-.91-.68-.41-.29c-1.25-.91-2.53-1.79-4.08-2.85L83,106.18l-.94-.66-.42-.29A50.7,50.7,0,0,1,72,96.89l-.58-.72c-.19-.24-.37-.48-.55-.73s-.5-.7-.74-1.08l-.45-.72c-.14-.24-.28-.48-.41-.72A19.42,19.42,0,0,1,67,85.38c0-.24,0-.48-.06-.72l0-.72v-.18c0-.15,0-.31,0-.46v-.53c0-.21,0-.42,0-.63s0-.48,0-.72a19.71,19.71,0,0,1,2-7.07c.12-.24.24-.48.37-.72s.27-.48.42-.72.43-.69.69-1.08q.24-.36.51-.72c.17-.24.36-.49.54-.72a47.57,47.57,0,0,1,10.21-9l.86-.6.94-.65,1.28-.87c1.55-1.06,2.84-1.94,4.08-2.85l.84-.61.9-.68.4-.31a44.85,44.85,0,0,0,9.87-10c.35-.51.69-1,1-1.58a28.49,28.49,0,0,0,4.18-14.35,3.18,3.18,0,0,0-3.2-3.5,3.46,3.46,0,0,0-3.66,3.53v.3c0,.24,0,.48,0,.72s0,.46-.06.72-.09.73-.14,1.08-.08.48-.13.75-.09.46-.14.69a21.23,21.23,0,0,1-3,7l-.5.72-.54.72c-.27.36-.57.73-.88,1.09s-.42.48-.63.72l-.68.73a52.71,52.71,0,0,1-7.31,6.12l-.41.29-.93.66-.85.59L81.28,53c-1.09.75-2.22,1.52-3.31,2.3l-.58.42L77,56l-1.16.87c-6.36,4.8-14.9,12.55-15.74,24.49v.14c0,.2,0,.4,0,.61,0,.4,0,.81,0,1.21s0,.89,0,1.41c0,.26,0,.51.05.76A26.63,26.63,0,0,0,62,93.36c.1.25.21.5.32.75s.23.5.35.75.37.77.56,1.12l.42.75c.14.26.29.51.44.75,2.58,4.25,6.33,8.14,11.79,12.27l.4.3.76.56,1,.71c1.08.77,2.22,1.55,3.32,2.3l1.62,1.11.42.3.93.65.85.6a50.6,50.6,0,0,1,7.63,6.47c.23.24.45.48.66.73l.62.72c.28.35.57.71.85,1.09.17.23.34.48.51.72l.48.72a20.78,20.78,0,0,1,2.88,7v.05c0,.22.09.44.13.67s.07.46.11.72.09.71.12,1.08,0,.47,0,.72v.17c0,.16,0,.33,0,.5a.13.13,0,0,1,0,.06,3.47,3.47,0,0,0,3.52,3.47h.13a3.18,3.18,0,0,0,3.2-3.49C105.7,124.78,97.81,117.07,91,111.79Z" transform="translate(-11.35 -25.41)"/><path class="cls-1" d="M27,81.55l.3.23.31-.22c1.23-.9,2.59-1.83,3.68-2.57l1.41-1-.59-.43C25.32,72.77,19.06,67,18.8,57.54a3,3,0,0,0-1.46-2.65,3.23,3.23,0,0,0-1.65-.44A3.12,3.12,0,0,0,14,55,2.78,2.78,0,0,0,12.8,57.5C13.12,69.46,20.53,76.64,27,81.55Z" transform="translate(-11.35 -25.41)"/><path class="cls-1" d="M39.05,84.32l-.3-.23-.31.22c-1.14.84-2.34,1.66-3.68,2.58l-1.41,1,.59.42c6.73,4.82,13,10.59,13.26,20.06A3,3,0,0,0,48.66,111a3.29,3.29,0,0,0,1.64.43,3.12,3.12,0,0,0,1.72-.49,2.81,2.81,0,0,0,1.18-2.55C52.88,96.41,45.47,89.24,39.05,84.32Z" transform="translate(-11.35 -25.41)"/><path class="cls-1" d="M51.65,54.22a3.25,3.25,0,0,0-3.43,3.31c-.25,9.34-6.42,15-13,19.79l-.39.28-.72.51-.93.65-1.51,1c-1,.66-2,1.4-3.06,2.13L28,82.3l-.39.28-.78.61-.45.33-.7.53-.37.28c-6.34,4.9-13.66,12.06-14,24a3,3,0,0,0,3,3.28h.12a3.22,3.22,0,0,0,3.31-3.31c.25-9.33,6.42-15,13-19.79l.38-.27.76-.53.9-.63c.5-.35,1-.69,1.5-1,1-.65,2.05-1.4,3.07-2.13l.53-.37.39-.28.78-.61.44-.33.71-.53.37-.29c6.34-4.89,13.66-12.05,14-24A3,3,0,0,0,51.65,54.22Z" transform="translate(-11.35 -25.41)"/><path class="cls-1" d="M46.37,107.06c0-.36-.08-.72-.13-1.06l-.12-.7,0-.18A1.11,1.11,0,0,0,45,104.2H20.5a1.13,1.13,0,0,0-1.08.91l0,.19c-.05.23-.09.47-.13.7s-.1.69-.13,1.06l-.06.7a1.17,1.17,0,0,0,.31.88,1.08,1.08,0,0,0,.79.34H45.33a1.08,1.08,0,0,0,.79-.34,1.16,1.16,0,0,0,.31-.87v0Zm-.45.73Z" transform="translate(-11.35 -25.41)"/><path class="cls-1" d="M42.26,97.05h0c-.18-.23-.37-.47-.57-.7s-.58-.66-.93-1-.45-.47-.68-.69-.4-.4-.6-.59a.86.86,0,0,0-.6-.25H26.74a.89.89,0,0,0-.6.24l-.62.59c-.23.23-.46.46-.68.7s-.64.69-.95,1-.39.46-.58.71a.91.91,0,0,0-.11,1,.88.88,0,0,0,.8.51H41.57a.88.88,0,0,0,.8-.51.92.92,0,0,0-.11-1l-.4.31h0Z" transform="translate(-11.35 -25.41)"/><path class="cls-1" d="M19.65,59l.06.7c0,.35.08.71.13,1.05l.12.7,0,.19a1.11,1.11,0,0,0,1.07.91H45.58a1.12,1.12,0,0,0,1.08-.91l0-.18.12-.71c0-.34.1-.69.13-1.05s0-.47.06-.71a1.16,1.16,0,0,0-.31-.87,1,1,0,0,0-.78-.35H20.75a1.08,1.08,0,0,0-.79.34,1.24,1.24,0,0,0-.31.88l.51,0Z" transform="translate(-11.35 -25.41)"/><path class="cls-1" d="M42.09,68.14H24.51a.89.89,0,0,0-.8.51.93.93,0,0,0,.1,1l0,0,.56.69c.27.32.58.66.94,1s.44.47.67.7l.6.59a.87.87,0,0,0,.61.24H39.35a.82.82,0,0,0,.59-.24l.62-.59.69-.69c.32-.34.63-.69.94-1.05s.39-.46.58-.7a.93.93,0,0,0,.11-1A.88.88,0,0,0,42.09,68.14Z" transform="translate(-11.35 -25.41)"/><path class="cls-1" d="M126.29,81.55l.3.23.31-.22c1.23-.89,2.59-1.82,3.68-2.57L132,78l-.59-.43c-6.73-4.82-13-10.59-13.26-20.05a3,3,0,0,0-1.46-2.65,3.2,3.2,0,0,0-1.64-.44,3.13,3.13,0,0,0-1.72.5,2.78,2.78,0,0,0-1.18,2.55C112.46,69.46,119.87,76.64,126.29,81.55Z" transform="translate(-11.35 -25.41)"/><path class="cls-1" d="M138.39,84.32l-.3-.23-.3.22c-1.24.9-2.6,1.83-3.69,2.58l-1.41,1,.59.42c6.74,4.83,13,10.59,13.26,20.06A3,3,0,0,0,148,111a3.33,3.33,0,0,0,1.65.43,3.11,3.11,0,0,0,1.71-.49,2.81,2.81,0,0,0,1.18-2.55C152.22,96.41,144.81,89.24,138.39,84.32Z" transform="translate(-11.35 -25.41)"/><path class="cls-1" d="M130.17,88.55l.39-.27c.24-.18.49-.35.74-.52l.91-.64,1.51-1c1-.65,2-1.4,3.06-2.13l.54-.39.38-.26.78-.61.44-.33.71-.53.37-.29c6.34-4.89,13.66-12.05,14-24a3,3,0,0,0-3-3.28,3.24,3.24,0,0,0-3.43,3.31c-.25,9.34-6.42,15-13.05,19.79l-.38.28c-.25.17-.5.34-.74.52l-.92.64-1.5,1c-1,.69-2.06,1.41-3.07,2.13l-.53.38c-.13.09-.26.18-.38.28l-.79.61-.43.32-.72.54-.37.28c-6.34,4.9-13.66,12.06-14,24a3,3,0,0,0,3,3.28h.12a3.22,3.22,0,0,0,3.31-3.31C117.37,99,123.54,93.32,130.17,88.55Z" transform="translate(-11.35 -25.41)"/><path class="cls-1" d="M145.77,107.8v0c0-.24,0-.47-.06-.7s-.08-.71-.13-1.06-.07-.47-.12-.7-.09-.47-.15-.7l-.09-.4H119l-.09.4c-.06.23-.11.46-.15.7s-.09.46-.13.7-.09.7-.13,1.06,0,.46-.06.71,0,.46,0,.69l0,.52h27.46v-.52C145.8,108.23,145.79,108,145.77,107.8Z" transform="translate(-11.35 -25.41)"/><path class="cls-1" d="M141,96.35c-.27-.32-.58-.66-.93-1l-.67-.69-.72-.7-.15-.14H125.74l-.15.14-.73.69c-.23.23-.46.46-.68.7s-.64.69-1,1-.39.46-.58.7-.36.46-.53.7l-.6.81h21.2l-.59-.81-.53-.7h0C141.42,96.82,141.23,96.58,141,96.35Z" transform="translate(-11.35 -25.41)"/><path class="cls-1" d="M119.5,58.92l-.5,0c0,.23,0,.47,0,.7s.08.71.13,1.05l.12.7,0,.19a1.12,1.12,0,0,0,1.08.91h24.51a1.12,1.12,0,0,0,1.07-.91l0-.18c0-.24.09-.47.12-.71s.1-.69.14-1.05,0-.47,0-.71a1.16,1.16,0,0,0-.31-.87,1,1,0,0,0-.78-.35H120.09a1,1,0,0,0-.78.34,1.19,1.19,0,0,0-.31.88l.5,0Z" transform="translate(-11.35 -25.41)"/><path class="cls-1" d="M141.43,68.14H123.85a.89.89,0,0,0-.8.51.91.91,0,0,0,.11,1h0l.57.7c.28.32.58.67.94,1s.44.47.67.7l.6.59a.87.87,0,0,0,.61.24h12.14a.82.82,0,0,0,.59-.24l.62-.59.69-.69c.32-.34.64-.69.94-1.05l.59-.7a1,1,0,0,0,.11-1A.9.9,0,0,0,141.43,68.14Zm-17.87,1.2Z" transform="translate(-11.35 -25.41)"/></svg>