<svg id="Layer_1" data-name="Layer 1" xmlns="http://www.w3.org/2000/svg" viewBox="0 0 121.68 137.83"><defs><style>.cls-1{fill:#427cbf;}</style></defs><title>icon-higher-yield-03</title><path class="cls-1" d="M141.3,143H23.65c-1.11,0-2,1.36-2,3v6.85c0,1.67.9,3,2,3H141.3c1.11,0,2-1.36,2-3v-6.85C143.31,144.4,142.41,143,141.3,143Z" transform="translate(-21.64 -18.13)"/><path class="cls-1" d="M32.17,132.27h7.08c2,0,3.56-3,3.56-6.65V106.25c0-3.68-1.59-6.66-3.56-6.66H32.17c-2,0-3.55,3-3.55,6.66v19.37C28.62,129.29,30.21,132.27,32.17,132.27Z" transform="translate(-21.64 -18.13)"/><path class="cls-1" d="M55.56,90.3c-2,0-3.56,3-3.56,6.66v28.66c0,3.67,1.59,6.65,3.56,6.65h7.07c2,0,3.56-3,3.56-6.65V97c0-3.68-1.59-6.66-3.56-6.66Z" transform="translate(-21.64 -18.13)"/><path class="cls-1" d="M78.94,70.09c-2,0-3.56,3-3.56,6.66v48.87c0,3.67,1.59,6.65,3.56,6.65H86c2,0,3.56-3,3.56-6.65V76.75c0-3.68-1.59-6.66-3.56-6.66Z" transform="translate(-21.64 -18.13)"/><path class="cls-1" d="M102.32,52.42c-2,0-3.56,3-3.56,6.66v66.54c0,3.67,1.59,6.65,3.56,6.65h7.07c2,0,3.56-3,3.56-6.65V59.08c0-3.68-1.59-6.66-3.56-6.66Z" transform="translate(-21.64 -18.13)"/><path class="cls-1" d="M122.14,24.11V126.29c0,3.31,1.59,6,3.56,6h7.07c2,0,3.56-2.67,3.56-6V24.11c0-3.3-1.59-6-3.56-6H125.7C123.73,18.13,122.14,20.81,122.14,24.11Z" transform="translate(-21.64 -18.13)"/></svg>