<svg id="Layer_1" data-name="Layer 1" xmlns="http://www.w3.org/2000/svg" viewBox="0 0 144 144"><defs><style>.cls-1{fill:#427cbf;}</style></defs><title>icon-automated-dna</title><path class="cls-1" d="M54.28,131.59a7,7,0,0,1,3.13.75,55,55,0,0,0,7.88,3.28,6.82,6.82,0,0,1,3.44,2.53c.26.36.51.75.74,1.14a7,7,0,0,1,.8,2.05c.94,4.12,2,7.74,2.76,10a4,4,0,0,0,3.82,2.8H88.93a4,4,0,0,0,3.82-2.78c.76-2.4,1.87-6.14,2.83-10.4a6.87,6.87,0,0,1,1-2.37l.3-.44a6.87,6.87,0,0,1,3.46-2.53,57.53,57.53,0,0,0,7.88-3.25,6.86,6.86,0,0,1,4.22-.65c.45.07.89.17,1.33.28a7.48,7.48,0,0,1,2,.88c3.58,2.26,6.9,4,9,5.17a4,4,0,0,0,4.68-.73l8.54-8.55a4,4,0,0,0,.74-4.66c-1.16-2.23-3-5.67-5.35-9.35a7.07,7.07,0,0,1-1-2.39l-.09-.52a6.86,6.86,0,0,1,.66-4.24,56.49,56.49,0,0,0,3.27-7.87,6.89,6.89,0,0,1,2.53-3.44c.37-.26.75-.51,1.14-.74a7.31,7.31,0,0,1,2-.81c4.12-.94,7.74-2,10.05-2.75a4,4,0,0,0,2.8-3.82V76.14a4,4,0,0,0-2.78-3.81h0c-2.39-.77-6.14-1.88-10.4-2.83a7.24,7.24,0,0,1-2.37-1l-.44-.3a6.93,6.93,0,0,1-2.53-3.46,55.81,55.81,0,0,0-3.25-7.88,6.91,6.91,0,0,1-.65-4.23c.08-.44.17-.89.29-1.33a7,7,0,0,1,.88-2c2.25-3.58,4.05-6.9,5.16-9.05a4,4,0,0,0-.72-4.68L129.53,27a4,4,0,0,0-4.67-.73c-2.23,1.15-5.66,3-9.35,5.35a7,7,0,0,1-2.38,1l-.52.1a6.92,6.92,0,0,1-4.24-.66,56,56,0,0,0-7.88-3.28,6.78,6.78,0,0,1-3.44-2.53,13.12,13.12,0,0,1-.74-1.14,7.05,7.05,0,0,1-.8-2c-1-4.14-2-7.75-2.76-10.06a4,4,0,0,0-3.82-2.79H76.85A4,4,0,0,0,73,13c-.76,2.39-1.87,6.13-2.83,10.39a6.87,6.87,0,0,1-1,2.37l-.3.44a6.87,6.87,0,0,1-3.46,2.53A55.86,55.86,0,0,0,57.56,32a6.79,6.79,0,0,1-4.22.64c-.45-.07-.89-.17-1.34-.28a7.07,7.07,0,0,1-2-.88c-3.58-2.25-6.9-4.05-9.06-5.16a4,4,0,0,0-4.68.72L27.7,35.55A4,4,0,0,0,27,40.21c1.15,2.23,3,5.66,5.35,9.35a6.93,6.93,0,0,1,1,2.39c0,.17.07.35.1.52a6.86,6.86,0,0,1-.66,4.24,56.49,56.49,0,0,0-3.27,7.87A7,7,0,0,1,26.93,68c-.37.26-.75.5-1.14.73a7.13,7.13,0,0,1-2.05.81c-4.13.94-7.75,2-10.06,2.75a4,4,0,0,0-2.79,3.82V88.23A4,4,0,0,0,13.67,92c2.39.77,6.13,1.88,10.4,2.83a7.24,7.24,0,0,1,2.37,1l.43.3a6.88,6.88,0,0,1,2.54,3.46,55.93,55.93,0,0,0,3.25,7.89,6.86,6.86,0,0,1,.65,4.22c-.08.45-.17.89-.29,1.33a7.25,7.25,0,0,1-.88,2c-2.25,3.59-4.05,6.9-5.16,9.06a4,4,0,0,0,.72,4.67l8.55,8.55a4,4,0,0,0,4.66.73c2.23-1.15,5.67-3,9.36-5.35a7.21,7.21,0,0,1,2.38-1l.52-.09A6,6,0,0,1,54.28,131.59Zm28.61-2.06a47.35,47.35,0,1,1,47.35-47.34A47.4,47.4,0,0,1,82.89,129.53Z" transform="translate(-10.89 -10.19)"/><path class="cls-1" d="M75.76,80.13c1.49-1,3.06-2,4.58-3l1-.64C73,71,65,64.28,64.64,53a2.83,2.83,0,0,0-1.51-2.56,3.65,3.65,0,0,0-1.72-.42,3.44,3.44,0,0,0-1.77.47A2.55,2.55,0,0,0,58.45,53C58.83,65.94,67.13,74,75.76,80.13Z" transform="translate(-10.89 -10.19)"/><path class="cls-1" d="M90,84.24c-1.49,1-3.06,2-4.58,3-.34.21-.68.42-1,.64,8.35,5.53,16.39,12.24,16.71,23.49a2.81,2.81,0,0,0,1.51,2.55,3.53,3.53,0,0,0,1.72.42,3.44,3.44,0,0,0,1.77-.47,2.55,2.55,0,0,0,1.19-2.42C107,98.43,98.65,90.35,90,84.24Z" transform="translate(-10.89 -10.19)"/><path class="cls-1" d="M88.27,82.72l.24-.16.65-.44.39-.26,0,0,0,0,.23-.16h0A1.64,1.64,0,0,1,90,81.5l.48-.34,1-.71.23-.17.23-.16C100.58,74,108.74,65.91,109.12,53A3,3,0,0,0,106,49.8h-.12A3.26,3.26,0,0,0,102.41,53c-.32,11-8.21,17.7-16.46,23.18l-.24.16-.24.16-1.07.7-.5.32-.25.16-.24.16-1.87,1.19c-1.31.83-2.57,1.63-3.8,2.44l-.23.15-.24.16-.65.44-.39.26,0,0-.05,0-.23.16h0l-.22.15-.48.33-1,.71-.23.17-.23.16C65.2,90.37,57,98.47,56.66,111.41a2.94,2.94,0,0,0,3.11,3.16h.12a3.27,3.27,0,0,0,3.48-3.24c.32-11,8.21-17.7,16.46-23.18l.24-.16.24-.16,1.07-.7.5-.32.25-.16.24-.15,1.87-1.19c1.31-.84,2.57-1.64,3.8-2.45Z" transform="translate(-10.89 -10.19)"/><path class="cls-1" d="M98.28,110.73l-.06-.79c0-.4-.09-.79-.15-1.18s-.09-.52-.14-.78-.11-.53-.17-.79H68c-.06.26-.12.52-.17.79s-.1.52-.14.78-.12.78-.16,1.18l-.06.79c0,.26,0,.51,0,.78H98.32C98.31,111.24,98.3,111,98.28,110.73Z" transform="translate(-10.89 -10.19)"/><path class="cls-1" d="M93.54,98.76c-.21-.27-.43-.53-.65-.79s-.71-.79-1.08-1.17S91.3,96.27,91,96s-.54-.53-.82-.78H75.7l-.84.78c-.27.26-.53.52-.79.79S73.34,97.57,73,98s-.45.52-.66.79l-.62.78H94.14Z" transform="translate(-10.89 -10.19)"/><path class="cls-1" d="M67.5,54.6l.06.78c0,.4.09.8.15,1.18s.09.53.14.79c0,.06,0,.13,0,.2a.7.7,0,0,0,.68.58H97.2a.7.7,0,0,0,.68-.58,1.77,1.77,0,0,0,0-.2c0-.26.1-.52.14-.79s.12-.78.16-1.18l.06-.78h0a.72.72,0,0,0-.69-.79H68.19a.72.72,0,0,0-.69.79Z" transform="translate(-10.89 -10.19)"/><path class="cls-1" d="M72.24,66.57l.65.78c.35.4.71.79,1.08,1.18s.51.53.77.78l.69.67a.44.44,0,0,0,.3.12H89.92a.42.42,0,0,0,.29-.12c.24-.22.48-.44.71-.67s.53-.52.79-.78.73-.78,1.08-1.18.45-.52.66-.78h0a.48.48,0,0,0-.34-.78H72.58a.48.48,0,0,0-.35.78Z" transform="translate(-10.89 -10.19)"/></svg>