<svg id="Layer_1" data-name="Layer 1" xmlns="http://www.w3.org/2000/svg" viewBox="0 0 136.08 131.23"><defs><style>.cls-1{fill:#427cbf;}</style></defs><title>icon-no-bead</title><path class="cls-1" d="M116.84,38.42c.15-.83.33-1.7.51-2.53,0-.19.07-.37.11-.56-4.64,1-9.57,1.53-13.49-2.07a1.37,1.37,0,0,0-1.37-.34,1.75,1.75,0,0,0-.71.45,1.56,1.56,0,0,0-.42.76,1.21,1.21,0,0,0,.43,1.2C106.43,39.49,111.92,39.33,116.84,38.42Z" transform="translate(-14.62 -17.65)"/><path class="cls-1" d="M122.32,38c4.64-1,9.57-1.53,13.5,2.07a1.35,1.35,0,0,0,1.36.34,1.79,1.79,0,0,0,.71-.45,1.58,1.58,0,0,0,.43-.76,1.23,1.23,0,0,0-.44-1.2c-4.53-4.16-10-4-14.94-3.09-.15.83-.33,1.69-.5,2.53Z" transform="translate(-14.62 -17.65)"/><path class="cls-1" d="M118.87,33.67l0,.13,0,.13-.12.6a2.74,2.74,0,0,1,0,.28l0,.13,0,.14c-.08.34-.15.68-.22,1-.15.73-.29,1.42-.42,2.1l0,.13,0,.13c0,.13,0,.25-.07.37a2.07,2.07,0,0,1,0,.22h0v0a.59.59,0,0,1,0,.13h0l0,.12c0,.1,0,.19,0,.28s-.07.39-.1.58a.68.68,0,0,1,0,.14l0,.13c-.75,4.93-.69,10.37,3.58,14.77a1.4,1.4,0,0,0,2.1,0l0,0a1.55,1.55,0,0,0,0-2.25c-3.65-3.76-3.3-8.63-2.44-13.24l0-.13,0-.14.12-.59c0-.09,0-.19,0-.28l0-.13,0-.14.21-1c.15-.72.29-1.41.42-2.09l0-.13c0-.05,0-.09,0-.14s0-.24.07-.36,0-.15,0-.22h0v0a.51.51,0,0,1,0-.13v0l0-.12a2.56,2.56,0,0,0,0-.27c0-.2.07-.39.1-.59,0,0,0-.08,0-.13l0-.13c.75-4.93.7-10.37-3.58-14.77a1.39,1.39,0,0,0-2.1,0l0,0a1.55,1.55,0,0,0,0,2.25C120.08,24.18,119.73,29.06,118.87,33.67Z" transform="translate(-14.62 -17.65)"/><path class="cls-1" d="M106.71,31.94l.29.24.45.33.31.21.09.05a.33.33,0,0,0,.43-.05l7.92-8.13a.35.35,0,0,0,0-.44l0-.08a3.46,3.46,0,0,0-.22-.31c-.11-.15-.22-.3-.34-.44l-.25-.29a.35.35,0,0,0-.51,0l-8.19,8.41a.35.35,0,0,0,0,.51Z" transform="translate(-14.62 -17.65)"/><path class="cls-1" d="M117.11,28.08a.23.23,0,0,0-.38-.14l-5.09,5.22a.23.23,0,0,0,.15.38h0l.5,0h.77l.54,0,.47,0a.19.19,0,0,0,.14-.07l2.86-2.92a.2.2,0,0,0,.06-.14l0-.48v-.54c0-.26,0-.52,0-.78s0-.33,0-.5Z" transform="translate(-14.62 -17.65)"/><path class="cls-1" d="M124,49.33a2.82,2.82,0,0,0,.21.31,4.71,4.71,0,0,0,.33.45l.24.29h0a.33.33,0,0,0,.5,0l8.41-8.19a.35.35,0,0,0,0-.51,3.22,3.22,0,0,0-.28-.24c-.15-.13-.29-.24-.44-.35l-.31-.22-.09,0a.34.34,0,0,0-.43,0L124,48.81a.35.35,0,0,0-.06.43Z" transform="translate(-14.62 -17.65)"/><path class="cls-1" d="M128.62,40h0l-.49,0c-.26,0-.52,0-.78,0h-.55l-.47,0a.2.2,0,0,0-.15.06l-2.92,2.86a.27.27,0,0,0-.07.14l0,.47c0,.18,0,.36,0,.54s0,.52,0,.77,0,.33,0,.5h0a.23.23,0,0,0,.38.14l5.21-5.09A.22.22,0,0,0,128.62,40Z" transform="translate(-14.62 -17.65)"/><path class="cls-1" d="M135.09,82.34c.7-.49,1.43-1,2.15-1.44l.47-.31c-4-2.56-7.84-5.69-8.07-11a1.34,1.34,0,0,0-.73-1.2,1.74,1.74,0,0,0-.82-.19,1.65,1.65,0,0,0-.84.24,1.21,1.21,0,0,0-.54,1.15C127,75.73,131,79.5,135.09,82.34Z" transform="translate(-14.62 -17.65)"/><path class="cls-1" d="M141.87,84.19c-.7.48-1.44,1-2.15,1.43l-.48.31c4,2.57,7.85,5.69,8.08,11a1.31,1.31,0,0,0,.73,1.2,1.71,1.71,0,0,0,.82.19,1.64,1.64,0,0,0,.83-.24,1.18,1.18,0,0,0,.55-1.15C150,90.79,146,87,141.87,84.19Z" transform="translate(-14.62 -17.65)"/><path class="cls-1" d="M132.51,70.59h0l0,.37c0,.19.05.37.09.56s0,.24.07.37l0,.09a.35.35,0,0,0,.35.27l11.35-.15a.35.35,0,0,0,.34-.28.29.29,0,0,1,0-.09l.06-.38c0-.18,0-.37.07-.55l0-.38h0a.34.34,0,0,0-.35-.36l-11.74.15A.35.35,0,0,0,132.51,70.59Z" transform="translate(-14.62 -17.65)"/><path class="cls-1" d="M141,76.86l.36-.32.39-.38c.18-.19.36-.37.53-.57l.33-.37h0a.22.22,0,0,0-.17-.36l-7.28.09a.22.22,0,0,0-.17.37h0c.11.13.22.25.34.37s.36.37.54.55l.4.37.35.31a.27.27,0,0,0,.15,0l4.09,0A.24.24,0,0,0,141,76.86Z" transform="translate(-14.62 -17.65)"/><path class="cls-1" d="M144.56,95.63l-.06-.38,0-.09a.35.35,0,0,0-.34-.28l-11.35-.15a.36.36,0,0,0-.35.27l0,.09c0,.13,0,.25-.07.38s-.06.36-.08.55,0,.25,0,.37h0a.35.35,0,0,0,.34.38l11.74.15a.34.34,0,0,0,.35-.36l0-.37C144.61,96,144.59,95.81,144.56,95.63Z" transform="translate(-14.62 -17.65)"/><path class="cls-1" d="M136.32,90.07l-.35.32-.4.36c-.18.18-.37.36-.54.55s-.23.24-.34.37h0a.23.23,0,0,0,.17.37l7.28.09a.22.22,0,0,0,.17-.36h0c-.1-.12-.21-.25-.33-.37l-.53-.57-.39-.38-.36-.32a.24.24,0,0,0-.14-.05l-4.09,0A.27.27,0,0,0,136.32,90.07Z" transform="translate(-14.62 -17.65)"/><path class="cls-1" d="M117.46,131.2c0-.18-.08-.37-.11-.55-.18-.84-.36-1.7-.51-2.54-4.92-.91-10.41-1.06-14.94,3.09a1.22,1.22,0,0,0-.43,1.21,1.65,1.65,0,0,0,.42.76,1.72,1.72,0,0,0,.71.44,1.34,1.34,0,0,0,1.37-.33C107.89,129.68,112.82,130.19,117.46,131.2Z" transform="translate(-14.62 -17.65)"/><path class="cls-1" d="M137.89,126.55a1.69,1.69,0,0,0-.71-.45,1.32,1.32,0,0,0-1.36.33c-3.93,3.6-8.86,3.09-13.5,2.08l.12.55c.17.84.35,1.7.5,2.54,4.93.91,10.41,1.07,14.94-3.09a1.25,1.25,0,0,0,.44-1.21A1.6,1.6,0,0,0,137.89,126.55Z" transform="translate(-14.62 -17.65)"/><path class="cls-1" d="M122.18,133.5s0-.09,0-.13c0-.19-.07-.39-.1-.58a2.74,2.74,0,0,0,0-.28l0-.12h0a.69.69,0,0,1,0-.13v0h0c0-.07,0-.14,0-.21s0-.25-.07-.37,0-.09,0-.13l0-.13q-.19-1-.42-2.1l-.21-1,0-.13,0-.13c0-.1,0-.19,0-.28l-.12-.6,0-.13a.51.51,0,0,0,0-.13c-.86-4.62-1.21-9.49,2.44-13.25a1.55,1.55,0,0,0,0-2.25s0,0,0,0a1.4,1.4,0,0,0-2.1,0c-4.27,4.4-4.33,9.85-3.58,14.78l0,.13a.59.59,0,0,1,0,.13c0,.2.07.39.1.58s0,.19,0,.28l0,.12h0a.69.69,0,0,1,0,.13v0h0a1.43,1.43,0,0,1,0,.22c0,.12,0,.24.07.36l0,.13,0,.13c.13.69.27,1.38.42,2.1.07.34.14.68.22,1l0,.13,0,.14a2.56,2.56,0,0,1,0,.27l.12.6,0,.13,0,.14c.86,4.61,1.21,9.48-2.44,13.24a1.55,1.55,0,0,0,0,2.25l0,0a1.4,1.4,0,0,0,2.1,0c4.28-4.4,4.33-9.85,3.58-14.78Z" transform="translate(-14.62 -17.65)"/><path class="cls-1" d="M116.19,142.47l0-.09a.34.34,0,0,0,0-.43l-7.92-8.13a.35.35,0,0,0-.43-.06l-.09.06a2.82,2.82,0,0,0-.31.21q-.23.15-.45.33a3.36,3.36,0,0,0-.29.24h0a.33.33,0,0,0,0,.5l8.19,8.41a.35.35,0,0,0,.51,0c.09-.09.17-.19.25-.28l.34-.44Z" transform="translate(-14.62 -17.65)"/><path class="cls-1" d="M117.07,136l-2.86-2.92a.23.23,0,0,0-.14-.07l-.47,0-.54,0h-.77l-.5,0h0a.23.23,0,0,0-.15.38l5.09,5.21a.22.22,0,0,0,.38-.13h0c0-.16,0-.33,0-.5s0-.51,0-.77v-.55l0-.47A.2.2,0,0,0,117.07,136Z" transform="translate(-14.62 -17.65)"/><path class="cls-1" d="M132.54,125.69l.09-.06.31-.21.44-.35.28-.24h0a.35.35,0,0,0,0-.51l-8.41-8.19a.34.34,0,0,0-.5,0h0l-.24.29q-.18.23-.33.45a2.92,2.92,0,0,0-.21.32l-.06.08a.36.36,0,0,0,.06.44l8.13,7.92A.35.35,0,0,0,132.54,125.69Z" transform="translate(-14.62 -17.65)"/><path class="cls-1" d="M123.16,121.23h0c0,.16,0,.33,0,.49s0,.52,0,.78,0,.35,0,.53l0,.47a.26.26,0,0,0,.07.15l2.92,2.85a.26.26,0,0,0,.15.07l.47,0h.55l.78,0,.49,0h0a.22.22,0,0,0,.13-.38l-5.21-5.08A.22.22,0,0,0,123.16,121.23Z" transform="translate(-14.62 -17.65)"/><path class="cls-1" d="M126.3,96.41c0,.28,0,.57,0,.87a1.4,1.4,0,0,0,1.5,1.47h0a1.54,1.54,0,0,0,1.63-1.55c.08-5.24,3.77-8.44,7.64-11.09l.11-.08.11-.07.51-.34.23-.16.12-.07.11-.08.88-.58c.61-.4,1.21-.79,1.78-1.18l.11-.07.11-.08.31-.21.18-.13h0l.11-.08h0l.1-.07.22-.17.49-.34.1-.08.11-.08c4-3,7.83-6.84,7.92-13a1.39,1.39,0,0,0-1.49-1.48h-.06a1.55,1.55,0,0,0-1.63,1.55c-.07,5.24-3.76,8.44-7.63,11.09l-.12.08-.11.07-.5.34-.24.16-.11.08-.11.07-.88.58L136,83l-.11.08-.11.07-.3.21-.18.13h0l-.11.08h0l-.1.07-.23.16-.48.34-.11.08-.11.08c-3,2.19-5.84,4.9-7.16,8.65a57.28,57.28,0,0,0,.84-9.78,56.53,56.53,0,1,0-1.55,13.24ZM71.24,127.57a44.38,44.38,0,1,1,31.39-13A44.11,44.11,0,0,1,71.24,127.57Z" transform="translate(-14.62 -17.65)"/><path class="cls-1" d="M77.37,82.68,92.19,66.94a4.33,4.33,0,0,0,1.44-3c0-2.19-2.2-3.61-4.24-3.61a5.47,5.47,0,0,0-4.54,2.19L71.62,77.26l-13.39-15A5,5,0,0,0,54,60.29c-2.65,0-4.61,1.68-4.61,3.87a4.74,4.74,0,0,0,1.43,3L65.65,82.81,49.92,99.47a4.48,4.48,0,0,0-1.37,3c0,2.25,2.12,3.67,4.24,3.67a5.58,5.58,0,0,0,4.54-2.19l14-15.56,14.21,15.82a5,5,0,0,0,4.24,1.93c2.65,0,4.61-1.67,4.61-3.87a4.56,4.56,0,0,0-1.44-3Z" transform="translate(-14.62 -17.65)"/></svg>