<?xml version="1.0" encoding="utf-8"?>
<!-- Generator: Adobe Illustrator 24.0.0, SVG Export Plug-In . SVG Version: 6.00 Build 0)  -->
<svg version="1.1" id="Layer_1" xmlns="http://www.w3.org/2000/svg" xmlns:xlink="http://www.w3.org/1999/xlink" x="0px" y="0px"
	 viewBox="0 0 1076.2 202" style="enable-background:new 0 0 1076.2 202;" xml:space="preserve">
<style type="text/css">
	.st0{fill:#FFFFFF;}
</style>
<g>
	<g>
		<path class="st0" d="M545.8,29.4c0-16.3-13.2-29.4-29.4-29.4h-98v126.5h19.1V81.2h72c4.2,0.1,8.2,1.6,11.5,4.2l0.1,0.1
			c0.7,0.6,1.4,1.2,2,1.9c0.1,0.1,0.2,0.3,0.4,0.4c0.5,0.6,1,1.3,1.4,2c0.1,0.2,0.3,0.4,0.4,0.6c0.5,0.8,0.9,1.6,1.2,2.4
			c0.1,0.1,0.1,0.2,0.1,0.3c0.2,0.6,0.4,1.2,0.5,1.8c0.5,1.7,0.8,3.4,0.8,5.1v26.5h19V96.1v-4.5c0-7.6-3-15-8.3-20.5
			c4.7-5.3,7.2-12.2,7.2-19.2L545.8,29.4z M437.4,19.1L437.4,19.1l70.5-0.1c10.4,0,18.9,8.5,18.9,18.9v5.5
			c0,10.4-8.4,18.8-18.8,18.9h-70.6V19.1z"/>
		<path class="st0" d="M257.8,29.4c0-16.2-13.2-29.4-29.4-29.4c0,0,0,0,0,0h-98v126.5h19.1V81.2h79c16.2,0,29.4-13.1,29.4-29.4
			c0,0,0,0,0,0L257.8,29.4z M238.8,43.4c0,10.4-8.5,18.8-18.9,18.9h-70.5V19.1h0.1l70.4-0.1c10.4,0,18.9,8.5,18.9,18.9L238.8,43.4z"
			/>
		<path class="st0" d="M381.6,0v88.6c0,10.4-8.5,18.8-18.9,18.9h-50.5c-10.4,0-18.8-8.5-18.9-18.9V0h-19v97.1
			c0,16.2,13.1,29.4,29.4,29.4h67.4c16.2,0,29.4-13.1,29.4-29.4V0H381.6z"/>
		<path class="st0" d="M564.7,0h19v126.4h-19V0z"/>
		<path class="st0" d="M727,57h-49.4v18.8H708v12.9c0,10.4-8.5,18.8-18.9,18.8H638c-10.4,0-18.8-8.4-18.9-18.8V37.9
			c0-10.4,8.5-18.8,18.9-18.8h50.9c9-0.1,16.7,6.2,18.6,15H727v-4.6c0-16.3-13.2-29.5-29.5-29.5c0,0,0,0,0,0h-67.9
			c-16.2,0-29.3,13.1-29.4,29.3v67.8c0,16.2,13.2,29.3,29.4,29.3h68.1c16.2,0,29.4-13.1,29.4-29.3L727,57z"/>
		<path class="st0" d="M782.9,18.8h77.7V0h-86.2c-16.1-0.1-29.3,12.9-29.4,29.1l0,68.3c0.1,16.1,13.2,29.1,29.4,29.1h86.2v-18.8
			h-77.8c-10.4,0-18.8-8.3-18.9-18.7V72.8h77.6V53H764V37.5C764.1,27.1,772.6,18.7,782.9,18.8z"/>
		<path class="st0" d="M908,0c-16.2,0-29.4,13.2-29.3,29.4c0,0,0,0,0,0v97.1h19V37.9c0-10.4,8.4-18.8,18.8-18.9h50.5
			c10.4,0,18.8,8.5,18.9,18.9v88.6h19V29.4c0-16.2-13.1-29.4-29.3-29.4c0,0,0,0-0.1,0L908,0z"/>
		<path class="st0" d="M356.1,202H313l18.6-31.6c5.2-8.9,14.7-14.3,25-14.3h44l-18.1,30.9C376.9,196.2,366.9,202,356.1,202"/>
		<path class="st0" d="M265.2,202h-74.3l18.6-31.6c5.2-8.9,14.7-14.3,25-14.3h75.2l-18.1,30.9C286,196.3,276,202,265.2,202"/>
		<path class="st0" d="M141.3,202H7l18.6-31.6c5.2-8.9,14.7-14.3,25-14.3h135.2l-18.1,30.9C162.2,196.3,152.2,202,141.3,202"/>
		<path class="st0" d="M465.3,199.7c-2.9,1.6-6.9,2.2-11.4,2.2h-35.6v-45.8h36.5c4.1,0,7.7,0.1,10.3,2.7c2,2.1,3.1,5,3.1,7.9v3.4
			c0,1.4-0.4,2.9-1.2,4.1c-1.2,1.8-3.4,2.8-4.7,3.3c1.5,0.4,4.6,1.1,5.9,3c1.2,2,1.9,4.2,1.8,6.5v3.4
			C470.2,194.5,469.1,197.7,465.3,199.7 M462.2,167.3c0-2-0.1-3.4-1.5-5c-1.2-0.8-2.6-1.2-4.1-1.1H424V176h31.7c2,0,3.7,0,5.1-1.5
			c1-1.2,1.5-2.8,1.4-4.4L462.2,167.3z M464.3,186.9c0-1.7-0.6-3.3-1.8-4.5c-1.2-1.2-3.6-1.4-5.9-1.4H424v15.8h31.7
			c2.9,0,5.5-0.4,7.2-2.1c1.4-1.5,1.4-2.8,1.4-4.6L464.3,186.9z"/>
		<path class="st0" d="M484.1,156.1h6.3v45.8h-6.3V156.1z"/>
		<path class="st0" d="M558.6,199c-3.6,3.4-14.7,2.9-19.5,2.9h-15.8c-0.6,0-12.4,0.7-15.8-4.6c-1.8-2.7-3.1-6.5-3.1-13.3v-8.9
			c0-6.6,1.2-13.3,4.8-16.3c4-3.4,16.2-2.9,18.4-2.9h16.2c2.3,0,12-0.1,15.5,3.9c2.8,3.3,3.8,8.7,3.8,15.6v9.5
			C563.1,190.1,562.1,195.9,558.6,199 M557,177.6c0-5.7-0.1-11.8-3.1-14.4c-2.3-1.9-6.6-2.1-10.8-2.1h-17.3c-5,0-10.6-0.2-12.5,2.4
			c-2.8,3.7-2.7,8.2-2.7,13.5v6.5c0,5,1.1,9.2,2.4,10.8c1.7,2,5.7,2.4,13.9,2.4h13c2.7,0,11.7,0.4,14-1.7c2.5-2.1,3.1-6.8,3.1-11.4
			L557,177.6z"/>
		<path class="st0" d="M664.2,182.7v19.2h-5.9v-19.1l-27.1-26.8h8.1l21.7,21.9l20.2-21.9h8.5L664.2,182.7z"/>
		<path class="st0" d="M782.7,161.2v40.7h-5.3v-40.7h-23.2v-5.1h50.8v5.1H782.7z"/>
		<path class="st0" d="M816.2,201.9v-45.8h44.2v5.1h-38.5V176H859v5.1h-37.1v15.8H861v5L816.2,201.9z"/>
		<path class="st0" d="M938.2,201.9v-40.2l-27.1,40.1h-3.8l-27.6-39.9v39.9h-6.5v-45.8h9.3l26.7,38.4l25.6-38.4h9.8v45.8H938.2z"/>
		<path class="st0" d="M1003.3,198.7c-4.7,4-12.6,3.2-19,3.2h-10.9c-1.6,0-8.3,0.6-13.3-3.5c-2.6-2.1-2.8-6.7-2.8-8v-2.9h5.7v2.4
			c-0.1,1.5,0.3,3,1.1,4.3c1.8,2.9,9,2.7,14.9,2.7h7.8c2,0,10.2-0.2,12.7-2.5c1.2-1,1.9-2.5,1.8-4.1v-1.7c0-2.3-0.1-4.4-2.1-6.3
			c-1.5-1.4-4.4-1.2-7.3-1.2H972c-0.8,0-5.8,0-8.8-1.3c-4.2-1.7-6.2-4.7-6.3-9.4v-1.5c0.1-4.9,1.1-8.9,6.1-11.2
			c3.3-1.4,11.3-1.5,15.3-1.5h6c6.2,0.1,15-0.2,18.3,3.8c2.2,2.7,3,4.6,2.9,7.9v1.7h-5.8v-2.2c0.1-1.6-0.6-3.1-1.8-4.2
			c-2.4-2.2-9.1-1.9-10.4-1.9h-12.2c-7.3,0-9.9,0.6-11.3,2.3s-1.3,3.3-1.4,5.4v0.8c-0.1,1.6,0.5,3.2,1.5,4.4c2,2.2,4.6,1.9,7.7,1.9
			h20.7c0.8,0,6.5,0.4,9.1,2c3.3,1.8,5.3,4.5,5.3,9.5v2.5C1007,194.4,1005.7,196.7,1003.3,198.7"/>
		<path class="st0" d="M742.6,198.7c-4.7,4-12.6,3.2-19,3.2h-10.9c-1.6,0-8.3,0.6-13.3-3.5c-2.6-2.1-2.8-6.7-2.8-8v-2.9h5.7v2.4
			c-0.1,1.5,0.3,3,1.1,4.3c1.8,2.9,9,2.7,14.9,2.7h7.8c2,0,10.2-0.2,12.7-2.5c1.2-1,1.9-2.5,1.8-4.1v-1.7c0-2.3-0.1-4.4-2.1-6.3
			c-1.5-1.4-4.4-1.2-7.3-1.2h-19.9c-0.8,0-5.8,0-8.8-1.3c-4.2-1.8-6.2-4.7-6.3-9.4v-1.5c0.1-4.9,1.1-8.9,6.1-11.2
			c3.3-1.4,11.3-1.5,15.3-1.5h6c6.2,0.1,15.1-0.2,18.3,3.8c2.2,2.7,3,4.6,2.9,7.9v1.7H739v-2.2c0.1-1.6-0.6-3.1-1.8-4.2
			c-2.4-2.2-9.1-1.9-10.4-1.9h-12.2c-7.3,0-9.9,0.6-11.3,2.3s-1.3,3.3-1.4,5.4v0.8c-0.1,1.6,0.5,3.2,1.5,4.4c2,2.2,4.6,1.9,7.7,1.9
			h20.7c0.8,0,6.5,0.4,9.1,2c3.3,1.8,5.3,4.5,5.3,9.5v2.5C746.2,194.4,744.9,196.7,742.6,198.7"/>
		<path class="st0" d="M622.3,198.7c-4.7,4-12.6,3.2-19,3.2h-10.9c-1.6,0-8.3,0.6-13.3-3.5c-2.6-2.1-2.8-6.7-2.8-8v-2.9h5.7v2.4
			c-0.1,1.5,0.3,3,1.1,4.3c1.8,2.9,9,2.7,14.9,2.7h7.8c2,0,10.2-0.2,12.7-2.5c1.2-1,1.9-2.5,1.8-4.1v-1.7c0-2.3-0.1-4.4-2.1-6.3
			c-1.5-1.4-4.4-1.2-7.3-1.2H591c-0.8,0-5.8,0-8.8-1.3c-4.2-1.7-6.2-4.7-6.3-9.4v-1.5c0.1-4.9,1.1-8.9,6.1-11.2
			c3.3-1.4,11.3-1.5,15.3-1.5h6c6.2,0.1,15.1-0.2,18.3,3.8c2.2,2.7,3,4.6,2.9,7.9v1.7h-5.8v-2.2c0.1-1.6-0.6-3.1-1.8-4.2
			c-2.4-2.2-9.1-1.9-10.4-1.9h-12.2c-7.3,0-9.9,0.6-11.3,2.3s-1.3,3.3-1.4,5.4v0.8c-0.1,1.6,0.5,3.2,1.5,4.4c2,2.2,4.6,1.9,7.7,1.9
			h20.7c0.8,0,6.5,0.4,9.1,2c3.3,1.8,5.3,4.5,5.3,9.5v2.5C626,194.4,624.7,196.7,622.3,198.7"/>
	</g>
	<g>
		<path class="st0" d="M1036.6,0v2.7h-10.1V26h-2.5V2.7h-10.1V0H1036.6z"/>
		<path class="st0" d="M1043.3,2.2V26h-2.5V0h4.1l11.8,22.8L1068.4,0h4.2v26h-2.5V2.5L1058,26h-2.6L1043.3,2.2z"/>
	</g>
</g>
</svg>
