<svg id="Layer_1" data-name="Layer 1" xmlns="http://www.w3.org/2000/svg" viewBox="0 0 1000 201.98"><defs><style>.cls-1{fill:#fff;}</style></defs><title>logo-purigen-white</title><path class="cls-1" d="M538.81,29.43A29.43,29.43,0,0,0,509.38,0h-98l0,126.47h19.07V81.23h72a19,19,0,0,1,11.45,4.16l.09.07a18.93,18.93,0,0,1,2,1.91c.12.14.25.27.37.4a21.32,21.32,0,0,1,1.44,2c.12.2.27.38.39.59a16.34,16.34,0,0,1,1.22,2.44,2.44,2.44,0,0,1,.14.28,15.21,15.21,0,0,1,.53,1.78,18.16,18.16,0,0,1,.8,5.13v26.53h19V96.07h0V91.61a29.58,29.58,0,0,0-8.27-20.5,29.23,29.23,0,0,0,7.23-19.25ZM430.43,19.1h.06l70.4-.08A19,19,0,0,1,519.8,37.92l0,5.47A18.93,18.93,0,0,1,501,62.26H430.43Z"/><path class="cls-1" d="M250.78,29.44A29.42,29.42,0,0,0,221.35,0h-98l0,126.47h19.07V81.23h79a29.36,29.36,0,0,0,29.36-29.37Zm-19,14a18.93,18.93,0,0,1-18.88,18.87H142.41V19.1h.05l70.4-.08a19,19,0,0,1,18.92,18.91Z"/><path class="cls-1" d="M374.6,0V88.64a18.92,18.92,0,0,1-18.87,18.87H305.28a18.92,18.92,0,0,1-18.87-18.87V0h-19V97.11a29.37,29.37,0,0,0,29.37,29.37H364.2a29.37,29.37,0,0,0,29.37-29.37V0Z"/><rect class="cls-1" x="557.7" y="0.03" width="18.97" height="126.44"/><path class="cls-1" d="M720,57H670.56V75.79H701l0,12.89a18.91,18.91,0,0,1-18.87,18.85H631a18.91,18.91,0,0,1-18.87-18.85V37.93A18.91,18.91,0,0,1,631,19.09l50.9,0a18.88,18.88,0,0,1,18.59,15l19.46,0V29.51A29.52,29.52,0,0,0,690.4,0H622.49a29.35,29.35,0,0,0-29.36,29.33l0,67.8a29.35,29.35,0,0,0,29.36,29.34h68.14A29.36,29.36,0,0,0,720,97.14Z"/><path class="cls-1" d="M775.94,18.77l77.71,0V0H767.47A29.22,29.22,0,0,0,738.1,29.06l-.05,68.33a29.22,29.22,0,0,0,29.37,29.06l86.22,0V107.66l-77.75,0A18.82,18.82,0,0,1,757,89l0-16.21h77.62V53H757.05l0-15.53A18.82,18.82,0,0,1,775.94,18.77Z"/><path class="cls-1" d="M901,0A29.37,29.37,0,0,0,871.65,29.4v97.08h19V37.87A18.92,18.92,0,0,1,909.49,19h50.45a18.92,18.92,0,0,1,18.87,18.87v88.61h19V29.4A29.37,29.37,0,0,0,968.41,0Z"/><path class="cls-1" d="M349.1,202H306l18.56-31.62a29,29,0,0,1,25-14.33h43.95l-18.11,30.86A30.57,30.57,0,0,1,349.1,202"/><path class="cls-1" d="M258.16,202h-74.3l18.57-31.62a29,29,0,0,1,25-14.33h75.19l-18.11,30.86A30.57,30.57,0,0,1,258.16,202"/><path class="cls-1" d="M134.33,202H0l18.56-31.62a29,29,0,0,1,25-14.33H178.8l-18.11,30.86A30.57,30.57,0,0,1,134.33,202"/><path class="cls-1" d="M458.3,199.73c-2.9,1.6-6.87,2.19-11.37,2.19H411.34V156.09h36.54c4.08,0,7.7.06,10.3,2.66a11.38,11.38,0,0,1,3.08,7.88v3.44a7.2,7.2,0,0,1-1.18,4.08c-1.19,1.84-3.44,2.78-4.68,3.32,1.48.35,4.62,1.06,5.86,3A12.1,12.1,0,0,1,463.1,187v3.37c.06,4.09-1,7.35-4.8,9.36m-3.08-32.45c0-2-.12-3.44-1.54-5a6.87,6.87,0,0,0-4.08-1.13H417V176h31.68c2,0,3.67,0,5.09-1.49a6.16,6.16,0,0,0,1.42-4.43Zm2.07,19.66a6.4,6.4,0,0,0-1.77-4.5c-1.25-1.24-3.61-1.36-5.92-1.36H417v15.81h31.68c2.9,0,5.5-.36,7.22-2.14,1.36-1.53,1.36-2.78,1.36-4.61Z"/><rect class="cls-1" x="477.09" y="156.09" width="6.28" height="45.83"/><path class="cls-1" d="M551.61,199c-3.62,3.44-14.69,2.9-19.49,2.9h-15.8c-.6,0-12.38.71-15.75-4.55-1.84-2.73-3.14-6.52-3.14-13.27v-8.88c0-6.57,1.18-13.32,4.8-16.28,4-3.44,16.22-2.85,18.41-2.85H536.8c2.31,0,12-.11,15.46,3.85,2.84,3.26,3.84,8.71,3.84,15.63v9.54c0,5-1,10.83-4.49,13.91M550,177.65c0-5.69-.06-11.79-3.08-14.39-2.31-1.89-6.58-2.08-10.84-2.08H518.74c-5,0-10.59-.23-12.55,2.38-2.78,3.72-2.67,8.17-2.67,13.49v6.46c0,5,1.13,9.24,2.43,10.83,1.72,2,5.69,2.43,13.92,2.43h13c2.72,0,11.66.35,14-1.72,2.54-2.13,3.08-6.8,3.08-11.37Z"/><polygon class="cls-1" points="657.17 182.74 657.17 201.92 651.25 201.92 651.25 182.85 624.19 156.09 632.3 156.09 653.97 177.94 674.16 156.09 682.63 156.09 657.17 182.74"/><polygon class="cls-1" points="775.69 161.18 775.69 201.92 770.42 201.92 770.42 161.18 747.27 161.18 747.27 156.09 798.07 156.09 798.07 161.18 775.69 161.18"/><polygon class="cls-1" points="809.23 201.92 809.23 156.09 853.4 156.09 853.4 161.18 814.85 161.18 814.85 175.99 851.98 175.99 851.98 181.07 814.85 181.07 814.85 196.89 853.99 196.89 853.99 201.92 809.23 201.92"/><polygon class="cls-1" points="931.21 201.92 931.21 161.77 904.09 201.92 900.3 201.92 872.71 162.07 872.71 201.92 866.25 201.92 866.25 156.09 875.55 156.09 902.2 194.52 927.77 156.09 937.54 156.09 937.54 201.92 931.21 201.92"/><path class="cls-1" d="M996.32,198.69c-4.73,4-12.56,3.2-19,3.2H966.45c-1.6,0-8.3.59-13.34-3.5-2.6-2.13-2.79-6.69-2.79-8v-2.9H956v2.42a7.52,7.52,0,0,0,1.06,4.27c1.78,2.9,9,2.66,14.88,2.66h7.77c2,0,10.25-.18,12.68-2.49a5.11,5.11,0,0,0,1.84-4.14V188.5c0-2.31-.12-4.44-2.14-6.27-1.48-1.37-4.38-1.19-7.28-1.19H965c-.77,0-5.81,0-8.77-1.3C952,178,950,175,949.91,170.38v-1.53c.12-4.92,1.13-8.95,6.11-11.25,3.26-1.42,11.32-1.54,15.29-1.54h6c6.22.06,15.05-.24,18.31,3.78,2.25,2.73,3,4.62,2.91,7.88v1.72h-5.81v-2.19a5.3,5.3,0,0,0-1.78-4.21c-2.43-2.19-9.13-1.89-10.43-1.89H968.35c-7.3,0-9.9.65-11.32,2.31s-1.31,3.31-1.37,5.39v.77a6.2,6.2,0,0,0,1.54,4.44c2,2.24,4.63,1.89,7.71,1.89h20.68c.83,0,6.47.41,9.13,2,3.27,1.84,5.28,4.5,5.28,9.54V190c0,4.38-1.31,6.75-3.68,8.71"/><path class="cls-1" d="M735.57,198.69c-4.74,4-12.56,3.2-19,3.2H705.7c-1.6,0-8.3.59-13.34-3.5-2.61-2.13-2.79-6.69-2.79-8v-2.9h5.69v2.42a7.52,7.52,0,0,0,1.07,4.27c1.78,2.9,9,2.66,14.88,2.66H719c2,0,10.25-.18,12.68-2.49a5.14,5.14,0,0,0,1.84-4.14V188.5c0-2.31-.12-4.44-2.14-6.27-1.48-1.37-4.38-1.19-7.29-1.19H704.21c-.76,0-5.81,0-8.77-1.3-4.21-1.78-6.17-4.74-6.28-9.36v-1.53c.11-4.92,1.12-8.95,6.1-11.25,3.27-1.42,11.32-1.54,15.29-1.54h6c6.23.06,15.06-.24,18.32,3.78,2.25,2.73,3,4.62,2.9,7.88v1.72H732v-2.19a5.33,5.33,0,0,0-1.78-4.21c-2.43-2.19-9.13-1.89-10.44-1.89H707.59c-7.29,0-9.89.65-11.32,2.31s-1.3,3.31-1.37,5.39v.77a6.24,6.24,0,0,0,1.54,4.44c2,2.24,4.64,1.89,7.71,1.89h20.69c.83,0,6.46.41,9.13,2,3.26,1.84,5.28,4.5,5.28,9.54V190c0,4.38-1.31,6.75-3.68,8.71"/><path class="cls-1" d="M615.32,198.69c-4.74,4-12.56,3.2-19,3.2H585.45c-1.6,0-8.3.59-13.34-3.5-2.61-2.13-2.79-6.69-2.79-8v-2.9H575v2.42a7.52,7.52,0,0,0,1.06,4.27c1.78,2.9,9,2.66,14.88,2.66h7.77c2,0,10.25-.18,12.68-2.49a5.11,5.11,0,0,0,1.84-4.14V188.5c0-2.31-.12-4.44-2.14-6.27-1.48-1.37-4.38-1.19-7.28-1.19H584c-.77,0-5.81,0-8.77-1.3C571,178,569,175,568.91,170.38v-1.53c.11-4.92,1.12-8.95,6.11-11.25,3.26-1.42,11.32-1.54,15.29-1.54h6c6.23.06,15.06-.24,18.32,3.78,2.25,2.73,3,4.62,2.91,7.88v1.72h-5.81v-2.19a5.3,5.3,0,0,0-1.78-4.21c-2.43-2.19-9.13-1.89-10.43-1.89H587.35c-7.3,0-9.9.65-11.32,2.31s-1.31,3.31-1.37,5.39v.77a6.2,6.2,0,0,0,1.54,4.44c2,2.24,4.63,1.89,7.71,1.89h20.68c.83,0,6.47.41,9.13,2,3.27,1.84,5.28,4.5,5.28,9.54V190c0,4.38-1.31,6.75-3.68,8.71"/></svg>