<svg id="Layer_1" data-name="Layer 1" xmlns="http://www.w3.org/2000/svg" xmlns:xlink="http://www.w3.org/1999/xlink" viewBox="0 0 426.62 512.38"><defs><style>.cls-1{fill:url(#linear-gradient);}.cls-2{fill:url(#linear-gradient-2);}.cls-3{fill:url(#linear-gradient-3);}.cls-4{fill:url(#linear-gradient-4);}.cls-13,.cls-5,.cls-6{isolation:isolate;}.cls-13,.cls-6{font-size:14px;font-family:HiraKakuPro-W6-83pv-RKSJ-H, Hiragino Kaku Gothic Pro;letter-spacing:-0.09em;}.cls-6,.cls-9{fill:#2699fb;}.cls-7{letter-spacing:0em;}.cls-8{fill:url(#linear-gradient-5);}.cls-10{fill:url(#linear-gradient-6);}.cls-11{fill:url(#linear-gradient-7);}.cls-12{fill:url(#linear-gradient-8);}.cls-13,.cls-15{fill:#eb008b;}.cls-14{fill:url(#linear-gradient-9);}.cls-16{fill:url(#linear-gradient-10);}.cls-17{fill:url(#linear-gradient-11);}.cls-18{fill:url(#linear-gradient-12);}.cls-19,.cls-21{fill:#fff;stroke-miterlimit:10;}.cls-19,.cls-20{stroke:#1b75bb;}.cls-20,.cls-22{fill:none;stroke-width:4px;}.cls-21,.cls-22{stroke:#9e1f63;}.cls-23{fill:#9e1f63;}.cls-24{fill:#1b75bb;}</style><linearGradient id="linear-gradient" x1="7.2" y1="494.44" x2="88" y2="494.44" gradientUnits="userSpaceOnUse"><stop offset="0" stop-color="#730062"/><stop offset="1" stop-color="#f00b51"/></linearGradient><linearGradient id="linear-gradient-2" x1="187.33" y1="447.31" x2="268.13" y2="447.31" gradientTransform="translate(393.37 945.75) rotate(180)" gradientUnits="userSpaceOnUse"><stop offset="0" stop-color="#56ccf2"/><stop offset="1" stop-color="#2f80ed"/></linearGradient><linearGradient id="linear-gradient-3" x1="-119.38" y1="583.4" x2="-119.38" y2="581.67" gradientTransform="matrix(0, 232.51, 21.43, 0, -12375.12, 27963.69)" xlink:href="#linear-gradient-2"/><linearGradient id="linear-gradient-4" x1="-119.38" y1="587.39" x2="-119.38" y2="585.65" gradientTransform="matrix(0, 232.51, 21.43, 0, -12155.12, 27963.69)" xlink:href="#linear-gradient"/><linearGradient id="linear-gradient-5" x1="46.43" y1="577.33" x2="127.23" y2="577.33" xlink:href="#linear-gradient-2"/><linearGradient id="linear-gradient-6" x1="46.43" y1="719.34" x2="127.23" y2="719.34" xlink:href="#linear-gradient-2"/><linearGradient id="linear-gradient-7" x1="161.25" y1="772.9" x2="242.05" y2="772.9" xlink:href="#linear-gradient-2"/><linearGradient id="linear-gradient-8" x1="46.43" y1="896" x2="127.23" y2="896" xlink:href="#linear-gradient-2"/><linearGradient id="linear-gradient-9" x1="160.29" y1="81.75" x2="241.09" y2="81.75" xlink:href="#linear-gradient"/><linearGradient id="linear-gradient-10" x1="279.24" y1="154.85" x2="360.04" y2="154.85" xlink:href="#linear-gradient"/><linearGradient id="linear-gradient-11" x1="274.61" y1="287.1" x2="355.4" y2="287.1" xlink:href="#linear-gradient"/><linearGradient id="linear-gradient-12" x1="147.89" y1="357.54" x2="228.69" y2="357.54" xlink:href="#linear-gradient"/></defs><title>fig-delta-charge</title><path class="cls-1" d="M87.94,493.16a18,18,0,0,0-35.89.28H11.13l4.54-4.54-1.47-1.46-7,7,7,7L15.67,500l-4.54-4.54H52.05a18,18,0,0,0,17.65,17l.3,0,.41,0a18,18,0,0,0,17.52-16.65c0-.44.07-.88.07-1.33S88,493.58,87.94,493.16ZM70,508.44a14,14,0,1,1,14-14A14,14,0,0,1,70,508.44Z" transform="translate(-7.2 -4.06)"/><path class="cls-2" d="M125.31,499.72a18,18,0,0,0,35.88-.28h40.92L197.58,504l1.46,1.46,7-7-7-7-1.46,1.46,4.53,4.54H161.19a18,18,0,0,0-17.65-17h-.3l-.41,0a18,18,0,0,0-17.52,16.65c0,.44-.07.88-.07,1.33S125.28,499.3,125.31,499.72Zm17.93-15.28a14,14,0,1,1-14,14A14,14,0,0,1,143.24,484.44Z" transform="translate(-7.2 -4.06)"/><path id="Rectangle_1481" data-name="Rectangle 1481" class="cls-3" d="M128.41,23.46V390.24a18.62,18.62,0,0,1-18.62,18.62h0a18.62,18.62,0,0,1-18.62-18.62V23.46A18.61,18.61,0,0,1,109.79,4.84h0A18.62,18.62,0,0,1,128.41,23.46Z" transform="translate(-7.2 -4.06)"/><path id="Rectangle_1482" data-name="Rectangle 1482" class="cls-4" d="M433.83,22.68V389.46a18.62,18.62,0,0,1-18.62,18.62h0a18.62,18.62,0,0,1-18.62-18.62V22.68A18.61,18.61,0,0,1,415.21,4.06h0A18.62,18.62,0,0,1,433.83,22.68Z" transform="translate(-7.2 -4.06)"/><g id="δ-" class="cls-5"><text class="cls-6" transform="translate(127.12 499.02)">δ<tspan class="cls-7" x="12.75" y="0">-</tspan></text></g><path class="cls-8" d="M266.21,369.7a18,18,0,0,0,35.89-.28H343L338.48,374l1.46,1.47,7-7-7-7-1.46,1.46,4.54,4.54H302.1a18,18,0,0,0-17.65-17h-.3l-.41,0a18,18,0,0,0-17.53,16.65c0,.44-.06.88-.06,1.33S266.18,369.28,266.21,369.7Zm17.94-15.28a14,14,0,1,1-14,14A14,14,0,0,1,284.15,354.42Z" transform="translate(-7.2 -4.06)"/><g id="δ--2" data-name="δ-" class="cls-5"><g class="cls-5"><path class="cls-9" d="M286.25,363.63a8.39,8.39,0,0,0-2.34-.33c-.16,0-.26.05-.26.13s0,.1.28.36A12.68,12.68,0,0,1,285.4,366a7,7,0,0,1,.63,1.93,3,3,0,0,1,0,.59,5.88,5.88,0,0,1-1.22,3.53,4.55,4.55,0,0,1-3.42,1.49,3.82,3.82,0,0,1-2.41-.73,3.52,3.52,0,0,1-1.23-2.86,5,5,0,0,1,1.61-3.78,4.38,4.38,0,0,1,2.72-1,3.31,3.31,0,0,1,1.34.28,11.07,11.07,0,0,0-1.13-1.47c-.47-.53-.59-.73-.59-1a.88.88,0,0,1,.53-.77,4.28,4.28,0,0,1,1.65-.2,19.73,19.73,0,0,1,2.8.2Zm-3.88,2.88a2.57,2.57,0,0,0-2.28,1.35,3.87,3.87,0,0,0-.53,2c0,1.35.68,2.1,1.89,2.1a2.5,2.5,0,0,0,2.06-1.06,4.19,4.19,0,0,0,.75-2.4A1.76,1.76,0,0,0,282.37,366.51Z" transform="translate(-7.2 -4.06)"/><path class="cls-9" d="M288.46,368a9.56,9.56,0,0,0,1.31.08H292a9.88,9.88,0,0,0,1.33-.08v1.86a7.79,7.79,0,0,0-1.33-.08h-2.18a7.68,7.68,0,0,0-1.31.08Z" transform="translate(-7.2 -4.06)"/></g></g><path class="cls-10" d="M266.21,227.69a18,18,0,0,0,35.89-.28H343L338.48,232l1.46,1.46,7-7-7-7-1.46,1.46,4.54,4.54H302.1a18,18,0,0,0-17.65-17l-.3,0-.41,0a18,18,0,0,0-17.53,16.65c0,.44-.06.88-.06,1.33S266.18,227.27,266.21,227.69Zm17.94-15.28a14,14,0,1,1-14,14A14,14,0,0,1,284.15,212.41Z" transform="translate(-7.2 -4.06)"/><g id="δ--3" data-name="δ-" class="cls-5"><g class="cls-5"><path class="cls-9" d="M286.25,221.62a8.72,8.72,0,0,0-2.34-.32c-.16,0-.26,0-.26.12s0,.1.28.37a12.19,12.19,0,0,1,1.47,2.15,6.91,6.91,0,0,1,.63,1.94,2.94,2.94,0,0,1,0,.59,5.92,5.92,0,0,1-1.22,3.53,4.58,4.58,0,0,1-3.42,1.48,3.76,3.76,0,0,1-2.41-.73,3.51,3.51,0,0,1-1.23-2.85,5,5,0,0,1,1.61-3.79,4.37,4.37,0,0,1,2.72-1,3.16,3.16,0,0,1,1.34.28,10.46,10.46,0,0,0-1.13-1.47c-.47-.54-.59-.73-.59-1a.89.89,0,0,1,.53-.77,4.28,4.28,0,0,1,1.65-.2,19.73,19.73,0,0,1,2.8.2Zm-3.88,2.88a2.59,2.59,0,0,0-2.28,1.35,3.9,3.9,0,0,0-.53,2c0,1.34.68,2.1,1.89,2.1a2.51,2.51,0,0,0,2.06-1.07,4.19,4.19,0,0,0,.75-2.39A1.76,1.76,0,0,0,282.37,224.5Z" transform="translate(-7.2 -4.06)"/><path class="cls-9" d="M288.46,226a8.06,8.06,0,0,0,1.31.09H292a8.33,8.33,0,0,0,1.33-.09v1.87a6.84,6.84,0,0,0-1.33-.09h-2.18a6.74,6.74,0,0,0-1.31.09Z" transform="translate(-7.2 -4.06)"/></g></g><path class="cls-11" d="M151.39,174.13a18,18,0,0,0,35.88-.28h40.92l-4.53,4.53,1.46,1.47,7-7-7-7-1.46,1.46,4.53,4.54H187.27a18,18,0,0,0-17.65-17h-.3l-.41,0a18,18,0,0,0-17.52,16.65c0,.44-.07.88-.07,1.33S151.36,173.71,151.39,174.13Zm17.93-15.28a14,14,0,1,1-14,14A14,14,0,0,1,169.32,158.85Z" transform="translate(-7.2 -4.06)"/><g id="δ--4" data-name="δ-" class="cls-5"><g class="cls-5"><path class="cls-9" d="M171.43,168.06a8.43,8.43,0,0,0-2.34-.33c-.17,0-.27.05-.27.13s0,.1.28.36a12.13,12.13,0,0,1,1.47,2.16,6.64,6.64,0,0,1,.63,1.93,3,3,0,0,1,0,.59,5.81,5.81,0,0,1-1.22,3.53,4.51,4.51,0,0,1-3.41,1.49,3.73,3.73,0,0,1-2.41-.73,3.5,3.5,0,0,1-1.24-2.86,5,5,0,0,1,1.61-3.78,4.38,4.38,0,0,1,2.72-1,3.36,3.36,0,0,1,1.35.28,12.9,12.9,0,0,0-1.14-1.47c-.46-.53-.59-.73-.59-1a.87.87,0,0,1,.54-.77,4.28,4.28,0,0,1,1.65-.2,19.83,19.83,0,0,1,2.8.2Zm-3.88,2.88a2.59,2.59,0,0,0-2.29,1.35,3.89,3.89,0,0,0-.53,2c0,1.35.69,2.11,1.89,2.11a2.49,2.49,0,0,0,2.06-1.07,4.12,4.12,0,0,0,.76-2.39A1.76,1.76,0,0,0,167.55,170.94Z" transform="translate(-7.2 -4.06)"/><path class="cls-9" d="M173.63,172.47a9.83,9.83,0,0,0,1.32.08h2.17a9.66,9.66,0,0,0,1.33-.08v1.86a7.66,7.66,0,0,0-1.33-.08H175a7.8,7.8,0,0,0-1.32.08Z" transform="translate(-7.2 -4.06)"/></g></g><path class="cls-12" d="M266.21,51a18,18,0,0,0,35.89-.28H343l-4.54,4.53,1.46,1.47,7-7-7-7-1.46,1.46L343,48.75H302.1a18,18,0,0,0-17.65-17h-.3l-.41,0a18,18,0,0,0-17.53,16.65c0,.44-.06.88-.06,1.33S266.18,50.6,266.21,51Zm17.94-15.28a14,14,0,1,1-14,14A14,14,0,0,1,284.15,35.75Z" transform="translate(-7.2 -4.06)"/><g id="δ--5" data-name="δ-" class="cls-5"><g class="cls-5"><path class="cls-9" d="M286.25,45a8.39,8.39,0,0,0-2.34-.33c-.16,0-.26,0-.26.13s0,.1.28.36a12.68,12.68,0,0,1,1.47,2.16,7,7,0,0,1,.63,1.93,3,3,0,0,1,0,.59,5.9,5.9,0,0,1-1.22,3.53,4.55,4.55,0,0,1-3.42,1.49,3.82,3.82,0,0,1-2.41-.73,3.52,3.52,0,0,1-1.23-2.86,5,5,0,0,1,1.61-3.78,4.38,4.38,0,0,1,2.72-1,3.31,3.31,0,0,1,1.34.28,11.07,11.07,0,0,0-1.13-1.47c-.47-.53-.59-.73-.59-1a.86.86,0,0,1,.53-.77,4.28,4.28,0,0,1,1.65-.2,19.73,19.73,0,0,1,2.8.2Zm-3.88,2.88a2.58,2.58,0,0,0-2.28,1.34,3.93,3.93,0,0,0-.53,2c0,1.35.68,2.1,1.89,2.1a2.5,2.5,0,0,0,2.06-1.06,4.22,4.22,0,0,0,.75-2.4A1.76,1.76,0,0,0,282.37,47.84Z" transform="translate(-7.2 -4.06)"/><path class="cls-9" d="M288.46,49.37a9.56,9.56,0,0,0,1.31.08H292a9.88,9.88,0,0,0,1.33-.08v1.86a7.79,7.79,0,0,0-1.33-.08h-2.18a7.68,7.68,0,0,0-1.31.08Z" transform="translate(-7.2 -4.06)"/></g></g><g id="δ_" data-name="δ "><text class="cls-13" transform="translate(50.14 494.38)">δ<tspan class="cls-7" x="12.75" y="0">+</tspan></text></g><path class="cls-14" d="M241,80.46a18,18,0,0,0-35.88.29H164.21l4.54-4.54-1.46-1.46-7,7,7,7,1.46-1.47-4.54-4.53h40.93a18,18,0,0,0,17.64,17l.31,0,.4,0A18,18,0,0,0,241,83.07c0-.44.07-.88.07-1.32S241.05,80.89,241,80.46ZM223.09,95.75a14,14,0,1,1,14-14A14,14,0,0,1,223.09,95.75Z" transform="translate(-7.2 -4.06)"/><g id="δ_2" data-name="δ "><g class="cls-5"><path class="cls-15" d="M221.45,76.32a8.72,8.72,0,0,0-2.34-.32c-.16,0-.26,0-.26.12s0,.1.28.37a12.19,12.19,0,0,1,1.47,2.15,6.91,6.91,0,0,1,.63,1.94,2.94,2.94,0,0,1,0,.59A5.87,5.87,0,0,1,220,84.69a4.55,4.55,0,0,1-3.42,1.49,3.76,3.76,0,0,1-2.41-.73A3.52,3.52,0,0,1,213,82.59a5,5,0,0,1,1.61-3.78,4.37,4.37,0,0,1,2.72-1,3.16,3.16,0,0,1,1.34.28,11.16,11.16,0,0,0-1.13-1.48c-.47-.53-.59-.72-.59-1a.88.88,0,0,1,.53-.77,4.31,4.31,0,0,1,1.65-.2,20,20,0,0,1,2.81.2Zm-3.88,2.88a2.6,2.6,0,0,0-2.28,1.35,3.9,3.9,0,0,0-.53,2c0,1.34.68,2.1,1.89,2.1a2.51,2.51,0,0,0,2.06-1.07,4.19,4.19,0,0,0,.75-2.39A1.76,1.76,0,0,0,217.57,79.2Z" transform="translate(-7.2 -4.06)"/><path class="cls-15" d="M228.8,86h-1.63V82.71h-3.31V81.1h3.31V77.78h1.63V81.1h3.32v1.61H228.8Z" transform="translate(-7.2 -4.06)"/></g></g><path class="cls-16" d="M360,153.56a18,18,0,0,0-35.89.29H283.17l4.54-4.54-1.47-1.46-7,7,7,7,1.47-1.47-4.54-4.53h40.92a18,18,0,0,0,17.65,17l.3,0,.41,0A18,18,0,0,0,360,156.18c0-.44.07-.88.07-1.33S360,154,360,153.56ZM342,168.85a14,14,0,1,1,14-14A14,14,0,0,1,342,168.85Z" transform="translate(-7.2 -4.06)"/><g id="δ_3" data-name="δ "><g class="cls-5"><path class="cls-15" d="M340.41,149.42a8.77,8.77,0,0,0-2.34-.32c-.17,0-.27,0-.27.12s0,.1.28.37a11.77,11.77,0,0,1,1.47,2.16,6.91,6.91,0,0,1,.64,1.93,4.39,4.39,0,0,1,0,.59A5.91,5.91,0,0,1,339,157.8a4.54,4.54,0,0,1-3.42,1.48,3.74,3.74,0,0,1-2.41-.73,3.49,3.49,0,0,1-1.24-2.85,5,5,0,0,1,1.62-3.79,4.33,4.33,0,0,1,2.71-1,3.36,3.36,0,0,1,1.35.28,10.54,10.54,0,0,0-1.14-1.47c-.46-.54-.59-.73-.59-1a.88.88,0,0,1,.54-.77,4.33,4.33,0,0,1,1.65-.19,19.76,19.76,0,0,1,2.8.19Zm-3.88,2.89a2.57,2.57,0,0,0-2.28,1.34,3.94,3.94,0,0,0-.54,2c0,1.34.69,2.1,1.89,2.1a2.46,2.46,0,0,0,2.06-1.07,4.12,4.12,0,0,0,.76-2.39A1.76,1.76,0,0,0,336.53,152.31Z" transform="translate(-7.2 -4.06)"/><path class="cls-15" d="M347.76,159.13h-1.63v-3.32h-3.32V154.2h3.32v-3.32h1.63v3.32h3.32v1.61h-3.32Z" transform="translate(-7.2 -4.06)"/></g></g><path class="cls-17" d="M355.34,285.81a18,18,0,0,0-35.89.29H278.53l4.54-4.54-1.46-1.46-7,7,7,7,1.46-1.47-4.54-4.53h40.92a18,18,0,0,0,17.65,17l.3,0,.41,0a18,18,0,0,0,17.53-16.66c0-.44.06-.88.06-1.32S355.37,286.24,355.34,285.81ZM337.4,301.1a14,14,0,1,1,14-14A14,14,0,0,1,337.4,301.1Z" transform="translate(-7.2 -4.06)"/><g id="δ_4" data-name="δ "><g class="cls-5"><path class="cls-15" d="M335.77,281.67a8.77,8.77,0,0,0-2.34-.32c-.17,0-.26,0-.26.12s0,.1.28.37a12.75,12.75,0,0,1,1.47,2.15,7.25,7.25,0,0,1,.63,1.94,2.94,2.94,0,0,1,0,.59,5.92,5.92,0,0,1-1.22,3.53,4.58,4.58,0,0,1-3.42,1.48,3.74,3.74,0,0,1-2.41-.73,3.52,3.52,0,0,1-1.23-2.86,5,5,0,0,1,1.61-3.78,4.37,4.37,0,0,1,2.72-1,3.16,3.16,0,0,1,1.34.28,11.16,11.16,0,0,0-1.13-1.48c-.47-.53-.59-.72-.59-1a.88.88,0,0,1,.53-.77,4.28,4.28,0,0,1,1.65-.2,19.83,19.83,0,0,1,2.8.2Zm-3.88,2.88a2.58,2.58,0,0,0-2.28,1.35,3.9,3.9,0,0,0-.53,2c0,1.34.68,2.1,1.89,2.1A2.51,2.51,0,0,0,333,289a4.19,4.19,0,0,0,.75-2.39A1.76,1.76,0,0,0,331.89,284.55Z" transform="translate(-7.2 -4.06)"/><path class="cls-15" d="M343.12,291.38h-1.63v-3.32h-3.32v-1.61h3.32v-3.32h1.63v3.32h3.32v1.61h-3.32Z" transform="translate(-7.2 -4.06)"/></g></g><path class="cls-18" d="M228.62,356.26a18,18,0,0,0-35.88.28H151.82l4.53-4.54-1.46-1.46-7,7,7,7,1.46-1.46-4.53-4.54h40.92a18,18,0,0,0,17.65,17l.3,0,.41,0a18,18,0,0,0,17.52-16.65c0-.44.07-.88.07-1.33S228.65,356.68,228.62,356.26Zm-17.93,15.28a14,14,0,1,1,14-14A14,14,0,0,1,210.69,371.54Z" transform="translate(-7.2 -4.06)"/><g id="δ_5" data-name="δ "><g class="cls-5"><path class="cls-15" d="M209.05,352.11a8.67,8.67,0,0,0-2.34-.32c-.16,0-.26,0-.26.13s0,.09.28.36a12.3,12.3,0,0,1,1.47,2.16,7,7,0,0,1,.63,1.93,2.94,2.94,0,0,1,0,.59,5.9,5.9,0,0,1-1.22,3.53,4.53,4.53,0,0,1-3.42,1.48,3.82,3.82,0,0,1-2.41-.72,3.52,3.52,0,0,1-1.23-2.86,5,5,0,0,1,1.61-3.78,4.33,4.33,0,0,1,2.72-1,3.31,3.31,0,0,1,1.34.28,10.46,10.46,0,0,0-1.13-1.47c-.46-.53-.59-.73-.59-1a.89.89,0,0,1,.53-.77,4.37,4.37,0,0,1,1.65-.19,19.8,19.8,0,0,1,2.81.19ZM205.17,355a2.59,2.59,0,0,0-2.28,1.34,3.93,3.93,0,0,0-.53,2c0,1.34.68,2.1,1.89,2.1a2.48,2.48,0,0,0,2.06-1.06,4.14,4.14,0,0,0,.75-2.4A1.76,1.76,0,0,0,205.17,355Z" transform="translate(-7.2 -4.06)"/><path class="cls-15" d="M216.4,361.82h-1.62V358.5h-3.32v-1.61h3.32v-3.32h1.62v3.32h3.32v1.61H216.4Z" transform="translate(-7.2 -4.06)"/></g></g><g id="Ellipse_282" data-name="Ellipse 282"><circle class="cls-19" cx="102.58" cy="202.77" r="17.86"/><circle class="cls-20" cx="102.58" cy="202.77" r="15.87"/></g><g id="Ellipse_282-2" data-name="Ellipse 282"><circle class="cls-21" cx="408" cy="202.03" r="17.86"/><circle class="cls-22" cx="408" cy="202.03" r="15.87"/></g><path class="cls-23" d="M413.75,206.85h-7.42v-2.58h7.42v-7.38h2.69v7.38h7.41v2.58h-7.41v7.38h-2.69Z" transform="translate(-7.2 -4.06)"/><path class="cls-24" d="M104,205.54h12.62v2.52H104Z" transform="translate(-7.2 -4.06)"/></svg>