<svg id="Layer_1" data-name="Layer 1" xmlns="http://www.w3.org/2000/svg" viewBox="0 0 672.87 665.91"><defs><style>.cls-1{fill:#f15a29;}</style></defs><title>icon-traditional-method</title><circle class="cls-1" cx="283" cy="332.96" r="283"/><path class="cls-1" d="M791,97.21c-.86.06-1.75.14-2.72.24-11,1.11-22.55,3.94-33.67,6.68-10.66,2.63-21.68,5.35-31.78,6.36-.84.09-1.61.16-2.34.21-16.06,1.2-27.17-2.4-36-11.66C677.41,91.64,674.07,83,674,71.71a6.88,6.88,0,1,0-13.76.14c.15,14.74,4.84,26.74,14.34,36.69,11.63,12.18,27,17.37,47,15.88.86-.06,1.74-.14,2.72-.24,11-1.11,22.54-3.94,33.67-6.68,10.66-2.63,21.68-5.35,31.77-6.36.86-.09,1.63-.15,2.35-.21,16.06-1.2,27.17,2.4,36,11.67,7.07,7.4,10.41,16.08,10.53,27.33a6.88,6.88,0,1,0,13.75-.14C852.18,135,847.49,123,838,113.09,826.36,100.91,811,95.72,791,97.21Z" transform="translate(-240.13 -13.04)"/><path class="cls-1" d="M716.62,15A6.87,6.87,0,0,0,721,26.79c.72,0,1.43.1,2.13.16l-42.7,40.78.15.57a14.28,14.28,0,0,1,.44,3.33,40,40,0,0,0,.81,7.93l.36,1.76,53.65-51.23a36.29,36.29,0,0,1,11.58,8.07l-.15.14L689.17,93.76l.71.72a29.93,29.93,0,0,0,7.57,5.71l.64.33L754,47.11a38.07,38.07,0,0,1,4.17,15.17l-.41.36-43.24,41.29,2.64-.1c.91,0,1.85-.09,2.81-.16.67,0,1.37-.11,2.15-.19,3.06-.3,6.4-.8,10.22-1.52l.29,0,24.69-23.57a162.62,162.62,0,0,1-3.87,17.29L753,97.27l1.64-.41c3.9-1,8.44-2.06,12.92-3l.61-.13.15-.61c1.23-5,2.13-9.5,2.74-13.64.14-1,.26-1.85.36-2.71,2.41-19.88-2.07-35.47-13.7-47.65-9.5-9.95-21.27-15.19-36-16A6.8,6.8,0,0,0,716.62,15Z" transform="translate(-240.13 -13.04)"/><path class="cls-1" d="M830.6,141.32l-53,50.61a36.23,36.23,0,0,1-12.49-8.46.67.67,0,0,0,.15-.14l58.08-55.46-.7-.72a30.06,30.06,0,0,0-7.57-5.7l-.64-.34L758.5,174.52a38,38,0,0,1-4.17-15.14L798,117.7l-2.63.1c-.92,0-1.85.09-2.81.16l-2.16.19c-3.06.31-6.4.8-10.21,1.52l-.29,0L755.18,143.3a160.81,160.81,0,0,1,3.87-17.3l.44-1.64-1.65.41c-3.9,1-8.43,2.07-12.91,3l-.61.14-.15.6c-1.23,5.05-2.13,9.51-2.74,13.64-.14,1-.26,1.84-.36,2.71-2.42,19.89,2.07,35.47,13.7,47.65,9.5,9.95,21.27,15.19,36,16a6.88,6.88,0,0,0,.77-13.74c-1.1-.06-2.2-.16-3.3-.29l43.62-41.65-.1-.53a14.74,14.74,0,0,1-.23-2.37,40.87,40.87,0,0,0-.6-6.84Z" transform="translate(-240.13 -13.04)"/><path class="cls-1" d="M721.51,567.58c.86.06,1.75.14,2.72.24,11,1.11,22.54,3.94,33.67,6.68,10.65,2.63,21.67,5.35,31.77,6.36.85.09,1.61.15,2.35.21,16.06,1.2,27.17-2.4,36-11.66,7.08-7.41,10.42-16.09,10.54-27.34a6.88,6.88,0,1,1,13.75.14C852.18,557,847.48,569,838,578.91c-11.63,12.18-27,17.37-47,15.88-.86-.06-1.75-.14-2.72-.24-11-1.11-22.54-3.94-33.67-6.69-10.66-2.62-21.68-5.34-31.77-6.35-.86-.09-1.63-.16-2.35-.21-16.06-1.2-27.17,2.4-36,11.66-7.07,7.41-10.41,16.09-10.53,27.33a6.88,6.88,0,0,1-13.76-.13c.15-14.75,4.84-26.75,14.34-36.7C686.16,571.28,701.53,566.09,721.51,567.58Z" transform="translate(-240.13 -13.04)"/><path class="cls-1" d="M795.9,485.32a6.88,6.88,0,0,1-4.37,11.84c-.71,0-1.42.09-2.12.16L832.1,538.1l-.14.56a13.91,13.91,0,0,0-.44,3.34,40,40,0,0,1-.81,7.93l-.37,1.76L776.7,500.46a36.13,36.13,0,0,0-11.58,8.07.93.93,0,0,1,.14.14l58.08,55.46-.7.72a29.89,29.89,0,0,1-7.57,5.7l-.64.34L758.5,517.48a38.2,38.2,0,0,0-4.18,15.17,3.62,3.62,0,0,1,.42.36L798,574.3l-2.63-.1c-.92,0-1.85-.09-2.81-.16-.68,0-1.38-.11-2.16-.19-3-.31-6.39-.8-10.21-1.52l-.29-.05L755.18,548.7a160.81,160.81,0,0,0,3.87,17.3l.44,1.64-1.65-.41c-3.9-1-8.43-2.07-12.91-3.05l-.61-.14-.15-.6c-1.23-5-2.13-9.51-2.74-13.64-.14-1-.26-1.85-.36-2.71-2.42-19.88,2.07-35.47,13.69-47.65,9.51-9.95,21.28-15.19,36-16A6.85,6.85,0,0,1,795.9,485.32Z" transform="translate(-240.13 -13.04)"/><path class="cls-1" d="M681.92,611.69l53,50.61a36.24,36.24,0,0,0,12.48-8.46l-.15-.14-58.07-55.46.7-.72a30.11,30.11,0,0,1,7.57-5.71l.64-.33L754,644.89a38.3,38.3,0,0,0,4.17-15.14l-43.65-41.68,2.64.1c.92,0,1.85.09,2.81.16.66,0,1.36.11,2.15.19,3.06.31,6.41.8,10.22,1.52l.29.05,24.69,23.57a161.23,161.23,0,0,0-3.87-17.29l-.44-1.64,1.64.41c3.9,1,8.44,2.06,12.92,3.05l.61.13.15.61c1.23,5.05,2.13,9.51,2.74,13.64.14.95.26,1.84.36,2.71,2.41,19.88-2.07,35.47-13.7,47.65-9.5,10-21.27,15.19-36,16a6.88,6.88,0,0,1-7.26-6.48,6.87,6.87,0,0,1,6.48-7.25c1.1-.06,2.21-.16,3.31-.29l-43.62-41.65.1-.53a14.85,14.85,0,0,0,.23-2.37,40.78,40.78,0,0,1,.6-6.84Z" transform="translate(-240.13 -13.04)"/><path class="cls-1" d="M890,360.16c-.66-.55-1.36-1.11-2.13-1.7-8.76-6.84-19-12.73-29-18.42-9.52-5.46-19.37-11.11-27.37-17.35-.67-.52-1.27-1-1.83-1.47-12.45-10.22-18-20.5-18-33.31,0-10.23,3.58-18.83,11.26-27a6.88,6.88,0,0,0-10.05-9.4c-10.07,10.77-15,22.69-15,36.44,0,16.84,7.53,31.21,23,43.93.66.55,1.36,1.1,2.13,1.7,8.76,6.84,19,12.73,29,18.43,9.52,5.46,19.37,11.1,27.37,17.34.67.53,1.28,1,1.84,1.47,12.44,10.22,18,20.5,18,33.31,0,10.24-3.58,18.83-11.26,27a6.88,6.88,0,0,0,10,9.4c10.07-10.77,15-22.69,15-36.44C913,387.25,905.47,372.88,890,360.16Z" transform="translate(-240.13 -13.04)"/><path class="cls-1" d="M893,249.29a6.88,6.88,0,0,0-5,11.58c.49.52,1,1.05,1.43,1.59h-59l-.29.51a13.75,13.75,0,0,1-2,2.72A41.07,41.07,0,0,0,823.2,272l-.94,1.52h74.17a36.34,36.34,0,0,1,2.81,13.84H818.73v1a30,30,0,0,0,1.53,9.35l.23.68h77.34a38.31,38.31,0,0,1-7.46,13.86l-.54,0H830.05l2,1.75c.68.61,1.39,1.21,2.14,1.83l1.69,1.35c2.42,1.89,5.18,3.83,8.43,5.95l.25.16h34.14a160.17,160.17,0,0,1-14.75,9.84l-1.45.88,1.47.85c3.49,2,7.53,4.33,11.45,6.71l.54.32.52-.34c4.38-2.79,8.11-5.4,11.4-8,.77-.59,1.47-1.15,2.14-1.71,15.48-12.71,23-27.08,23-43.92,0-13.75-4.9-25.67-15-36.44A6.81,6.81,0,0,0,893,249.29Z" transform="translate(-240.13 -13.04)"/><path class="cls-1" d="M888.16,419.4H814.88a36.19,36.19,0,0,1-3.19-14.74H892.2v-1a29.7,29.7,0,0,0-1.54-9.35l-.23-.68H813.09a38.25,38.25,0,0,1,7.43-13.83h60.36l-2-1.75c-.68-.61-1.39-1.21-2.14-1.83-.51-.42-1.06-.85-1.69-1.34-2.42-1.9-5.18-3.85-8.43-6l-.25-.16H832.25A160.17,160.17,0,0,1,847,358.91l1.45-.88-1.47-.85c-3.49-2-7.53-4.33-11.45-6.71l-.54-.32-.52.33c-4.38,2.8-8.11,5.41-11.41,8-.76.59-1.45,1.15-2.13,1.7-15.48,12.72-23,27.09-23,43.93,0,13.75,4.9,25.67,15,36.44a6.88,6.88,0,0,0,10.05-9.4c-.75-.8-1.49-1.64-2.19-2.49h60.31l.29-.45a13.78,13.78,0,0,1,1.48-1.88,41.61,41.61,0,0,0,4.29-5.36Z" transform="translate(-240.13 -13.04)"/></svg>