<svg id="Layer_1" data-name="Layer 1" xmlns="http://www.w3.org/2000/svg" viewBox="0 0 90 90"><defs><style>.cls-1{fill:#1c9957;}.cls-2{fill:#3e7bf1;}.cls-3{fill:#cbccc9;}.cls-4{fill:#efefef;}.cls-5{fill:#ffd73d;}.cls-6{fill:#d73f35;}.cls-7{fill:#752622;}.cls-8{fill:#fff;}</style></defs><title>icon-google-maps</title><rect class="cls-1" y="9" width="81" height="81" rx="6.75"/><path class="cls-2" d="M20.25,94.5h67.5c3.73,0-33.75-36-33.75-36S16.52,94.5,20.25,94.5Z" transform="translate(-13.5 -4.5)"/><path class="cls-3" d="M94.5,87.75V20.25c0-3.73-36,33.75-36,33.75S94.5,91.48,94.5,87.75Z" transform="translate(-13.5 -4.5)"/><path class="cls-4" d="M87.75,94.5a6.75,6.75,0,0,0,6.75-6.75V87.2L59.05,51.75l-7.3,7.3L87.2,94.5Z" transform="translate(-13.5 -4.5)"/><path class="cls-5" d="M94.5,20.25a6.75,6.75,0,0,0-6.75-6.75H87.2L13.5,87.2v.55a6.75,6.75,0,0,0,6.75,6.75h.55L94.5,20.8Z" transform="translate(-13.5 -4.5)"/><path class="cls-6" d="M81,4.5A22.5,22.5,0,0,0,58.5,27c0,15.33,17.25,20.91,21,44.66.24,1.53.26,2.59,1.5,2.59s1.26-1.06,1.5-2.59c3.75-23.75,21-29.33,21-44.66A22.5,22.5,0,0,0,81,4.5Z" transform="translate(-13.5 -4.5)"/><circle class="cls-7" cx="67.5" cy="22.5" r="7.88"/><path class="cls-8" d="M32.61,28.19v4.73h6.74a6.76,6.76,0,0,1-6.74,4.92A7.47,7.47,0,1,1,37.46,24.7l3.48-3.48a12.38,12.38,0,1,0-8.33,21.53c10.82,0,12.68-9.71,11.66-14.54Z" transform="translate(-13.5 -4.5)"/></svg>