<svg id="Layer_1" data-name="Layer 1" xmlns="http://www.w3.org/2000/svg" viewBox="0 0 200 105"><defs><style>.cls-1{fill:#3d7cc9;}.cls-2{fill:#fff;}</style></defs><title>icon-leaf-blue-outlined</title><path class="cls-1" d="M98.44,101.72H2.93L44.1,34C55.66,15,76.77,3.28,99.6,3.28h97.47L156.9,69.39c-12.17,20-34.41,32.33-58.46,32.33"/><path class="cls-2" d="M98.44,105H2.93L0,100.06,41.17,32.32C53.29,12.38,75.67,0,99.6,0h97.47L200,4.94,159.83,71.05C147.1,92,123.58,105,98.44,105ZM8.86,98.44H98.44c22.74,0,44-11.77,55.53-30.71L191.14,6.56H99.6C78.07,6.56,57.93,17.71,47,35.64Z"/></svg>