<svg id="Layer_1" data-name="Layer 1" xmlns="http://www.w3.org/2000/svg" viewBox="0 0 360 359.84"><defs><style>.cls-1{fill:#427cbf;}</style></defs><title>icon-save-time</title><path class="cls-1" d="M180.09,359.84q-3.92,0-7.88-.17A180,180,0,0,1,.17,172.06a11,11,0,0,1,22,.95,158,158,0,0,0,151,164.65c2.31.1,4.62.15,6.91.15,84,0,154.07-66.43,157.74-151.14,3.77-87-64-160.88-151-164.65a11,11,0,1,1,.95-22c99.16,4.3,176.33,88.46,172,187.61C355.65,284.14,275.79,359.84,180.09,359.84Z" transform="translate(0 0)"/><path class="cls-1" d="M180,359.84A180,180,0,0,1,52.72,52.56,11,11,0,0,1,68.3,68.14a158,158,0,1,0,223.4,223.4,11,11,0,0,1,15.58,15.58A178.82,178.82,0,0,1,180,359.84Z" transform="translate(0 0)"/><path class="cls-1" d="M180,106.79a11,11,0,0,1-11-11V11a11,11,0,1,1,22,0V95.78A11,11,0,0,1,180,106.79Z" transform="translate(0 0)"/><path class="cls-1" d="M164.24,192.52a.93.93,0,0,1-1.44-.1l-83-109.5A1.29,1.29,0,0,1,80,81.27l1.8-1.8a1.3,1.3,0,0,1,1.66-.11L192.9,162.27a1,1,0,0,1,.1,1.45Z" transform="translate(0 0)"/><path class="cls-1" d="M201.43,179.92c0,12.26-9.59,22.2-21.43,22.2s-21.43-9.94-21.43-22.2,9.59-22.19,21.43-22.19S201.43,167.67,201.43,179.92Z" transform="translate(0 0)"/></svg>