<svg id="Icon" xmlns="http://www.w3.org/2000/svg" viewBox="0 0 360 432"><defs><style>.cls-1{fill:#427cbf;}</style></defs><title>icon-higher-yield</title><path class="cls-1" d="M76.08,289.23H26.21c-9.19,0-16.6,9.84-16.6,21.94V410c0,12.15,7.45,22,16.6,22H76.08c9.15,0,16.6-9.84,16.6-22V311.17c0-12.1-7.45-21.94-16.6-21.94Z" transform="translate(0 0)"/><path class="cls-1" d="M204.92,212.33H155c-9.15,0-16.59,9.85-16.59,22V410c0,12.15,7.44,22,16.59,22h49.88c9.19,0,16.63-9.84,16.63-22V234.32c0-12.14-7.44-22-16.63-22Z" transform="translate(0 0)"/><path class="cls-1" d="M333.79,124.49H283.92c-9.16,0-16.6,9.84-16.6,22V410c0,12.15,7.44,22,16.6,22h49.87c9.19,0,16.6-9.84,16.6-22V146.48c0-12.15-7.41-22-16.6-22Z" transform="translate(0 0)"/><path class="cls-1" d="M332.18,73.25,359.48,10a6.3,6.3,0,0,0-5.74-8.77L284.17,0a6.3,6.3,0,0,0-5.45,9.72l10.17,15.51A6.26,6.26,0,0,1,287,33.94L2.9,216.06A6.26,6.26,0,0,0,1,224.77L9.1,237.09A6.41,6.41,0,0,0,17.91,239L302,56.83a6.4,6.4,0,0,1,8.8,1.86L321,74.2A6.4,6.4,0,0,0,332.18,73.25Z" transform="translate(0 0)"/></svg>