<svg id="Layer_1" data-name="Layer 1" xmlns="http://www.w3.org/2000/svg" viewBox="0 0 1011.78 566"><defs><style>.cls-1{fill:#3d7cc9;}</style></defs><title>icon-purigen-itp</title><path class="cls-1" d="M523.13,581.38A283,283,0,0,1,323,98.27,283,283,0,1,1,723.24,498.49,281.15,281.15,0,0,1,523.13,581.38Zm0-546a263,263,0,0,0-186,449,263,263,0,0,0,372-372A261.26,261.26,0,0,0,523.13,35.37Z" transform="translate(-17.35 -15.38)"/><path class="cls-1" d="M557.65,187.06c-.66-.55-1.36-1.11-2.13-1.7-8.76-6.84-19-12.73-29-18.42-9.53-5.46-19.37-11.11-27.38-17.35-.67-.52-1.27-1-1.83-1.47-12.45-10.22-18-20.5-18-33.31,0-10.23,3.58-18.83,11.26-27a6.88,6.88,0,0,0-10.05-9.4c-10.07,10.77-15,22.69-15,36.44,0,16.84,7.53,31.21,23,43.93.66.55,1.36,1.1,2.13,1.7,8.76,6.84,19,12.72,29,18.43,9.52,5.45,19.37,11.1,27.37,17.34.68.53,1.28,1,1.84,1.47,12.44,10.22,18,20.5,18,33.31,0,10.24-3.57,18.83-11.26,27a6.85,6.85,0,0,0-1.85,4.93,6.89,6.89,0,0,0,6.87,6.65,6.85,6.85,0,0,0,5-2.18c10.07-10.77,15-22.69,15-36.44C580.66,214.15,573.13,199.78,557.65,187.06Z" transform="translate(-17.35 -15.38)"/><path class="cls-1" d="M560.66,76.19a6.88,6.88,0,0,0-5,11.58c.49.52,1,1,1.43,1.59H498l-.28.51a14.6,14.6,0,0,1-2,2.72,39.4,39.4,0,0,0-4.89,6.29l-.95,1.52h74.17a36.34,36.34,0,0,1,2.81,13.84H486.39v1a29.7,29.7,0,0,0,1.54,9.35l.23.68H565.5A38.31,38.31,0,0,1,558,139.14l-.54,0H497.71l2,1.75c.68.6,1.4,1.21,2.14,1.83.52.43,1.07.86,1.69,1.35,2.42,1.88,5.18,3.83,8.44,6l.24.16h34.14A161.25,161.25,0,0,1,531.6,160l-1.46.88,1.48.85c3.48,2,7.52,4.33,11.44,6.71l.54.32.52-.34c4.38-2.79,8.11-5.4,11.41-8,.76-.59,1.46-1.15,2.13-1.71,15.48-12.71,23-27.08,23-43.92,0-13.75-4.9-25.67-15-36.44A6.81,6.81,0,0,0,560.66,76.19Z" transform="translate(-17.35 -15.38)"/><path class="cls-1" d="M555.83,246.3H482.54a36.19,36.19,0,0,1-3.19-14.74h80.51v-1a30,30,0,0,0-1.53-9.35l-.23-.68H480.75a38.12,38.12,0,0,1,7.44-13.83h60.35l-2-1.75c-.68-.61-1.39-1.21-2.14-1.83-.51-.42-1.06-.85-1.69-1.34-2.42-1.9-5.18-3.85-8.43-6l-.25-.16H499.92a158.5,158.5,0,0,1,14.74-9.84l1.45-.88-1.47-.85c-3.49-2-7.53-4.33-11.45-6.71l-.53-.32-.53.33c-4.38,2.8-8.11,5.41-11.4,8-.76.59-1.46,1.15-2.14,1.7-15.47,12.72-23,27.09-23,43.93,0,13.75,4.9,25.67,15,36.44a6.88,6.88,0,0,0,10.05-9.4q-1.12-1.21-2.19-2.49h60.31l.29-.45a13.78,13.78,0,0,1,1.48-1.88,41.61,41.61,0,0,0,4.29-5.36Z" transform="translate(-17.35 -15.38)"/><path class="cls-1" d="M435.17,400c-.66-.54-1.36-1.1-2.13-1.7-8.76-6.83-19-12.72-29-18.42-9.52-5.46-19.36-11.1-27.37-17.34-.67-.52-1.27-1-1.83-1.47-12.45-10.23-18-20.5-18-33.31,0-10.24,3.58-18.83,11.26-27a6.88,6.88,0,0,0-10.05-9.4c-10.07,10.76-15,22.68-15,36.44,0,16.84,7.53,31.21,23,43.93.66.54,1.36,1.1,2.13,1.7,8.76,6.83,19,12.72,29,18.42,9.52,5.46,19.37,11.11,27.37,17.35.68.52,1.28,1,1.84,1.47,12.44,10.22,18,20.49,18,33.31,0,10.24-3.58,18.83-11.26,27a6.88,6.88,0,0,0,10,9.4c10.07-10.77,15-22.69,15-36.44C458.18,427.13,450.65,412.75,435.17,400Z" transform="translate(-17.35 -15.38)"/><path class="cls-1" d="M438.18,289.17a6.88,6.88,0,0,0-5,11.58c.49.52,1,1.05,1.43,1.59h-59l-.29.51a13.4,13.4,0,0,1-2,2.71,41.56,41.56,0,0,0-4.89,6.29l-.94,1.53h74.17a36.34,36.34,0,0,1,2.81,13.84H363.91v1a29.81,29.81,0,0,0,1.54,9.36l.23.68H443a38.19,38.19,0,0,1-7.46,13.85l-.54,0H375.23l2,1.74c.68.61,1.4,1.22,2.14,1.83.52.43,1.07.87,1.69,1.35,2.42,1.89,5.18,3.84,8.43,6l.25.16h34.14A163.34,163.34,0,0,1,409.12,373l-1.46.88,1.48.84c3.48,2,7.52,4.33,11.44,6.71l.54.33.52-.34c4.38-2.79,8.11-5.4,11.41-8,.76-.6,1.46-1.16,2.13-1.71,15.48-12.71,23-27.08,23-43.92,0-13.76-4.9-25.68-15-36.44A6.81,6.81,0,0,0,438.18,289.17Z" transform="translate(-17.35 -15.38)"/><path class="cls-1" d="M433.34,459.28H360.06a36.19,36.19,0,0,1-3.19-14.74h80.51v-1a29.7,29.7,0,0,0-1.54-9.35l-.23-.68H358.27a38.12,38.12,0,0,1,7.44-13.83h60.35l-2-1.75c-.68-.61-1.39-1.22-2.14-1.83-.51-.42-1.06-.86-1.69-1.35-2.42-1.89-5.18-3.84-8.43-6l-.25-.16H377.43a164.36,164.36,0,0,1,14.75-9.84l1.45-.87-1.47-.85c-3.49-2-7.53-4.33-11.45-6.71l-.53-.32-.53.33c-4.38,2.8-8.11,5.41-11.4,8-.76.59-1.46,1.14-2.14,1.7-15.48,12.72-23,27.09-23,43.93,0,13.75,4.9,25.67,15,36.44a6.88,6.88,0,0,0,10.05-9.4c-.75-.81-1.48-1.64-2.19-2.5h60.31l.29-.44a14.6,14.6,0,0,1,1.48-1.88,41.44,41.44,0,0,0,4.29-5.36Z" transform="translate(-17.35 -15.38)"/><path class="cls-1" d="M680.13,400c-.66-.54-1.36-1.1-2.13-1.7-8.76-6.83-19-12.72-29-18.42-9.53-5.46-19.38-11.1-27.38-17.34-.67-.52-1.27-1-1.83-1.47-12.45-10.23-18-20.5-18-33.31,0-10.24,3.58-18.83,11.26-27a6.88,6.88,0,0,0-10.05-9.4c-10.07,10.76-15,22.68-15,36.44,0,16.84,7.53,31.21,23,43.93.66.54,1.36,1.1,2.13,1.7,8.76,6.83,19,12.72,29,18.42,9.53,5.46,19.37,11.11,27.37,17.35.68.53,1.28,1,1.84,1.47,12.44,10.22,18,20.5,18,33.31,0,10.24-3.57,18.83-11.26,27a6.88,6.88,0,0,0,10,9.4c10.07-10.77,15-22.69,15-36.44C703.14,427.13,695.62,412.76,680.13,400Z" transform="translate(-17.35 -15.38)"/><path class="cls-1" d="M612.4,313.38h74.17a36.34,36.34,0,0,1,2.81,13.84H608.87v1a29.81,29.81,0,0,0,1.54,9.36l.23.68H688a37.89,37.89,0,0,1-7.46,13.85l-.54,0H620.2l2,1.74c.69.61,1.4,1.22,2.14,1.83.52.43,1.07.87,1.69,1.35,2.43,1.89,5.19,3.84,8.44,6l.25.16h34.13A161.92,161.92,0,0,1,654.08,373l-1.46.88,1.48.84c3.49,2,7.55,4.35,11.45,6.71l.53.33.52-.34c4.38-2.79,8.11-5.4,11.41-8,.76-.6,1.46-1.16,2.13-1.71,15.48-12.71,23-27.08,23-43.92,0-13.76-4.9-25.68-15-36.44a6.88,6.88,0,0,0-10,9.4c.49.52,1,1.05,1.43,1.59h-59l-.28.51a14.21,14.21,0,0,1-2,2.71,40.31,40.31,0,0,0-4.89,6.29Z" transform="translate(-17.35 -15.38)"/><path class="cls-1" d="M678.31,459.28H605a36,36,0,0,1-3.2-14.74h80.51v-1a30,30,0,0,0-1.53-9.35l-.23-.68H603.23a38.12,38.12,0,0,1,7.44-13.83H671l-2-1.75c-.68-.61-1.39-1.22-2.14-1.83-.51-.42-1.06-.86-1.69-1.35-2.42-1.89-5.18-3.84-8.43-6l-.25-.16H622.4a162.6,162.6,0,0,1,14.74-9.84l1.45-.87-1.47-.85c-3.48-2-7.53-4.33-11.45-6.71l-.53-.32-.53.33c-4.38,2.8-8.11,5.41-11.4,8-.76.59-1.46,1.15-2.14,1.7-15.47,12.72-23,27.09-23,43.93,0,13.75,4.9,25.67,15,36.44a6.88,6.88,0,0,0,10.05-9.4c-.75-.81-1.48-1.64-2.19-2.5h60.31l.29-.44a14.6,14.6,0,0,1,1.48-1.88,41.44,41.44,0,0,0,4.29-5.36Z" transform="translate(-17.35 -15.38)"/><path class="cls-1" d="M96.29,218.26a78.95,78.95,0,1,0,79,78.95A78.95,78.95,0,0,0,96.29,218.26Zm25.44,91.07H70.86a12.13,12.13,0,1,1,0-24.25h50.87a12.13,12.13,0,0,1,0,24.25Z" transform="translate(-17.35 -15.38)"/><path class="cls-1" d="M950.18,218.26a78.95,78.95,0,1,0,79,78.95A78.95,78.95,0,0,0,950.18,218.26ZM982.45,309H962.3v19.63a12.12,12.12,0,0,1-24.24,0V309H917.91a11.78,11.78,0,1,1,0-23.56h20.15V265.79a12.12,12.12,0,0,1,24.24,0v19.64h20.15a11.78,11.78,0,0,1,0,23.56Z" transform="translate(-17.35 -15.38)"/><path class="cls-1" d="M506.67,320.09H481.23c-3.33,0-6.06-2.43-6.06-5.38s2.73-5.38,6.06-5.38h25.44c3.33,0,6.06,2.42,6.06,5.38S510,320.09,506.67,320.09Z" transform="translate(-17.35 -15.38)"/><path class="cls-1" d="M628.15,111.14H602.71c-3.33,0-6.06-2.43-6.06-5.38s2.73-5.38,6.06-5.38h25.44c3.33,0,6.06,2.42,6.06,5.38S631.48,111.14,628.15,111.14Z" transform="translate(-17.35 -15.38)"/><path class="cls-1" d="M751.15,320.09H725.71c-3.32,0-6.06-2.43-6.06-5.38s2.74-5.38,6.06-5.38h25.44c3.33,0,6.06,2.42,6.06,5.38S754.48,320.09,751.15,320.09Z" transform="translate(-17.35 -15.38)"/></svg>