<svg id="Layer_1" data-name="Layer 1" xmlns="http://www.w3.org/2000/svg" viewBox="0 0 387.28 315.68"><defs><style>.cls-1{fill:#427cbf;}</style></defs><title>icon-dna</title><path class="cls-1" d="M391.59,131.88c-3.34-5.31-9.74-7.28-14.32-4.41l-1.5.93L322,42.81l1.49-1c4.57-2.87,5.58-9.5,2.24-14.81s-9.74-7.28-14.3-4.41c-34.13,21.43-42,54.36-45,86.51,4.41,1.72,8.75,3.5,13,5.25,2.39,1,4.74,1.94,7.08,2.87a176.78,176.78,0,0,1,4.64-30l31.15,49.62C307.6,134,292.81,128,277.65,121.76,242.4,107.37,202.46,91.07,161,117.13s-44.17,69.11-46.52,107.12c-1,16.34-2,32.28-5.8,46.8L77.49,221.44a177.29,177.29,0,0,1,29,8.85q.25-3.76.49-7.62c.28-4.54.57-9.24.94-14-30.28-11.23-63.36-18.45-97.47,3-4.58,2.86-5.58,9.49-2.24,14.8s9.73,7.28,14.3,4.41c.51-.32,1-.63,1.52-.93L77.81,315.5l-1.5,1c-4.57,2.87-5.57,9.49-2.24,14.81s9.74,7.27,14.31,4.41c41.5-26.06,44.16-69.12,46.52-107.12,1.27-20.59,2.5-40.53,9.39-57.8l39,62.14c-13.45-.93-26.86-5.17-40.5-10.39-.16,2.51-.33,5.05-.48,7.62-.29,4.54-.58,9.24-.94,14,30.27,11.23,63.35,18.45,97.48-3s42-54.36,45-86.51c-4.41-1.72-8.76-3.5-13-5.24q-3.57-1.47-7.06-2.88c-1.22,14.56-3.25,28.48-8.23,41l-39-62.17c18.55,1.32,37.05,8.87,56.15,16.66,35.24,14.39,75.19,30.69,116.69,4.63C393.91,143.82,394.92,137.18,391.59,131.88ZM89,306.54,37,223.73a68.45,68.45,0,0,1,22.64-4l42.85,68.24A68.28,68.28,0,0,1,89,306.54ZM199.71,232.3,152,156.25a68.45,68.45,0,0,1,15.22-15.86l53.42,85.08A68.22,68.22,0,0,1,199.71,232.3Zm48.16-30.24a68.45,68.45,0,0,1-15.22,15.86l-53.43-85.1A68.73,68.73,0,0,1,200.11,126Zm92.34-63.44L297.37,70.38a68,68,0,0,1,13.48-18.62l52,82.82A68.45,68.45,0,0,1,340.21,138.62Z" transform="translate(-6.27 -21.32)"/></svg>