<svg id="Layer_1" data-name="Layer 1" xmlns="http://www.w3.org/2000/svg" viewBox="0 0 302.4 302.27"><defs><style>.cls-1{fill:#427cbf;}</style></defs><title>icon-save-time</title><path class="cls-1" d="M206.17,27.43a9,9,0,0,0-3.48.52,9.15,9.15,0,0,0-3.06-.53,9.25,9.25,0,0,0-9.26,9.25v71.2a9.26,9.26,0,1,0,18.51,0V46.11c71.4,5,126.43,66.19,123.31,138.11C329.21,253,274.08,307.47,206.65,311l-.39,0-1.12,0-2.19.08c-1.08,0-2.17,0-3.26,0h-1.27l-1.74,0-2.21-.08-.72,0a133.21,133.21,0,0,1-38.14-7.32l-.13,0-2.6-.95-.53-.2c-.73-.27-1.45-.56-2.16-.85l-.95-.37-1.71-.72-1.37-.59-1.25-.57-1.79-.82-.82-.39-2.18-1.06-.42-.22c-.85-.43-1.7-.87-2.54-1.32l0,0a133.15,133.15,0,0,1-31.25-23.21l-.38-.39c-.61-.61-1.21-1.22-1.8-1.84l-1-1.05-1.15-1.23c-.5-.55-1-1.11-1.49-1.67l-.6-.68c-.63-.72-1.25-1.45-1.86-2.18-.06-.08-.13-.15-.2-.23a132.82,132.82,0,0,1-16-24.25c0-.06-.07-.13-.11-.2-.41-.81-.82-1.63-1.21-2.45-.09-.18-.17-.35-.26-.52-.34-.71-.67-1.43-1-2.14-.14-.29-.27-.59-.41-.88l-.78-1.79-.54-1.26c-.2-.48-.39-.95-.58-1.43s-.45-1.1-.66-1.66c-.14-.35-.27-.7-.4-1.05-.26-.69-.52-1.37-.77-2.07l-.23-.66c-.29-.82-.58-1.65-.85-2.48l-.09-.28A132.79,132.79,0,0,1,67,181.87v-.3c0-.95,0-1.89,0-2.84,0-.37,0-.74,0-1.1,0-.67,0-1.34,0-2s0-1.35.06-2A131.77,131.77,0,0,1,105.8,84.65,9.25,9.25,0,0,0,92.71,71.57,150.09,150.09,0,0,0,48.58,171.85a.38.38,0,0,0,0,.1c0,.33,0,.66,0,1,0,.75-.06,1.5-.07,2.26s0,1.55,0,2.32c0,.32,0,.64,0,1v.27c0,1.08,0,2.16,0,3.24v.34a150.65,150.65,0,0,0,7.47,43.44c0,.11.07.23.11.35.31.93.63,1.87,1,2.8l.27.78c.28.78.58,1.56.87,2.33.15.41.31.82.46,1.22.24.62.5,1.24.75,1.86s.44,1.11.67,1.66l.6,1.4c.3.69.6,1.39.91,2.08.14.32.29.64.44,1,.37.83.76,1.65,1.15,2.48l.27.55c.46.95.93,1.9,1.41,2.84l.1.19a150.14,150.14,0,0,0,18.27,27.66l.18.22c.71.85,1.43,1.7,2.16,2.53.21.25.43.49.64.73l1.75,1.95.27.31,1,1.05L90.33,283c.66.69,1.33,1.37,2,2l.38.39.11.11a151,151,0,0,0,38.56,28l.43.22,2.53,1.24.89.42c.69.33,1.39.64,2.08,1l1.39.62c.53.24,1.07.46,1.61.69l1.89.8,1.14.46,2.4.94.67.25c1,.36,1.93.71,2.9,1.05l.21.08A150.73,150.73,0,0,0,193,329.53h.12l.59,0c.87,0,1.73.07,2.6.09l2.08,0,1.27,0h.45c1.12,0,2.24,0,3.36,0l1.66-.06A150.18,150.18,0,0,0,306.54,285.4a10.92,10.92,0,0,0,.78-.9A150.6,150.6,0,0,0,350.68,185C354.29,101.73,289.46,31,206.17,27.43Z" transform="translate(-48.43 -27.42)"/><path class="cls-1" d="M183.54,186.9a18,18,0,0,0,16.09,10.3c9.94,0,18-8.35,18-18.65a18.77,18.77,0,0,0-8.34-15.71l-90.8-68.76a1.09,1.09,0,0,0-1.39.09l-1.51,1.51a1.09,1.09,0,0,0-.09,1.39Z" transform="translate(-48.43 -27.42)"/></svg>