<svg id="Layer_1" data-name="Layer 1" xmlns="http://www.w3.org/2000/svg" viewBox="0 0 500 500"><defs><style>.cls-1{fill:#fff;}</style></defs><title>icon-purigen-white</title><path class="cls-1" d="M246,381.24H0v77.09A41.79,41.79,0,0,0,41.67,500H458.33A41.79,41.79,0,0,0,500,458.33V118.76L396.55,295A174.6,174.6,0,0,1,246,381.24Z"/><path class="cls-1" d="M458.33,0H41.67A41.79,41.79,0,0,0,0,41.67V381.24L106,200.62A165.76,165.76,0,0,1,249,118.76H500V41.67A41.79,41.79,0,0,0,458.33,0Z"/><path class="cls-1" d="M248.17,310H135.68l48.49-82.59A75.78,75.78,0,0,1,249.53,190H364.32L317,270.6A79.85,79.85,0,0,1,248.17,310"/></svg>