<svg id="Layer_1" data-name="Layer 1" xmlns="http://www.w3.org/2000/svg" viewBox="0 0 216 216"><defs><style>.cls-1{fill:#91989e;}</style></defs><title>icon-purigen-gray</title><path class="cls-1" d="M106.27,164.7H0V198a18.05,18.05,0,0,0,18,18H198a18.05,18.05,0,0,0,18-18V51.3l-44.69,76.16A75.43,75.43,0,0,1,106.27,164.7Z"/><path class="cls-1" d="M198,0H18A18.05,18.05,0,0,0,0,18V164.7l45.81-78A71.59,71.59,0,0,1,107.56,51.3H216V18A18.05,18.05,0,0,0,198,0Z"/><path class="cls-1" d="M107.21,133.93H58.61l21-35.68A32.74,32.74,0,0,1,107.8,82.07h49.59L137,116.9a34.48,34.48,0,0,1-29.74,17"/></svg>