<svg id="Layer_1" data-name="Layer 1" xmlns="http://www.w3.org/2000/svg" viewBox="0 0 267.03 324"><defs><style>.cls-1{fill:#427cbf;}</style></defs><title>icon-higher-yield</title><path class="cls-1" d="M122.54,233.47h-37c-6.82,0-12.31,7.39-12.31,16.46v74.13c0,9.11,5.52,16.49,12.31,16.49h37c6.79,0,12.31-7.38,12.31-16.49V249.93c0-9.07-5.52-16.46-12.31-16.46Z" transform="translate(-66.11 -16.55)"/><path class="cls-1" d="M218.11,175.8h-37c-6.78,0-12.31,7.38-12.31,16.49V324.06c0,9.11,5.53,16.49,12.31,16.49h37c6.81,0,12.34-7.38,12.34-16.49V192.29c0-9.11-5.53-16.49-12.34-16.49Z" transform="translate(-66.11 -16.55)"/><path class="cls-1" d="M313.7,109.92h-37c-6.79,0-12.31,7.38-12.31,16.49V324.06c0,9.11,5.52,16.49,12.31,16.49h37c6.82,0,12.31-7.38,12.31-16.49V126.41c0-9.11-5.49-16.49-12.31-16.49Z" transform="translate(-66.11 -16.55)"/><path class="cls-1" d="M312.5,71.49,332.76,24a4.72,4.72,0,0,0-4.26-6.57l-51.6-.9a4.73,4.73,0,0,0-4,7.29l7.54,11.64A4.72,4.72,0,0,1,279,42L68.26,178.6a4.72,4.72,0,0,0-1.39,6.53l6,9.24a4.72,4.72,0,0,0,6.53,1.39L290.13,59.17a4.73,4.73,0,0,1,6.53,1.4L304.2,72.2A4.71,4.71,0,0,0,312.5,71.49Z" transform="translate(-66.11 -16.55)"/></svg>