<svg id="Layer_1" data-name="Layer 1" xmlns="http://www.w3.org/2000/svg" viewBox="0 0 1000 821.67"><defs><style>.cls-1{fill:#fff;}</style></defs><title>icon-purigen-system-white</title><path class="cls-1" d="M114.11,418.88c-5.43-7.93-5.67-29.85-.52-48.72l34.63-126.9C153.37,224.38,174,209,194,209H457.1c20,0,28.49,14,18.85,31.11L384.56,402.18c-9.64,17.11-33.9,31.11-53.91,31.11H160.38c-20,0-40.84-6.49-46.27-14.41" transform="translate(0 0)"/><path class="cls-1" d="M458.31,435c-20.82.18-29.54-13.61-19.37-30.66L669.77,17.66c10.17-17,33.1-22.75,51-12.68L936.81,126.85c17.85,10.07,20.45,29.63,5.77,43.48L690.8,408.09c-14.67,13.86-43.71,25.33-64.55,25.51Z" transform="translate(0 0)"/><path class="cls-1" d="M725.59,470.8c-1.21,0-.22-5.09,2.19-11.32s16.55-22.52,31.39-36.21L973,226.08c14.84-13.69,27-8.92,27,10.6V709c0,19.53-12.16,24.31-27,10.62,0,0-234.23-215.92-240.82-232.38Z" transform="translate(0 0)"/><path class="cls-1" d="M922.73,755.4,673.33,521.59c-14.72-13.82-43.82-25.11-64.64-25.11H144.4c-20.84,0-42.82,5.09-48.85,11.31s-15.81,26.66-21.7,45.37L9.69,756.74c-5.9,18.73-10.25,41-9.63,49.49s18.14,15.44,39,15.44h124c20.82,0,42.8-10.2,48.85-22.65s28-22.63,48.84-22.63H736c20.82,0,43.79,3.24,51,7.2s10.21,14.15,6.58,22.64,10.45,15.44,31.28,15.44h56c20.82,0,44.78-9.26,53.23-20.59s3.32-31.88-11.41-45.68" transform="translate(0 0)"/></svg>