<svg id="Layer_1" data-name="Layer 1" xmlns="http://www.w3.org/2000/svg" viewBox="0 0 360 360"><defs><style>.cls-1{fill:#427cbf;}</style></defs><title>icon-dna</title><path class="cls-1" d="M356.33,91.21c-4.44-4.43-11.12-4.93-14.94-1.11l-1.27,1.24L268.66,19.88c.41-.42.82-.85,1.24-1.27,3.82-3.82,3.32-10.5-1.11-14.94s-11.12-4.92-14.93-1.11C225.37,31.05,225,64.91,229.24,96.93c4.69.69,9.32,1.46,13.88,2.21l7.54,1.23a178.35,178.35,0,0,1-2.17-30.29l41.43,41.42c-15,.48-30.76-2.12-46.92-4.77-37.57-6.17-80.14-13.16-114.79,21.49S100.56,205.43,106.74,243c2.65,16.16,5.24,31.91,4.76,46.92L70.08,248.5a177.26,177.26,0,0,1,30.28,2.16q-.6-3.74-1.22-7.54c-.74-4.49-1.51-9.13-2.21-13.87-32-4.21-65.88-3.88-94.36,24.61-3.82,3.81-3.32,10.5,1.11,14.93s11.12,4.93,14.93,1.11c.43-.43.84-.83,1.27-1.24l71.46,71.46c-.41.42-.82.85-1.24,1.27-3.82,3.82-3.32,10.5,1.11,14.94s11.12,4.92,14.93,1.11c34.65-34.65,27.66-77.23,21.49-114.79-3.35-20.36-6.59-40.07-3.73-58.44l51.89,51.89c-13.32,2.08-27.34.94-41.79-1.11q.58,3.72,1.22,7.53c.73,4.5,1.5,9.14,2.2,13.88,32,4.21,65.88,3.88,94.37-24.61s28.82-62.35,24.61-94.36c-4.68-.7-9.31-1.46-13.88-2.21-2.54-.42-5-.84-7.52-1.23,2.05,14.46,3.18,28.48,1.11,41.81L184.2,123.89c18.38-2.85,38.1.39,58.45,3.73,37.56,6.18,80.14,13.17,114.79-21.48C361.25,102.33,360.75,95.64,356.33,91.21ZM100.23,328.9,31.09,259.76a67.92,67.92,0,0,1,21.16-9l57,57A68.17,68.17,0,0,1,100.23,328.9Zm91.41-97-63.49-63.51a68.26,68.26,0,0,1,11.3-18.85l71,71.05A68.54,68.54,0,0,1,191.64,231.86Zm40.22-40.21a68.54,68.54,0,0,1-11.31,18.85L149.5,139.44a68.75,68.75,0,0,1,18.85-11.3Zm75.88-82.43-57-57a68,68,0,0,1,9-21.16l69.14,69.15A68,68,0,0,1,307.74,109.22Z" transform="translate(0 0)"/></svg>