<svg id="Layer_1" data-name="Layer 1" xmlns="http://www.w3.org/2000/svg" viewBox="0 0 600 600"><defs><style>.cls-1{fill:#427cbf;}</style></defs><title>icon-dna-fragment</title><path class="cls-1" d="M619.33,177.07c-7.39-7.39-18.53-8.22-24.9-1.86-.69.7-1.4,1.39-2.1,2.07L473.22,58.17c.68-.69,1.37-1.41,2.07-2.1,6.37-6.37,5.54-17.51-1.86-24.9S454.9,23,448.55,29.32c-47.49,47.49-48,103.91-41,157.28,7.8,1.15,15.52,2.43,23.12,3.68,4.24.69,8.43,1.39,12.57,2.05-2.45-17.26-4.12-34.14-3.61-50.49l69.05,69c-25,.79-51.28-3.54-78.21-8C367.84,192.64,296.89,181,239.14,238.74s-46.09,128.69-35.79,191.31c4.42,26.93,8.74,53.19,7.94,78.2l-69-69c16.33-.52,33.21,1.15,50.47,3.6q-1-6.21-2-12.56c-1.23-7.49-2.5-15.23-3.68-23.13-53.36-7-109.79-6.46-157.26,41-6.37,6.35-5.54,17.5,1.85,24.88s18.53,8.22,24.88,1.85c.71-.71,1.41-1.39,2.12-2.07l119.1,119.11L175.62,594c-6.37,6.36-5.54,17.5,1.85,24.89s18.53,8.21,24.88,1.86c57.75-57.75,46.1-128.71,35.82-191.32-5.59-33.93-11-66.77-6.21-97.4l86.48,86.48c-22.2,3.47-45.57,1.57-69.66-1.85q1,6.21,2,12.57c1.22,7.49,2.5,15.22,3.68,23.12,53.36,7,109.79,6.46,157.28-41s48-103.9,41-157.27c-7.8-1.15-15.52-2.43-23.12-3.68-4.24-.7-8.41-1.39-12.55-2,3.42,24.11,5.31,47.48,1.86,69.69l-86.52-86.52c30.64-4.74,63.5.65,97.43,6.22C492.48,248,563.44,259.7,621.18,202,627.54,195.6,626.71,184.44,619.33,177.07ZM192.51,573.22,77.26,458a113.85,113.85,0,0,1,35.28-15l95,95A114.14,114.14,0,0,1,192.51,573.22ZM344.86,411.48,239,305.64a113.75,113.75,0,0,1,18.84-31.42l118.39,118.4A113.79,113.79,0,0,1,344.86,411.48Zm67-67a114.45,114.45,0,0,1-18.83,31.42L274.62,257.46A114.24,114.24,0,0,1,306,238.62ZM538.35,207.09l-94.94-95a113.35,113.35,0,0,1,15-35.27L573.64,192.12A114,114,0,0,1,538.35,207.09Z" transform="translate(-25.45 -25.05)"/></svg>