<svg id="Layer_1" data-name="Layer 1" xmlns="http://www.w3.org/2000/svg" viewBox="0 0 600 70.05"><defs><style>.cls-1{fill:#3d7cc9;}</style></defs><title>icon-3leaf-blue</title><path class="cls-1" d="M532.21,70.05H466.56l28.3-48.2A44.23,44.23,0,0,1,533,0h67L572.39,47.05a46.59,46.59,0,0,1-40.18,23"/><path class="cls-1" d="M393.57,70.05H280.3l28.3-48.2A44.23,44.23,0,0,1,346.74,0H461.37L433.76,47.05a46.61,46.61,0,0,1-40.19,23"/><path class="cls-1" d="M204.79,70.05H0L28.3,21.84A44.22,44.22,0,0,1,66.44,0H272.58L245,47.05a46.61,46.61,0,0,1-40.19,23"/></svg>