<svg id="Layer_1" data-name="Layer 1" xmlns="http://www.w3.org/2000/svg" viewBox="0 0 299.51 48.46"><defs><style>.cls-1{fill:#3d7cc9;}.cls-2{fill:#fff;}</style></defs><title>workflow-purigen-ffpe-v02</title><rect class="cls-1" x="40.8" y="8.52" width="249.72" height="0.17"/><path class="cls-1" d="M287.37,22H248.09l7.25-12.3a11.32,11.32,0,0,1,9.76-5.57h39.63l-7.07,12A11.94,11.94,0,0,1,287.37,22" transform="translate(-5.22 -4.12)"/><path class="cls-2" d="M272,10.79a1.57,1.57,0,0,1,1.21.34c.3.28.44.77.44,1.87s-.14,1.59-.44,1.88a1.57,1.57,0,0,1-1.21.34h-2.11V10.79Zm.41.92c-.11-.1-.22-.12-.52-.12h-1v2.83h1c.29,0,.42,0,.52-.13s.18-.37.18-1.29S272.51,11.83,272.39,11.71Z" transform="translate(-5.22 -4.12)"/><path class="cls-2" d="M278.31,15.22h-.84A.42.42,0,0,1,277,15l-1.53-2.73h-.06v3h-1V10.79h1a.41.41,0,0,1,.45.26l1.4,2.53h.06V10.79h1Z" transform="translate(-5.22 -4.12)"/><path class="cls-2" d="M281.75,14.12h-1.53l-.33,1.1h-1l1.37-4.16c.09-.24.13-.29.36-.29h.86c.23,0,.28.05.36.29l1.38,4.16h-1.11Zm-1.3-.77h1.07L281,11.7h-.08Z" transform="translate(-5.22 -4.12)"/><rect class="cls-1" x="271.01" y="17.14" width="0.18" height="13.33"/><path class="cls-1" d="M276.33,37.44a1.52,1.52,0,1,1,1.51-1.52A1.52,1.52,0,0,1,276.33,37.44Zm0-2.67a1.15,1.15,0,1,0,1.15,1.15A1.15,1.15,0,0,0,276.33,34.77Z" transform="translate(-5.22 -4.12)"/><path class="cls-1" d="M256.7,45.76h-.85a7.86,7.86,0,0,1,.15-.86c.06-.28,0-.36,0-.42s-.15-.07-.38-.07h-.65l-.34,1.35h-.83l.89-3.57h1.88c.34,0,.54.05.66.19s.19.42.08.89-.39.77-.81.83h0c.35.1.5.24.39.75A8,8,0,0,0,256.7,45.76Zm-1.38-2.93-.23,1H256c.17,0,.23,0,.27-.06a.78.78,0,0,0,.19-.42c.07-.27,0-.38,0-.43s-.09-.05-.29-.05Z" transform="translate(-5.22 -4.12)"/><path class="cls-1" d="M258.18,45.76a.67.67,0,0,1-.53-.17c-.2-.19-.23-.52,0-1.29a2.19,2.19,0,0,1,.46-1.12.86.86,0,0,1,.69-.23h.78a.7.7,0,0,1,.52.16c.2.2.22.52,0,1.31a.12.12,0,0,1-.14.11h-1.62c-.11.45-.1.56-.05.61s.09,0,.23,0h.35c.19,0,.24,0,.29-.07s.07-.11.13-.3H260a1.48,1.48,0,0,1-.33.72.81.81,0,0,1-.64.22Zm.23-1.65h1c.08-.38.09-.5,0-.55s-.09,0-.22,0h-.35c-.16,0-.23,0-.27.06S258.52,43.7,258.41,44.11Z" transform="translate(-5.22 -4.12)"/><path class="cls-1" d="M261.94,45.76l.07-.32a1.25,1.25,0,0,1-.79.32H261c-.28,0-.38,0-.47-.14s-.15-.36-.07-.69a.92.92,0,0,1,1.16-.81,3.13,3.13,0,0,1,.73.08l.06-.25c.06-.27.06-.33,0-.38s-.08,0-.19,0h-.34c-.11,0-.17,0-.21,0a.61.61,0,0,0-.12.27h-.73a1.36,1.36,0,0,1,.31-.7.72.72,0,0,1,.58-.2h.9a.67.67,0,0,1,.5.16c.14.14.15.37,0,.85l-.45,1.8Zm.16-.72.12-.46h-.5c-.28,0-.36,0-.43.09a.41.41,0,0,0-.1.23c0,.14,0,.22,0,.27a.27.27,0,0,0,.19,0h.15A1.3,1.3,0,0,0,262.1,45Z" transform="translate(-5.22 -4.12)"/><path class="cls-1" d="M265,43c.2,0,.32.06.67.35L266,42h.79l-.95,3.77H265l.09-.36c-.45.31-.57.36-.84.36h-.18a.59.59,0,0,1-.49-.16c-.18-.17-.19-.49,0-1.27a2.15,2.15,0,0,1,.49-1.15.9.9,0,0,1,.69-.23Zm.25,2,.31-1.27a.69.69,0,0,0-.4-.14h-.21c-.15,0-.23,0-.29.09s-.13.18-.25.71-.14.65-.07.72a.32.32,0,0,0,.23.06h.15A1.17,1.17,0,0,0,265.23,45Z" transform="translate(-5.22 -4.12)"/><path class="cls-1" d="M267.71,43l.18,1.8h.05l.95-1.8h.85l-1.9,3.21a.79.79,0,0,1-.78.42c-.23,0-.43,0-.65,0l.14-.59h.51a.16.16,0,0,0,.15-.1l.1-.17L266.92,43Z" transform="translate(-5.22 -4.12)"/><path class="cls-1" d="M269.64,44.43l.16-.65h1.49l-.17.65Z" transform="translate(-5.22 -4.12)"/><path class="cls-1" d="M272.5,44.87c0,.13,0,.19,0,.23s.06,0,.21,0h.38l-.13.49-.29.08a2.34,2.34,0,0,1-.49.06.54.54,0,0,1-.44-.15c-.12-.11-.14-.3-.06-.64l.36-1.43h-.43l.15-.61h.43l.18-.7h.78L273,43h.65l-.15.61h-.65Z" transform="translate(-5.22 -4.12)"/><path class="cls-1" d="M275.79,45.52a.84.84,0,0,1-.68.24h-.78a.67.67,0,0,1-.53-.17c-.2-.19-.23-.52-.05-1.29a2.25,2.25,0,0,1,.47-1.12.85.85,0,0,1,.68-.23h.78a.7.7,0,0,1,.53.16c.2.2.24.53.05,1.3S276,45.37,275.79,45.52Zm-1.36-.41s.08,0,.21,0H275c.13,0,.18,0,.22-.06s.1-.14.25-.75.14-.7.09-.76-.09,0-.22,0H275c-.13,0-.18,0-.23.06a2.23,2.23,0,0,0-.24.74C274.37,44.93,274.38,45.06,274.43,45.11Z" transform="translate(-5.22 -4.12)"/><path class="cls-1" d="M276.77,44.43l.16-.65h1.49l-.17.65Z" transform="translate(-5.22 -4.12)"/><path class="cls-1" d="M281.69,43l-.7,2.81h-.77l.09-.39c-.47.34-.57.39-.83.39h-.23a.58.58,0,0,1-.45-.16c-.15-.14-.16-.4-.06-.79L279.2,43H280l-.46,1.85c0,.13,0,.23,0,.28a.25.25,0,0,0,.19.05h.14a1.22,1.22,0,0,0,.53-.15l.51-2Z" transform="translate(-5.22 -4.12)"/><path class="cls-1" d="M282.46,44.86c0,.16,0,.25,0,.3a.29.29,0,0,0,.17,0h.58c.09,0,.13,0,.16,0a.43.43,0,0,0,.1-.21c0-.12,0-.16,0-.19s-.06,0-.12,0l-.76-.16a.72.72,0,0,1-.41-.17c-.11-.11-.12-.33,0-.65a1.14,1.14,0,0,1,.29-.61.69.69,0,0,1,.49-.16h1a.62.62,0,0,1,.44.13c.11.12.15.33.05.74h-.69c0-.13.05-.22,0-.26s-.07,0-.18,0h-.48c-.09,0-.14,0-.17,0s-.05.06-.08.19,0,.16,0,.19a.19.19,0,0,0,.12.05l.76.15a.72.72,0,0,1,.42.17c.11.12.13.34,0,.66a1.2,1.2,0,0,1-.3.62.63.63,0,0,1-.49.17h-1.12a.54.54,0,0,1-.43-.14c-.11-.1-.14-.33,0-.76Z" transform="translate(-5.22 -4.12)"/><path class="cls-1" d="M285.38,45.76a.65.65,0,0,1-.52-.17c-.2-.19-.24-.52-.05-1.29s.31-1,.47-1.12A.83.83,0,0,1,286,43h.78a.68.68,0,0,1,.52.16c.2.2.22.52,0,1.31a.12.12,0,0,1-.14.11h-1.62c-.1.45-.1.56-.05.61a.35.35,0,0,0,.23,0h.36c.18,0,.24,0,.29-.07a.75.75,0,0,0,.12-.3h.71a1.6,1.6,0,0,1-.32.72.83.83,0,0,1-.65.22Zm.24-1.65h1c.08-.38.09-.5,0-.55s-.09,0-.23,0h-.35a.39.39,0,0,0-.27.06S285.72,43.7,285.62,44.11Z" transform="translate(-5.22 -4.12)"/><path class="cls-1" d="M291.17,42.19c.49,0,.73.07.9.25s.29.76.08,1.62a2.7,2.7,0,0,1-.6,1.33,1.47,1.47,0,0,1-1.14.37h-1.67l.89-3.57Zm-.87.63-.57,2.29h.72a.64.64,0,0,0,.49-.13c.1-.1.2-.28.38-1s.18-.95.08-1-.18-.1-.46-.1Z" transform="translate(-5.22 -4.12)"/><path class="cls-1" d="M295.44,45.76h-.59c-.22,0-.29-.06-.35-.24l-.69-2.24h-.05l-.61,2.48h-.8l.89-3.57H294c.2,0,.29.05.34.23l.61,2.07H295l.56-2.3h.8Z" transform="translate(-5.22 -4.12)"/><path class="cls-1" d="M298.73,42.17c.27,0,.31.07.33.34l.26,3.25h-.83l-.05-.9h-1.22l-.48.9h-.87l1.93-3.35c.11-.2.16-.24.35-.24Zm-1.17,2.08h.86l-.07-1.33h-.07Z" transform="translate(-5.22 -4.12)"/><polygon class="cls-1" points="242.14 4.97 242.14 12.17 245.51 8.57 242.14 4.97"/><path class="cls-1" d="M44.5,22H5.22l7.25-12.3a11.33,11.33,0,0,1,9.77-5.57H61.86l-7.07,12A11.93,11.93,0,0,1,44.5,22" transform="translate(-5.22 -4.12)"/><path class="cls-1" d="M226.52,22H187.24l7.24-12.3a11.34,11.34,0,0,1,9.77-5.57h39.63l-7.07,12A11.94,11.94,0,0,1,226.52,22" transform="translate(-5.22 -4.12)"/><path class="cls-1" d="M165.85,22H126.57l7.24-12.3a11.34,11.34,0,0,1,9.77-5.57h39.63l-7.07,12A11.94,11.94,0,0,1,165.85,22" transform="translate(-5.22 -4.12)"/><path class="cls-1" d="M105.17,22H65.89l7.25-12.3a11.33,11.33,0,0,1,9.77-5.57h39.62l-7.07,12A11.92,11.92,0,0,1,105.17,22" transform="translate(-5.22 -4.12)"/><path class="cls-2" d="M25.5,15a.93.93,0,0,1-.69.21H23.15a1,1,0,0,1-.74-.2c-.19-.18-.26-.45-.26-1.24h1c0,.43,0,.53.08.58s.1.06.28.06h.95a.49.49,0,0,0,.31-.06.87.87,0,0,0,.06-.44c0-.23,0-.32-.07-.38s-.13-.06-.31-.07l-1.35-.14a1.08,1.08,0,0,1-.63-.24c-.17-.18-.24-.41-.24-1A1.48,1.48,0,0,1,22.5,11a.94.94,0,0,1,.68-.2h1.53a1,1,0,0,1,.74.19c.19.19.26.43.28,1.21h-1c0-.4,0-.5-.08-.54s-.09-.07-.27-.07h-.87c-.17,0-.24,0-.27.05s-.06.18-.06.42,0,.32.06.37.12.05.31.08l1.36.14a.94.94,0,0,1,.62.22c.17.17.25.42.25,1A1.51,1.51,0,0,1,25.5,15Z" transform="translate(-5.22 -4.12)"/><path class="cls-2" d="M26.78,11.93a.77.77,0,0,1,.62-.19h1.27a.9.9,0,0,1,.69.19c.16.16.21.34.21.93v2.36h-1v-.4c-.42.34-.57.41-.88.41h-.47a.78.78,0,0,1-.62-.18c-.12-.12-.2-.32-.2-.78a1.2,1.2,0,0,1,.21-.85c.16-.16.37-.23,1-.23a4.19,4.19,0,0,1,1,.1V13c0-.34,0-.41-.06-.46a.38.38,0,0,0-.26-.06h-.49a.33.33,0,0,0-.24.06c-.05.05-.06.12-.07.32h-.91C26.57,12.27,26.64,12.07,26.78,11.93Zm1.82,2.42v-.58H28c-.37,0-.45,0-.52.09s-.07.14-.07.3,0,.27.06.32.12.06.25.06H28A1.17,1.17,0,0,0,28.6,14.35Z" transform="translate(-5.22 -4.12)"/><path class="cls-2" d="M31.38,11.74v.46c.44-.41.58-.47.91-.47h.3a.81.81,0,0,1,.62.2.57.57,0,0,1,.16.31c.48-.44.62-.51,1-.51h.3a.78.78,0,0,1,.62.2c.15.14.2.32.2.83v2.46h-1V12.87a.37.37,0,0,0-.08-.28c-.05-.06-.12-.09-.29-.09h-.16a1.19,1.19,0,0,0-.52.14v2.58h-1V12.87a.37.37,0,0,0-.08-.28c0-.06-.12-.09-.29-.09h-.16a1.3,1.3,0,0,0-.53.15v2.57h-1V11.74Z" transform="translate(-5.22 -4.12)"/><path class="cls-2" d="M37.25,11.74v.45c.43-.38.58-.46.87-.46h.37a.9.9,0,0,1,.72.22c.2.2.29.52.29,1.53s-.11,1.32-.32,1.53a.92.92,0,0,1-.7.22H38.1c-.3,0-.46-.07-.85-.4v1.4h-1V11.74Zm0,.91v1.66a1.1,1.1,0,0,0,.52.14h.34c.18,0,.26,0,.31-.08s.11-.25.11-.89,0-.81-.11-.89-.13-.09-.31-.09h-.34A1.12,1.12,0,0,0,37.25,12.65Z" transform="translate(-5.22 -4.12)"/><path class="cls-2" d="M40.24,15.22V10.55h1v4.67Z" transform="translate(-5.22 -4.12)"/><path class="cls-2" d="M42.9,13.7c0,.55,0,.7.08.74s.14.06.31.06h.59c.19,0,.24,0,.28-.06s.05-.13.05-.38h.9c0,.52-.07.79-.24,1a.76.76,0,0,1-.62.2H43a.87.87,0,0,1-.69-.21C42,14.78,42,14.5,42,13.48s.09-1.3.32-1.53.33-.21.69-.21h1.18a.84.84,0,0,1,.69.21c.23.22.28.5.28,1.5v.11c0,.1,0,.14-.14.14Zm0-.54h1.28c0-.47,0-.6-.07-.65s-.1-.06-.3-.06h-.52c-.17,0-.27,0-.31.07S42.9,12.67,42.9,13.16Z" transform="translate(-5.22 -4.12)"/><path class="cls-2" d="M88,14.4h2.11v.82H86.93V10.79h1Z" transform="translate(-5.22 -4.12)"/><path class="cls-2" d="M91.09,11.74,91.86,14h.06l.64-2.24h1l-1.38,4a.74.74,0,0,1-.84.53,7.58,7.58,0,0,1-.84-.05v-.73h.65c.09,0,.12,0,.16-.12l.06-.19L90,11.74Z" transform="translate(-5.22 -4.12)"/><path class="cls-2" d="M96.71,15.07a.66.66,0,0,1-.51.15H94.73a.84.84,0,0,1-.61-.16c-.13-.14-.2-.33-.21-1h.86c0,.26,0,.32,0,.36s.07,0,.19,0h.81a.34.34,0,0,0,.2,0s0-.08,0-.27S96,14,96,14s-.08,0-.24-.07l-1.13-.13a.79.79,0,0,1-.51-.18c-.14-.14-.18-.31-.18-.79a1.22,1.22,0,0,1,.25-.89.66.66,0,0,1,.51-.15H96.1a.82.82,0,0,1,.59.15c.14.14.19.34.2.93H96c0-.26,0-.29,0-.33s-.07,0-.18,0h-.72c-.12,0-.16,0-.19,0s-.06.08-.06.24,0,.22.06.26.08,0,.23.06l1.17.13a.82.82,0,0,1,.5.18c.12.13.16.36.16.81A1.2,1.2,0,0,1,96.71,15.07Z" transform="translate(-5.22 -4.12)"/><path class="cls-2" d="M98.53,13.7c0,.55,0,.7.08.74s.15.06.31.06h.59c.2,0,.25,0,.28-.06s0-.13,0-.38h.9c0,.52-.07.79-.24,1s-.24.2-.62.2H98.59A.88.88,0,0,1,97.9,15c-.23-.23-.32-.51-.32-1.53s.09-1.3.32-1.53a.84.84,0,0,1,.69-.21h1.18a.84.84,0,0,1,.69.21c.23.22.28.5.28,1.5v.11c0,.1,0,.14-.14.14Zm0-.54h1.28c0-.47,0-.6-.07-.65s-.1-.06-.29-.06h-.53c-.16,0-.27,0-.31.07S98.53,12.67,98.53,13.16Z" transform="translate(-5.22 -4.12)"/><path class="cls-2" d="M152.2,15.22h-1V13.36h-1.79v1.86h-1V10.79h1v1.74h1.79V10.79h1Z" transform="translate(-5.22 -4.12)"/><path class="cls-2" d="M153.94,13.7c0,.55.05.7.09.74s.14.06.31.06h.59c.19,0,.24,0,.28-.06s0-.13,0-.38h.9c0,.52-.07.79-.24,1a.76.76,0,0,1-.62.2H154a.87.87,0,0,1-.69-.21c-.23-.23-.32-.51-.32-1.53s.09-1.3.32-1.53.33-.21.69-.21h1.18a.84.84,0,0,1,.69.21c.22.22.28.5.28,1.5v.11c0,.1,0,.14-.14.14Zm0-.54h1.29c0-.47,0-.6-.08-.65s-.09-.06-.29-.06h-.52c-.17,0-.27,0-.31.07S154,12.67,153.94,13.16Z" transform="translate(-5.22 -4.12)"/><path class="cls-2" d="M157.14,11.93a.76.76,0,0,1,.62-.19H159a.9.9,0,0,1,.69.19c.16.16.21.34.21.93v2.36h-1v-.4c-.41.34-.57.41-.88.41h-.47a.78.78,0,0,1-.62-.18c-.12-.12-.2-.32-.2-.78a1.14,1.14,0,0,1,.22-.85c.15-.16.36-.23,1-.23a4.19,4.19,0,0,1,1,.1V13c0-.34,0-.41-.06-.46s-.11-.06-.25-.06h-.5a.33.33,0,0,0-.24.06c-.05.05-.05.12-.07.32h-.91C156.93,12.27,157,12.07,157.14,11.93ZM159,14.35v-.58h-.64c-.36,0-.45,0-.52.09s-.07.14-.07.3,0,.27.06.32.12.06.25.06h.27A1.15,1.15,0,0,0,159,14.35Z" transform="translate(-5.22 -4.12)"/><path class="cls-2" d="M162.8,15.09l-.34.09a3.62,3.62,0,0,1-.67.07.83.83,0,0,1-.63-.19c-.11-.11-.15-.27-.15-.62V12.5h-.54v-.76H161v-.87h1v.87h.83v.76H162v1.68c0,.15,0,.2.05.24a.52.52,0,0,0,.25,0h.52Z" transform="translate(-5.22 -4.12)"/><path class="cls-2" d="M210.21,13.53a1.13,1.13,0,0,1-.75.18h-1.41v1.51h-1V10.79h2.44a1.14,1.14,0,0,1,.75.17c.2.19.38.47.38,1.3S210.41,13.35,210.21,13.53Zm-1.16-.63c.24,0,.3,0,.35-.05s.13-.18.13-.61-.07-.54-.13-.59-.11-.06-.35-.06h-1V12.9Z" transform="translate(-5.22 -4.12)"/><path class="cls-2" d="M214.31,11.74v3.48h-1v-.46c-.45.4-.59.47-.91.47H212a.83.83,0,0,1-.63-.2c-.14-.15-.2-.33-.2-.84V11.74h1v2.35a.36.36,0,0,0,.08.28c.06.06.11.08.28.08h.28a1.34,1.34,0,0,0,.55-.14V11.74Z" transform="translate(-5.22 -4.12)"/><path class="cls-2" d="M215.16,15.22V11.74h1v.53c.37-.38.55-.54.83-.54h.37v1h-.45a1.72,1.72,0,0,0-.75.14v2.39Z" transform="translate(-5.22 -4.12)"/><path class="cls-2" d="M218.92,11.25h-1v-.83h1Zm0,4h-1V11.74h1Z" transform="translate(-5.22 -4.12)"/><path class="cls-2" d="M220,15.22V12.5h-.53v-.76H220v-.17a1.12,1.12,0,0,1,.2-.81.84.84,0,0,1,.69-.21h.74v.73h-.41c-.13,0-.17,0-.21,0s0,.11,0,.28v.14h.72v.76H221v2.72Z" transform="translate(-5.22 -4.12)"/><path class="cls-2" d="M223,11.74l.77,2.24h.06l.64-2.24h1l-1.38,4c-.13.39-.37.53-.84.53a7.89,7.89,0,0,1-.84-.05v-.73h.65a.14.14,0,0,0,.16-.12l.06-.19-1.35-3.42Z" transform="translate(-5.22 -4.12)"/><polygon class="cls-1" points="151.29 23.34 85.91 23.34 85.91 17.14 86.09 17.14 86.09 23.16 151.11 23.16 151.11 17.14 151.29 17.14 151.29 23.34"/><path class="cls-1" d="M9.6,45.76H9a.31.31,0,0,1-.36-.24L8,43.28h0l-.61,2.48h-.8l.89-3.57h.71c.21,0,.29.05.35.23l.61,2.07h0l.57-2.3h.8Z" transform="translate(-5.22 -4.12)"/><path class="cls-1" d="M12.63,45.52a.84.84,0,0,1-.68.24h-.79a.66.66,0,0,1-.52-.17c-.2-.19-.24-.52-.05-1.29s.31-1,.47-1.12a.84.84,0,0,1,.68-.23h.78a.71.71,0,0,1,.53.16c.2.2.24.53,0,1.3S12.79,45.37,12.63,45.52Zm-1.36-.41s.08,0,.21,0h.39c.13,0,.18,0,.22-.06s.1-.14.25-.75.13-.7.08-.76-.08,0-.21,0h-.39c-.14,0-.18,0-.23.06a2.23,2.23,0,0,0-.24.74C11.21,44.93,11.21,45.06,11.27,45.11Z" transform="translate(-5.22 -4.12)"/><path class="cls-1" d="M14.52,45.76,15.23,43H16l-.09.39c.47-.34.57-.39.83-.39H17a.59.59,0,0,1,.45.15c.14.15.16.41.06.8L17,45.76h-.78l.47-1.85c0-.14,0-.23,0-.28a.23.23,0,0,0-.19-.06h-.14a1.1,1.1,0,0,0-.54.17l-.5,2Z" transform="translate(-5.22 -4.12)"/><path class="cls-1" d="M18.53,45.76a.65.65,0,0,1-.52-.17c-.2-.19-.24-.52-.05-1.29s.31-1,.47-1.12a.83.83,0,0,1,.68-.23h.78a.71.71,0,0,1,.53.16c.19.2.21.52,0,1.31,0,.08-.06.11-.15.11H18.66c-.1.45-.1.56-.05.61a.35.35,0,0,0,.23,0h.36c.18,0,.24,0,.29-.07a.75.75,0,0,0,.12-.3h.71a1.6,1.6,0,0,1-.32.72.83.83,0,0,1-.65.22Zm.24-1.65h1c.08-.38.09-.5,0-.55s-.09,0-.23,0h-.35a.39.39,0,0,0-.27.06S18.87,43.7,18.77,44.11Z" transform="translate(-5.22 -4.12)"/><path class="cls-1" d="M21.54,45.76a.67.67,0,0,1-.53-.17c-.2-.19-.23-.52,0-1.29a2.19,2.19,0,0,1,.46-1.12.85.85,0,0,1,.68-.23h.78a.71.71,0,0,1,.53.16c.2.2.22.52,0,1.31a.12.12,0,0,1-.14.11H21.66c-.1.45-.09.56,0,.61s.09,0,.22,0h.36c.18,0,.24,0,.29-.07s.07-.11.12-.3h.72a1.58,1.58,0,0,1-.33.72.81.81,0,0,1-.64.22Zm.23-1.65h1c.08-.38.08-.5,0-.55s-.09,0-.22,0h-.35a.42.42,0,0,0-.28.06S21.87,43.7,21.77,44.11Z" transform="translate(-5.22 -4.12)"/><path class="cls-1" d="M25.32,43c.2,0,.32.06.66.35L26.31,42h.79l-1,3.77h-.77l.08-.36c-.45.31-.56.36-.83.36h-.18A.59.59,0,0,1,24,45.6c-.18-.17-.19-.49,0-1.27a2.26,2.26,0,0,1,.48-1.15.93.93,0,0,1,.7-.23Zm.25,2,.31-1.27a.72.72,0,0,0-.4-.14h-.21c-.15,0-.23,0-.29.09s-.13.18-.26.71-.13.65-.06.72.1.06.23.06H25A1.17,1.17,0,0,0,25.57,45Z" transform="translate(-5.22 -4.12)"/><path class="cls-1" d="M29.18,44.87c0,.13,0,.19,0,.23s.07,0,.22,0h.37l-.12.49-.29.08a2.43,2.43,0,0,1-.49.06.58.58,0,0,1-.45-.15c-.11-.11-.14-.3-.05-.64l.35-1.43H28.3l.15-.61h.43l.17-.7h.78l-.17.7h.64l-.14.61h-.65Z" transform="translate(-5.22 -4.12)"/><path class="cls-1" d="M32.47,45.52a.85.85,0,0,1-.68.24H31a.65.65,0,0,1-.52-.17c-.2-.19-.24-.52-.05-1.29s.31-1,.47-1.12a.83.83,0,0,1,.68-.23h.78a.73.73,0,0,1,.53.16c.2.2.23.53,0,1.3S32.62,45.37,32.47,45.52Zm-1.37-.41s.09,0,.22,0h.39c.13,0,.17,0,.22-.06s.1-.14.25-.75.13-.7.08-.76-.08,0-.21,0h-.39c-.14,0-.18,0-.23.06s-.09.14-.24.74S31.05,45.06,31.1,45.11Z" transform="translate(-5.22 -4.12)"/><path class="cls-1" d="M35.55,44.87c0,.13,0,.19,0,.23s.07,0,.22,0h.37l-.12.49-.3.08a2.25,2.25,0,0,1-.48.06.58.58,0,0,1-.45-.15c-.11-.11-.14-.3-.06-.64l.36-1.43h-.42l.15-.61h.43l.17-.7h.78L36,43h.64l-.14.61h-.65Z" transform="translate(-5.22 -4.12)"/><path class="cls-1" d="M36.5,45.76,37.21,43H38l-.09.39c.33-.27.49-.39.71-.39h.29l-.19.76h-.3a1.7,1.7,0,0,0-.63.12l-.48,1.93Z" transform="translate(-5.22 -4.12)"/><path class="cls-1" d="M39.41,45.76h-.77L39.35,43h.77Zm.84-3.2H39.4l.17-.67h.85Z" transform="translate(-5.22 -4.12)"/><path class="cls-1" d="M43.28,45.76l.46-1.85c0-.14,0-.23,0-.28s-.07-.06-.19-.06h-.06a1.06,1.06,0,0,0-.51.17,1.24,1.24,0,0,1,0,.16l-.47,1.86h-.78l.47-1.85c0-.14,0-.23,0-.28a.23.23,0,0,0-.19-.06h-.06a1.12,1.12,0,0,0-.52.17l-.5,2h-.79L40.77,43h.77l-.09.38c.45-.32.56-.38.81-.38h.15a.55.55,0,0,1,.44.15.43.43,0,0,1,.12.28c.51-.37.63-.43.9-.43H44a.56.56,0,0,1,.44.15c.15.15.17.41.07.8l-.47,1.86Z" transform="translate(-5.22 -4.12)"/><path class="cls-1" d="M48.43,42.94c.2,0,.28.05.28.24l0,1.72h.06L49.53,43h.77l-1.22,2.63a.29.29,0,0,1-.31.19h-.44c-.21,0-.31-.05-.3-.26l0-1.46h0l-.71,1.53a.29.29,0,0,1-.31.19h-.46c-.2,0-.28-.06-.28-.25L46.35,43h.73l-.14,1.95H47l.81-1.77a.29.29,0,0,1,.31-.19Z" transform="translate(-5.22 -4.12)"/><path class="cls-1" d="M51.63,45.76l.07-.32a1.25,1.25,0,0,1-.79.32h-.25a.58.58,0,0,1-.47-.14.75.75,0,0,1-.07-.69,1.12,1.12,0,0,1,.28-.58,1.16,1.16,0,0,1,.88-.23,3.13,3.13,0,0,1,.73.08l.06-.25c.07-.27.06-.33,0-.38s-.08,0-.18,0h-.35c-.11,0-.17,0-.21,0a.61.61,0,0,0-.12.27H50.5a1.46,1.46,0,0,1,.31-.7.76.76,0,0,1,.59-.2h.89a.67.67,0,0,1,.5.16c.15.14.15.37,0,.85l-.45,1.8Zm.16-.72.12-.46h-.49c-.29,0-.37,0-.44.09a.5.5,0,0,0-.1.23c0,.14,0,.22,0,.27a.27.27,0,0,0,.19,0h.15A1.26,1.26,0,0,0,51.79,45Z" transform="translate(-5.22 -4.12)"/><path class="cls-1" d="M52.75,45.76l1.31-1.47L53.42,43h.81l.37.82h0l.71-.82h.88l-1.29,1.42.65,1.39h-.81l-.39-.85h0l-.73.85Z" transform="translate(-5.22 -4.12)"/><path class="cls-1" d="M10.57,51.52a.84.84,0,0,1-.68.23H9.11a.67.67,0,0,1-.53-.16c-.2-.2-.23-.52,0-1.29A2.19,2.19,0,0,1,9,49.18.85.85,0,0,1,9.68,49h.78a.7.7,0,0,1,.53.16c.2.2.24.52,0,1.3S10.73,51.37,10.57,51.52Zm-1.36-.41s.09,0,.21,0h.39c.13,0,.18,0,.22,0s.1-.15.25-.75.14-.71.09-.76-.09,0-.22,0H9.76c-.13,0-.18,0-.22.06s-.1.14-.24.74S9.16,51.06,9.21,51.11Zm2.08.64L12,49h.78l-.1.39c.33-.27.5-.39.72-.39h.29l-.19.76h-.3a1.67,1.67,0,0,0-.63.12l-.48,1.92Zm3.31,0,.7-2.8h.78l-.1.39c.33-.27.5-.39.72-.39H17l-.19.76h-.3a1.67,1.67,0,0,0-.63.12l-.48,1.92Zm3,0a.67.67,0,0,1-.53-.16c-.2-.2-.23-.52,0-1.29a2.19,2.19,0,0,1,.46-1.12.85.85,0,0,1,.68-.23h.78a.71.71,0,0,1,.53.16c.2.2.22.52,0,1.31a.12.12,0,0,1-.14.11H17.72c-.11.44-.1.56,0,.61s.09,0,.22,0h.36c.18,0,.24,0,.29-.06s.07-.11.12-.3h.72a1.48,1.48,0,0,1-.33.72.81.81,0,0,1-.64.21Zm.23-1.64h1c.08-.38.08-.5,0-.55s-.09,0-.22,0h-.35c-.16,0-.23,0-.27.06S17.92,49.7,17.82,50.11Zm5.12,1.64.47-1.85c0-.13,0-.22,0-.27a.23.23,0,0,0-.19-.06h-.06a1.12,1.12,0,0,0-.52.17l0,.16-.47,1.85h-.78l.46-1.85c0-.13,0-.22,0-.27a.23.23,0,0,0-.19-.06h-.06a1.09,1.09,0,0,0-.51.17l-.5,2h-.79l.7-2.8h.78l-.1.38c.45-.32.56-.38.82-.38h.15a.58.58,0,0,1,.44.15.43.43,0,0,1,.12.28c.51-.37.62-.43.89-.43h.15a.55.55,0,0,1,.44.15c.15.15.17.41.07.8l-.47,1.85Zm3.77-.23a.85.85,0,0,1-.68.23h-.79a.66.66,0,0,1-.52-.16c-.2-.2-.24-.52,0-1.29s.31-1,.47-1.12a.84.84,0,0,1,.68-.23h.78a.73.73,0,0,1,.53.16c.2.2.23.52.05,1.3A2.2,2.2,0,0,1,26.71,51.52Zm-1.36-.41s.08,0,.21,0H26c.13,0,.18,0,.22,0s.1-.15.25-.75.13-.71.08-.76-.08,0-.21,0H25.9c-.14,0-.18,0-.23.06s-.09.14-.24.74S25.29,51.06,25.35,51.11ZM30.52,49,29,51.58a.29.29,0,0,1-.3.18h-.45c-.18,0-.27,0-.29-.25L27.78,49h.77l.07,2h.06l1-2Zm.55,2.8a.67.67,0,0,1-.53-.16c-.2-.2-.23-.52,0-1.29A2.19,2.19,0,0,1,31,49.18a.85.85,0,0,1,.68-.23h.78a.71.71,0,0,1,.53.16c.2.2.22.52,0,1.31a.12.12,0,0,1-.14.11H31.2c-.11.44-.1.56-.05.61s.09,0,.22,0h.36c.18,0,.24,0,.29-.06s.07-.11.12-.3h.72a1.58,1.58,0,0,1-.33.72.81.81,0,0,1-.64.21Zm.23-1.64h1c.08-.38.08-.5,0-.55s-.09,0-.22,0h-.35c-.16,0-.23,0-.27.06S31.4,49.7,31.3,50.11Zm4.62,1.65c-.2,0-.32-.07-.67-.35L35,52.57h-.79L35.08,49h.78l-.1.37c.46-.32.58-.37.85-.37h.17a.62.62,0,0,1,.49.15c.18.18.2.49,0,1.28a2.21,2.21,0,0,1-.48,1.14.93.93,0,0,1-.7.24Zm-.25-2L35.35,51a.78.78,0,0,0,.4.13H36a.37.37,0,0,0,.29-.08c.07-.07.13-.19.26-.72s.14-.64.06-.72-.1-.06-.23-.06H36.2A1,1,0,0,0,35.67,49.74Zm3.48,2,.07-.31c-.41.27-.55.32-.79.32h-.25c-.28,0-.38,0-.47-.14s-.15-.36-.07-.69a1.2,1.2,0,0,1,.27-.58c.18-.18.42-.23.88-.23a3.13,3.13,0,0,1,.73.08l.06-.25c.07-.27.07-.33,0-.38s-.07,0-.18,0h-.35a.27.27,0,0,0-.2,0s-.07.1-.12.27H38a1.36,1.36,0,0,1,.31-.7.72.72,0,0,1,.58-.2h.9a.63.63,0,0,1,.49.16c.15.14.16.37,0,.85l-.45,1.79Zm.16-.71.12-.46h-.5c-.28,0-.37,0-.43.09s-.07.1-.1.22,0,.23,0,.28.08,0,.19,0h.14A1.39,1.39,0,0,0,39.31,51Zm1.23.71.71-2.8H42l-.09.39c.33-.27.49-.39.71-.39h.29l-.19.76h-.3a1.7,1.7,0,0,0-.63.12l-.48,1.92Zm3.71,0,.07-.31a1.25,1.25,0,0,1-.79.32h-.25a.6.6,0,0,1-.47-.14.75.75,0,0,1-.07-.69,1.12,1.12,0,0,1,.28-.58c.18-.18.41-.23.88-.23a3.13,3.13,0,0,1,.73.08l.06-.25c.07-.27.06-.33,0-.38s-.08,0-.18,0h-.35c-.11,0-.17,0-.21,0a.61.61,0,0,0-.12.27h-.73a1.46,1.46,0,0,1,.31-.7A.76.76,0,0,1,44,49h.89a.67.67,0,0,1,.5.16c.15.14.15.37,0,.85L45,51.75Zm.16-.71.12-.46H44c-.29,0-.37,0-.44.09a.45.45,0,0,0-.1.22c0,.15,0,.23,0,.28s.09,0,.19,0h.15A1.35,1.35,0,0,0,44.41,51Zm1.41.71.54-2.19h-.42l.15-.61h.43l0-.11a1.26,1.26,0,0,1,.31-.66.84.84,0,0,1,.63-.19h.57l-.14.59h-.3c-.11,0-.16,0-.2.05s-.06.1-.1.25V49h.56l-.15.6h-.56l-.55,2.19Zm2,0,.55-2.19h-.43l.16-.61h.42l0-.11a1.26,1.26,0,0,1,.31-.66.84.84,0,0,1,.63-.19H50l-.14.59h-.3c-.1,0-.15,0-.19.05s-.07.1-.11.25V49h.56l-.15.6h-.56l-.54,2.19Zm2.56,0h-.77l.7-2.8h.77Zm.83-3.19h-.84l.17-.67h.84ZM51,51.75l.71-2.8h.77l-.09.39c.47-.34.57-.39.83-.39h.23a.55.55,0,0,1,.44.15c.15.15.17.41.07.8l-.47,1.85h-.78l.47-1.85c0-.13,0-.22,0-.27a.23.23,0,0,0-.19-.06h-.15a1.07,1.07,0,0,0-.53.17l-.5,2Z" transform="translate(-5.22 -4.12)"/><path class="cls-1" d="M84.31,44.6c-.08.3-.1.43,0,.47s.07,0,.22,0h.73c.14,0,.19,0,.24,0a1.07,1.07,0,0,0,.13-.33c0-.17,0-.26,0-.3a.31.31,0,0,0-.15-.06l-1-.2A.76.76,0,0,1,84,44c-.16-.14-.18-.37-.08-.8a1.48,1.48,0,0,1,.37-.76.85.85,0,0,1,.64-.22h1.14a.78.78,0,0,1,.57.15c.16.17.16.42,0,1h-.78c.06-.3.06-.41,0-.45s-.07,0-.23,0h-.63c-.13,0-.19,0-.23,0a.77.77,0,0,0-.13.31c0,.17,0,.25,0,.29a.37.37,0,0,0,.16.06l1,.2a.83.83,0,0,1,.47.2c.16.16.19.38.08.82a1.51,1.51,0,0,1-.38.79.84.84,0,0,1-.65.22H84.08a.68.68,0,0,1-.54-.16c-.16-.15-.15-.47,0-1Zm3.16,1.16H86.7L87.4,43h.77Zm.83-3.19h-.84l.17-.68h.84Zm3,3.19.47-1.85c0-.14,0-.23,0-.28a.27.27,0,0,0-.19-.05h-.06a1.08,1.08,0,0,0-.52.16l0,.16-.47,1.86h-.78l.46-1.85c0-.14,0-.23,0-.28a.25.25,0,0,0-.19-.05h-.06a1,1,0,0,0-.51.16l-.5,2h-.79L88.83,43h.77l-.1.39c.45-.33.56-.39.82-.39h.15a.56.56,0,0,1,.44.15.43.43,0,0,1,.12.28c.51-.37.62-.43.89-.43h.15a.59.59,0,0,1,.45.15c.14.15.16.41.06.8l-.47,1.86Zm3,0c-.2,0-.32-.07-.67-.35l-.29,1.16h-.79L93.47,43h.78l-.1.38c.46-.33.58-.38.85-.38h.17a.62.62,0,0,1,.49.15c.18.18.2.49,0,1.28a2.21,2.21,0,0,1-.48,1.14.89.89,0,0,1-.7.24Zm-.25-2L93.74,45a.78.78,0,0,0,.4.13h.21c.15,0,.23,0,.29-.08s.13-.19.26-.71.14-.65.06-.73a.37.37,0,0,0-.23,0h-.14A1.11,1.11,0,0,0,94.06,43.74Zm1.85,2L96.85,42h.78l-.94,3.76Zm2.29,0a.67.67,0,0,1-.53-.17c-.19-.19-.23-.52,0-1.29a2.24,2.24,0,0,1,.46-1.12.86.86,0,0,1,.69-.23h.77a.67.67,0,0,1,.53.17c.2.2.22.51,0,1.3a.12.12,0,0,1-.14.11H98.33c-.11.45-.1.56,0,.61s.09,0,.22,0h.36c.19,0,.24,0,.29-.06a.75.75,0,0,0,.12-.31H100a1.48,1.48,0,0,1-.33.72.81.81,0,0,1-.64.22Zm.23-1.65h1c.08-.38.08-.49,0-.54s-.09,0-.22,0h-.35c-.16,0-.23,0-.27.06A1.47,1.47,0,0,0,98.43,44.11Zm2.84.83-.18.7a.76.76,0,0,1-.34.51l-.58.44-.19-.18.46-.46a.41.41,0,0,0,.11-.17v0h-.29l.2-.82Zm3.26.82.46-1.85c0-.14,0-.23,0-.28a.25.25,0,0,0-.19-.05h-.14a1.23,1.23,0,0,0-.54.16l-.49,2h-.79l.94-3.76h.78l-.33,1.34c.47-.34.57-.39.83-.39h.23a.59.59,0,0,1,.45.15c.14.15.15.41.06.8l-.47,1.86Zm3.06,0,.07-.32a1.25,1.25,0,0,1-.79.32h-.25c-.28,0-.38,0-.47-.14s-.15-.36-.07-.69a1.11,1.11,0,0,1,.27-.57,1.15,1.15,0,0,1,.89-.24,3,3,0,0,1,.72.08L108,44c.06-.27.06-.33,0-.37a.25.25,0,0,0-.19,0h-.34c-.11,0-.17,0-.21,0a.61.61,0,0,0-.12.27h-.73a1.36,1.36,0,0,1,.31-.7.74.74,0,0,1,.58-.2h.9a.63.63,0,0,1,.49.16c.15.14.16.37,0,.85l-.45,1.8Zm.16-.72.12-.46h-.5c-.28,0-.36,0-.43.09a.41.41,0,0,0-.1.23c0,.14,0,.23,0,.27a.27.27,0,0,0,.19,0h.15A1.3,1.3,0,0,0,107.75,45Zm1.24.72.7-2.81h.78l-.1.4c.48-.35.57-.4.83-.4h.24a.56.56,0,0,1,.44.15c.15.15.16.41.07.8l-.47,1.86h-.78l.46-1.85c0-.14,0-.23,0-.28s-.07-.05-.19-.05h-.14a1.14,1.14,0,0,0-.53.16l-.5,2ZM113.78,43c.2,0,.32.07.66.35l.33-1.3h.78l-.94,3.76h-.77l.08-.36c-.45.31-.56.36-.83.36h-.18a.59.59,0,0,1-.49-.16c-.18-.17-.2-.49,0-1.27a2.22,2.22,0,0,1,.48-1.15.93.93,0,0,1,.7-.23Zm.24,2,.32-1.27a.72.72,0,0,0-.4-.13h-.22a.36.36,0,0,0-.28.08c-.07.07-.13.18-.26.71s-.13.65-.06.72.1.06.23.06h.14A1.11,1.11,0,0,0,114,45Zm2.06-.1c0,.15,0,.24,0,.29a.29.29,0,0,0,.17,0h.58c.09,0,.13,0,.16,0a.43.43,0,0,0,.1-.21c0-.12,0-.16,0-.19s-.06,0-.12,0l-.76-.16a.8.8,0,0,1-.41-.16c-.11-.12-.12-.34,0-.66a1.07,1.07,0,0,1,.29-.6.65.65,0,0,1,.49-.17h1a.58.58,0,0,1,.44.14c.11.11.14.32.05.74h-.69c0-.14.05-.23,0-.27s-.07,0-.18,0h-.48c-.09,0-.14,0-.17,0a.38.38,0,0,0-.08.19c0,.11,0,.16,0,.19a.19.19,0,0,0,.12.05l.76.15a.75.75,0,0,1,.42.17c.11.12.12.34,0,.66a1.2,1.2,0,0,1-.3.62.64.64,0,0,1-.49.17h-1.12a.54.54,0,0,1-.43-.14c-.11-.1-.14-.33,0-.75Zm2.32-.44.16-.65H120l-.16.65Zm4.06,1.09a.82.82,0,0,1-.67.24H121a.65.65,0,0,1-.52-.17c-.2-.19-.24-.52,0-1.29a2.24,2.24,0,0,1,.46-1.12.86.86,0,0,1,.69-.23h.78a.69.69,0,0,1,.53.17c.2.2.23.52,0,1.29S122.62,45.37,122.46,45.52Zm-1.36-.41s.09,0,.22,0h.38c.14,0,.18,0,.23-.06s.1-.14.24-.74.14-.71.09-.76-.09,0-.21,0h-.4c-.13,0-.17,0-.22,0s-.09.14-.24.75S121.05,45.06,121.1,45.11Zm2.25.65.55-2.2h-.42l.15-.61h.42l0-.11a1.15,1.15,0,0,1,.31-.66A.85.85,0,0,1,125,42h.58l-.15.58h-.29c-.11,0-.16,0-.2.05s-.07.1-.1.25l0,.08h.57l-.16.6h-.56l-.54,2.2Zm2,0,.54-2.2h-.42l.15-.61H126l0-.11a1.3,1.3,0,0,1,.31-.66A.88.88,0,0,1,127,42h.57l-.15.58h-.29c-.11,0-.16,0-.2.05s-.07.1-.1.25l0,.08h.57l-.15.6h-.56l-.55,2.2Zm4.5,0c-.2,0-.32-.07-.67-.35l-.29,1.16h-.78L129,43h.78l-.1.38c.46-.33.58-.38.85-.38h.18a.6.6,0,0,1,.48.15c.18.18.2.49,0,1.28a2.12,2.12,0,0,1-.48,1.14.89.89,0,0,1-.7.24Zm-.25-2L129.27,45a.78.78,0,0,0,.41.13h.21a.36.36,0,0,0,.29-.08,1.84,1.84,0,0,0,.25-.71c.13-.53.14-.65.06-.73a.35.35,0,0,0-.23,0h-.14A1.14,1.14,0,0,0,129.59,43.74Zm1.86,2,.7-2.81h.77l-.09.4c.33-.28.49-.4.71-.4h.29l-.19.76h-.3a1.5,1.5,0,0,0-.62.13l-.49,1.92Zm4.45-.24a.84.84,0,0,1-.68.24h-.79a.66.66,0,0,1-.52-.17c-.2-.19-.23-.52,0-1.29s.31-1,.47-1.12A.85.85,0,0,1,135,43h.78a.67.67,0,0,1,.53.17c.2.2.23.52.05,1.29S136.06,45.37,135.9,45.52Zm-1.36-.41s.08,0,.21,0h.39c.13,0,.18,0,.22-.06s.1-.14.25-.74.13-.71.08-.76-.08,0-.21,0h-.39c-.14,0-.18,0-.23,0a2.24,2.24,0,0,0-.24.75C134.48,44.93,134.49,45.06,134.54,45.11Zm3.27-.23c0,.12,0,.18,0,.22s.07,0,.21,0h.38l-.13.49-.29.08a2.25,2.25,0,0,1-.48.06.58.58,0,0,1-.45-.15c-.11-.11-.14-.3-.05-.64l.35-1.43h-.42l.15-.61h.43l.17-.69h.78l-.17.69h.64l-.15.61h-.64Zm3.28.64a.82.82,0,0,1-.67.24h-.79a.65.65,0,0,1-.52-.17c-.2-.19-.24-.52-.05-1.29a2.24,2.24,0,0,1,.46-1.12.86.86,0,0,1,.69-.23H141a.69.69,0,0,1,.53.17c.2.2.23.52,0,1.29S141.25,45.37,141.09,45.52Zm-1.36-.41s.09,0,.22,0h.39c.13,0,.17,0,.22-.06s.1-.14.24-.74.14-.71.09-.76-.09,0-.21,0h-.4c-.13,0-.17,0-.22,0s-.09.14-.24.75S139.68,45.06,139.73,45.11Zm3,.65a.65.65,0,0,1-.52-.17c-.2-.19-.24-.52,0-1.29a2.24,2.24,0,0,1,.46-1.12.86.86,0,0,1,.69-.23H144a.67.67,0,0,1,.53.16c.16.17.17.4.07.87h-.73c0-.25,0-.35,0-.38s-.08,0-.2,0h-.34a.31.31,0,0,0-.22,0c-.05,0-.09.14-.24.75s-.14.7-.09.75.09,0,.22,0h.34c.11,0,.16,0,.2,0s.08-.11.16-.41h.72c-.13.55-.21.71-.35.85a.77.77,0,0,1-.61.22Zm4.36-.24a.84.84,0,0,1-.68.24h-.78a.67.67,0,0,1-.53-.17c-.2-.19-.23-.52,0-1.29a2.24,2.24,0,0,1,.46-1.12.85.85,0,0,1,.68-.23h.78a.66.66,0,0,1,.53.17c.2.2.24.52,0,1.29S147.2,45.37,147,45.52Zm-1.36-.41s.09,0,.21,0h.39c.13,0,.18,0,.23-.06s.09-.14.24-.74.14-.71.09-.76-.09,0-.22,0h-.39c-.13,0-.18,0-.22,0s-.1.14-.24.75S145.63,45.06,145.68,45.11Zm2.08.65.93-3.76h.78l-.93,3.76Zm5.14-2.82c.19,0,.28.05.28.24l0,1.72h.06L154,43h.76l-1.22,2.63a.27.27,0,0,1-.3.19h-.45c-.21,0-.3-.05-.29-.26l0-1.46h0l-.71,1.53a.29.29,0,0,1-.31.19H151c-.19,0-.28-.06-.27-.25l.09-2.57h.73l-.14,1.95h.06l.81-1.77a.29.29,0,0,1,.31-.19Zm3.29,2.82.46-1.85c0-.14,0-.23,0-.28a.25.25,0,0,0-.19-.05h-.14a1.2,1.2,0,0,0-.54.16l-.5,2h-.78l.94-3.76h.78l-.34,1.34c.47-.34.58-.39.84-.39h.22a.57.57,0,0,1,.45.15c.15.15.16.41.06.8L157,45.76Zm2.3,0a.65.65,0,0,1-.52-.17c-.2-.19-.24-.52-.05-1.29a2.24,2.24,0,0,1,.46-1.12.86.86,0,0,1,.69-.23h.78a.65.65,0,0,1,.52.17c.2.2.22.51,0,1.3a.12.12,0,0,1-.14.11h-1.62c-.1.45-.1.56-.05.61s.09,0,.23,0h.35c.19,0,.24,0,.29-.06a.71.71,0,0,0,.13-.31h.71a1.48,1.48,0,0,1-.33.72.8.8,0,0,1-.64.22Zm.24-1.65h1c.08-.38.09-.49,0-.54s-.1,0-.23,0h-.35a.39.39,0,0,0-.27.06C158.87,43.63,158.83,43.7,158.73,44.11Zm1.9,1.65.71-2.81h.77l-.09.4c.47-.35.57-.4.83-.4h.23a.55.55,0,0,1,.44.15c.15.15.17.41.07.8l-.47,1.86h-.78l.47-1.85c0-.14,0-.23,0-.28s-.07-.05-.18-.05h-.15a1.14,1.14,0,0,0-.53.16l-.5,2Z" transform="translate(-5.22 -4.12)"/><path class="cls-1" d="M102.17,49l-.7,2.8h-.78l.1-.38c-.47.33-.58.39-.84.39h-.22a.58.58,0,0,1-.45-.16c-.15-.15-.16-.41-.07-.79L99.68,49h.78L100,50.8a.29.29,0,0,0,0,.28.25.25,0,0,0,.19.05h.14a1.14,1.14,0,0,0,.53-.16l.51-2Z" transform="translate(-5.22 -4.12)"/><path class="cls-1" d="M102.94,50.86c0,.15,0,.25,0,.29s.06,0,.17,0h.58c.09,0,.13,0,.16,0a.43.43,0,0,0,.1-.22c0-.11,0-.16,0-.19a.23.23,0,0,0-.12-.05l-.76-.15a.72.72,0,0,1-.41-.17c-.12-.12-.13-.33,0-.65a1,1,0,0,1,.29-.61.65.65,0,0,1,.49-.16h1a.58.58,0,0,1,.44.13c.11.12.14.32.05.74h-.69c0-.13,0-.22,0-.26s-.07-.05-.18-.05h-.48c-.09,0-.14,0-.17.05s0,.06-.09.18,0,.17,0,.2a.27.27,0,0,0,.12.05l.76.15a.69.69,0,0,1,.42.17c.11.11.12.33,0,.66a1.2,1.2,0,0,1-.3.62.64.64,0,0,1-.49.16h-1.13a.53.53,0,0,1-.42-.13c-.11-.11-.14-.33,0-.76Z" transform="translate(-5.22 -4.12)"/><path class="cls-1" d="M105.76,51.75H105l.71-2.8h.77Zm.84-3.19h-.85l.17-.67h.85Z" transform="translate(-5.22 -4.12)"/><path class="cls-1" d="M106.42,51.75l.7-2.8h.78l-.1.39c.47-.34.57-.4.83-.4h.23a.59.59,0,0,1,.45.16c.15.14.16.41.06.8l-.46,1.85h-.79l.47-1.85c0-.13,0-.22,0-.27a.23.23,0,0,0-.19-.06h-.14a1.17,1.17,0,0,0-.54.16l-.5,2Z" transform="translate(-5.22 -4.12)"/><path class="cls-1" d="M110.28,51.8a.22.22,0,0,0,0,.17s.07,0,.19,0H111a.37.37,0,0,0,.22,0s.07-.09.13-.33l.12-.51c-.44.31-.56.36-.82.36h-.15a.64.64,0,0,1-.51-.16c-.18-.18-.22-.49,0-1.17a2,2,0,0,1,.44-1,.87.87,0,0,1,.68-.23h.21c.2,0,.32.07.66.36L112,49h.79l-.69,2.71c-.11.48-.19.61-.33.74a.83.83,0,0,1-.6.17h-1a.62.62,0,0,1-.45-.13c-.11-.11-.14-.29-.07-.64Zm.34-1a.29.29,0,0,0,.22.06H111a1.1,1.1,0,0,0,.53-.18l.25-1a.78.78,0,0,0-.4-.13h-.23a.36.36,0,0,0-.28.08,1.4,1.4,0,0,0-.23.59C110.54,50.66,110.55,50.77,110.62,50.84Z" transform="translate(-5.22 -4.12)"/><path class="cls-1" d="M115.07,50.87c0,.12,0,.19,0,.23s.06,0,.21,0h.38l-.13.5-.29.07a1.81,1.81,0,0,1-.49.07.59.59,0,0,1-.44-.15c-.12-.12-.14-.3-.06-.65l.36-1.42h-.43l.15-.61h.43l.18-.7h.78l-.17.7h.64l-.15.61h-.65Z" transform="translate(-5.22 -4.12)"/><path class="cls-1" d="M117.74,51.75l.46-1.85c0-.13,0-.22,0-.27s-.07-.06-.19-.06h-.14a1.23,1.23,0,0,0-.54.16l-.5,2H116L117,48h.78l-.33,1.35c.47-.35.57-.4.83-.4h.23a.59.59,0,0,1,.45.16c.14.14.16.41.06.8l-.47,1.85Z" transform="translate(-5.22 -4.12)"/><path class="cls-1" d="M120,51.75a.65.65,0,0,1-.52-.16c-.2-.2-.24-.52,0-1.29s.31-1,.47-1.12a.83.83,0,0,1,.68-.23h.78a.67.67,0,0,1,.53.16c.19.2.22.52,0,1.31,0,.08-.06.11-.15.11h-1.62c-.1.44-.1.56,0,.61a.38.38,0,0,0,.23,0h.36c.18,0,.24,0,.29-.06a.75.75,0,0,0,.12-.3h.71a1.6,1.6,0,0,1-.32.72.82.82,0,0,1-.65.21Zm.24-1.64h1c.08-.38.09-.5,0-.55s-.09,0-.23,0h-.35a.39.39,0,0,0-.27.06S120.38,49.7,120.28,50.11Z" transform="translate(-5.22 -4.12)"/><path class="cls-1" d="M122.18,51.75l.7-2.8h.78l-.1.39c.33-.27.5-.4.72-.4h.29l-.19.77h-.3a1.49,1.49,0,0,0-.63.12L123,51.75Z" transform="translate(-5.22 -4.12)"/><path class="cls-1" d="M127.54,51.75,128,49.9c0-.13,0-.22,0-.27a.23.23,0,0,0-.19-.06h-.06a1.21,1.21,0,0,0-.52.16l0,.17-.47,1.85h-.78l.46-1.85c0-.13,0-.22,0-.27s-.07-.06-.19-.06h-.06a1.17,1.17,0,0,0-.51.16l-.5,2h-.79L125,49h.77l-.1.38c.45-.33.57-.39.82-.39h.15a.55.55,0,0,1,.44.16.43.43,0,0,1,.12.28c.51-.38.63-.44.9-.44h.15a.58.58,0,0,1,.44.16c.15.14.16.41.07.8l-.47,1.85Z" transform="translate(-5.22 -4.12)"/><path class="cls-1" d="M131.3,51.52a.84.84,0,0,1-.68.23h-.78a.67.67,0,0,1-.53-.16c-.2-.2-.23-.52-.05-1.29s.31-1,.47-1.12a.85.85,0,0,1,.68-.23h.78a.66.66,0,0,1,.53.16c.2.2.24.52.05,1.3S131.46,51.37,131.3,51.52Zm-1.36-.41s.08,0,.21,0h.39c.13,0,.18,0,.22,0s.1-.15.25-.75.14-.71.09-.76-.09,0-.22,0h-.39c-.13,0-.18,0-.23.06s-.09.14-.24.74S129.89,51.06,129.94,51.11Z" transform="translate(-5.22 -4.12)"/><path class="cls-1" d="M132.28,50.43l.16-.65h1.49l-.17.65Z" transform="translate(-5.22 -4.12)"/><path class="cls-1" d="M137.24,51.75l.46-1.85c0-.13,0-.22,0-.27a.23.23,0,0,0-.19-.06h-.06a1.21,1.21,0,0,0-.52.16l0,.17-.47,1.85h-.78l.46-1.85c0-.13,0-.22,0-.27s-.07-.06-.19-.06h-.06a1.17,1.17,0,0,0-.51.16l-.5,2H134l.71-2.8h.77l-.1.38c.45-.33.57-.39.82-.39h.15a.55.55,0,0,1,.44.16.43.43,0,0,1,.12.28c.51-.38.63-.44.9-.44H138a.58.58,0,0,1,.44.16c.15.14.16.41.07.8L138,51.75Z" transform="translate(-5.22 -4.12)"/><path class="cls-1" d="M139.44,51.75h-.77l.7-2.8h.77Zm.83-3.19h-.84l.17-.67h.84Z" transform="translate(-5.22 -4.12)"/><path class="cls-1" d="M139.8,51.75l1.32-1.46L140.47,49h.81l.38.81h0l.71-.81h.88L142,50.37l.65,1.38h-.81l-.39-.84h0l-.73.84Z" transform="translate(-5.22 -4.12)"/><path class="cls-1" d="M143.81,51.75a.66.66,0,0,1-.52-.16c-.2-.2-.24-.52,0-1.29s.31-1,.47-1.12a.84.84,0,0,1,.68-.23h.78a.67.67,0,0,1,.53.16c.2.2.22.52,0,1.31,0,.08-.05.11-.15.11h-1.62c-.1.44-.1.56,0,.61s.09,0,.22,0h.36c.18,0,.24,0,.29-.06a.75.75,0,0,0,.12-.3h.71a1.5,1.5,0,0,1-.32.72.81.81,0,0,1-.64.21Zm.24-1.64h1c.09-.38.09-.5,0-.55s-.09,0-.23,0h-.35a.39.39,0,0,0-.27.06S144.15,49.7,144.05,50.11Z" transform="translate(-5.22 -4.12)"/><path class="cls-1" d="M146,51.75l.7-2.8h.78l-.1.39c.33-.27.5-.4.72-.4h.29l-.19.77h-.3a1.49,1.49,0,0,0-.63.12l-.48,1.92Z" transform="translate(-5.22 -4.12)"/><rect class="cls-1" x="25.91" y="17.14" width="0.18" height="13.33"/><path class="cls-1" d="M31.22,37.44a1.52,1.52,0,1,1,1.52-1.52A1.52,1.52,0,0,1,31.22,37.44Zm0-2.67a1.15,1.15,0,0,0,0,2.3,1.15,1.15,0,0,0,0-2.3Z" transform="translate(-5.22 -4.12)"/><rect class="cls-1" x="118.51" y="23.42" width="0.18" height="7.05"/><path class="cls-1" d="M123.82,37.44a1.52,1.52,0,1,1,1.52-1.52A1.52,1.52,0,0,1,123.82,37.44Zm0-2.67a1.15,1.15,0,1,0,0,2.3,1.15,1.15,0,1,0,0-2.3Z" transform="translate(-5.22 -4.12)"/><rect class="cls-1" x="210.71" y="17.14" width="0.18" height="13.33"/><path class="cls-1" d="M216,37.44a1.52,1.52,0,1,1,1.52-1.52A1.52,1.52,0,0,1,216,37.44Zm0-2.67a1.15,1.15,0,0,0,0,2.3,1.15,1.15,0,1,0,0-2.3Z" transform="translate(-5.22 -4.12)"/><path class="cls-1" d="M209.37,44.31a1,1,0,0,1-.76.23h-1.1l-.3,1.22h-.83l.88-3.57H209c.39,0,.6.05.73.18s.24.49.11,1.08A1.62,1.62,0,0,1,209.37,44.31Zm-1.44-1.48-.26,1.07h.77c.19,0,.27,0,.32-.07s.12-.13.2-.47,0-.43,0-.47-.09-.06-.33-.06Z" transform="translate(-5.22 -4.12)"/><path class="cls-1" d="M212.85,43l-.69,2.81h-.78l.1-.39c-.48.34-.58.39-.84.39h-.23a.59.59,0,0,1-.45-.16c-.15-.14-.16-.4-.06-.79l.46-1.86h.79l-.46,1.85a.28.28,0,0,0,0,.28s.07.05.19.05H211a1.19,1.19,0,0,0,.52-.15l.51-2Z" transform="translate(-5.22 -4.12)"/><path class="cls-1" d="M212.82,45.76l.7-2.81h.78l-.1.39c.33-.27.49-.39.71-.39h.3l-.19.76h-.3a1.67,1.67,0,0,0-.63.12l-.49,1.93Z" transform="translate(-5.22 -4.12)"/><path class="cls-1" d="M215.72,45.76H215l.71-2.81h.77Zm.84-3.2h-.85l.17-.67h.85Z" transform="translate(-5.22 -4.12)"/><path class="cls-1" d="M217.09,45.8a.25.25,0,0,0,0,.18s.08,0,.2,0h.45c.12,0,.18,0,.22-.05s.08-.09.13-.33l.13-.51c-.44.32-.56.37-.83.37h-.15a.64.64,0,0,1-.51-.17c-.17-.17-.22-.49-.05-1.17a2,2,0,0,1,.44-1,.9.9,0,0,1,.69-.23H218c.19,0,.31.06.66.35l.08-.35h.79l-.68,2.72c-.12.47-.19.61-.33.73a.86.86,0,0,1-.6.17H216.9a.59.59,0,0,1-.45-.13c-.11-.11-.14-.28-.06-.64Zm.34-1a.32.32,0,0,0,.23.06h.15a1.07,1.07,0,0,0,.53-.18l.26-1a.74.74,0,0,0-.41-.14H218a.36.36,0,0,0-.29.09c-.06.06-.11.17-.22.58S217.37,44.78,217.43,44.84Z" transform="translate(-5.22 -4.12)"/><path class="cls-1" d="M220.39,45.76a.65.65,0,0,1-.52-.17c-.2-.19-.24-.52-.05-1.29a2.19,2.19,0,0,1,.46-1.12A.86.86,0,0,1,221,43h.78a.68.68,0,0,1,.52.16c.2.2.22.52,0,1.31a.12.12,0,0,1-.14.11h-1.62c-.1.45-.1.56-.05.61s.09,0,.23,0h.35c.19,0,.24,0,.3-.07a.75.75,0,0,0,.12-.3h.71a1.6,1.6,0,0,1-.32.72.83.83,0,0,1-.65.22Zm.24-1.65h1c.08-.38.09-.5,0-.55s-.1,0-.23,0h-.35a.39.39,0,0,0-.27.06S220.73,43.7,220.63,44.11Z" transform="translate(-5.22 -4.12)"/><path class="cls-1" d="M222.53,45.76l.71-2.81H224l-.09.39c.47-.34.57-.39.83-.39H225a.59.59,0,0,1,.45.15c.14.15.16.41.06.8L225,45.76h-.78l.47-1.85c0-.14,0-.23,0-.28a.23.23,0,0,0-.19-.06h-.15a1.07,1.07,0,0,0-.53.17l-.5,2Z" transform="translate(-5.22 -4.12)"/><path class="cls-1" d="M194.58,48.17c.27,0,.31.07.34.34l.26,3.25h-.83l0-.9h-1.22l-.48.9h-.88l1.94-3.35c.11-.2.15-.24.35-.24Zm-1.17,2.08h.86l-.07-1.33h-.07Z" transform="translate(-5.22 -4.12)"/><path class="cls-1" d="M198.73,49,198,51.76h-.78l.1-.39c-.48.34-.58.39-.84.39h-.23a.59.59,0,0,1-.45-.16c-.15-.14-.16-.4-.06-.79l.47-1.86H197l-.46,1.85a.28.28,0,0,0,0,.28s.07.05.19.05h.14a1.19,1.19,0,0,0,.52-.15l.51-2Z" transform="translate(-5.22 -4.12)"/><path class="cls-1" d="M199.89,50.87c0,.13,0,.19,0,.23s.07,0,.22,0h.37l-.12.49-.29.08a2.43,2.43,0,0,1-.49.06.58.58,0,0,1-.45-.15c-.11-.11-.14-.3,0-.64l.35-1.43H199l.15-.61h.43l.17-.7h.78l-.17.7H201l-.14.61h-.65Z" transform="translate(-5.22 -4.12)"/><path class="cls-1" d="M203.18,51.52a.85.85,0,0,1-.68.24h-.79a.65.65,0,0,1-.52-.17c-.2-.19-.24-.52-.05-1.29s.31-1,.47-1.12a.83.83,0,0,1,.68-.23h.78a.71.71,0,0,1,.53.16c.2.2.23.53.05,1.3S203.33,51.37,203.18,51.52Zm-1.37-.41s.09,0,.22,0h.39c.13,0,.18,0,.22-.06s.1-.14.25-.75.13-.7.08-.76-.08,0-.21,0h-.39c-.14,0-.18,0-.23.06a2.23,2.23,0,0,0-.24.74C201.76,50.93,201.76,51.06,201.81,51.11Z" transform="translate(-5.22 -4.12)"/><path class="cls-1" d="M207.11,51.76l.47-1.85c0-.14,0-.23,0-.28a.23.23,0,0,0-.19-.06h-.06a1.12,1.12,0,0,0-.52.17l0,.16-.47,1.86h-.78l.46-1.85c0-.14,0-.23,0-.28s-.08-.06-.19-.06h-.06a1.09,1.09,0,0,0-.51.17l-.5,2h-.79l.7-2.81h.78l-.1.38c.45-.32.56-.38.82-.38h.15a.56.56,0,0,1,.44.15.43.43,0,0,1,.12.28c.51-.37.63-.43.9-.43h.14a.59.59,0,0,1,.45.15c.15.15.16.41.06.8l-.47,1.86Z" transform="translate(-5.22 -4.12)"/><path class="cls-1" d="M210.17,51.76l.07-.32a1.25,1.25,0,0,1-.79.32h-.25c-.28,0-.38,0-.47-.14s-.15-.36-.07-.69a.92.92,0,0,1,1.16-.81,3.13,3.13,0,0,1,.73.08l.06-.25c.06-.27.06-.33,0-.38s-.08,0-.19,0h-.34c-.11,0-.17,0-.21,0a.61.61,0,0,0-.12.27H209a1.36,1.36,0,0,1,.31-.7.74.74,0,0,1,.58-.2h.9a.67.67,0,0,1,.5.16c.14.14.15.37,0,.85l-.45,1.8Zm.16-.72.12-.46H210c-.28,0-.36,0-.43.09a.41.41,0,0,0-.1.23c0,.14,0,.22,0,.27a.27.27,0,0,0,.19,0h.15A1.3,1.3,0,0,0,210.33,51Z" transform="translate(-5.22 -4.12)"/><path class="cls-1" d="M212.75,50.87c0,.13,0,.19,0,.23s.07,0,.21,0h.38l-.13.49-.29.08a2.33,2.33,0,0,1-.48.06.58.58,0,0,1-.45-.15c-.11-.11-.14-.3-.06-.64l.36-1.43h-.42L212,49h.43l.18-.7h.78l-.17.7h.64l-.15.61h-.64Z" transform="translate(-5.22 -4.12)"/><path class="cls-1" d="M214.58,51.76a.67.67,0,0,1-.53-.17c-.19-.19-.23-.52,0-1.29a2.19,2.19,0,0,1,.46-1.12.86.86,0,0,1,.69-.23h.78a.68.68,0,0,1,.52.16c.2.2.22.52,0,1.31a.12.12,0,0,1-.14.11h-1.62c-.1.45-.1.56-.05.61s.09,0,.23,0h.35c.19,0,.24,0,.29-.07s.08-.11.13-.3h.71a1.48,1.48,0,0,1-.33.72.8.8,0,0,1-.64.22Zm.23-1.65h1c.08-.38.09-.5,0-.55s-.09,0-.22,0h-.35c-.16,0-.23,0-.27.06S214.92,49.7,214.81,50.11Z" transform="translate(-5.22 -4.12)"/><path class="cls-1" d="M218.36,49c.2,0,.32.06.67.35l.32-1.31h.79l-.94,3.77h-.78l.09-.36c-.45.31-.57.36-.83.36h-.19a.59.59,0,0,1-.49-.16c-.18-.17-.19-.49,0-1.27a2.15,2.15,0,0,1,.49-1.15.91.91,0,0,1,.7-.23Zm.25,2,.32-1.27a.74.74,0,0,0-.41-.14h-.21a.35.35,0,0,0-.29.09c-.07.07-.13.18-.25.71s-.14.65-.06.72.1.06.22.06h.15A1.17,1.17,0,0,0,218.61,51Z" transform="translate(-5.22 -4.12)"/><path class="cls-1" d="M222.05,50.59c-.08.31-.1.44-.05.48s.07,0,.22,0H223c.14,0,.19,0,.24,0a.85.85,0,0,0,.13-.33c0-.17.05-.26,0-.3s-.06,0-.15-.06l-1-.2a.9.9,0,0,1-.48-.21c-.15-.15-.17-.37-.07-.8a1.33,1.33,0,0,1,.37-.76.85.85,0,0,1,.64-.22h1.15a.77.77,0,0,1,.56.15c.17.16.17.41,0,1h-.78c.06-.3.06-.4,0-.44s-.07,0-.23,0h-.63c-.13,0-.19,0-.23,0a.77.77,0,0,0-.13.31c0,.17,0,.25,0,.29a.37.37,0,0,0,.16.06l1,.2a.83.83,0,0,1,.48.2c.15.15.18.38.07.82a1.51,1.51,0,0,1-.38.79.84.84,0,0,1-.65.22h-1.26a.68.68,0,0,1-.54-.16c-.16-.15-.15-.48,0-1Z" transform="translate(-5.22 -4.12)"/><path class="cls-1" d="M225.67,49l.19,1.8h0l1-1.8h.84l-1.9,3.21a.78.78,0,0,1-.78.42c-.23,0-.43,0-.65,0l.14-.59H225a.16.16,0,0,0,.15-.1l.1-.17L224.88,49Z" transform="translate(-5.22 -4.12)"/><path class="cls-1" d="M228.17,50.86c0,.16-.06.25,0,.3s.06,0,.16,0h.58c.09,0,.13,0,.16,0a.43.43,0,0,0,.1-.21c0-.12,0-.16,0-.19s-.06,0-.12,0l-.76-.16a.72.72,0,0,1-.41-.17c-.11-.11-.12-.33,0-.65a1.22,1.22,0,0,1,.29-.61.69.69,0,0,1,.49-.16h1a.62.62,0,0,1,.44.13c.12.12.15.33.05.74h-.68c0-.13,0-.22,0-.26s-.07,0-.18,0h-.48c-.09,0-.13,0-.17,0s-.05.06-.08.19,0,.16,0,.19a.2.2,0,0,0,.13.05l.76.15a.72.72,0,0,1,.41.17c.11.12.13.34,0,.66a1.13,1.13,0,0,1-.3.62.63.63,0,0,1-.49.17h-1.12a.54.54,0,0,1-.43-.14c-.11-.1-.14-.33,0-.76Z" transform="translate(-5.22 -4.12)"/><path class="cls-1" d="M231.4,50.87c0,.13,0,.19,0,.23s.07,0,.21,0H232l-.13.49-.29.08a2.25,2.25,0,0,1-.48.06.58.58,0,0,1-.45-.15c-.11-.11-.14-.3-.06-.64l.36-1.43h-.42l.15-.61h.42l.18-.7h.78l-.17.7h.64l-.15.61h-.64Z" transform="translate(-5.22 -4.12)"/><path class="cls-1" d="M233.23,51.76a.67.67,0,0,1-.53-.17c-.19-.19-.23-.52,0-1.29a2.19,2.19,0,0,1,.46-1.12.86.86,0,0,1,.69-.23h.78a.68.68,0,0,1,.52.16c.2.2.22.52,0,1.31a.12.12,0,0,1-.14.11h-1.62c-.1.45-.1.56-.05.61s.09,0,.23,0h.35c.19,0,.24,0,.29-.07s.08-.11.13-.3H235a1.48,1.48,0,0,1-.33.72.8.8,0,0,1-.64.22Zm.23-1.65h1c.08-.38.09-.5,0-.55a.38.38,0,0,0-.23,0h-.35c-.16,0-.23,0-.27.06S233.57,49.7,233.46,50.11Z" transform="translate(-5.22 -4.12)"/><path class="cls-1" d="M238.59,51.76l.46-1.85c0-.14,0-.23,0-.28a.23.23,0,0,0-.19-.06h-.06a1.12,1.12,0,0,0-.52.17l0,.16-.47,1.86H237l.46-1.85c0-.14,0-.23,0-.28s-.07-.06-.19-.06h-.06a1.09,1.09,0,0,0-.51.17l-.5,2h-.79l.71-2.81h.77l-.1.38c.45-.32.57-.38.82-.38h.15a.55.55,0,0,1,.44.15.43.43,0,0,1,.12.28c.51-.37.63-.43.9-.43h.15a.58.58,0,0,1,.44.15c.15.15.16.41.07.8l-.47,1.86Z" transform="translate(-5.22 -4.12)"/><polygon class="cls-1" points="60.66 4.97 60.66 12.17 64.03 8.57 60.66 4.97"/><polygon class="cls-1" points="121.16 4.97 121.16 12.17 124.52 8.57 121.16 4.97"/><polygon class="cls-1" points="181.65 4.97 181.65 12.17 185.01 8.57 181.65 4.97"/></svg>