<svg id="Layer_1" data-name="Layer 1" xmlns="http://www.w3.org/2000/svg" viewBox="0 0 1045 198.1"><defs><style>.cls-1{fill:#fff;}.cls-2{fill:#3d7cc9;}.cls-3{fill:#91989e;}</style></defs><title>logo-purigen-main-white</title><path class="cls-1" d="M530.46,31.48A28.87,28.87,0,0,0,501.59,2.62H405.44l0,124h18.7V82.28h70.63A18.66,18.66,0,0,1,506,86.36l.09.08a18.12,18.12,0,0,1,1.95,1.87l.36.39a20.45,20.45,0,0,1,1.41,1.91c.13.2.27.38.39.58a17.22,17.22,0,0,1,1.2,2.39c0,.1.1.18.14.28a17.35,17.35,0,0,1,.51,1.74,17.86,17.86,0,0,1,.78,5v26h18.61V96.84h0V92.46a29.27,29.27,0,0,0-.6-5.89,28.75,28.75,0,0,0-7.51-14.21,28.68,28.68,0,0,0,7.09-18.88ZM493.27,21.26a18.61,18.61,0,0,1,18.55,18.55l0,5.36a18.57,18.57,0,0,1-18.52,18.51H424.16V21.26Z" transform="translate(-2 -2.61)"/><path class="cls-1" d="M248,31.48A28.87,28.87,0,0,0,219.1,2.62H123l0,124h18.71V82.28h77.49A28.8,28.8,0,0,0,248,53.48ZM210.78,21.26a18.6,18.6,0,0,1,18.54,18.55l0,5.36a18.56,18.56,0,0,1-18.51,18.51H141.68V21.26Z" transform="translate(-2 -2.61)"/><path class="cls-1" d="M369.41,2.65v86.9a18.57,18.57,0,0,1-18.51,18.51H301.42a18.57,18.57,0,0,1-18.51-18.51V2.65H264.3V97.86a28.8,28.8,0,0,0,28.81,28.8h66.1A28.8,28.8,0,0,0,388,97.86V2.65Z" transform="translate(-2 -2.61)"/><rect class="cls-1" x="546.99" y="0.03" width="18.6" height="124.01"/><path class="cls-1" d="M708.17,58.54H659.68V77h29.87l0,12.64a18.55,18.55,0,0,1-18.51,18.49H620.86a18.55,18.55,0,0,1-18.51-18.49V39.82a18.55,18.55,0,0,1,18.51-18.49l49.92,0A18.54,18.54,0,0,1,689,36l19.09,0V31.55a29,29,0,0,0-29-28.93H612.53a28.79,28.79,0,0,0-28.8,28.76l0,66.5a28.79,28.79,0,0,0,28.8,28.77h66.83a28.78,28.78,0,0,0,28.8-28.77Z" transform="translate(-2 -2.61)"/><path class="cls-1" d="M763,21l76.21,0V2.61H754.72a28.65,28.65,0,0,0-28.8,28.5l0,67a28.65,28.65,0,0,0,28.8,28.5l84.57,0V108.2l-76.26,0a18.47,18.47,0,0,1-18.51-18.32l0-15.89h76.13V54.57H744.51V39.34A18.48,18.48,0,0,1,763,21Z" transform="translate(-2 -2.61)"/><path class="cls-1" d="M885.71,2.65a28.79,28.79,0,0,0-28.8,28.8v95.21h18.6V39.76A18.57,18.57,0,0,1,894,21.25H943.5A18.57,18.57,0,0,1,962,39.76v86.9h18.6V31.45a28.79,28.79,0,0,0-28.8-28.8Z" transform="translate(-2 -2.61)"/><path class="cls-2" d="M344.4,200.72H302.16l18.2-31a28.47,28.47,0,0,1,24.55-14H388l-17.76,30.27a30,30,0,0,1-25.85,14.8" transform="translate(-2 -2.61)"/><path class="cls-2" d="M255.2,200.72H182.33l18.21-31a28.46,28.46,0,0,1,24.54-14h73.74l-17.76,30.27a30,30,0,0,1-25.86,14.8" transform="translate(-2 -2.61)"/><path class="cls-2" d="M133.75,200.72H2l18.21-31a28.43,28.43,0,0,1,24.53-14H177.37L159.6,185.92a30,30,0,0,1-25.85,14.8" transform="translate(-2 -2.61)"/><path class="cls-3" d="M451.5,198.5c-2.85,1.58-6.74,2.16-11.15,2.16H405.44V155.71h35.84c4,0,7.55.06,10.1,2.61a11.15,11.15,0,0,1,3,7.72v3.37a7,7,0,0,1-1.16,4c-1.16,1.8-3.37,2.73-4.59,3.25,1.45.35,4.53,1.05,5.75,2.91a11.86,11.86,0,0,1,1.8,6.44v3.31c.06,4-1,7.2-4.7,9.17m-3-31.82c0-2-.12-3.37-1.51-4.87a6.73,6.73,0,0,0-4-1.11H411v14.52h31.07c2,0,3.6,0,5-1.45a6.08,6.08,0,0,0,1.4-4.36Zm2,19.28a6.32,6.32,0,0,0-1.74-4.41c-1.22-1.22-3.54-1.33-5.81-1.33H411v15.5h31.07c2.84,0,5.4-.35,7.09-2.09,1.33-1.51,1.33-2.73,1.33-4.53Z" transform="translate(-2 -2.61)"/><rect class="cls-3" x="467.92" y="153.09" width="6.16" height="44.95"/><path class="cls-3" d="M543,197.81c-3.54,3.37-14.4,2.85-19.11,2.85H508.4c-.58,0-12.14.7-15.45-4.47-1.8-2.67-3.08-6.39-3.08-13v-8.71c0-6.45,1.17-13.07,4.71-16,3.94-3.37,15.91-2.79,18.06-2.79h15.85c2.27,0,11.79-.11,15.16,3.77,2.79,3.2,3.77,8.54,3.77,15.34v9.35c0,4.93-1,10.62-4.41,13.64m-1.63-21c0-5.57,0-11.56-3-14.11-2.27-1.86-6.45-2-10.63-2h-17c-4.88,0-10.4-.23-12.31,2.33-2.73,3.66-2.62,8-2.62,13.24v6.33c0,4.93,1.11,9.06,2.39,10.63,1.68,2,5.57,2.38,13.64,2.38H524.6c2.67,0,11.44.34,13.77-1.69,2.49-2.09,3-6.67,3-11.15Z" transform="translate(-2 -2.61)"/><polygon class="cls-3" points="644.54 179.23 644.54 198.04 638.74 198.04 638.74 179.34 612.2 153.09 620.16 153.09 641.41 174.52 661.21 153.09 669.52 153.09 644.54 179.23"/><polygon class="cls-3" points="760.79 158.09 760.79 198.04 755.62 198.04 755.62 158.09 732.92 158.09 732.92 153.09 782.74 153.09 782.74 158.09 760.79 158.09"/><polygon class="cls-3" points="793.68 198.04 793.68 153.09 837.01 153.09 837.01 158.09 799.2 158.09 799.2 172.6 835.62 172.6 835.62 177.6 799.2 177.6 799.2 193.11 837.59 193.11 837.59 198.04 793.68 198.04"/><polygon class="cls-3" points="913.32 198.04 913.32 158.66 886.72 198.04 883 198.04 855.94 158.96 855.94 198.04 849.61 198.04 849.61 153.09 858.73 153.09 884.87 190.78 909.95 153.09 919.53 153.09 919.53 198.04 913.32 198.04"/><path class="cls-3" d="M979.19,197.48c-4.65,4-12.33,3.14-18.67,3.14H949.89c-1.57,0-8.14.58-13.08-3.43-2.56-2.09-2.74-6.56-2.74-7.84v-2.84h5.58v2.38a7.31,7.31,0,0,0,1.05,4.18c1.74,2.85,8.84,2.61,14.59,2.61h7.62c2,0,10.06-.17,12.44-2.44a5,5,0,0,0,1.8-4.06V187.5c0-2.27-.11-4.36-2.09-6.16-1.45-1.33-4.3-1.16-7.15-1.16H948.43c-.75,0-5.7,0-8.6-1.28-4.13-1.74-6.05-4.64-6.17-9.17v-1.51c.12-4.83,1.11-8.77,6-11,3.2-1.39,11.11-1.51,15-1.51h5.87c6.11.06,14.77-.23,18,3.72,2.21,2.67,2.91,4.53,2.85,7.73v1.68h-5.7v-2.15a5.18,5.18,0,0,0-1.74-4.12c-2.38-2.15-9-1.86-10.23-1.86H951.75c-7.16,0-9.71.64-11.11,2.26s-1.28,3.26-1.34,5.29V169a6.07,6.07,0,0,0,1.51,4.36c1.92,2.2,4.55,1.86,7.56,1.86h20.29c.82,0,6.34.4,9,1.91,3.2,1.8,5.17,4.41,5.17,9.35v2.49c0,4.3-1.28,6.63-3.6,8.54" transform="translate(-2 -2.61)"/><path class="cls-3" d="M723.44,197.48c-4.65,4-12.32,3.14-18.66,3.14H694.14c-1.57,0-8.14.58-13.08-3.43-2.56-2.09-2.73-6.56-2.73-7.84v-2.84h5.58v2.38a7.39,7.39,0,0,0,1,4.18c1.75,2.85,8.84,2.61,14.6,2.61h7.62c2,0,10.05-.17,12.43-2.44a5,5,0,0,0,1.81-4.06V187.5c0-2.27-.12-4.36-2.1-6.16-1.45-1.33-4.3-1.16-7.14-1.16H692.69c-.76,0-5.7,0-8.61-1.28-4.12-1.74-6.05-4.64-6.16-9.17v-1.51c.11-4.83,1.1-8.77,6-11,3.2-1.39,11.1-1.51,15-1.51h5.87c6.1.06,14.77-.23,18,3.72,2.2,2.67,2.9,4.53,2.84,7.73v1.68H719.9v-2.15a5.19,5.19,0,0,0-1.75-4.12c-2.38-2.15-8.95-1.86-10.23-1.86H696c-7.15,0-9.7.64-11.1,2.26s-1.28,3.26-1.34,5.29V169a6.07,6.07,0,0,0,1.51,4.36c1.92,2.2,4.54,1.86,7.56,1.86h20.29c.81,0,6.34.4,9,1.91,3.2,1.8,5.18,4.41,5.18,9.35v2.49c0,4.3-1.28,6.63-3.61,8.54" transform="translate(-2 -2.61)"/><path class="cls-3" d="M605.5,197.48c-4.64,4-12.32,3.14-18.66,3.14H576.2c-1.57,0-8.14.58-13.08-3.43-2.55-2.09-2.73-6.56-2.73-7.84v-2.84H566v2.38a7.31,7.31,0,0,0,1,4.18c1.74,2.85,8.83,2.61,14.59,2.61h7.62c2,0,10.06-.17,12.44-2.44a5,5,0,0,0,1.8-4.06V187.5c0-2.27-.12-4.36-2.1-6.16-1.45-1.33-4.29-1.16-7.14-1.16H574.75c-.75,0-5.7,0-8.6-1.28-4.13-1.74-6.06-4.64-6.17-9.17v-1.51c.11-4.83,1.11-8.77,6-11,3.2-1.39,11.1-1.51,15-1.51h5.87c6.11.06,14.77-.23,18,3.72,2.21,2.67,2.9,4.53,2.85,7.73v1.68H602v-2.15a5.16,5.16,0,0,0-1.75-4.12c-2.38-2.15-9-1.86-10.23-1.86H578.07c-7.16,0-9.71.64-11.11,2.26s-1.28,3.26-1.34,5.29V169a6.07,6.07,0,0,0,1.51,4.36c1.92,2.2,4.54,1.86,7.56,1.86H595c.81,0,6.34.4,8.95,1.91,3.21,1.8,5.18,4.41,5.18,9.35v2.49c0,4.3-1.28,6.63-3.61,8.54" transform="translate(-2 -2.61)"/><path class="cls-3" d="M1011.68,4.61V7.28h-9.91V30.16h-2.48V7.28h-9.91V4.61Z" transform="translate(-2 -2.61)"/><path class="cls-3" d="M1018.29,6.74V30.16h-2.48V4.61h4L1031.35,27l11.56-22.36H1047V30.16h-2.48V7.09l-11.77,23.07h-2.51Z" transform="translate(-2 -2.61)"/></svg>