<svg id="Layer_1" data-name="Layer 1" xmlns="http://www.w3.org/2000/svg" viewBox="0 0 411.34 227.92"><defs><style>.cls-1{fill:#fff;}.cls-10,.cls-11,.cls-12,.cls-13,.cls-15,.cls-16,.cls-2,.cls-7,.cls-8,.cls-9{fill:none;stroke-width:0.25px;}.cls-2{stroke:#a2a9ad;}.cls-3{fill:#231f20;}.cls-4{fill:#d2232a;}.cls-5{fill:#3d7cc9;}.cls-6{fill:#54565a;}.cls-10,.cls-7,.cls-8,.cls-9{stroke:#3d7cc9;}.cls-7{stroke-dasharray:1.08 1.08;}.cls-8{stroke-dasharray:0.98 0.98;}.cls-10{stroke-dasharray:1.06 1.06;}.cls-11,.cls-12,.cls-13,.cls-15,.cls-16{stroke:#be1e2d;}.cls-11{stroke-dasharray:1 1;}.cls-12{stroke-dasharray:1.01 1.01;}.cls-14{fill:#be1e2d;}.cls-15{stroke-dasharray:0.98 0.98;}.cls-16{stroke-dasharray:0.96 0.96;}</style></defs><title>fig-qpcr-data</title><rect class="cls-1" x="297.29" y="84.06" width="5.05" height="125.09"/><rect class="cls-1" x="317.85" y="84.06" width="5.05" height="125.09"/><rect class="cls-1" x="358.98" y="84.06" width="5.05" height="125.09"/><line class="cls-2" x1="45.29" y1="37.88" x2="411.34" y2="39.56"/><line class="cls-2" x1="45.29" y1="92.01" x2="411.34" y2="93.69"/><line class="cls-2" x1="45.29" y1="146.14" x2="411.34" y2="147.82"/><line class="cls-2" x1="45.29" y1="200.27" x2="411.34" y2="201.95"/><path class="cls-3" d="M40.5,48.49v-1.3H37.88v-.48a1.25,1.25,0,0,1,.21-.72l1.51-2.51a.72.72,0,0,1,.68-.41H41.7v3.21h.84v.91H41.7v1.3ZM40.41,44,39.1,46.28h1.4V44Z" transform="translate(-9.33 -8.46)"/><path class="cls-3" d="M46.36,43.07a1.47,1.47,0,0,1,1.1.28c.31.29.56.86.56,2.43s-.25,2.13-.56,2.42a1.47,1.47,0,0,1-1.1.29H45.13A1.44,1.44,0,0,1,44,48.2c-.31-.29-.56-.86-.56-2.42s.25-2.14.56-2.43a1.44,1.44,0,0,1,1.09-.28Zm-1,1c-.28,0-.37,0-.43.08s-.21.29-.21,1.63.13,1.55.21,1.61.15.09.43.09h.69c.29,0,.37,0,.44-.09s.21-.27.21-1.61-.13-1.55-.21-1.63-.15-.08-.44-.08Z" transform="translate(-9.33 -8.46)"/><path class="cls-3" d="M39.88,100.05v-.93h1c.21,0,.29,0,.36-.09a.84.84,0,0,0,.12-.51.74.74,0,0,0-.12-.5c-.05-.06-.14-.09-.36-.09h-.77c-.22,0-.33,0-.39.08s-.11.25-.13.75H38.34a2.14,2.14,0,0,1,.41-1.54,1.32,1.32,0,0,1,1-.28H41.3a1.22,1.22,0,0,1,1,.29,1.51,1.51,0,0,1,.36,1.11,1.14,1.14,0,0,1-.77,1.23h0c.5.11.82.48.82,1.26a1.7,1.7,0,0,1-.39,1.22,1.23,1.23,0,0,1-1,.3H39.7a1.34,1.34,0,0,1-1-.28,2.4,2.4,0,0,1-.39-1.64h1.21c0,.58.06.79.12.85s.15.08.42.08h.83c.22,0,.3,0,.37-.09s.13-.24.13-.57a.88.88,0,0,0-.13-.58c-.06-.06-.15-.08-.35-.08Z" transform="translate(-9.33 -8.46)"/><path class="cls-3" d="M43.8,99.76,44,96.94h3.84v1H45l-.09,1.16H45a1.15,1.15,0,0,1,1-.31h.69a1.22,1.22,0,0,1,1,.3,1.9,1.9,0,0,1,.37,1.41c0,.94-.11,1.26-.38,1.55a1.2,1.2,0,0,1-.93.3H45.06a1.41,1.41,0,0,1-1-.26c-.24-.26-.35-.61-.35-1.48H44.9c0,.44.07.62.13.67s.17.09.41.09h.82a.57.57,0,0,0,.37-.08c.07-.07.13-.24.13-.72s-.06-.63-.13-.7a.55.55,0,0,0-.37-.08h-.53a1.47,1.47,0,0,0-.9.28Z" transform="translate(-9.33 -8.46)"/><path class="cls-3" d="M39.67,153.92V153h1a.49.49,0,0,0,.36-.09.87.87,0,0,0,.12-.51.74.74,0,0,0-.12-.5.46.46,0,0,0-.36-.1h-.77c-.22,0-.34,0-.4.09s-.1.25-.13.74H38.13a2.16,2.16,0,0,1,.4-1.53,1.34,1.34,0,0,1,1-.28h1.55a1.25,1.25,0,0,1,1,.29,1.54,1.54,0,0,1,.36,1.1,1.13,1.13,0,0,1-.78,1.23v0c.51.11.82.48.82,1.25a1.71,1.71,0,0,1-.38,1.23,1.28,1.28,0,0,1-1,.3H39.49a1.33,1.33,0,0,1-1-.29,2.27,2.27,0,0,1-.39-1.63H39.3c0,.58.05.78.12.84s.15.09.42.09h.83c.21,0,.3,0,.37-.1a.87.87,0,0,0,.12-.56A.9.9,0,0,0,41,154a.47.47,0,0,0-.35-.09Z" transform="translate(-9.33 -8.46)"/><path class="cls-3" d="M46.36,150.82a1.41,1.41,0,0,1,1.09.29c.31.28.57.85.57,2.42s-.26,2.13-.57,2.42a1.45,1.45,0,0,1-1.09.29H45.12A1.41,1.41,0,0,1,44,156c-.32-.29-.57-.86-.57-2.42s.25-2.14.57-2.42.5-.29,1.08-.29Zm-1,1c-.28,0-.37,0-.43.08s-.2.29-.2,1.63.12,1.55.2,1.62.15.08.43.08h.69c.29,0,.37,0,.44-.08s.21-.28.21-1.62-.12-1.55-.21-1.63-.15-.08-.44-.08Z" transform="translate(-9.33 -8.46)"/><path class="cls-3" d="M38.45,209.42c0-.87.08-1.21.34-1.53a1.63,1.63,0,0,1,.84-.51l1.3-.45c.32-.11.4-.19.45-.27a.94.94,0,0,0,.09-.48.62.62,0,0,0-.11-.4c-.07-.08-.19-.09-.47-.09h-.57c-.28,0-.37,0-.44.11s-.11.27-.12.69h-1.2c0-.9.13-1.27.37-1.52a1.34,1.34,0,0,1,1-.27h1.48a1.19,1.19,0,0,1,.91.27,1.77,1.77,0,0,1,.36,1.26,1.71,1.71,0,0,1-.28,1.07,1.92,1.92,0,0,1-.91.55l-1.27.45a1,1,0,0,0-.44.24.73.73,0,0,0-.12.52v0h3v1H38.45Z" transform="translate(-9.33 -8.46)"/><path class="cls-3" d="M43.81,207.51,44,204.7h3.84v1H45l-.09,1.16H45a1.14,1.14,0,0,1,1-.31h.69a1.24,1.24,0,0,1,1,.3,2,2,0,0,1,.36,1.41c0,.94-.1,1.27-.37,1.55a1.16,1.16,0,0,1-.93.31H45.07a1.41,1.41,0,0,1-1-.27c-.25-.25-.35-.61-.35-1.48h1.19c0,.44.07.61.13.66s.16.09.41.09h.82a.57.57,0,0,0,.37-.08c.06-.07.13-.23.13-.71s-.07-.64-.13-.71a.57.57,0,0,0-.37-.08h-.53a1.54,1.54,0,0,0-.9.28Z" transform="translate(-9.33 -8.46)"/><rect class="cls-4" x="50.52" y="146.86" width="5.05" height="62.29"/><rect class="cls-5" x="56.7" y="151.73" width="5.05" height="57.43"/><rect class="cls-4" x="71.08" y="146.86" width="5.05" height="62.29"/><rect class="cls-5" x="77.27" y="151.73" width="5.05" height="57.43"/><rect class="cls-4" x="91.65" y="145.7" width="5.05" height="63.46"/><rect class="cls-5" x="97.83" y="153.91" width="5.05" height="55.24"/><rect class="cls-4" x="112.21" y="136.78" width="5.05" height="72.37"/><rect class="cls-5" x="118.4" y="150.38" width="5.05" height="58.77"/><rect class="cls-4" x="132.78" y="133.76" width="5.05" height="75.39"/><rect class="cls-5" x="138.96" y="155.76" width="5.05" height="53.4"/><rect class="cls-4" x="153.34" y="131.24" width="5.05" height="77.91"/><rect class="cls-5" x="159.52" y="149.54" width="5.05" height="59.61"/><rect class="cls-4" x="173.9" y="84.06" width="5.05" height="125.09"/><rect class="cls-5" x="180.09" y="116.3" width="5.05" height="92.85"/><rect class="cls-4" x="194.47" y="89.43" width="5.05" height="119.72"/><rect class="cls-5" x="200.65" y="122.51" width="5.05" height="86.64"/><rect class="cls-4" x="215.03" y="84.06" width="5.05" height="125.09"/><rect class="cls-5" x="221.21" y="121.5" width="5.05" height="87.65"/><rect class="cls-4" x="235.6" y="92.29" width="5.05" height="116.87"/><rect class="cls-5" x="241.78" y="120.83" width="5.05" height="88.32"/><rect class="cls-4" x="256.16" y="87.92" width="5.05" height="121.23"/><rect class="cls-5" x="262.34" y="120.83" width="5.05" height="88.32"/><rect class="cls-4" x="276.72" y="91.45" width="5.05" height="117.7"/><rect class="cls-5" x="282.91" y="115.63" width="5.05" height="93.53"/><rect class="cls-5" x="303.47" y="63.65" width="5.05" height="145.5"/><rect class="cls-5" x="324.03" y="74.49" width="5.05" height="134.66"/><rect class="cls-4" x="338.41" y="45.78" width="5.05" height="163.38"/><rect class="cls-5" x="344.6" y="70.29" width="5.05" height="138.86"/><rect class="cls-5" x="365.16" y="62.57" width="5.05" height="146.59"/><rect class="cls-4" x="379.54" y="43.59" width="5.05" height="165.56"/><rect class="cls-5" x="385.72" y="78.35" width="5.05" height="130.8"/><rect class="cls-4" x="400.11" y="51.99" width="5.05" height="157.16"/><rect class="cls-5" x="406.29" y="71.8" width="5.05" height="137.35"/><rect class="cls-3" x="50.52" y="209.43" width="114.05" height="2.52"/><rect class="cls-3" x="173.9" y="209.43" width="114.05" height="2.52"/><rect class="cls-3" x="297.29" y="209.43" width="114.05" height="2.52"/><path class="cls-3" d="M91.18,232.21l.19-3h4.14v1.08h-3l-.1,1.25h.07a1.22,1.22,0,0,1,1-.34h.74a1.3,1.3,0,0,1,1.05.32,2,2,0,0,1,.4,1.51c0,1-.12,1.37-.4,1.68a1.3,1.3,0,0,1-1,.32H92.53a1.57,1.57,0,0,1-1.08-.28c-.26-.28-.37-.66-.37-1.59h1.28c0,.48.07.66.14.72s.18.1.44.1h.89a.6.6,0,0,0,.39-.09c.08-.08.14-.25.14-.77s-.06-.68-.14-.76-.16-.09-.39-.09h-.57a1.56,1.56,0,0,0-1,.31Z" transform="translate(-9.33 -8.46)"/><path class="cls-3" d="M98,231.9a1.34,1.34,0,0,1,1-.42h.9a1.32,1.32,0,0,1,1,.3,1.83,1.83,0,0,1,.36,1.38c0,.84-.1,1.24-.38,1.53a1.28,1.28,0,0,1-1,.32H98.33a1.43,1.43,0,0,1-1.16-.34c-.34-.32-.57-.95-.57-2.57s.23-2.24.58-2.58a1.47,1.47,0,0,1,1.19-.34h1.37a1.4,1.4,0,0,1,1.06.29,2.18,2.18,0,0,1,.38,1.47H99.86c0-.35,0-.52-.13-.59s-.18-.1-.44-.1H98.7c-.34,0-.45,0-.53.12S98,230.69,98,231.9Zm.65.62a1.22,1.22,0,0,0-.65.19c0,.85.12,1,.2,1.12s.18.12.51.12h.72c.24,0,.35,0,.43-.1s.13-.28.13-.62,0-.52-.13-.6-.19-.11-.43-.11Z" transform="translate(-9.33 -8.46)"/><path class="cls-3" d="M103.47,233.68v1.15a1,1,0,0,1-.35.83l-.76.72-.38-.3.56-.75a.4.4,0,0,0,.11-.28v0h-.46v-1.33Z" transform="translate(-9.33 -8.46)"/><path class="cls-3" d="M107.46,229.18a1.56,1.56,0,0,1,1.18.31c.33.31.61.92.61,2.61s-.28,2.29-.61,2.6a1.56,1.56,0,0,1-1.18.31h-1.33a1.54,1.54,0,0,1-1.17-.31c-.34-.31-.61-.92-.61-2.6s.27-2.3.61-2.61a1.54,1.54,0,0,1,1.17-.31Zm-1,1.08c-.31,0-.41,0-.47.09s-.22.31-.22,1.75.13,1.66.22,1.74.16.09.47.09h.74c.31,0,.4,0,.47-.09s.22-.3.22-1.74-.13-1.67-.22-1.75-.16-.09-.47-.09Z" transform="translate(-9.33 -8.46)"/><path class="cls-3" d="M113.25,229.18a1.56,1.56,0,0,1,1.18.31c.33.31.61.92.61,2.61s-.28,2.29-.61,2.6a1.56,1.56,0,0,1-1.18.31h-1.33a1.54,1.54,0,0,1-1.17-.31c-.34-.31-.61-.92-.61-2.6s.27-2.3.61-2.61a1.54,1.54,0,0,1,1.17-.31Zm-1,1.08c-.3,0-.4,0-.46.09s-.22.31-.22,1.75.13,1.66.22,1.74.16.09.46.09H113c.31,0,.4,0,.47-.09s.22-.3.22-1.74-.13-1.67-.22-1.75-.16-.09-.47-.09Z" transform="translate(-9.33 -8.46)"/><path class="cls-3" d="M119,229.18a1.54,1.54,0,0,1,1.17.31c.34.31.61.92.61,2.61s-.27,2.29-.61,2.6A1.54,1.54,0,0,1,119,235h-1.33a1.52,1.52,0,0,1-1.17-.31c-.35-.31-.62-.92-.62-2.6s.27-2.3.62-2.61a1.52,1.52,0,0,1,1.17-.31Zm-1,1.08c-.3,0-.4,0-.47.09s-.22.31-.22,1.75.13,1.66.22,1.74.17.09.47.09h.74c.31,0,.4,0,.48-.09s.22-.3.22-1.74-.13-1.67-.22-1.75-.17-.09-.48-.09Z" transform="translate(-9.33 -8.46)"/><path class="cls-3" d="M128.05,234.73a1.32,1.32,0,0,1-1,.28h-1.75a1.34,1.34,0,0,1-1-.28c-.32-.32-.56-.85-.56-2.63s.24-2.33.56-2.63a1.33,1.33,0,0,1,1-.29H127a1.32,1.32,0,0,1,1,.29c.3.29.44.73.46,1.82h-1.28c0-.72-.1-.88-.16-.95s-.13-.08-.39-.08h-1.07c-.26,0-.33,0-.39.08s-.18.28-.18,1.76.11,1.68.18,1.76.13.07.39.07h1.07c.26,0,.33,0,.39-.07s.14-.21.16-1h1.28C128.48,234,128.35,234.44,128.05,234.73Z" transform="translate(-9.33 -8.46)"/><path class="cls-3" d="M130.53,233a2.49,2.49,0,0,0,.1,1c.06.06.19.08.4.08h.76c.26,0,.32,0,.37-.08s.06-.18.07-.5h1.15c0,.68-.08,1-.3,1.26a1,1,0,0,1-.8.26h-1.67a1.06,1.06,0,0,1-.89-.28c-.29-.3-.41-.66-.41-2s.12-1.7.41-2a1.09,1.09,0,0,1,.89-.28h1.52a1.09,1.09,0,0,1,.89.28c.29.3.36.66.36,2v.15c0,.13,0,.18-.18.18Zm0-.71h1.66c0-.62-.05-.78-.1-.85s-.12-.08-.38-.08H131c-.21,0-.34,0-.4.09S130.54,231.66,130.53,232.3Z" transform="translate(-9.33 -8.46)"/><path class="cls-3" d="M134.32,235v-6.14h1.26V235Z" transform="translate(-9.33 -8.46)"/><path class="cls-3" d="M136.64,235v-6.14h1.26V235Z" transform="translate(-9.33 -8.46)"/><path class="cls-3" d="M142.44,234.81a.87.87,0,0,1-.66.2h-1.9a1,1,0,0,1-.78-.21c-.17-.19-.26-.43-.27-1.25h1.11c0,.35,0,.42.06.47s.09.06.24.06h1c.16,0,.23,0,.26-.06s0-.1,0-.35,0-.29-.07-.33-.1-.07-.3-.09l-1.46-.17a1,1,0,0,1-.66-.24c-.18-.18-.22-.4-.22-1a1.6,1.6,0,0,1,.31-1.16.81.81,0,0,1,.66-.21h1.79a1,1,0,0,1,.76.2c.18.19.25.45.26,1.23h-1.11c0-.34,0-.39-.06-.44s-.09,0-.24,0h-.93c-.15,0-.2,0-.24,0s-.07.1-.07.31,0,.28.07.33.1.06.3.09l1.51.17a1,1,0,0,1,.64.24c.16.16.21.46.21,1.05A1.61,1.61,0,0,1,142.44,234.81Z" transform="translate(-9.33 -8.46)"/><path class="cls-3" d="M217.64,235v-4.59l-.91.31-.33-1,1.51-.57H219V235Z" transform="translate(-9.33 -8.46)"/><path class="cls-3" d="M221.06,235v-4.59l-.9.31-.33-1,1.51-.57h1V235Z" transform="translate(-9.33 -8.46)"/><path class="cls-3" d="M224.86,233.68v1.15a1,1,0,0,1-.35.83l-.76.72-.38-.3.56-.75a.39.39,0,0,0,.1-.28v0h-.45v-1.33Z" transform="translate(-9.33 -8.46)"/><path class="cls-3" d="M225.78,234.26c0-.93.09-1.3.37-1.64a1.79,1.79,0,0,1,.9-.56l1.4-.48c.34-.11.43-.2.48-.29a.93.93,0,0,0,.1-.51.67.67,0,0,0-.11-.43c-.08-.08-.21-.1-.51-.1h-.61c-.3,0-.4,0-.48.12s-.12.29-.13.74H225.9c0-1,.13-1.37.4-1.64a1.51,1.51,0,0,1,1.09-.29H229a1.32,1.32,0,0,1,1,.29,1.92,1.92,0,0,1,.39,1.36A1.72,1.72,0,0,1,230,232a1.91,1.91,0,0,1-1,.59l-1.36.49a.94.94,0,0,0-.47.26c-.1.12-.13.24-.13.55v0h3.26V235h-4.58Z" transform="translate(-9.33 -8.46)"/><path class="cls-3" d="M234.34,229.18a1.52,1.52,0,0,1,1.17.31c.34.31.62.92.62,2.61s-.28,2.29-.62,2.6a1.52,1.52,0,0,1-1.17.31H233a1.52,1.52,0,0,1-1.17-.31c-.35-.31-.61-.92-.61-2.6s.26-2.3.61-2.61a1.52,1.52,0,0,1,1.17-.31Zm-1,1.08c-.3,0-.4,0-.47.09s-.22.31-.22,1.75.13,1.66.22,1.74.17.09.47.09H234c.31,0,.4,0,.48-.09s.22-.3.22-1.74-.13-1.67-.22-1.75-.17-.09-.48-.09Z" transform="translate(-9.33 -8.46)"/><path class="cls-3" d="M240.12,229.18a1.56,1.56,0,0,1,1.18.31c.33.31.61.92.61,2.61s-.28,2.29-.61,2.6a1.56,1.56,0,0,1-1.18.31h-1.33a1.5,1.5,0,0,1-1.16-.31c-.35-.31-.62-.92-.62-2.6s.27-2.3.62-2.61a1.5,1.5,0,0,1,1.16-.31Zm-1,1.08c-.31,0-.4,0-.47.09s-.22.31-.22,1.75.13,1.66.22,1.74.16.09.47.09h.74c.31,0,.4,0,.47-.09s.22-.3.22-1.74-.13-1.67-.22-1.75-.16-.09-.47-.09Z" transform="translate(-9.33 -8.46)"/><path class="cls-3" d="M249.14,234.73a1.32,1.32,0,0,1-1,.28h-1.75a1.32,1.32,0,0,1-1-.28c-.33-.32-.56-.85-.56-2.63s.23-2.33.56-2.63a1.32,1.32,0,0,1,1-.29h1.75a1.32,1.32,0,0,1,1,.29c.3.29.44.73.45,1.82h-1.27c0-.72-.1-.88-.16-.95s-.13-.08-.4-.08H246.7c-.26,0-.33,0-.39.08s-.18.28-.18,1.76.11,1.68.18,1.76.13.07.39.07h1.06c.27,0,.34,0,.4-.07s.13-.21.16-1h1.28C249.57,234,249.44,234.44,249.14,234.73Z" transform="translate(-9.33 -8.46)"/><path class="cls-3" d="M251.62,233c0,.73,0,.92.1,1s.19.08.4.08h.76c.25,0,.32,0,.37-.08s.06-.18.06-.5h1.16c0,.68-.09,1-.31,1.26a1,1,0,0,1-.8.26H251.7a1.06,1.06,0,0,1-.89-.28c-.3-.3-.41-.66-.41-2s.11-1.7.41-2a1.08,1.08,0,0,1,.89-.28h1.52a1.11,1.11,0,0,1,.89.28c.29.3.36.66.36,2v.15c0,.13,0,.18-.18.18Zm0-.71h1.65c0-.62,0-.78-.09-.85s-.13-.08-.38-.08h-.68c-.21,0-.34,0-.4.09S251.62,231.66,251.62,232.3Z" transform="translate(-9.33 -8.46)"/><path class="cls-3" d="M255.41,235v-6.14h1.26V235Z" transform="translate(-9.33 -8.46)"/><path class="cls-3" d="M257.73,235v-6.14H259V235Z" transform="translate(-9.33 -8.46)"/><path class="cls-3" d="M263.53,234.81a.88.88,0,0,1-.67.2H261c-.4,0-.65-.06-.78-.21s-.26-.43-.27-1.25H261c0,.35,0,.42.06.47s.08.06.24.06h1.05a.39.39,0,0,0,.26-.06s0-.1,0-.35,0-.29-.06-.33-.1-.07-.3-.09l-1.47-.17a1,1,0,0,1-.65-.24c-.18-.18-.23-.4-.23-1a1.6,1.6,0,0,1,.31-1.16.84.84,0,0,1,.66-.21h1.79a1.08,1.08,0,0,1,.77.2c.18.19.25.45.26,1.23h-1.11c0-.34,0-.39-.06-.44s-.09,0-.24,0h-.93c-.15,0-.21,0-.25,0s-.06.1-.06.31,0,.28.07.33.1.06.3.09l1.51.17a.93.93,0,0,1,.63.24c.17.16.22.46.22,1.05A1.65,1.65,0,0,1,263.53,234.81Z" transform="translate(-9.33 -8.46)"/><path class="cls-3" d="M344.16,235v-4.59l-.91.31-.32-1,1.51-.57h1V235Z" transform="translate(-9.33 -8.46)"/><path class="cls-3" d="M348,233.68v1.15a1,1,0,0,1-.35.83l-.76.72-.38-.3.56-.75a.39.39,0,0,0,.1-.28v0h-.46v-1.33Z" transform="translate(-9.33 -8.46)"/><path class="cls-3" d="M349.25,235v-4.59l-.9.31-.33-1,1.51-.57h1.05V235Z" transform="translate(-9.33 -8.46)"/><path class="cls-3" d="M351.82,234.26c0-.93.09-1.3.37-1.64a1.79,1.79,0,0,1,.9-.56l1.4-.48c.35-.11.44-.2.49-.29a1.05,1.05,0,0,0,.09-.51.67.67,0,0,0-.11-.43c-.08-.08-.2-.1-.51-.1h-.61c-.3,0-.4,0-.47.12s-.13.29-.13.74H352c0-1,.13-1.37.39-1.64a1.51,1.51,0,0,1,1.09-.29H355a1.29,1.29,0,0,1,1,.29,1.88,1.88,0,0,1,.39,1.36,1.78,1.78,0,0,1-.3,1.15,2,2,0,0,1-1,.59l-1.37.49a.94.94,0,0,0-.47.26c-.1.12-.13.24-.13.55v0h3.27V235h-4.59Z" transform="translate(-9.33 -8.46)"/><path class="cls-3" d="M360.38,229.18a1.56,1.56,0,0,1,1.18.31c.33.31.61.92.61,2.61s-.28,2.29-.61,2.6a1.56,1.56,0,0,1-1.18.31h-1.33a1.54,1.54,0,0,1-1.17-.31c-.34-.31-.61-.92-.61-2.6s.27-2.3.61-2.61a1.54,1.54,0,0,1,1.17-.31Zm-1,1.08c-.3,0-.4,0-.46.09s-.22.31-.22,1.75.13,1.66.22,1.74.16.09.46.09h.75c.31,0,.4,0,.47-.09s.22-.3.22-1.74-.13-1.67-.22-1.75-.16-.09-.47-.09Z" transform="translate(-9.33 -8.46)"/><path class="cls-3" d="M369.39,234.73c-.2.2-.46.28-1,.28h-1.74c-.57,0-.83-.08-1-.28s-.57-.85-.57-2.63.24-2.33.57-2.63a1.3,1.3,0,0,1,1-.29h1.74a1.3,1.3,0,0,1,1,.29c.3.29.44.73.46,1.82h-1.28c0-.72-.09-.88-.16-.95s-.13-.08-.39-.08H367c-.26,0-.34,0-.39.08s-.18.28-.18,1.76.1,1.68.18,1.76.13.07.39.07H368c.26,0,.33,0,.39-.07s.14-.21.16-1h1.29C369.82,234,369.69,234.44,369.39,234.73Z" transform="translate(-9.33 -8.46)"/><path class="cls-3" d="M371.87,233c0,.73.06.92.11,1s.19.08.4.08h.76c.25,0,.32,0,.36-.08s.06-.18.07-.5h1.15c0,.68-.08,1-.3,1.26a1,1,0,0,1-.8.26H372a1.09,1.09,0,0,1-.89-.28c-.29-.3-.41-.66-.41-2s.12-1.7.41-2a1.11,1.11,0,0,1,.89-.28h1.52a1.09,1.09,0,0,1,.89.28c.3.3.36.66.36,2v.15c0,.13,0,.18-.18.18Zm0-.71h1.66c0-.62,0-.78-.1-.85s-.12-.08-.38-.08h-.67c-.21,0-.35,0-.4.09S371.88,231.66,371.87,232.3Z" transform="translate(-9.33 -8.46)"/><path class="cls-3" d="M375.67,235v-6.14h1.25V235Z" transform="translate(-9.33 -8.46)"/><path class="cls-3" d="M378,235v-6.14h1.26V235Z" transform="translate(-9.33 -8.46)"/><path class="cls-3" d="M383.78,234.81a.86.86,0,0,1-.66.2h-1.9a1,1,0,0,1-.78-.21c-.17-.19-.25-.43-.27-1.25h1.11c0,.35,0,.42.07.47s.08.06.23.06h1.06a.36.36,0,0,0,.25-.06s.05-.1.05-.35,0-.29-.07-.33-.09-.07-.3-.09l-1.46-.17a1,1,0,0,1-.65-.24c-.18-.18-.23-.4-.23-1a1.6,1.6,0,0,1,.31-1.16.84.84,0,0,1,.66-.21H383a1.08,1.08,0,0,1,.77.2c.18.19.24.45.26,1.23h-1.11c0-.34,0-.39-.07-.44s-.09,0-.24,0h-.93c-.14,0-.2,0-.24,0s-.07.1-.07.31,0,.28.08.33.09.06.29.09l1.51.17a1,1,0,0,1,.64.24c.16.16.21.46.21,1.05A1.61,1.61,0,0,1,383.78,234.81Z" transform="translate(-9.33 -8.46)"/><path class="cls-3" d="M16.72,159.07c.25.26.35.59.35,1.32v2.25a1.73,1.73,0,0,1-.35,1.32c-.4.42-1.07.73-3.32.73s-2.93-.31-3.32-.73a1.73,1.73,0,0,1-.35-1.32v-2.25c0-.73.1-1.06.35-1.32s.93-.57,2.3-.59v1.64c-.91,0-1.11.13-1.2.21s-.1.17-.1.5v1.37c0,.33,0,.43.1.5s.35.23,2.22.23,2.12-.13,2.21-.23.1-.17.1-.5v-1.37c0-.33,0-.43-.1-.5s-.26-.18-1.28-.21v-1.65C15.81,158.51,16.35,158.68,16.72,159.07Z" transform="translate(-9.33 -8.46)"/><path class="cls-3" d="M17.08,155.58h3.49v1H17.08v1.3h-.8v-3.62h.8Z" transform="translate(-9.33 -8.46)"/><path class="cls-3" d="M16.61,146.62c.38.12.5.24.5.63v1.4c0,.38-.12.51-.5.63l-6.88,2.18v-1.87L15.56,148v-.14l-5.83-1.61v-1.76Z" transform="translate(-9.33 -8.46)"/><path class="cls-3" d="M11.63,143.33a1.26,1.26,0,0,1-.33-1v-2.1a1.52,1.52,0,0,1,.33-1.15c.26-.26.56-.34,1.54-.34h3.9v1.6h-.66c.57.7.67,1,.67,1.46v.79a1.29,1.29,0,0,1-.29,1c-.2.2-.53.33-1.29.33a2,2,0,0,1-1.41-.35c-.26-.27-.39-.6-.39-1.64a8,8,0,0,1,.17-1.61h-.51c-.57,0-.69,0-.77.11s-.08.18-.08.42v.82c0,.22,0,.33.08.4s.2.09.55.11v1.51C12.19,143.68,11.86,143.58,11.63,143.33Zm4-3h-1v1.06c0,.61,0,.76.15.86s.23.13.49.13.45,0,.54-.11.09-.19.09-.41v-.45A2,2,0,0,0,15.64,140.32Z" transform="translate(-9.33 -8.46)"/><path class="cls-3" d="M17.07,137.35H9.33v-1.61h7.74Z" transform="translate(-9.33 -8.46)"/><path class="cls-3" d="M11.3,129.18h5.77v1.61h-.76c.66.74.77,1,.77,1.5V133a1.38,1.38,0,0,1-.32,1c-.24.23-.55.33-1.39.33H11.3v-1.62h3.89a.66.66,0,0,0,.48-.12c.09-.09.12-.19.12-.47v-.46a2.13,2.13,0,0,0-.23-.91H11.3Z" transform="translate(-9.33 -8.46)"/><path class="cls-3" d="M14.55,126.38c.92,0,1.16-.08,1.23-.14s.11-.24.11-.52v-1c0-.33,0-.41-.11-.47s-.22-.08-.63-.09v-1.48c.86,0,1.3.11,1.59.39a1.26,1.26,0,0,1,.33,1v2.14a1.4,1.4,0,0,1-.35,1.14c-.38.38-.83.53-2.53.53s-2.16-.15-2.54-.53a1.42,1.42,0,0,1-.35-1.14v-2a1.46,1.46,0,0,1,.35-1.15c.37-.37.83-.46,2.48-.46h.19c.17,0,.23,0,.23.23Zm-.9,0v-2.14c-.77,0-1,.06-1.07.13s-.09.16-.09.48v.87c0,.28,0,.45.1.52S12.84,126.36,13.65,126.38Z" transform="translate(-9.33 -8.46)"/><path class="cls-3" d="M16.82,117a1.11,1.11,0,0,1,.25.85v2.44a1.36,1.36,0,0,1-.27,1c-.23.22-.53.32-1.56.34v-1.42c.43,0,.52,0,.58-.09s.08-.1.08-.3v-1.36c0-.2,0-.28-.08-.32s-.12-.07-.44-.07-.36,0-.42.09-.08.12-.11.39l-.21,1.88a1.27,1.27,0,0,1-.31.84c-.23.23-.5.29-1.31.29a2,2,0,0,1-1.46-.4,1.08,1.08,0,0,1-.26-.85V118a1.34,1.34,0,0,1,.25-1c.23-.24.57-.32,1.55-.34v1.43c-.44,0-.49,0-.55.08s-.07.12-.07.3v1.2c0,.19,0,.26.06.32s.12.08.4.08.35,0,.42-.09.07-.13.1-.38l.22-1.94a1.21,1.21,0,0,1,.3-.82c.21-.21.59-.27,1.33-.27A2,2,0,0,1,16.82,117Z" transform="translate(-9.33 -8.46)"/><path class="cls-3" d="M12,112.64a6.43,6.43,0,0,1-2.37-1.42v-.59a9.06,9.06,0,0,0,2.27,1.15,14.94,14.94,0,0,0,2.3.1,15,15,0,0,0,2.3-.1,9.25,9.25,0,0,0,2.26-1.15v.59a6.43,6.43,0,0,1-2.37,1.42,18.94,18.94,0,0,1-2.19.09A19.16,19.16,0,0,1,12,112.64Z" transform="translate(-9.33 -8.46)"/><path class="cls-3" d="M17.07,108.79H9.52V108h7.55Z" transform="translate(-9.33 -8.46)"/><path class="cls-3" d="M16.76,105.93c-.36.36-.81.49-2.5.49s-2.13-.13-2.49-.49a1.47,1.47,0,0,1-.31-1.14v-1.47a1.45,1.45,0,0,1,.31-1.13c.36-.37.81-.5,2.49-.5s2.14.13,2.5.5a1.45,1.45,0,0,1,.31,1.13v1.47A1.47,1.47,0,0,1,16.76,105.93Zm-.54-.54c.12-.13.16-.29.16-.69v-1.3c0-.4,0-.55-.16-.67s-.44-.26-2-.26-1.78.09-1.95.26-.16.27-.16.67v1.3c0,.4,0,.56.16.69s.44.25,1.95.25S16.06,105.56,16.22,105.39Z" transform="translate(-9.33 -8.46)"/><path class="cls-3" d="M18.65,98.93a1.2,1.2,0,0,1-.28.91c-.22.22-.47.29-1.09.3v-.78c.37,0,.49,0,.59-.17S18,99,18,98.68V97.1c0-.31,0-.43-.14-.54s-.22-.17-.83-.17h-1.2c.6.75.75,1,.75,1.6v.65a1.51,1.51,0,0,1-.35,1.2c-.33.32-.74.44-2.22.44s-1.88-.12-2.22-.44a1.55,1.55,0,0,1-.34-1.2V98c0-.58.14-.85.75-1.6h-.74v-.77H17c.89,0,1.16.1,1.41.35a1.23,1.23,0,0,1,.29,1Zm-3.27-2.54H12.66a2.43,2.43,0,0,0-.53,1.4v.69c0,.45.07.63.2.76s.46.26,1.68.26,1.48,0,1.68-.26.21-.31.21-.76v-.72A2.33,2.33,0,0,0,15.38,96.39Z" transform="translate(-9.33 -8.46)"/><path class="cls-3" d="M20,94.23c-.61,0-.83-.07-1-.27a1.62,1.62,0,0,1-.35-.58l-.48-1.21a.69.69,0,0,0-.24-.37,1,1,0,0,0-.57-.11.81.81,0,0,0-.54.14c-.08.08-.11.19-.11.43v.87c0,.23,0,.32.11.4s.23.12.72.13v.49c-.66,0-.88-.09-1.06-.26a.93.93,0,0,1-.2-.7v-1a.85.85,0,0,1,.2-.67,1.18,1.18,0,0,1,.88-.27,1.21,1.21,0,0,1,.86.21,1.57,1.57,0,0,1,.38.62l.47,1.21a1.07,1.07,0,0,0,.23.37c.11.1.23.15.62.15h.23v-2.6h.42v3.07Z" transform="translate(-9.33 -8.46)"/><path class="cls-3" d="M16.38,87.83a6.29,6.29,0,0,1,2.37,1.42v.59a9.25,9.25,0,0,0-2.26-1.15,15.12,15.12,0,0,0-2.3-.1,14.94,14.94,0,0,0-2.3.1,9.06,9.06,0,0,0-2.27,1.15v-.59A6.29,6.29,0,0,1,12,87.83a19.16,19.16,0,0,1,2.2-.09A18.94,18.94,0,0,1,16.38,87.83Z" transform="translate(-9.33 -8.46)"/><path class="cls-6" d="M28.32,151.18v-2.86h.41v3.36h-5.8v-.5Z" transform="translate(-9.33 -8.46)"/><path class="cls-6" d="M26.51,147.75a2.59,2.59,0,0,1-1.12-.24,1.82,1.82,0,0,1-1.05-1.68,1.8,1.8,0,0,1,.6-1.4,2.37,2.37,0,0,1,1.6-.53h.1a2.57,2.57,0,0,1,1.13.24,1.82,1.82,0,0,1,.77.68,1.87,1.87,0,0,1,.27,1,1.77,1.77,0,0,1-.6,1.39,2.31,2.31,0,0,1-1.6.54Zm.13-.48a1.93,1.93,0,0,0,1.27-.4,1.34,1.34,0,0,0,0-2.09,2,2,0,0,0-1.31-.41h-.09a2.2,2.2,0,0,0-.9.19,1.49,1.49,0,0,0-.64.51,1.31,1.31,0,0,0-.22.76,1.25,1.25,0,0,0,.5,1,2,2,0,0,0,1.31.4Z" transform="translate(-9.33 -8.46)"/><path class="cls-6" d="M27.74,141.88l.37-.07-.39-.09-3.3-1v-.41l3.27-1,.46-.11-.42-.09-3.31-.89v-.49l4.31,1.25v.41l-3.42,1.11-.23.05.24,0,3.41,1.09V142l-4.31,1.25v-.49Z" transform="translate(-9.33 -8.46)"/><path class="cls-6" d="M28.81,135.09a1.9,1.9,0,0,1-.27,1,1.92,1.92,0,0,1-.75.69,2.46,2.46,0,0,1-1.09.25h-.17a2.4,2.4,0,0,1-1.12-.25,1.89,1.89,0,0,1-.78-.67,1.63,1.63,0,0,1-.29-.93,1.57,1.57,0,0,1,.54-1.25,2.18,2.18,0,0,1,1.46-.46h.27v3.08h.09a1.79,1.79,0,0,0,1.22-.42,1.32,1.32,0,0,0,.49-1.06,1.57,1.57,0,0,0-.14-.67,1.32,1.32,0,0,0-.45-.53l.23-.3A1.73,1.73,0,0,1,28.81,135.09Zm-4.06.09a1.21,1.21,0,0,0,.39.91,1.94,1.94,0,0,0,1.06.45V134h-.05a1.58,1.58,0,0,0-1,.35A1.12,1.12,0,0,0,24.75,135.18Z" transform="translate(-9.33 -8.46)"/><path class="cls-6" d="M24.83,130.55a1.69,1.69,0,0,0,0,.33,1.15,1.15,0,0,0,.25.75,1.34,1.34,0,0,0,.72.44h3v.48H24.42v-.47h.69a1.27,1.27,0,0,1-.77-1.21.89.89,0,0,1,.05-.32Z" transform="translate(-9.33 -8.46)"/><path class="cls-6" d="M23.17,127.84a.35.35,0,0,1-.22-.08.32.32,0,0,1-.09-.24.31.31,0,0,1,.31-.33.32.32,0,0,1,.23.09.31.31,0,0,1,.09.24.32.32,0,0,1-.09.24A.36.36,0,0,1,23.17,127.84Zm5.56-.56v.48H24.42v-.48Z" transform="translate(-9.33 -8.46)"/><path class="cls-6" d="M27.64,123.4a.68.68,0,0,0-.57.29,2,2,0,0,0-.34.86,3.6,3.6,0,0,1-.28.89,1.14,1.14,0,0,1-.38.47,1,1,0,0,1-.55.15,1.06,1.06,0,0,1-.85-.42,2,2,0,0,1,0-2.25,1.13,1.13,0,0,1,.93-.44v.48a.78.78,0,0,0-.63.31,1.44,1.44,0,0,0,0,1.56.64.64,0,0,0,.54.28.6.6,0,0,0,.5-.23,2.53,2.53,0,0,0,.33-.87,3.79,3.79,0,0,1,.31-.94,1.22,1.22,0,0,1,.4-.46,1.05,1.05,0,0,1,.57-.15,1,1,0,0,1,.88.44,1.91,1.91,0,0,1,.32,1.15,2,2,0,0,1-.36,1.22,1.14,1.14,0,0,1-.92.47v-.48a.85.85,0,0,0,.65-.36,1.45,1.45,0,0,0,.23-.85,1.32,1.32,0,0,0-.22-.81A.66.66,0,0,0,27.64,123.4Z" transform="translate(-9.33 -8.46)"/><path class="cls-6" d="M26.62,116.4a2.64,2.64,0,0,1,1.6.44,1.42,1.42,0,0,1,.59,1.2,1.56,1.56,0,0,1-.67,1.37l.59,0v.44H22.61v-.47h2.44a1.51,1.51,0,0,1-.71-1.35,1.45,1.45,0,0,1,.59-1.21,2.58,2.58,0,0,1,1.62-.44Zm-.08.47a2.26,2.26,0,0,0-1.32.34,1.07,1.07,0,0,0-.46.93,1.35,1.35,0,0,0,.22.78,1.39,1.39,0,0,0,.66.48h1.95a1.28,1.28,0,0,0,.81-1.27,1.07,1.07,0,0,0-.47-.92A2.39,2.39,0,0,0,26.54,116.87Z" transform="translate(-9.33 -8.46)"/><path class="cls-6" d="M28.81,113.67a1.9,1.9,0,0,1-.27,1,1.79,1.79,0,0,1-.75.69,2.33,2.33,0,0,1-1.09.25h-.17a2.52,2.52,0,0,1-1.12-.24,2,2,0,0,1-.78-.67,1.68,1.68,0,0,1-.29-.94,1.54,1.54,0,0,1,.54-1.24,2.13,2.13,0,0,1,1.46-.46h.27v3.07h.09a1.79,1.79,0,0,0,1.22-.42,1.32,1.32,0,0,0,.49-1.06,1.57,1.57,0,0,0-.14-.67,1.39,1.39,0,0,0-.45-.53l.23-.3A1.73,1.73,0,0,1,28.81,113.67Zm-4.06.09a1.21,1.21,0,0,0,.39.91,1.94,1.94,0,0,0,1.06.45v-2.59h-.05a1.53,1.53,0,0,0-1,.36A1.08,1.08,0,0,0,24.75,113.76Z" transform="translate(-9.33 -8.46)"/><path class="cls-6" d="M23.32,110.39h1.1v-.9h.39v.9h2.88a.91.91,0,0,0,.53-.13.51.51,0,0,0,.18-.44c0-.07,0-.2,0-.38l.39,0a1.69,1.69,0,0,1,.06.51.84.84,0,0,1-.28.71,1.34,1.34,0,0,1-.84.22H24.81v.8h-.39v-.8h-1.1Z" transform="translate(-9.33 -8.46)"/><path class="cls-6" d="M23.32,107.76h1.1v-.89h.39v.89h2.88a.84.84,0,0,0,.53-.13.49.49,0,0,0,.18-.43c0-.08,0-.21,0-.38l.39,0a1.69,1.69,0,0,1,.06.51.85.85,0,0,1-.28.71,1.34,1.34,0,0,1-.84.22H24.81v.8h-.39v-.8h-1.1Z" transform="translate(-9.33 -8.46)"/><path class="cls-6" d="M28.81,104.21a1.9,1.9,0,0,1-.27,1,1.92,1.92,0,0,1-.75.69,2.46,2.46,0,0,1-1.09.25h-.17a2.4,2.4,0,0,1-1.12-.25,1.89,1.89,0,0,1-.78-.67,1.63,1.63,0,0,1-.29-.93,1.54,1.54,0,0,1,.54-1.24,2.13,2.13,0,0,1,1.46-.46h.27v3.07h.09a1.79,1.79,0,0,0,1.22-.42,1.32,1.32,0,0,0,.49-1.06,1.57,1.57,0,0,0-.14-.67,1.39,1.39,0,0,0-.45-.53l.23-.3A1.73,1.73,0,0,1,28.81,104.21Zm-4.06.09a1.21,1.21,0,0,0,.39.91,1.94,1.94,0,0,0,1.06.45v-2.59h-.05a1.58,1.58,0,0,0-1,.35A1.12,1.12,0,0,0,24.75,104.3Z" transform="translate(-9.33 -8.46)"/><path class="cls-6" d="M24.83,99.67a1.69,1.69,0,0,0,0,.33,1.13,1.13,0,0,0,.25.75,1.34,1.34,0,0,0,.72.44h3v.48H24.42v-.47h.69a1.27,1.27,0,0,1-.77-1.21.89.89,0,0,1,.05-.32Z" transform="translate(-9.33 -8.46)"/><rect class="cls-4" x="47.45" y="61.32" width="8.26" height="8.4"/><rect class="cls-5" x="47.45" y="47.61" width="8.26" height="8.4"/><path class="cls-3" d="M74.14,61.08a1.34,1.34,0,0,1-.9.22H71.56v1.84H70.32V57.72h2.92a1.34,1.34,0,0,1,.9.22c.25.23.46.57.46,1.58S74.38,60.86,74.14,61.08Zm-1.38-.77c.28,0,.36,0,.41-.06s.16-.22.16-.74-.08-.66-.16-.73-.13-.07-.41-.07h-1.2v1.6Z" transform="translate(-9.33 -8.46)"/><path class="cls-3" d="M79.87,60.93c0,1.28-.13,1.6-.41,1.89s-.58.32-1.27.32H77c-.68,0-1-.07-1.25-.31s-.41-.62-.41-1.9V57.72h1.23V61c0,.75.07.86.15,1s.2.11.63.11h.49c.41,0,.54,0,.61-.11s.14-.2.14-1V57.72h1.24Z" transform="translate(-9.33 -8.46)"/><path class="cls-3" d="M83.89,61.2c-.09-.08-.2-.11-.51-.11H82.24v2H81V57.72h3.13A1.19,1.19,0,0,1,85,58c.22.23.34.51.34,1.3,0,1-.27,1.26-.89,1.37h0c.55.12.82.27.84,1.06s0,1.14.08,1.43H84.14c0-.36-.08-.8-.1-1.34S84,61.28,83.89,61.2Zm-.33-1a.67.67,0,0,0,.38-.07c.07-.08.14-.23.14-.67s-.07-.58-.14-.65-.13-.06-.38-.06H82.24v1.45Z" transform="translate(-9.33 -8.46)"/><path class="cls-3" d="M86.46,63.14V57.72H87.7v5.42Z" transform="translate(-9.33 -8.46)"/><path class="cls-3" d="M91.83,57.72a1.29,1.29,0,0,1,1,.25c.28.27.42.59.44,1.54H92.05c0-.55-.1-.66-.17-.72s-.11-.07-.36-.07h-1c-.25,0-.31,0-.36.07S90,59.1,90,60.43s.11,1.58.19,1.65.11.07.36.07h1c.23,0,.3,0,.35-.07s.18-.28.18-.8v-.15H90.89V60.2h2.39v.67c0,1.25-.2,1.72-.49,2a1.24,1.24,0,0,1-1,.27H90.2c-.53,0-.77-.07-1-.26s-.52-.79-.52-2.45.22-2.16.52-2.44a1.21,1.21,0,0,1,1-.27Z" transform="translate(-9.33 -8.46)"/><path class="cls-3" d="M98.22,63.14h-4V57.72h4v1H95.48v1.16h2.14v1H95.48v1.3h2.74Z" transform="translate(-9.33 -8.46)"/><path class="cls-3" d="M103.77,63.14h-1a.51.51,0,0,1-.54-.32l-1.83-3.35h-.08v3.67H99.14V57.72h1.16a.51.51,0,0,1,.55.33l1.66,3.09h.08V57.72h1.18Z" transform="translate(-9.33 -8.46)"/><path class="cls-3" d="M73.31,75.34H71.48l-.39,1.35H69.85L71.5,71.6c.1-.29.15-.35.43-.35h1c.28,0,.34.07.44.35L75,76.69H73.71Zm-1.55-.94H73l-.59-2h-.1Z" transform="translate(-9.33 -8.46)"/><path class="cls-3" d="M79.37,72.43v4.26H78.2v-.57c-.53.49-.71.58-1.08.58h-.51a.94.94,0,0,1-.75-.25c-.17-.17-.25-.4-.25-1v-3h1.17V75.3a.46.46,0,0,0,.09.35c.07.07.14.09.34.09h.34a1.45,1.45,0,0,0,.65-.17V72.43Z" transform="translate(-9.33 -8.46)"/><path class="cls-3" d="M82.82,76.52l-.41.11a3.27,3.27,0,0,1-.8.1,1,1,0,0,1-.75-.24c-.14-.14-.19-.33-.19-.76V73.36H80v-.93h.64V71.37h1.17v1.06h1v.93h-1v2c0,.19,0,.25,0,.29s.11,0,.3,0h.63Z" transform="translate(-9.33 -8.46)"/><path class="cls-3" d="M83.89,76.42c-.27-.27-.38-.66-.38-1.86s.11-1.59.38-1.87a1,1,0,0,1,.83-.26h1.41a1,1,0,0,1,.83.26c.27.28.38.66.38,1.87s-.11,1.59-.38,1.86a1,1,0,0,1-.83.27H84.72A1,1,0,0,1,83.89,76.42Zm.87-.75c0,.07.11.08.31.08h.72c.19,0,.25,0,.3-.08s.1-.2.1-1.11,0-1-.1-1.12-.11-.07-.3-.07h-.72c-.2,0-.26,0-.31.07s-.1.21-.1,1.12S84.7,75.61,84.76,75.67Z" transform="translate(-9.33 -8.46)"/><path class="cls-3" d="M89.4,72.43V73c.54-.5.71-.58,1.09-.58h.36a1,1,0,0,1,.74.24.76.76,0,0,1,.2.38c.57-.53.74-.62,1.14-.62h.35a1,1,0,0,1,.74.24c.18.17.25.4.25,1v3H93.09V73.82a.47.47,0,0,0-.09-.35c-.07-.07-.14-.1-.35-.1h-.19a1.33,1.33,0,0,0-.63.17v3.15H90.67V73.82a.47.47,0,0,0-.09-.35c-.06-.07-.14-.1-.35-.1h-.18a1.74,1.74,0,0,0-.65.17v3.15H88.24V72.43Z" transform="translate(-9.33 -8.46)"/><path class="cls-3" d="M95.55,72.67a.89.89,0,0,1,.74-.24h1.52a1.07,1.07,0,0,1,.82.24c.19.19.25.42.25,1.14v2.88H97.72V76.2c-.5.42-.68.5-1,.5H96.1a.89.89,0,0,1-.73-.22,1.26,1.26,0,0,1-.25-1,1.47,1.47,0,0,1,.26-1c.19-.19.43-.29,1.18-.29a5.21,5.21,0,0,1,1.16.13V74c0-.42,0-.51-.07-.57a.51.51,0,0,0-.31-.06h-.59a.46.46,0,0,0-.29.06c-.06.06-.06.15-.08.4H95.29C95.3,73.09,95.37,72.84,95.55,72.67Zm2.17,3v-.71H97c-.44,0-.55,0-.62.1s-.1.17-.1.37,0,.33.08.39.14.07.3.07h.32A1.4,1.4,0,0,0,97.72,75.63Z" transform="translate(-9.33 -8.46)"/><path class="cls-3" d="M102.33,76.52l-.41.11a3.27,3.27,0,0,1-.8.1.94.94,0,0,1-.75-.24c-.14-.14-.19-.33-.19-.76V73.36h-.65v-.93h.65V71.37h1.17v1.06h1v.93h-1v2c0,.19,0,.25.05.29s.11,0,.3,0h.63Z" transform="translate(-9.33 -8.46)"/><path class="cls-3" d="M104.15,74.83c0,.67,0,.85.1.91s.17.07.37.07h.7c.24,0,.3,0,.35-.07a1.25,1.25,0,0,0,.06-.47h1.07c0,.64-.08,1-.29,1.17a.88.88,0,0,1-.74.25h-1.54a1,1,0,0,1-.83-.27c-.27-.27-.38-.61-.38-1.86s.11-1.59.38-1.87a1,1,0,0,1,.83-.26h1.41a1,1,0,0,1,.82.26c.27.27.34.61.34,1.83v.14c0,.12,0,.17-.17.17Zm0-.67h1.54c0-.57,0-.72-.09-.79s-.12-.06-.35-.06h-.63c-.2,0-.32,0-.37.07S104.16,73.57,104.15,74.16Z" transform="translate(-9.33 -8.46)"/><path class="cls-3" d="M110.27,76.69v-.55c-.53.46-.71.56-1,.56h-.44a1.08,1.08,0,0,1-.86-.27c-.25-.25-.34-.63-.34-1.87s.12-1.61.37-1.87a1.09,1.09,0,0,1,.85-.27h.45c.35,0,.54.08,1,.49V71h1.16v5.71Zm0-1.13v-2a1.35,1.35,0,0,0-.61-.17h-.42c-.21,0-.31,0-.38.1s-.13.28-.13,1.09,0,1,.13,1.09.17.09.38.09h.38A1.39,1.39,0,0,0,110.27,75.56Z" transform="translate(-9.33 -8.46)"/><path class="cls-3" d="M118.23,76.42c-.19.19-.42.27-1,.27h-1.62a1.21,1.21,0,0,1-1-.27c-.3-.29-.52-.79-.52-2.44s.22-2.16.52-2.45a1.25,1.25,0,0,1,1-.26h1.62a1.23,1.23,0,0,1,1,.26c.28.27.41.68.43,1.7h-1.19c0-.68-.09-.82-.15-.88s-.12-.08-.36-.08h-1c-.24,0-.31,0-.36.08s-.17.25-.17,1.63.1,1.56.17,1.63.12.07.36.07h1c.24,0,.31,0,.36-.07s.13-.19.15-.94h1.19C118.63,75.76,118.51,76.15,118.23,76.42Z" transform="translate(-9.33 -8.46)"/><path class="cls-3" d="M119.79,76.42c-.28-.27-.38-.66-.38-1.86s.1-1.59.38-1.87a1,1,0,0,1,.82-.26H122a1,1,0,0,1,.82.26c.28.28.38.66.38,1.87s-.1,1.59-.38,1.86a1,1,0,0,1-.82.27h-1.42A1,1,0,0,1,119.79,76.42Zm.87-.75c0,.07.1.08.3.08h.72c.2,0,.26,0,.3-.08s.1-.2.1-1.11,0-1-.1-1.12-.1-.07-.3-.07H121c-.2,0-.26,0-.3.07s-.1.21-.1,1.12S120.6,75.61,120.66,75.67Z" transform="translate(-9.33 -8.46)"/><path class="cls-3" d="M124.12,76.69V71h1.17v5.71Z" transform="translate(-9.33 -8.46)"/><path class="cls-3" d="M130,72.43v4.26h-1.17v-.57c-.53.49-.71.58-1.09.58h-.5a.94.94,0,0,1-.75-.25c-.17-.17-.25-.4-.25-1v-3h1.17V75.3a.46.46,0,0,0,.09.35c.07.07.14.09.34.09h.34a1.45,1.45,0,0,0,.65-.17V72.43Z" transform="translate(-9.33 -8.46)"/><path class="cls-3" d="M132.19,72.43V73c.54-.5.71-.58,1.09-.58h.36a1,1,0,0,1,.74.24.76.76,0,0,1,.2.38c.57-.53.74-.62,1.14-.62h.35a1,1,0,0,1,.75.24c.17.17.24.4.24,1v3h-1.18V73.82a.47.47,0,0,0-.09-.35c-.07-.07-.14-.1-.35-.1h-.19a1.29,1.29,0,0,0-.62.17v3.15h-1.16V73.82c0-.19,0-.29-.1-.35s-.14-.1-.34-.1h-.19a1.74,1.74,0,0,0-.65.17v3.15H131V72.43Z" transform="translate(-9.33 -8.46)"/><path class="cls-3" d="M138.06,76.69V72.43h1.16V73c.54-.5.7-.58,1.09-.58h.51a1,1,0,0,1,.74.24c.18.17.24.4.24,1v3h-1.16V73.82a.53.53,0,0,0-.09-.35c-.07-.06-.14-.09-.35-.09h-.32a1.49,1.49,0,0,0-.66.18v3.13Z" transform="translate(-9.33 -8.46)"/><path class="cls-3" d="M142.69,74.68v-1h2.24v1Z" transform="translate(-9.33 -8.46)"/><path class="cls-3" d="M145.83,71H147v2c.52-.47.69-.56,1-.56h.44a1.06,1.06,0,0,1,.87.27c.24.24.34.62.34,1.87s-.12,1.61-.37,1.86a1.07,1.07,0,0,1-.85.28H148c-.35,0-.54-.08-1-.49v.48h-1.16ZM147,73.54v2a1.3,1.3,0,0,0,.62.16H148c.21,0,.31,0,.38-.09s.13-.28.13-1.09,0-1-.13-1.09-.17-.1-.38-.1h-.4A1.45,1.45,0,0,0,147,73.54Z" transform="translate(-9.33 -8.46)"/><path class="cls-3" d="M150.86,72.67a.92.92,0,0,1,.74-.24h1.52a1.11,1.11,0,0,1,.83.24c.18.19.25.42.25,1.14v2.88H153V76.2c-.5.42-.69.5-1.06.5h-.57a.9.9,0,0,1-.73-.22c-.15-.15-.24-.4-.24-1a1.47,1.47,0,0,1,.25-1c.19-.19.44-.29,1.19-.29a5.35,5.35,0,0,1,1.16.13V74c0-.42,0-.51-.08-.57a.47.47,0,0,0-.3-.06h-.59c-.16,0-.25,0-.29.06s-.07.15-.09.4H150.6C150.61,73.09,150.69,72.84,150.86,72.67Zm2.18,3v-.71h-.77c-.44,0-.55,0-.62.1s-.09.17-.09.37,0,.33.07.39.15.07.3.07h.32A1.41,1.41,0,0,0,153,75.63Z" transform="translate(-9.33 -8.46)"/><path class="cls-3" d="M158.41,76.5a.8.8,0,0,1-.61.19H156a1,1,0,0,1-.73-.2c-.16-.17-.24-.4-.25-1.16h1c0,.32,0,.39.06.44s.08,0,.22,0h1c.14,0,.2,0,.23,0s0-.1,0-.33,0-.27-.06-.31-.09-.06-.28-.08l-1.36-.16a1,1,0,0,1-.61-.22c-.16-.17-.21-.37-.21-1a1.48,1.48,0,0,1,.29-1.08.78.78,0,0,1,.61-.19h1.66a1,1,0,0,1,.72.19c.16.17.22.41.24,1.13h-1c0-.31,0-.35-.06-.4s-.09,0-.22,0h-.87c-.13,0-.19,0-.22,0s-.06.1-.06.3,0,.26.06.31.09,0,.28.07l1.4.17a.89.89,0,0,1,.59.21c.15.16.2.44.2,1A1.53,1.53,0,0,1,158.41,76.5Z" transform="translate(-9.33 -8.46)"/><path class="cls-3" d="M160.58,74.83a2.22,2.22,0,0,0,.1.91c.06.06.18.07.37.07h.71c.23,0,.29,0,.34-.07s.05-.17.06-.47h1.07c0,.64-.08,1-.28,1.17a.91.91,0,0,1-.74.25h-1.55a1,1,0,0,1-.83-.27c-.27-.27-.38-.61-.38-1.86s.11-1.59.38-1.87a1,1,0,0,1,.83-.26h1.41a1,1,0,0,1,.83.26c.27.27.33.61.33,1.83v.14c0,.12,0,.17-.17.17Zm0-.67h1.54c0-.57,0-.72-.09-.79s-.11-.06-.35-.06h-.63c-.19,0-.31,0-.37.07S160.59,73.57,160.58,74.16Z" transform="translate(-9.33 -8.46)"/><path class="cls-3" d="M166.7,76.69v-.55c-.52.46-.7.56-1,.56h-.43a1.07,1.07,0,0,1-.86-.27c-.25-.25-.35-.63-.35-1.87s.12-1.61.38-1.87a1,1,0,0,1,.84-.27h.45c.35,0,.54.08,1,.49V71h1.16v5.71Zm0-1.13v-2a1.32,1.32,0,0,0-.61-.17h-.41c-.21,0-.31,0-.38.1s-.14.28-.14,1.09,0,1,.14,1.09.17.09.38.09h.38A1.39,1.39,0,0,0,166.7,75.56Z" transform="translate(-9.33 -8.46)"/><path class="cls-3" d="M175.31,71.27l-2,2.55,2,2.87h-1.45l-1.59-2.3H172v2.3h-1.24V71.27H172v2.16h.32l1.61-2.16Z" transform="translate(-9.33 -8.46)"/><path class="cls-3" d="M177.15,71.84h-1.26v-1h1.26Zm-.05,4.85H176V72.43h1.15Z" transform="translate(-9.33 -8.46)"/><path class="cls-3" d="M180.56,76.52l-.41.11a3.43,3.43,0,0,1-.81.1,1,1,0,0,1-.75-.24c-.13-.14-.19-.33-.19-.76V73.36h-.64v-.93h.64V71.37h1.17v1.06h1v.93h-1v2c0,.19,0,.25.05.29s.12,0,.31,0h.63Z" transform="translate(-9.33 -8.46)"/><line class="cls-7" x1="171.53" y1="84.3" x2="162.08" y2="84.3"/><line class="cls-8" x1="160.82" y1="86.02" x2="160.82" y2="115.27"/><line class="cls-7" x1="162.71" y1="116.41" x2="172.16" y2="116.41"/><path class="cls-9" d="M182.12,124.88h.63m-12.6-.58v.58h.63m0-32.12h-.63v.57m12.6-.57h-.63" transform="translate(-9.33 -8.46)"/><path class="cls-3" d="M112.35,110.08H110.1l-.47,1.35h-1l2.2-5.8h.9l2.2,5.8h-1.06Zm-2-.81h1.69l-.84-2.41Z" transform="translate(-9.33 -8.46)"/><path class="cls-3" d="M114.26,109.24a2.55,2.55,0,0,1,.46-1.6A1.49,1.49,0,0,1,116,107a1.4,1.4,0,0,1,1.11.48v-2.21h1v6.12h-.88l0-.45a1.43,1.43,0,0,1-1.16.53,1.46,1.46,0,0,1-1.22-.61A2.62,2.62,0,0,1,114.26,109.24Zm1,.08a1.8,1.8,0,0,0,.25,1,.82.82,0,0,0,.72.37.91.91,0,0,0,.87-.53v-1.84a.9.9,0,0,0-.86-.52.82.82,0,0,0-.73.37A2,2,0,0,0,115.23,109.32Z" transform="translate(-9.33 -8.46)"/><path class="cls-3" d="M120.57,110.2l.91-3.08h1L121,111.43h-.84l-1.51-4.31h1Z" transform="translate(-9.33 -8.46)"/><path class="cls-3" d="M125.6,111.43a1.55,1.55,0,0,1-.11-.4,1.63,1.63,0,0,1-2.19.11,1.2,1.2,0,0,1-.41-.92,1.23,1.23,0,0,1,.51-1.06,2.53,2.53,0,0,1,1.47-.37h.59v-.28a.69.69,0,0,0-.76-.74.85.85,0,0,0-.54.17.51.51,0,0,0-.21.42h-1a1,1,0,0,1,.24-.66,1.52,1.52,0,0,1,.64-.49,2.37,2.37,0,0,1,.9-.17,1.79,1.79,0,0,1,1.21.38,1.36,1.36,0,0,1,.46,1.07v1.94a2.19,2.19,0,0,0,.16.93v.07Zm-1.06-.7a1,1,0,0,0,.54-.14.91.91,0,0,0,.38-.37v-.82h-.52a1.47,1.47,0,0,0-.81.19.61.61,0,0,0-.27.53.58.58,0,0,0,.18.45A.73.73,0,0,0,124.54,110.73Z" transform="translate(-9.33 -8.46)"/><path class="cls-3" d="M128.34,107.12l0,.49a1.57,1.57,0,0,1,1.26-.57c.89,0,1.35.51,1.37,1.54v2.85h-1v-2.8a.86.86,0,0,0-.18-.6.75.75,0,0,0-.58-.2.93.93,0,0,0-.87.53v3.07h-1v-4.31Z" transform="translate(-9.33 -8.46)"/><path class="cls-3" d="M133.2,106.07v1.05H134v.71h-.76v2.41a.56.56,0,0,0,.09.36.49.49,0,0,0,.35.11,2,2,0,0,0,.34,0v.75a2.41,2.41,0,0,1-.64.09q-1.11,0-1.11-1.23v-2.45h-.71v-.71h.71v-1.05Z" transform="translate(-9.33 -8.46)"/><path class="cls-3" d="M137.27,111.43a1.55,1.55,0,0,1-.11-.4,1.63,1.63,0,0,1-2.19.11,1.2,1.2,0,0,1-.41-.92,1.23,1.23,0,0,1,.51-1.06,2.53,2.53,0,0,1,1.47-.37h.59v-.28a.69.69,0,0,0-.76-.74.85.85,0,0,0-.54.17.51.51,0,0,0-.21.42h-1a1,1,0,0,1,.24-.66,1.52,1.52,0,0,1,.64-.49,2.37,2.37,0,0,1,.9-.17,1.79,1.79,0,0,1,1.21.38,1.36,1.36,0,0,1,.46,1.07v1.94a2.19,2.19,0,0,0,.16.93v.07Zm-1.06-.7a1,1,0,0,0,.54-.14.91.91,0,0,0,.38-.37v-.82h-.52a1.47,1.47,0,0,0-.81.19.61.61,0,0,0-.27.53.58.58,0,0,0,.18.45A.73.73,0,0,0,136.21,110.73Z" transform="translate(-9.33 -8.46)"/><path class="cls-3" d="M138.94,109.24a2.48,2.48,0,0,1,.48-1.6,1.5,1.5,0,0,1,1.25-.6,1.43,1.43,0,0,1,1.16.51l0-.43h.88v4.18a1.76,1.76,0,0,1-.53,1.34,2,2,0,0,1-1.43.49,2.31,2.31,0,0,1-.92-.2,1.62,1.62,0,0,1-.69-.52l.46-.58a1.36,1.36,0,0,0,1.1.53,1,1,0,0,0,.76-.26,1,1,0,0,0,.28-.77V111a1.43,1.43,0,0,1-1.12.47,1.52,1.52,0,0,1-1.24-.6A2.61,2.61,0,0,1,138.94,109.24Zm1,.08a1.8,1.8,0,0,0,.26,1,.85.85,0,0,0,.74.37.94.94,0,0,0,.87-.5v-1.9a.92.92,0,0,0-.86-.49.88.88,0,0,0-.75.38A2,2,0,0,0,139.91,109.32Z" transform="translate(-9.33 -8.46)"/><path class="cls-3" d="M145.64,111.51a2,2,0,0,1-1.49-.58,2.12,2.12,0,0,1-.58-1.55v-.11a2.71,2.71,0,0,1,.25-1.16,1.92,1.92,0,0,1,.7-.79,1.85,1.85,0,0,1,1-.28,1.71,1.71,0,0,1,1.36.56,2.36,2.36,0,0,1,.48,1.59v.39h-2.82a1.26,1.26,0,0,0,.36.84,1.07,1.07,0,0,0,.79.32,1.31,1.31,0,0,0,1.08-.54l.52.5a1.84,1.84,0,0,1-.69.6A2.19,2.19,0,0,1,145.64,111.51Zm-.12-3.7a.83.83,0,0,0-.64.28,1.46,1.46,0,0,0-.31.78h1.84v-.07a1.13,1.13,0,0,0-.26-.74A.83.83,0,0,0,145.52,107.81Z" transform="translate(-9.33 -8.46)"/><path class="cls-3" d="M150,109.23a2.65,2.65,0,0,1,.25-1.14,1.86,1.86,0,0,1,.71-.78,2,2,0,0,1,1-.27,1.91,1.91,0,0,1,1.42.56,2.22,2.22,0,0,1,.59,1.49v.23a2.64,2.64,0,0,1-.24,1.14,1.83,1.83,0,0,1-.71.77,1.92,1.92,0,0,1-1.05.28,1.85,1.85,0,0,1-1.46-.61,2.29,2.29,0,0,1-.55-1.62Zm1,.09a1.69,1.69,0,0,0,.28,1,.88.88,0,0,0,.76.38.87.87,0,0,0,.76-.39,1.85,1.85,0,0,0,.28-1.12,1.75,1.75,0,0,0-.28-1,.94.94,0,0,0-1.52,0A1.86,1.86,0,0,0,150.94,109.32Z" transform="translate(-9.33 -8.46)"/><path class="cls-3" d="M155.14,111.43v-3.6h-.66v-.71h.66v-.4a1.47,1.47,0,0,1,.4-1.11,1.54,1.54,0,0,1,1.12-.39,2.14,2.14,0,0,1,.54.08l0,.75a2,2,0,0,0-.37,0,.62.62,0,0,0-.69.71v.39H157v.71h-.88v3.6Z" transform="translate(-9.33 -8.46)"/><path class="cls-3" d="M82.25,120.76a1.55,1.55,0,0,1-.11-.4,1.52,1.52,0,0,1-1.13.48,1.49,1.49,0,0,1-1.06-.37,1.19,1.19,0,0,1-.42-.92,1.24,1.24,0,0,1,.52-1.06,2.52,2.52,0,0,1,1.46-.37h.6v-.28a.81.81,0,0,0-.19-.54.77.77,0,0,0-.57-.2.85.85,0,0,0-.54.17.51.51,0,0,0-.21.42h-1a1.08,1.08,0,0,1,.23-.66,1.59,1.59,0,0,1,.64-.49,2.19,2.19,0,0,1,.9-.17,1.77,1.77,0,0,1,1.21.38,1.33,1.33,0,0,1,.46,1.07v1.94a2.18,2.18,0,0,0,.17.93v.07Zm-1.07-.7a1.1,1.1,0,0,0,.93-.51v-.82h-.53a1.47,1.47,0,0,0-.81.19.61.61,0,0,0-.27.53.59.59,0,0,0,.19.45A.71.71,0,0,0,81.18,120.06Z" transform="translate(-9.33 -8.46)"/><path class="cls-3" d="M87.86,118.65a2.57,2.57,0,0,1-.45,1.59,1.45,1.45,0,0,1-1.22.6,1.49,1.49,0,0,1-1.14-.47v2h-1v-6H85l0,.43a1.43,1.43,0,0,1,1.16-.51,1.48,1.48,0,0,1,1.24.58,2.66,2.66,0,0,1,.44,1.64Zm-1-.09a1.79,1.79,0,0,0-.26-1,.83.83,0,0,0-.73-.38.9.9,0,0,0-.86.49v1.91a.91.91,0,0,0,.87.51.84.84,0,0,0,.72-.38A2,2,0,0,0,86.9,118.56Z" transform="translate(-9.33 -8.46)"/><path class="cls-3" d="M92.46,118.65a2.57,2.57,0,0,1-.45,1.59,1.58,1.58,0,0,1-2.36.13v2h-1v-6h.89l0,.43a1.44,1.44,0,0,1,1.16-.51A1.47,1.47,0,0,1,92,117a2.66,2.66,0,0,1,.45,1.64Zm-1-.09a1.79,1.79,0,0,0-.26-1,.85.85,0,0,0-.74-.38.88.88,0,0,0-.85.49v1.91a.9.9,0,0,0,.86.51.82.82,0,0,0,.72-.38A1.92,1.92,0,0,0,91.5,118.56Z" transform="translate(-9.33 -8.46)"/><path class="cls-3" d="M95.54,117.33a2.6,2.6,0,0,0-.4,0,.88.88,0,0,0-.89.51v3h-1v-4.31h.92l0,.48a1.07,1.07,0,0,1,1-.56.84.84,0,0,1,.34,0Z" transform="translate(-9.33 -8.46)"/><path class="cls-3" d="M95.83,118.56a2.51,2.51,0,0,1,.25-1.14,1.84,1.84,0,0,1,.7-.78,2.05,2.05,0,0,1,1-.27,1.88,1.88,0,0,1,1.42.56,2.21,2.21,0,0,1,.58,1.49v.23a2.51,2.51,0,0,1-.25,1.14,1.74,1.74,0,0,1-.7.77,1.92,1.92,0,0,1-1,.28,1.85,1.85,0,0,1-1.46-.61,2.31,2.31,0,0,1-.55-1.62Zm1,.09a1.76,1.76,0,0,0,.27,1,.91.91,0,0,0,.77.38.88.88,0,0,0,.76-.39,1.93,1.93,0,0,0,.27-1.12,1.68,1.68,0,0,0-.28-1,.89.89,0,0,0-.76-.39.88.88,0,0,0-.75.38A1.86,1.86,0,0,0,96.8,118.65Z" transform="translate(-9.33 -8.46)"/><path class="cls-3" d="M102.12,117.87l.82-1.42H104l-1.32,2.12,1.36,2.19H103l-.86-1.48-.86,1.48H100.2l1.37-2.19-1.32-2.12h1.07Z" transform="translate(-9.33 -8.46)"/><path class="cls-3" d="M104.68,115.33a.51.51,0,0,1,.14-.37.54.54,0,0,1,.41-.15.52.52,0,0,1,.4.15.48.48,0,0,1,.15.37.49.49,0,0,1-.15.36.52.52,0,0,1-.4.15.54.54,0,0,1-.41-.15A.52.52,0,0,1,104.68,115.33Zm1,5.43h-1v-4.31h1Z" transform="translate(-9.33 -8.46)"/><path class="cls-3" d="M107.68,116.45l0,.45a1.55,1.55,0,0,1,1.25-.53,1.19,1.19,0,0,1,1.18.66,1.52,1.52,0,0,1,1.32-.66,1.38,1.38,0,0,1,1.07.39,1.72,1.72,0,0,1,.35,1.17v2.83h-1V118a.86.86,0,0,0-.18-.6.75.75,0,0,0-.59-.19.8.8,0,0,0-.54.18.89.89,0,0,0-.29.46v3h-1v-2.84a.68.68,0,0,0-.77-.76.86.86,0,0,0-.83.47v3.13h-1v-4.31Z" transform="translate(-9.33 -8.46)"/><path class="cls-3" d="M116.44,120.76a1.55,1.55,0,0,1-.11-.4,1.63,1.63,0,0,1-2.19.11,1.22,1.22,0,0,1-.41-.92,1.23,1.23,0,0,1,.51-1.06,2.53,2.53,0,0,1,1.47-.37h.59v-.28a.76.76,0,0,0-.19-.54.74.74,0,0,0-.57-.2.85.85,0,0,0-.54.17.51.51,0,0,0-.21.42h-1a1,1,0,0,1,.24-.66,1.52,1.52,0,0,1,.64-.49,2.19,2.19,0,0,1,.9-.17,1.79,1.79,0,0,1,1.21.38,1.36,1.36,0,0,1,.46,1.07v1.94a2.19,2.19,0,0,0,.16.93v.07Zm-1.06-.7a1,1,0,0,0,.54-.14.91.91,0,0,0,.38-.37v-.82h-.52a1.47,1.47,0,0,0-.81.19.61.61,0,0,0-.27.53.58.58,0,0,0,.18.45A.73.73,0,0,0,115.38,120.06Z" transform="translate(-9.33 -8.46)"/><path class="cls-3" d="M119.5,115.4v1h.76v.71h-.76v2.41a.58.58,0,0,0,.09.36.49.49,0,0,0,.35.11,2,2,0,0,0,.34,0v.75a2.41,2.41,0,0,1-.64.09q-1.11,0-1.11-1.23v-2.45h-.71v-.71h.71v-1Z" transform="translate(-9.33 -8.46)"/><path class="cls-3" d="M122.9,120.84a2,2,0,0,1-1.5-.58,2.12,2.12,0,0,1-.57-1.55v-.11a2.54,2.54,0,0,1,.25-1.16,1.92,1.92,0,0,1,.7-.79,1.82,1.82,0,0,1,1-.28,1.69,1.69,0,0,1,1.37.56,2.36,2.36,0,0,1,.48,1.59v.39h-2.82a1.3,1.3,0,0,0,.35.84,1.09,1.09,0,0,0,.79.32,1.31,1.31,0,0,0,1.09-.54l.52.5a1.92,1.92,0,0,1-.69.6A2.22,2.22,0,0,1,122.9,120.84Zm-.12-3.7a.82.82,0,0,0-.64.28,1.47,1.47,0,0,0-.32.78h1.85v-.07a1.19,1.19,0,0,0-.26-.74A.83.83,0,0,0,122.78,117.14Z" transform="translate(-9.33 -8.46)"/><path class="cls-3" d="M126.41,120.76h-1v-6.12h1Z" transform="translate(-9.33 -8.46)"/><path class="cls-3" d="M129,119.37l.88-2.92h1l-1.71,5a1.4,1.4,0,0,1-1.34,1.09,1.67,1.67,0,0,1-.47-.07v-.75h.18a.91.91,0,0,0,.55-.14.82.82,0,0,0,.3-.44l.14-.37L127,116.45h1Z" transform="translate(-9.33 -8.46)"/><path class="cls-3" d="M137.93,117.63a1.7,1.7,0,0,1-.38,1.14,1.18,1.18,0,0,1-.94.45,1.42,1.42,0,0,1-.55-.11,2.58,2.58,0,0,1-.55-.39,4.15,4.15,0,0,0-.44-.34.73.73,0,0,0-.29-.07.49.49,0,0,0-.42.21.91.91,0,0,0-.15.54h-.77a1.68,1.68,0,0,1,.36-1.11,1.18,1.18,0,0,1,.95-.44,1.31,1.31,0,0,1,.56.12,2.13,2.13,0,0,1,.56.38,2.79,2.79,0,0,0,.42.33.68.68,0,0,0,.29.06.5.5,0,0,0,.43-.22.9.9,0,0,0,.17-.55Z" transform="translate(-9.33 -8.46)"/><path class="cls-3" d="M140,117.42h.59a1.07,1.07,0,0,0,.71-.24.83.83,0,0,0,.26-.65.9.9,0,0,0-.22-.65.87.87,0,0,0-.66-.23.91.91,0,0,0-.64.23.74.74,0,0,0-.26.59h-1a1.56,1.56,0,0,1,.23-.82,1.64,1.64,0,0,1,.67-.57,2.07,2.07,0,0,1,1-.2,2,2,0,0,1,1.36.43,1.55,1.55,0,0,1,.5,1.22,1.26,1.26,0,0,1-.25.73,1.58,1.58,0,0,1-.65.52,1.38,1.38,0,0,1,.73.52,1.36,1.36,0,0,1,.25.83,1.57,1.57,0,0,1-.54,1.25,2.35,2.35,0,0,1-2.78,0,1.48,1.48,0,0,1-.53-1.19h1a.79.79,0,0,0,.26.63,1,1,0,0,0,.69.24,1,1,0,0,0,.71-.24.91.91,0,0,0,.26-.7.87.87,0,0,0-.28-.7,1.11,1.11,0,0,0-.8-.25H140Z" transform="translate(-9.33 -8.46)"/><path class="cls-3" d="M150.08,118.87a2.06,2.06,0,0,1-.68,1.45,2.33,2.33,0,0,1-1.59.52,2.25,2.25,0,0,1-1.22-.33,2.16,2.16,0,0,1-.82-.94,3.39,3.39,0,0,1-.3-1.4v-.54a3.47,3.47,0,0,1,.29-1.45,2.2,2.2,0,0,1,.84-1,2.29,2.29,0,0,1,1.26-.34,2.21,2.21,0,0,1,1.54.52,2.13,2.13,0,0,1,.68,1.47h-1a1.45,1.45,0,0,0-.36-.9,1.2,1.2,0,0,0-.86-.28,1.17,1.17,0,0,0-1,.48,2.33,2.33,0,0,0-.36,1.41v.51a2.6,2.6,0,0,0,.33,1.44,1.14,1.14,0,0,0,1,.5,1.3,1.3,0,0,0,.89-.27,1.39,1.39,0,0,0,.38-.89Z" transform="translate(-9.33 -8.46)"/><path class="cls-3" d="M153.06,120.57H152v2.91h-.58v-2.91h-1v-.48h2.69Z" transform="translate(-9.33 -8.46)"/><path class="cls-3" d="M155.9,119.59a.45.45,0,0,0-.22-.4A2.29,2.29,0,0,0,155,119a3.45,3.45,0,0,1-.82-.26,1.11,1.11,0,0,1-.73-1,1.16,1.16,0,0,1,.47-.93,2.19,2.19,0,0,1,2.45,0,1.19,1.19,0,0,1,.48,1h-1a.57.57,0,0,0-.21-.46.77.77,0,0,0-.55-.19.84.84,0,0,0-.52.15.47.47,0,0,0-.2.39.39.39,0,0,0,.19.35,2.41,2.41,0,0,0,.75.25,3.36,3.36,0,0,1,.9.3,1.23,1.23,0,0,1,.48.41,1,1,0,0,1,.16.59,1.14,1.14,0,0,1-.48,1,2.1,2.1,0,0,1-1.27.36,2.32,2.32,0,0,1-.94-.19,1.64,1.64,0,0,1-.65-.53,1.26,1.26,0,0,1-.23-.72h.94a.68.68,0,0,0,.26.53,1,1,0,0,0,.63.18,1.07,1.07,0,0,0,.59-.14A.47.47,0,0,0,155.9,119.59Z" transform="translate(-9.33 -8.46)"/><line class="cls-10" x1="152" y1="100.36" x2="160.67" y2="100.36"/><path class="cls-3" d="M149.71,17.74h-1.52V15.5c-.62.53-.86.63-1.32.63h-.6a1.4,1.4,0,0,1-1.11-.35c-.33-.33-.49-.84-.49-2.44s.13-2.12.46-2.44a1.37,1.37,0,0,1,1.12-.35h.57c.46,0,.68.13,1.37.73v-.72h1.52Zm-1.52-3.06V12a1.83,1.83,0,0,0-.82-.23h-.52c-.28,0-.41,0-.5.13s-.17.39-.17,1.42,0,1.29.17,1.43.22.12.5.12h.52A1.87,1.87,0,0,0,148.19,14.68Z" transform="translate(-9.33 -8.46)"/><path class="cls-3" d="M156.11,13.42a1.71,1.71,0,0,1-1.18.3h-2.2v2.4h-1.62V9.05h3.82a1.77,1.77,0,0,1,1.18.28c.31.29.59.75.59,2.06S156.41,13.14,156.11,13.42Zm-1.82-1c.37,0,.48,0,.55-.08s.2-.28.2-1-.1-.86-.2-.95-.18-.09-.55-.09h-1.56v2.09Z" transform="translate(-9.33 -8.46)"/><path class="cls-3" d="M162.82,15.78a1.61,1.61,0,0,1-1.25.34h-2.12a1.61,1.61,0,0,1-1.25-.34c-.4-.38-.69-1-.69-3.19s.29-2.82.69-3.2a1.61,1.61,0,0,1,1.25-.34h2.12a1.61,1.61,0,0,1,1.25.34c.36.36.53.89.55,2.22h-1.54c0-.88-.12-1.08-.2-1.16s-.16-.1-.48-.1h-1.29c-.31,0-.4,0-.47.1s-.22.34-.22,2.14.13,2,.22,2.13.16.09.47.09h1.29c.32,0,.41,0,.48-.09s.17-.25.2-1.23h1.55C163.34,14.91,163.18,15.43,162.82,15.78Z" transform="translate(-9.33 -8.46)"/><path class="cls-3" d="M168.36,13.59c-.12-.1-.26-.15-.68-.15H166.2v2.68h-1.62V9.05h4.08a1.54,1.54,0,0,1,1.17.32c.29.3.45.67.45,1.69,0,1.27-.36,1.65-1.16,1.79v0c.71.15,1.06.35,1.09,1.38,0,.84.07,1.49.11,1.87h-1.64a15.23,15.23,0,0,1-.13-1.76C168.55,13.82,168.48,13.7,168.36,13.59Zm-.44-1.37c.34,0,.44,0,.5-.09s.18-.29.18-.87-.08-.76-.18-.85-.16-.08-.5-.08H166.2v1.89Z" transform="translate(-9.33 -8.46)"/><path class="cls-3" d="M177.37,9.05a2.49,2.49,0,0,1,1.9.54c.46.46.69,1.24.69,3s-.23,2.53-.69,3a2.49,2.49,0,0,1-1.9.54h-3.29V9.05Zm.64,1.47c-.17-.16-.35-.19-.8-.19h-1.52v4.51h1.52c.44,0,.64,0,.8-.2s.29-.59.29-2.05S178.21,10.72,178,10.52Z" transform="translate(-9.33 -8.46)"/><path class="cls-3" d="M181.51,10.88a1.19,1.19,0,0,1,1-.32h2a1.4,1.4,0,0,1,1.08.32c.25.25.33.54.33,1.48v3.76h-1.52v-.63c-.65.54-.89.64-1.37.64h-.75a1.21,1.21,0,0,1-1-.28,1.67,1.67,0,0,1-.32-1.24,1.92,1.92,0,0,1,.34-1.36c.25-.25.57-.37,1.55-.37a7.14,7.14,0,0,1,1.51.16v-.49c0-.55,0-.66-.1-.74s-.16-.08-.39-.08h-.78c-.2,0-.31,0-.37.08s-.09.19-.11.52h-1.43C181.18,11.42,181.28,11.1,181.51,10.88Zm2.84,3.86v-.93h-1c-.57,0-.71,0-.81.14s-.12.22-.12.48,0,.43.1.51.19.09.39.09h.42A1.83,1.83,0,0,0,184.35,14.74Z" transform="translate(-9.33 -8.46)"/><path class="cls-3" d="M190.38,15.91l-.54.14a4.6,4.6,0,0,1-1.05.12,1.28,1.28,0,0,1-1-.3c-.18-.18-.24-.43-.24-1V11.78h-.85V10.56h.85V9.18h1.52v1.38h1.3v1.22h-1.3v2.68c0,.24,0,.32.07.38s.15.06.4.06h.82Z" transform="translate(-9.33 -8.46)"/><path class="cls-3" d="M191.8,10.88a1.18,1.18,0,0,1,1-.32h2a1.42,1.42,0,0,1,1.08.32c.25.25.33.54.33,1.48v3.76h-1.52v-.63c-.65.54-.89.64-1.38.64h-.74a1.19,1.19,0,0,1-1-.28,1.67,1.67,0,0,1-.32-1.24,1.92,1.92,0,0,1,.34-1.36c.25-.25.56-.37,1.54-.37a7.16,7.16,0,0,1,1.52.16v-.49c0-.55,0-.66-.1-.74s-.17-.08-.39-.08h-.78c-.21,0-.31,0-.37.08s-.09.19-.11.52h-1.43C191.47,11.42,191.57,11.1,191.8,10.88Zm2.84,3.86v-.93h-1c-.57,0-.71,0-.81.14s-.12.22-.12.48,0,.43.1.51.19.09.38.09h.43A1.83,1.83,0,0,0,194.64,14.74Z" transform="translate(-9.33 -8.46)"/><path class="cls-3" d="M200.31,16.12V11.78h-.82V10.56h.82V10.3c0-.7.09-1.06.32-1.29a1.3,1.3,0,0,1,1.07-.35h1.16V9.84h-.65c-.2,0-.25,0-.31.07s-.07.17-.07.44v.22H203v1.21h-1.11v4.34Z" transform="translate(-9.33 -8.46)"/><path class="cls-3" d="M204.15,15.78c-.36-.36-.5-.87-.5-2.44s.14-2.07.5-2.44a1.32,1.32,0,0,1,1.08-.34h1.85a1.36,1.36,0,0,1,1.08.34c.36.37.5.87.5,2.44s-.14,2.08-.5,2.44a1.33,1.33,0,0,1-1.08.34h-1.85A1.3,1.3,0,0,1,204.15,15.78Zm1.14-1c.06.08.13.1.39.1h.94c.26,0,.34,0,.4-.1s.13-.26.13-1.46S207.1,12,207,11.88s-.14-.09-.4-.09h-.94c-.26,0-.33,0-.39.09s-.13.27-.13,1.46S205.21,14.72,205.29,14.8Z" transform="translate(-9.33 -8.46)"/><path class="cls-3" d="M209.84,16.12V10.56h1.51v.85c.57-.59.85-.86,1.29-.86h.58v1.53h-.7a2.76,2.76,0,0,0-1.17.22v3.82Z" transform="translate(-9.33 -8.46)"/><path class="cls-3" d="M216.56,12.91a.76.76,0,0,1,.13-.51.48.48,0,0,1,.38-.13h.15a2,2,0,0,1,.81.2l.7.27.27-.47h.53v.64a.71.71,0,0,1-.14.5.45.45,0,0,1-.38.14h-.15a1.94,1.94,0,0,1-.81-.21l-.69-.26-.28.47h-.52Z" transform="translate(-9.33 -8.46)"/><path class="cls-3" d="M220.79,15.21a2.86,2.86,0,0,1,.44-2,2.22,2.22,0,0,1,1.09-.67L224,12c.41-.14.52-.24.58-.35a1.21,1.21,0,0,0,.12-.62.82.82,0,0,0-.14-.53c-.1-.1-.25-.12-.61-.12h-.74c-.37,0-.49.05-.58.14s-.15.36-.16.9h-1.56c0-1.17.15-1.65.47-2a1.83,1.83,0,0,1,1.33-.35h1.93a1.59,1.59,0,0,1,1.19.35,2.31,2.31,0,0,1,.47,1.65,2.1,2.1,0,0,1-.37,1.39,2.38,2.38,0,0,1-1.19.72l-1.65.59a1.24,1.24,0,0,0-.58.32c-.12.14-.16.29-.16.67v.06h4v1.32h-5.56Z" transform="translate(-9.33 -8.46)"/><path class="cls-3" d="M231.26,9.05a1.56,1.56,0,0,1,1.24.39,2,2,0,0,1,.47,1.44c0,1-.38,1.44-1,1.59v0c.67.14,1.07.61,1.07,1.67a2.06,2.06,0,0,1-.51,1.53,1.67,1.67,0,0,1-1.3.42h-2a1.7,1.7,0,0,1-1.3-.42,2.1,2.1,0,0,1-.5-1.53c0-1.06.4-1.53,1.08-1.67v0c-.63-.15-1-.63-1-1.59a2,2,0,0,1,.45-1.44,1.62,1.62,0,0,1,1.25-.39Zm-.56,5.82a.69.69,0,0,0,.52-.13,1.09,1.09,0,0,0,.17-.75c0-.44,0-.65-.17-.77s-.23-.14-.52-.14h-1a.71.71,0,0,0-.54.14c-.12.12-.17.33-.17.77s.05.62.18.75.25.13.53.13Zm0-3c.25,0,.36,0,.45-.12s.16-.31.16-.7a1,1,0,0,0-.15-.66.62.62,0,0,0-.46-.12h-1a.63.63,0,0,0-.47.12c-.11.1-.16.3-.16.66s.05.59.16.7.22.12.47.12Z" transform="translate(-9.33 -8.46)"/><path class="cls-3" d="M237.85,9.05a1.88,1.88,0,0,1,1.43.37c.41.38.74,1.11.74,3.17s-.33,2.78-.74,3.16a1.92,1.92,0,0,1-1.43.37h-1.61a1.91,1.91,0,0,1-1.42-.37c-.42-.38-.74-1.12-.74-3.16s.32-2.79.74-3.17a1.86,1.86,0,0,1,1.42-.37Zm-1.25,1.3c-.37,0-.49,0-.57.11s-.27.38-.27,2.13.16,2,.27,2.11.2.11.57.11h.9c.37,0,.48,0,.57-.11s.27-.37.27-2.11-.16-2-.27-2.13-.2-.11-.57-.11Z" transform="translate(-9.33 -8.46)"/><path class="cls-3" d="M243.62,8.66h1.52v2.62c.68-.6.91-.73,1.37-.73h.57a1.41,1.41,0,0,1,1.13.35c.32.32.45.81.45,2.44s-.16,2.11-.49,2.44a1.41,1.41,0,0,1-1.11.35h-.59c-.46,0-.72-.1-1.33-.63v.62h-1.52ZM245.14,12v2.66a1.77,1.77,0,0,0,.81.21h.54c.27,0,.4,0,.49-.12s.17-.36.17-1.43,0-1.29-.17-1.42-.22-.13-.49-.13H246A1.83,1.83,0,0,0,245.14,12Z" transform="translate(-9.33 -8.46)"/><path class="cls-3" d="M251.35,10.56v.72c.69-.6.91-.73,1.37-.73h.57a1.39,1.39,0,0,1,1.13.35c.32.32.45.84.45,2.44s-.16,2.11-.48,2.44a1.43,1.43,0,0,1-1.11.35h-.6c-.46,0-.71-.1-1.33-.63v2.24h-1.51V10.56Zm0,1.46v2.66a1.84,1.84,0,0,0,.82.21h.53c.28,0,.41,0,.5-.12s.16-.4.16-1.43,0-1.29-.16-1.42-.22-.13-.5-.13h-.52A1.9,1.9,0,0,0,251.35,12Z" transform="translate(-9.33 -8.46)"/><path class="cls-3" d="M262.43,14.36h-2.38l-.52,1.76h-1.62l2.15-6.64c.13-.38.2-.46.57-.46H262c.35,0,.43.09.56.46l2.15,6.64H263Zm-2-1.23h1.68l-.78-2.63h-.13Z" transform="translate(-9.33 -8.46)"/><path class="cls-3" d="M267,10.56v.74c.71-.64.92-.75,1.43-.75h.47a1.29,1.29,0,0,1,1,.32.85.85,0,0,1,.25.49c.75-.69,1-.81,1.49-.81h.47a1.29,1.29,0,0,1,1,.32c.23.22.32.51.32,1.33v3.92h-1.54V12.37a.61.61,0,0,0-.12-.45c-.09-.09-.19-.13-.46-.13H271a1.87,1.87,0,0,0-.83.22v4.11h-1.51V12.37a.61.61,0,0,0-.12-.45c-.09-.09-.19-.13-.46-.13h-.25A2.17,2.17,0,0,0,267,12v4.1h-1.51V10.56Z" transform="translate(-9.33 -8.46)"/><path class="cls-3" d="M276.17,10.56v.72c.68-.6.91-.73,1.37-.73h.57a1.39,1.39,0,0,1,1.13.35c.32.32.45.84.45,2.44s-.16,2.11-.49,2.44a1.4,1.4,0,0,1-1.11.35h-.59c-.46,0-.71-.1-1.33-.63v2.24h-1.52V10.56Zm0,1.46v2.66a1.84,1.84,0,0,0,.81.21h.54c.28,0,.41,0,.49-.12s.17-.4.17-1.43,0-1.29-.17-1.42-.21-.13-.49-.13H277A1.9,1.9,0,0,0,276.17,12Z" transform="translate(-9.33 -8.46)"/><path class="cls-3" d="M280.85,16.12V8.66h1.53v7.46Z" transform="translate(-9.33 -8.46)"/><path class="cls-3" d="M285.25,9.8H283.6V8.46h1.65Zm-.07,6.32h-1.5V10.56h1.5Z" transform="translate(-9.33 -8.46)"/><path class="cls-3" d="M291.12,14c0,1.1-.08,1.5-.37,1.8a1.21,1.21,0,0,1-1,.32h-1.83a1.3,1.3,0,0,1-1.08-.34c-.36-.36-.5-.87-.5-2.44s.14-2.07.5-2.44a1.32,1.32,0,0,1,1.08-.34h1.82a1.2,1.2,0,0,1,1,.32c.29.29.38.71.37,1.73H289.7c0-.57-.05-.68-.1-.73s-.14-.09-.36-.09h-.86c-.26,0-.33,0-.39.09s-.13.27-.13,1.46.05,1.38.13,1.46.13.1.39.1h.87c.21,0,.3,0,.37-.09s.08-.22.09-.81Z" transform="translate(-9.33 -8.46)"/><path class="cls-3" d="M292.58,15.78c-.35-.36-.49-.87-.49-2.44s.14-2.07.49-2.44a1.35,1.35,0,0,1,1.08-.34h1.86a1.36,1.36,0,0,1,1.08.34c.35.37.49.87.49,2.44s-.14,2.08-.49,2.44a1.33,1.33,0,0,1-1.08.34h-1.86A1.33,1.33,0,0,1,292.58,15.78Zm1.14-1c.06.08.14.1.4.1h.94c.26,0,.34,0,.4-.1s.13-.26.13-1.46,0-1.37-.13-1.46-.14-.09-.4-.09h-.94c-.26,0-.34,0-.4.09s-.13.27-.13,1.46S293.64,14.72,293.72,14.8Z" transform="translate(-9.33 -8.46)"/><path class="cls-3" d="M298.27,16.12V10.56h1.52v.74c.7-.64.92-.75,1.43-.75h.66a1.27,1.27,0,0,1,1,.32c.23.22.32.51.32,1.33v3.92h-1.52V12.38a.64.64,0,0,0-.12-.45c-.09-.09-.18-.12-.45-.12h-.43a1.94,1.94,0,0,0-.86.23v4.08Z" transform="translate(-9.33 -8.46)"/><path class="cls-3" d="M331.13,29h-2.39v1.78h2.79v.81h-3.79v-5.8h3.76v.81h-2.76v1.6h2.39Z" transform="translate(-9.33 -8.46)"/><path class="cls-3" d="M333.29,31.62h-1V25.5h1Z" transform="translate(-9.33 -8.46)"/><path class="cls-3" d="M337,31.2a1.53,1.53,0,0,1-1.22.5,1.36,1.36,0,0,1-1.06-.41,1.75,1.75,0,0,1-.36-1.19V27.31h1v2.78c0,.55.23.82.68.82a1,1,0,0,0,.95-.51V27.31h1v4.31H337Z" transform="translate(-9.33 -8.46)"/><path class="cls-3" d="M340.09,26.26v1h.76V28h-.76v2.41a.5.5,0,0,0,.1.36.46.46,0,0,0,.35.11,1.37,1.37,0,0,0,.34,0v.75a2.53,2.53,0,0,1-.64.09c-.75,0-1.12-.41-1.12-1.23V28h-.71v-.71h.71v-1Z" transform="translate(-9.33 -8.46)"/><path class="cls-3" d="M343.49,31.7a2,2,0,0,1-1.49-.58,2.11,2.11,0,0,1-.57-1.54v-.12a2.7,2.7,0,0,1,.24-1.16,1.88,1.88,0,0,1,.71-.79,1.8,1.8,0,0,1,1-.28,1.7,1.7,0,0,1,1.36.56,2.36,2.36,0,0,1,.48,1.59v.39H342.4a1.31,1.31,0,0,0,.36.85,1.1,1.1,0,0,0,.79.31,1.31,1.31,0,0,0,1.08-.54l.52.5a1.84,1.84,0,0,1-.69.6A2.19,2.19,0,0,1,343.49,31.7Zm-.11-3.7a.84.84,0,0,0-.65.28,1.46,1.46,0,0,0-.31.78h1.84V29a1.15,1.15,0,0,0-.26-.74A.82.82,0,0,0,343.38,28Z" transform="translate(-9.33 -8.46)"/><path class="cls-3" d="M348.39,30.45a.44.44,0,0,0-.22-.4,2.21,2.21,0,0,0-.7-.24,3.13,3.13,0,0,1-.83-.26,1.1,1.1,0,0,1-.72-1,1.13,1.13,0,0,1,.47-.93,1.84,1.84,0,0,1,1.19-.37,1.94,1.94,0,0,1,1.25.38,1.22,1.22,0,0,1,.48,1h-1a.59.59,0,0,0-.21-.46.77.77,0,0,0-.55-.19.86.86,0,0,0-.52.15.48.48,0,0,0-.2.4.38.38,0,0,0,.19.34,2.5,2.5,0,0,0,.76.25,3.28,3.28,0,0,1,.89.3,1.18,1.18,0,0,1,.48.42,1,1,0,0,1,.16.59,1.13,1.13,0,0,1-.48.94,2,2,0,0,1-1.26.36,2.21,2.21,0,0,1-1-.19A1.47,1.47,0,0,1,346,31a1.2,1.2,0,0,1-.24-.72h.94a.7.7,0,0,0,.26.53,1,1,0,0,0,.64.18,1,1,0,0,0,.58-.14A.47.47,0,0,0,348.39,30.45Z" transform="translate(-9.33 -8.46)"/><path class="cls-3" d="M354.12,31.7a2,2,0,0,1-1.5-.58,2.11,2.11,0,0,1-.57-1.54v-.12a2.57,2.57,0,0,1,.25-1.16,1.92,1.92,0,0,1,.7-.79,1.82,1.82,0,0,1,1-.28,1.72,1.72,0,0,1,1.37.56,2.36,2.36,0,0,1,.48,1.59v.39H353a1.35,1.35,0,0,0,.35.85,1.12,1.12,0,0,0,.79.31,1.31,1.31,0,0,0,1.09-.54l.52.5a2,2,0,0,1-.69.6A2.22,2.22,0,0,1,354.12,31.7ZM354,28a.83.83,0,0,0-.64.28,1.47,1.47,0,0,0-.32.78h1.85V29a1.21,1.21,0,0,0-.26-.74A.83.83,0,0,0,354,28Z" transform="translate(-9.33 -8.46)"/><path class="cls-3" d="M358.15,28.73l.82-1.42H360l-1.32,2.12,1.37,2.19H359l-.86-1.47-.86,1.47h-1.08l1.37-2.19-1.32-2.12h1.07Z" transform="translate(-9.33 -8.46)"/><path class="cls-3" d="M362.39,30.93a.88.88,0,0,0,.6-.21.75.75,0,0,0,.26-.53h.91a1.37,1.37,0,0,1-.25.75,1.66,1.66,0,0,1-.64.56,2,2,0,0,1-.87.2,1.83,1.83,0,0,1-1.43-.59,2.33,2.33,0,0,1-.53-1.61v-.1a2.28,2.28,0,0,1,.52-1.58,1.82,1.82,0,0,1,1.44-.59,1.76,1.76,0,0,1,1.25.45,1.54,1.54,0,0,1,.51,1.17h-.91a.94.94,0,0,0-.25-.61.82.82,0,0,0-.61-.24.85.85,0,0,0-.72.35,1.7,1.7,0,0,0-.26,1v.16a1.75,1.75,0,0,0,.25,1A.85.85,0,0,0,362.39,30.93Z" transform="translate(-9.33 -8.46)"/><path class="cls-3" d="M366.79,31.7a2,2,0,0,1-1.49-.58,2.11,2.11,0,0,1-.57-1.54v-.12A2.57,2.57,0,0,1,365,28.3a1.86,1.86,0,0,1,.7-.79,1.82,1.82,0,0,1,1-.28,1.7,1.7,0,0,1,1.36.56,2.36,2.36,0,0,1,.48,1.59v.39H365.7a1.31,1.31,0,0,0,.36.85,1.1,1.1,0,0,0,.79.31,1.31,1.31,0,0,0,1.08-.54l.52.5a1.84,1.84,0,0,1-.69.6A2.19,2.19,0,0,1,366.79,31.7Zm-.11-3.7a.85.85,0,0,0-.65.28,1.55,1.55,0,0,0-.31.78h1.84V29a1.21,1.21,0,0,0-.25-.74A.84.84,0,0,0,366.68,28Z" transform="translate(-9.33 -8.46)"/><path class="cls-3" d="M371.17,31.7a2,2,0,0,1-1.49-.58,2.11,2.11,0,0,1-.57-1.54v-.12a2.57,2.57,0,0,1,.25-1.16,1.86,1.86,0,0,1,.7-.79,1.82,1.82,0,0,1,1-.28,1.7,1.7,0,0,1,1.36.56,2.36,2.36,0,0,1,.48,1.59v.39h-2.82a1.31,1.31,0,0,0,.36.85,1.1,1.1,0,0,0,.79.31,1.31,1.31,0,0,0,1.08-.54l.52.5a1.84,1.84,0,0,1-.69.6A2.19,2.19,0,0,1,371.17,31.7Zm-.11-3.7a.85.85,0,0,0-.65.28,1.55,1.55,0,0,0-.31.78h1.84V29a1.21,1.21,0,0,0-.25-.74A.86.86,0,0,0,371.06,28Z" transform="translate(-9.33 -8.46)"/><path class="cls-3" d="M373.47,29.43a2.62,2.62,0,0,1,.46-1.6,1.5,1.5,0,0,1,1.24-.6,1.4,1.4,0,0,1,1.11.48V25.5h1v6.12h-.88l-.05-.45a1.41,1.41,0,0,1-1.15.53,1.46,1.46,0,0,1-1.23-.61A2.68,2.68,0,0,1,373.47,29.43Zm1,.09a1.77,1.77,0,0,0,.25,1,.82.82,0,0,0,.72.37.91.91,0,0,0,.87-.53V28.54a.89.89,0,0,0-.86-.52.82.82,0,0,0-.72.37A2,2,0,0,0,374.44,29.52Z" transform="translate(-9.33 -8.46)"/><path class="cls-3" d="M380.16,31.7a2,2,0,0,1-1.49-.58,2.11,2.11,0,0,1-.58-1.54v-.12a2.71,2.71,0,0,1,.25-1.16,1.92,1.92,0,0,1,.7-.79,1.85,1.85,0,0,1,1-.28,1.71,1.71,0,0,1,1.36.56,2.36,2.36,0,0,1,.48,1.59v.39h-2.82a1.31,1.31,0,0,0,.36.85,1.1,1.1,0,0,0,.78.31,1.31,1.31,0,0,0,1.09-.54l.52.5a1.84,1.84,0,0,1-.69.6A2.19,2.19,0,0,1,380.16,31.7ZM380,28a.83.83,0,0,0-.64.28,1.46,1.46,0,0,0-.31.78h1.84V29a1.15,1.15,0,0,0-.26-.74A.83.83,0,0,0,380,28Z" transform="translate(-9.33 -8.46)"/><path class="cls-3" d="M382.46,29.43a2.55,2.55,0,0,1,.46-1.6,1.49,1.49,0,0,1,1.24-.6,1.4,1.4,0,0,1,1.11.48V25.5h1v6.12h-.88l-.05-.45a1.43,1.43,0,0,1-1.16.53,1.46,1.46,0,0,1-1.22-.61A2.68,2.68,0,0,1,382.46,29.43Zm1,.09a1.77,1.77,0,0,0,.25,1,.82.82,0,0,0,.72.37.92.92,0,0,0,.87-.53V28.54a.9.9,0,0,0-.86-.52.82.82,0,0,0-.73.37A2,2,0,0,0,383.43,29.52Z" transform="translate(-9.33 -8.46)"/><path class="cls-3" d="M331.42,40.26A.84.84,0,0,0,332,40a.71.71,0,0,0,.26-.52h.91a1.37,1.37,0,0,1-.25.75,1.66,1.66,0,0,1-.64.56,2,2,0,0,1-.87.2,1.83,1.83,0,0,1-1.43-.59,2.34,2.34,0,0,1-.53-1.62v-.09a2.28,2.28,0,0,1,.52-1.58,1.81,1.81,0,0,1,1.44-.59,1.76,1.76,0,0,1,1.25.45,1.54,1.54,0,0,1,.51,1.17h-.91a.94.94,0,0,0-.25-.61.82.82,0,0,0-.61-.24.85.85,0,0,0-.72.35,1.7,1.7,0,0,0-.26,1v.15a1.77,1.77,0,0,0,.25,1A.85.85,0,0,0,331.42,40.26Z" transform="translate(-9.33 -8.46)"/><path class="cls-3" d="M335.43,39.56l.88-2.92h1l-1.71,5a1.4,1.4,0,0,1-1.34,1.09,1.67,1.67,0,0,1-.47-.07v-.75H334a1,1,0,0,0,.56-.14.83.83,0,0,0,.29-.44l.14-.37-1.52-4.29h1Z" transform="translate(-9.33 -8.46)"/><path class="cls-3" d="M339.67,40.26a.84.84,0,0,0,.6-.22.7.7,0,0,0,.25-.52h.92a1.46,1.46,0,0,1-.25.75,1.66,1.66,0,0,1-.64.56,2,2,0,0,1-.87.2,1.87,1.87,0,0,1-1.44-.59,2.34,2.34,0,0,1-.53-1.62v-.09a2.29,2.29,0,0,1,.53-1.58,1.8,1.8,0,0,1,1.43-.59,1.77,1.77,0,0,1,1.26.45,1.61,1.61,0,0,1,.51,1.17h-.92a.89.89,0,0,0-.25-.61.81.81,0,0,0-.6-.24.85.85,0,0,0-.73.35,1.7,1.7,0,0,0-.26,1v.15a1.76,1.76,0,0,0,.26,1A.84.84,0,0,0,339.67,40.26Z" transform="translate(-9.33 -8.46)"/><path class="cls-3" d="M343.2,41h-1V34.83h1Z" transform="translate(-9.33 -8.46)"/><path class="cls-3" d="M346.15,41a2,2,0,0,1-1.49-.58,2.12,2.12,0,0,1-.57-1.55v-.11a2.54,2.54,0,0,1,.25-1.16,1.86,1.86,0,0,1,.7-.79,1.82,1.82,0,0,1,1-.28,1.67,1.67,0,0,1,1.36.56,2.36,2.36,0,0,1,.48,1.59v.39h-2.82a1.26,1.26,0,0,0,.36.84,1.07,1.07,0,0,0,.79.32,1.31,1.31,0,0,0,1.08-.54l.52.5a1.84,1.84,0,0,1-.69.6A2.19,2.19,0,0,1,346.15,41Zm-.11-3.7a.85.85,0,0,0-.65.28,1.55,1.55,0,0,0-.31.78h1.84v-.07a1.19,1.19,0,0,0-.25-.74A.86.86,0,0,0,346,37.33Z" transform="translate(-9.33 -8.46)"/><path class="cls-3" d="M351.88,35.59v1h.76v.71h-.76v2.41a.5.5,0,0,0,.1.36.46.46,0,0,0,.35.11,1.86,1.86,0,0,0,.33,0v.75A2.39,2.39,0,0,1,352,41c-.75,0-1.12-.41-1.12-1.23V37.35h-.71v-.71h.71v-1Z" transform="translate(-9.33 -8.46)"/><path class="cls-3" d="M354.33,37.11a1.52,1.52,0,0,1,1.2-.55c.92,0,1.39.52,1.4,1.57V41h-1V38.17a.83.83,0,0,0-.19-.63.77.77,0,0,0-.57-.19.94.94,0,0,0-.87.52V41h-1V34.83h1Z" transform="translate(-9.33 -8.46)"/><path class="cls-3" d="M360.17,37.52a2.6,2.6,0,0,0-.4,0,.88.88,0,0,0-.89.51v3h-1V36.64h.92l0,.48a1.08,1.08,0,0,1,1-.56,1.06,1.06,0,0,1,.34,0Z" transform="translate(-9.33 -8.46)"/><path class="cls-3" d="M362.68,41a2,2,0,0,1-1.49-.58,2.12,2.12,0,0,1-.57-1.55v-.11a2.67,2.67,0,0,1,.24-1.16,1.92,1.92,0,0,1,.7-.79,1.85,1.85,0,0,1,1-.28,1.67,1.67,0,0,1,1.36.56,2.36,2.36,0,0,1,.48,1.59v.39h-2.82a1.26,1.26,0,0,0,.36.84,1.07,1.07,0,0,0,.79.32,1.31,1.31,0,0,0,1.08-.54l.52.5a1.84,1.84,0,0,1-.69.6A2.19,2.19,0,0,1,362.68,41Zm-.12-3.7a.83.83,0,0,0-.64.28,1.46,1.46,0,0,0-.31.78h1.84v-.07a1.13,1.13,0,0,0-.26-.74A.83.83,0,0,0,362.56,37.33Z" transform="translate(-9.33 -8.46)"/><path class="cls-3" d="M367.58,39.78a.43.43,0,0,0-.22-.4,2.21,2.21,0,0,0-.7-.24,3.54,3.54,0,0,1-.83-.26,1.1,1.1,0,0,1-.72-1,1.13,1.13,0,0,1,.47-.93,1.84,1.84,0,0,1,1.19-.37,1.9,1.9,0,0,1,1.25.38,1.21,1.21,0,0,1,.48,1h-1a.59.59,0,0,0-.21-.46.77.77,0,0,0-.55-.19.86.86,0,0,0-.52.15.47.47,0,0,0-.2.39.39.39,0,0,0,.19.35,2.5,2.5,0,0,0,.76.25,3.28,3.28,0,0,1,.89.3,1.11,1.11,0,0,1,.48.42,1,1,0,0,1,.16.59,1.13,1.13,0,0,1-.48.94,2.06,2.06,0,0,1-1.27.36,2.19,2.19,0,0,1-.94-.19,1.54,1.54,0,0,1-.64-.53,1.2,1.2,0,0,1-.24-.72h.94a.72.72,0,0,0,.26.53,1,1,0,0,0,.64.18,1,1,0,0,0,.58-.14A.47.47,0,0,0,367.58,39.78Z" transform="translate(-9.33 -8.46)"/><path class="cls-3" d="M370.33,37.11a1.49,1.49,0,0,1,1.2-.55c.92,0,1.38.52,1.4,1.57V41h-1V38.17a.88.88,0,0,0-.19-.63.77.77,0,0,0-.57-.19.93.93,0,0,0-.87.52V41h-1V34.83h1Z" transform="translate(-9.33 -8.46)"/><path class="cls-3" d="M373.72,38.75a2.65,2.65,0,0,1,.25-1.14,1.86,1.86,0,0,1,.71-.78,2,2,0,0,1,1-.27,1.85,1.85,0,0,1,1.42.56,2.22,2.22,0,0,1,.59,1.49v.23a2.64,2.64,0,0,1-.24,1.14,1.87,1.87,0,0,1-.7.77,2,2,0,0,1-1.06.28,1.86,1.86,0,0,1-1.46-.61,2.34,2.34,0,0,1-.55-1.62Zm1,.09a1.69,1.69,0,0,0,.28,1,1,1,0,0,0,1.53,0,1.93,1.93,0,0,0,.27-1.12,1.75,1.75,0,0,0-.28-1,.94.94,0,0,0-1.52,0A1.94,1.94,0,0,0,374.69,38.84Z" transform="translate(-9.33 -8.46)"/><path class="cls-3" d="M379.58,41h-1V34.83h1Z" transform="translate(-9.33 -8.46)"/><path class="cls-3" d="M380.45,38.76a2.56,2.56,0,0,1,.47-1.6,1.47,1.47,0,0,1,1.24-.6,1.4,1.4,0,0,1,1.1.48V34.83h1V41h-.87l-.05-.45a1.44,1.44,0,0,1-1.16.53,1.46,1.46,0,0,1-1.23-.61A2.68,2.68,0,0,1,380.45,38.76Zm1,.08a1.78,1.78,0,0,0,.26,1,.79.79,0,0,0,.72.37.91.91,0,0,0,.86-.53V37.87a.88.88,0,0,0-.86-.52.82.82,0,0,0-.72.37A2,2,0,0,0,381.42,38.84Z" transform="translate(-9.33 -8.46)"/><line class="cls-11" x1="311.8" y1="19.7" x2="298.41" y2="19.7"/><line class="cls-12" x1="297.25" y1="21.48" x2="297.25" y2="58.75"/><path class="cls-13" d="M306.58,67.81v.59m.58-40.24h-.58v.59m16.3-.59h-.59" transform="translate(-9.33 -8.46)"/><polygon class="cls-14" points="297.25 63.65 301.37 59.22 293.13 59.22 297.25 63.65"/><line class="cls-15" x1="318.05" y1="39.79" x2="318.05" y2="70.65"/><polygon class="cls-14" points="318.05 74.36 313.93 69.93 322.16 69.93 318.05 74.36"/><line class="cls-16" x1="359.93" y1="39.79" x2="359.93" y2="61.18"/><polygon class="cls-14" points="359.93 64.89 355.81 60.47 364.05 60.47 359.93 64.89"/></svg>