<svg id="Layer_1" data-name="Layer 1" xmlns="http://www.w3.org/2000/svg" viewBox="0 0 353.77 197.54"><defs><style>.cls-1{fill:#fff;}.cls-2,.cls-20,.cls-21,.cls-22,.cls-28,.cls-33,.cls-34,.cls-35,.cls-37,.cls-38{fill:none;stroke-width:0.25px;}.cls-2{stroke:#a2a9ad;}.cls-3{font-size:6.5px;}.cls-10,.cls-11,.cls-14,.cls-15,.cls-17,.cls-18,.cls-23,.cls-27,.cls-29,.cls-3{fill:#231f20;}.cls-11,.cls-14,.cls-15,.cls-29,.cls-3{font-family:Forza-Bold, Forza;font-weight:700;}.cls-4{letter-spacing:0.04em;}.cls-5{letter-spacing:0.02em;}.cls-6{letter-spacing:0.02em;}.cls-7{letter-spacing:0.02em;}.cls-8{fill:#d2232a;}.cls-9{fill:#3d7cc9;}.cls-11,.cls-19,.cls-23{font-size:7px;}.cls-12{letter-spacing:-0.06em;}.cls-13{letter-spacing:0em;}.cls-14,.cls-17{font-size:9px;}.cls-15,.cls-18{font-size:5.25px;}.cls-16{letter-spacing:-0.01em;}.cls-17,.cls-18{font-family:Forza-Book, Forza;}.cls-19{fill:#54565a;font-family:Roboto-Light, Roboto;font-weight:300;}.cls-20,.cls-21,.cls-22,.cls-28{stroke:#3d7cc9;}.cls-20{stroke-dasharray:1.08 1.08;}.cls-21{stroke-dasharray:0.98 0.98;}.cls-23,.cls-27{font-family:Roboto-Medium, Roboto;font-weight:500;}.cls-24{letter-spacing:-0.01em;}.cls-25{letter-spacing:-0.02em;}.cls-26{letter-spacing:-0.01em;}.cls-27{font-size:4.08px;}.cls-28{stroke-dasharray:1.06 1.06;}.cls-29{font-size:8.5px;}.cls-30{letter-spacing:0em;}.cls-31{letter-spacing:0em;}.cls-32{letter-spacing:-0.01em;}.cls-33,.cls-34,.cls-35,.cls-37,.cls-38{stroke:#be1e2d;}.cls-33{stroke-dasharray:1 1;}.cls-34{stroke-dasharray:1.01 1.01;}.cls-36{fill:#be1e2d;}.cls-37{stroke-dasharray:0.98 0.98;}.cls-38{stroke-dasharray:0.96 0.96;}</style></defs><title>fig-qpcr-data-purigen</title><rect class="cls-1" x="255.96" y="72.89" width="4.33" height="107.28"/><rect class="cls-1" x="273.6" y="72.89" width="4.33" height="107.28"/><rect class="cls-1" x="308.87" y="72.89" width="4.33" height="107.28"/><line class="cls-2" x1="39.85" y1="33.29" x2="353.77" y2="34.73"/><line class="cls-2" x1="39.85" y1="79.71" x2="353.77" y2="81.15"/><line class="cls-2" x1="39.85" y1="126.13" x2="353.77" y2="127.57"/><line class="cls-2" x1="39.85" y1="172.55" x2="353.77" y2="173.99"/><text class="cls-3" transform="translate(25.26 35.12) scale(1 1.02)"><tspan class="cls-4">4</tspan><tspan x="4.68" y="0">0</tspan></text><text class="cls-3" transform="translate(25.51 81.33) scale(1 1.02)"><tspan class="cls-5">3</tspan><tspan x="4.61" y="0">5</tspan></text><text class="cls-3" transform="translate(25.33 127.53) scale(1 1.02)"><tspan class="cls-6">3</tspan><tspan x="4.6" y="0">0</tspan></text><text class="cls-3" transform="translate(25.59 173.74) scale(1 1.02)"><tspan class="cls-7">2</tspan><tspan x="4.53" y="0">5</tspan></text><rect class="cls-8" x="44.33" y="126.75" width="4.33" height="53.42"/><rect class="cls-9" x="49.64" y="130.92" width="4.33" height="49.25"/><rect class="cls-8" x="61.97" y="126.75" width="4.33" height="53.42"/><rect class="cls-9" x="67.27" y="130.92" width="4.33" height="49.25"/><rect class="cls-8" x="79.61" y="125.75" width="4.33" height="54.42"/><rect class="cls-9" x="84.91" y="132.79" width="4.33" height="47.38"/><rect class="cls-8" x="97.24" y="118.11" width="4.33" height="62.06"/><rect class="cls-9" x="102.54" y="129.77" width="4.33" height="50.4"/><rect class="cls-8" x="114.88" y="115.51" width="4.33" height="64.66"/><rect class="cls-9" x="120.18" y="134.38" width="4.33" height="45.79"/><rect class="cls-8" x="132.51" y="113.35" width="4.33" height="66.82"/><rect class="cls-9" x="137.81" y="129.05" width="4.33" height="51.12"/><rect class="cls-8" x="150.15" y="72.89" width="4.33" height="107.28"/><rect class="cls-9" x="155.45" y="100.54" width="4.33" height="79.63"/><rect class="cls-8" x="167.78" y="77.5" width="4.33" height="102.67"/><rect class="cls-9" x="173.09" y="105.87" width="4.33" height="74.3"/><rect class="cls-8" x="185.42" y="72.89" width="4.33" height="107.28"/><rect class="cls-9" x="190.72" y="105" width="4.33" height="75.17"/><rect class="cls-8" x="203.05" y="79.95" width="4.33" height="100.22"/><rect class="cls-9" x="208.36" y="104.43" width="4.33" height="75.74"/><rect class="cls-8" x="220.69" y="76.2" width="4.33" height="103.97"/><rect class="cls-9" x="225.99" y="104.43" width="4.33" height="75.74"/><rect class="cls-8" x="238.33" y="79.23" width="4.33" height="100.94"/><rect class="cls-9" x="243.63" y="99.96" width="4.33" height="80.21"/><rect class="cls-9" x="261.26" y="55.38" width="4.33" height="124.79"/><rect class="cls-9" x="278.9" y="64.68" width="4.33" height="115.49"/><rect class="cls-8" x="291.23" y="40.06" width="4.33" height="140.11"/><rect class="cls-9" x="296.53" y="61.08" width="4.33" height="119.09"/><rect class="cls-9" x="314.17" y="54.46" width="4.33" height="125.71"/><rect class="cls-8" x="326.5" y="38.19" width="4.33" height="141.98"/><rect class="cls-9" x="331.81" y="67.99" width="4.33" height="112.18"/><rect class="cls-8" x="344.14" y="45.39" width="4.33" height="134.78"/><rect class="cls-9" x="349.44" y="62.38" width="4.33" height="117.79"/><rect class="cls-10" x="44.33" y="180.41" width="97.81" height="2.16"/><rect class="cls-10" x="150.15" y="180.41" width="97.81" height="2.16"/><rect class="cls-10" x="255.96" y="180.41" width="97.81" height="2.16"/><text class="cls-11" transform="translate(70.71 195.09) scale(1 1.02)">56,000 Cells</text><text class="cls-11" transform="translate(178.5 195.09) scale(1 1.02)">11,200 Cells</text><text class="cls-11" transform="translate(287.01 195.09) scale(1 1.02)">1<tspan class="cls-12" x="2.94" y="0">,</tspan><tspan class="cls-13" x="4.37" y="0">120 Cells</tspan></text><text class="cls-14" transform="translate(7.65 135.26) rotate(-90)">C</text><text class="cls-15" transform="translate(10.65 129.04) rotate(-90)">T</text><text class="cls-14" transform="translate(7.65 125.75) rotate(-90)"> <tspan class="cls-16" x="2.18" y="0">V</tspan><tspan x="8.34" y="0">alues</tspan></text><text class="cls-17" transform="translate(7.65 93.14) rotate(-90)"><tspan xml:space="preserve"> (log</tspan></text><text class="cls-18" transform="translate(10.65 74.77) rotate(-90)">2</text><text class="cls-17" transform="translate(7.65 71.4) rotate(-90)">)</text><text class="cls-19" transform="translate(17.65 124.25) rotate(-90)">Lower is better</text><rect class="cls-8" x="41.7" y="53.39" width="7.08" height="7.2"/><rect class="cls-9" x="41.7" y="41.63" width="7.08" height="7.2"/><text class="cls-3" transform="translate(52.83 47.69) scale(1 1.02)">PURIGEN</text><text class="cls-3" transform="translate(52.83 59.31) scale(1 1.02)">Automated Column-based Kit</text><line class="cls-20" x1="148.12" y1="73.09" x2="140.01" y2="73.09"/><line class="cls-21" x1="138.93" y1="74.57" x2="138.93" y2="99.65"/><line class="cls-20" x1="140.55" y1="100.64" x2="148.66" y2="100.64"/><path class="cls-22" d="M154.29,106.4h.54M144,105.9v.5h.54m0-27.55H144v.5m10.81-.5h-.54" transform="translate(-5.09 -5.76)"/><text class="cls-23" transform="translate(86.07 89.1)">Ad<tspan class="cls-24" x="8.61" y="0">v</tspan><tspan x="12.02" y="0">antage of </tspan></text><text class="cls-23" transform="translate(60.91 97.11)">app<tspan class="cls-25" x="11.67" y="0">r</tspan><tspan class="cls-26" x="14.01" y="0">o</tspan><tspan x="17.93" y="0">ximately ~3 C</tspan></text><text class="cls-27" transform="translate(121.88 99.44)">T</text><text class="cls-23" transform="translate(124.21 97.1)">s</text><line class="cls-28" x1="131.36" y1="86.87" x2="138.8" y2="86.87"/><text class="cls-29" transform="translate(116.64 7.37) scale(1 1.02)">qPCR Data <tspan class="cls-30" x="47.21" y="0">f</tspan><tspan class="cls-31" x="50.58" y="0">or ~280 bp Amplicon</tspan></text><text class="cls-23" transform="translate(273.57 20.66)">Elutes e<tspan class="cls-32" x="24.83" y="0">x</tspan><tspan x="28.28" y="0">ceeded </tspan></text><text class="cls-23" transform="translate(275.29 28.66)">cycle threshold</text><line class="cls-33" x1="268.41" y1="17.69" x2="256.93" y2="17.69"/><line class="cls-34" x1="255.93" y1="19.22" x2="255.93" y2="51.19"/><path class="cls-35" d="M261,57.45V58m.5-34.51H261V24m14-.51h-.5" transform="translate(-5.09 -5.76)"/><polygon class="cls-36" points="255.93 55.38 259.46 51.59 252.4 51.59 255.93 55.38"/><line class="cls-37" x1="273.77" y1="34.92" x2="273.77" y2="61.39"/><polygon class="cls-36" points="273.76 64.57 270.24 60.77 277.3 60.77 273.76 64.57"/><line class="cls-38" x1="309.68" y1="34.92" x2="309.68" y2="53.27"/><polygon class="cls-36" points="309.69 56.45 306.15 52.66 313.21 52.66 309.69 56.45"/></svg>